<svg xmlns="http://www.w3.org/2000/svg" viewBox="0 0 63.64 68.26"><defs><style>.cls-1{fill:#333;}</style></defs><title>Automática</title><g id="Layer_2" data-name="Layer 2"><g id="Contenido"><path class="cls-1" d="M63.36,18.42a.91.91,0,0,0-.59-.72A95.86,95.86,0,0,1,32.44.24a.92.92,0,0,0-1.24,0A95.93,95.93,0,0,1,.87,17.7a.89.89,0,0,0-.59.72A46.41,46.41,0,0,0,2.2,37.54c3,9.59,10.45,22.69,29.26,30.65a1.15,1.15,0,0,0,.36.07,1,1,0,0,0,.35-.07c18.81-8,26.3-21.06,29.26-30.65A46.72,46.72,0,0,0,63.36,18.42ZM59.7,37c-2.83,9.16-10,21.66-27.88,29.36C17.46,60.2,8.09,50.34,4,37.08A47,47,0,0,1,2,19.22,99.77,99.77,0,0,0,31.82,2.12a99.81,99.81,0,0,0,29.81,17.1A46.53,46.53,0,0,1,59.7,37Z"/><path class="cls-1" d="M55.6,21.34A73.54,73.54,0,0,1,32.43,8,.91.91,0,0,0,31.2,8,73.39,73.39,0,0,1,8,21.34a.91.91,0,0,0-.59.72c0,.26-3.73,26.61,24,38.36a1.15,1.15,0,0,0,.36.07,1,1,0,0,0,.35-.07c27.76-11.75,24.06-38.1,24-38.36A.89.89,0,0,0,55.6,21.34ZM31.82,58.6V35.75H10.51A36,36,0,0,1,9.17,22.86a75.56,75.56,0,0,0,22.65-13V35.75H53.13c-.06.2-.11.39-.18.59C49.82,46.41,42.71,53.89,31.82,58.6Z"/></g></g></svg>