<svg xmlns="http://www.w3.org/2000/svg" viewBox="0 0 86.04 67.77"><defs><style>.cls-1{fill:#333;}</style></defs><title>Compacta</title><g id="Layer_2" data-name="Layer 2"><g id="Contenido"><path class="cls-1" d="M55.93,25.28l1-2.29s5.25-2,5.25-2.3V16.58c0-.28-5.25-2.15-5.25-2.15l-1-2.29s2.25-5.07,2-5.27L55,4c-.21-.2-5.28,2.11-5.28,2.11l-2.34-.94S45.32,0,45,0h-4.2c-.29,0-2.2,5.15-2.2,5.15l-2.33.94s-5.18-2.19-5.38-2L28,7c-.2.2,2.16,5.17,2.16,5.17l-1,2.29s-5.24,2-5.24,2.29v4.11c0,.29,5.26,2.17,5.26,2.17l1,2.28s-2.24,5.07-2.05,5.26l3,2.91c.21.2,5.28-2.11,5.28-2.11l2.34.94s2.06,5.14,2.35,5.14h4.2c.29,0,2.2-5.15,2.2-5.15l2.34-.95s5.17,2.2,5.37,2l3-2.91C58.3,30.25,55.93,25.28,55.93,25.28ZM43,24.73a6,6,0,1,1,6.13-6A6.08,6.08,0,0,1,43,24.73Z"/><path class="cls-1" d="M78.91,15.91a2.16,2.16,0,0,0-2.13-.48c-4.16,1.45-5.75,9.06-3.86,18a6.1,6.1,0,0,0-3.11,1.28C64.67,38.4,60.69,48.19,60.31,55l-1.78-.62a.89.89,0,0,0-1.13.55L55.6,60a.89.89,0,0,0,0,.68.87.87,0,0,0,.51.45L75,67.72a.71.71,0,0,0,.29,0,.89.89,0,0,0,.84-.59L77.88,62a.87.87,0,0,0,0-.67.92.92,0,0,0-.51-.46L76,60.46C78,57.61,85.34,46.24,86,40.67,86.59,35.32,82.71,19,78.91,15.91ZM74.7,65.75l-17.13-6,1.21-3.46,17.13,6Zm9.51-25.28c-.61,5.39-8.64,17.51-9.9,19.38L62.06,55.57c.18-7.64,4.76-16.54,8.8-19.47a3.66,3.66,0,0,1,2.89-.88l.08,0a1.12,1.12,0,0,1,.82.77c.67,2.14-2.65,7.46-4.89,10.3a.88.88,0,0,0,.15,1.25.87.87,0,0,0,1.24-.15c.66-.82,6.35-8.2,5.2-11.92a2.8,2.8,0,0,0-1.53-1.75c-2.1-9-.35-15.62,2.55-16.63.12-.05.36.13.43.19C80.44,19.41,84.91,34.31,84.21,40.47Z"/><path class="cls-1" d="M28.64,54.88a.84.84,0,0,0-.45-.51.89.89,0,0,0-.68,0L25.74,55c-.39-6.76-4.37-16.55-9.51-20.29a6.1,6.1,0,0,0-3.11-1.28c1.89-8.89.31-16.5-3.86-18a2.16,2.16,0,0,0-2.13.48C3.33,19-.55,35.32.06,40.67c.64,5.57,8,16.94,9.94,19.79l-1.3.45a.92.92,0,0,0-.51.46.87.87,0,0,0,0,.67L10,67.18a.89.89,0,0,0,.84.59.71.71,0,0,0,.29,0L29.9,61.14A.89.89,0,0,0,30.44,60ZM1.83,40.47C1.13,34.31,5.6,19.41,8.24,17.3c.07-.06.31-.24.44-.19,2.89,1,4.64,7.63,2.54,16.63a2.8,2.8,0,0,0-1.53,1.75c-1.15,3.72,4.54,11.1,5.2,11.92a.87.87,0,0,0,1.24.15.88.88,0,0,0,.15-1.25C14,43.47,10.72,38.15,11.39,36a1.12,1.12,0,0,1,.82-.77l.08,0a3.69,3.69,0,0,1,2.9.88C19.22,39,23.8,47.93,24,55.57L11.73,59.85C10.47,58,2.44,45.86,1.83,40.47Zm9.51,25.28L10.13,62.3l17.13-6,1.21,3.46Z"/></g></g></svg>