<svg xmlns="http://www.w3.org/2000/svg" viewBox="0 0 69.35 68.26"><defs><style>.cls-1{fill:#333;}</style></defs><title>Diseñada</title><g id="Layer_2" data-name="Layer 2"><g id="Contenido"><path class="cls-1" d="M45.31,32c7.18-2.78,7.18-3.08,7.18-3.61V22.85c0-.53,0-.85-7.19-3.42l-1.07-2.52C47.3,10,47.08,9.74,46.71,9.38l-4-3.88c-.37-.36-.6-.59-7.54,2.57L32.6,7c-2.84-7-3.15-7-3.66-7H23.18c-.46,0-.95.65-3.33,7l-2.59,1C10.18,5.1,10,5.31,9.6,5.66l-4,3.89c-.38.37-.62.59,2.61,7.41L7.18,19.48l-2.37.93C0,22.33,0,22.61,0,23.07v5.5c0,.53,0,.85,7.2,3.43l1.06,2.51C5.2,41.45,5.41,41.66,5.79,42l4,3.9c.37.36.59.58,7.54-2.58l2.6,1c2.83,7,3.14,7,3.66,7h5.61c.53,0,.85,0,3.48-7.05l2.59-1c7.07,3,7.29,2.79,7.66,2.44l4-3.89c.39-.37.62-.6-2.62-7.41ZM41.07,44.21l-.82-.31L45,39.26l.33.79Zm-2.2-.85-.8-.32L44,37.16l.36.77Zm-2.16-.88-.79-.34,7.13-7,.36.77Zm-5.83,2.74L26,50.07H24.84l6.72-6.64-.07.2C31.29,44.15,31.09,44.69,30.88,45.22Zm-1.25,3.13c-.33.79-.61,1.41-.78,1.72h-1Zm5.45-23.49,7.79-7.71.34.8-8.1,8c0-.08,0-.16,0-.24A7.94,7.94,0,0,0,35.08,24.86Zm-.32-1.59a8.15,8.15,0,0,0-.29-.83L44.72,12.31l-.79,1.9ZM23,33.79a8.45,8.45,0,0,0,.85.28l-9,8.91-2,.86Zm2.47.58c.27,0,.53,0,.8,0l.32,0-8.08,8-.8-.32Zm.8-1.31a7.69,7.69,0,0,1-3.42-.81l-.21-.11a5.24,5.24,0,0,1-.51-.3l-.23-.16-.28-.2-.25-.2-.21-.19a6.63,6.63,0,0,1-.53-.53l-.07-.08a3,3,0,0,1-.27-.33,1.47,1.47,0,0,1-.1-.13,3.27,3.27,0,0,1-.25-.36l0,0a6.41,6.41,0,0,1-.45-.81.2.2,0,0,1,0-.08c-.06-.12-.12-.25-.17-.38s-.05-.13-.07-.19-.09-.25-.13-.37-.09-.35-.13-.53a2.21,2.21,0,0,1,0-.25c0-.14-.05-.28-.07-.42a1.79,1.79,0,0,1,0-.23c0-.21,0-.43,0-.65a7.45,7.45,0,0,1,7.53-7.35,7.77,7.77,0,0,1,1,.07l.2,0a7,7,0,0,1,.91.2h0a7.76,7.76,0,0,1,1.89.83h0a8,8,0,0,1,1.53,1.25l.12.12a7.21,7.21,0,0,1,.59.75l0,0a5.84,5.84,0,0,1,.45.76,7.1,7.1,0,0,1,.81,3.3A7.44,7.44,0,0,1,26.25,33.06Zm8.49-4.85,9-8.92.33.79L33.79,30.28A8.63,8.63,0,0,0,34.74,28.21Zm10.51-7.36.83.3L21.7,45.24l-.33-.8Zm2.22.82.82.31L22.6,47.37l-.34-.79Zm2.19.85.8.34L23.55,49.45c-.11-.22-.23-.48-.36-.76Zm1.48,1.56V25.2l-5,5-1.54.6-.26.1-.78,1.85L33.6,42.53l-1.92.78Zm0,3V28c-.31.18-1,.47-1.76.82ZM19.85,42.93l9-8.91a8.67,8.67,0,0,0,2.1-1L20.66,43.25Z"/><path class="cls-1" d="M58.15,62.13a1,1,0,0,0,.38-.07L62,60.7l3.44-1.37A1,1,0,0,0,66,58c-3-7.59.82-11.56,1-11.73a1,1,0,0,0,.3-.78,1,1,0,0,0-.4-.74L52.09,33.44h0l-.2-.11,0,0-.17,0h-.32a1,1,0,0,0-.23.06,1,1,0,0,0-.21.11l0,0a.8.8,0,0,0-.13.13l0,0a.78.78,0,0,0-.11.18,0,0,0,0,0,0,0,.88.88,0,0,0-.07.23v0l-3,18.36a1,1,0,0,0,.22.81,1,1,0,0,0,.75.37c.23,0,5.74.28,8.75,7.86A1,1,0,0,0,58.15,62.13Zm-8.5-10.37L51.88,38,53.5,42.1a2.75,2.75,0,0,0-.72,1,2.9,2.9,0,0,0,1.51,3.8,2.88,2.88,0,0,0,1.14.24,3,3,0,0,0,1.07-.2,2.91,2.91,0,0,0,1.63-3.76h0a2.91,2.91,0,0,0-2.75-1.82l-1.61-4.07,11,8.47c-1.19,1.7-3.21,5.8-1.06,12.07l-5,2C56,53.78,51.69,52.18,49.65,51.76Zm5.78-8.39A.87.87,0,1,1,55.09,45a.9.9,0,0,1-.46-.48.82.82,0,0,1,0-.67.85.85,0,0,1,.47-.46A1,1,0,0,1,55.43,43.37Z"/><path class="cls-1" d="M69.28,63.32l-1.21-3.07a1,1,0,0,0-1.32-.56l-9,3.55a1,1,0,0,0-.57,1.32l1.21,3.06a1,1,0,0,0,.54.55,1,1,0,0,0,.4.09,1.22,1.22,0,0,0,.38-.07l9-3.56A1,1,0,0,0,69.28,63.32Z"/></g></g></svg>