<svg xmlns="http://www.w3.org/2000/svg" viewBox="0 0 67.77 67.77"><defs><style>.cls-1{fill:#333;}</style></defs><title>Versatil</title><g id="Layer_2" data-name="Layer 2"><g id="Contenido"><path class="cls-1" d="M30.58,5.14A.83.83,0,0,0,31.73,5l1.34-1.75V9.6a.82.82,0,1,0,1.63,0V3.23L36,5a.81.81,0,0,0,.65.32.85.85,0,0,0,.5-.16A.83.83,0,0,0,37.34,4L34.54.32l0,0a.47.47,0,0,0-.1-.1h0a.79.79,0,0,0-1,0h0l-.1.1s0,0,0,0L30.43,4A.83.83,0,0,0,30.58,5.14Z"/><path class="cls-1" d="M37.19,62.64a.82.82,0,0,0-1.15.15L34.7,64.54V58.17a.81.81,0,0,0-.81-.82.82.82,0,0,0-.82.82v6.37l-1.34-1.75a.8.8,0,0,0-1.14-.15.81.81,0,0,0-.16,1.14l2.81,3.67,0,0a.3.3,0,0,0,.08.08s0,0,0,0l.1.06,0,0,.12,0h.05l.18,0,.17,0h0l.12,0a.09.09,0,0,0,.05,0,.21.21,0,0,0,.1-.06l0,0a.6.6,0,0,0,.08-.08l0,0,2.8-3.67A.8.8,0,0,0,37.19,62.64Z"/><path class="cls-1" d="M9.69,10.53v.08l.61,4.58a.83.83,0,0,0,.81.71h.11a.81.81,0,0,0,.7-.92l-.29-2.18,4.51,4.5a.82.82,0,0,0,.58.24.78.78,0,0,0,.57-.24.81.81,0,0,0,0-1.15l-4.5-4.51,2.18.29a.82.82,0,0,0,.22-1.62l-4.58-.61h-.13a.86.86,0,0,0-.27.05l0,0a.69.69,0,0,0-.41.41.05.05,0,0,1,0,0,.86.86,0,0,0-.05.27Z"/><path class="cls-1" d="M58.08,57.24v-.08l-.61-4.58a.82.82,0,1,0-1.62.22L56.14,55l-4.51-4.5a.81.81,0,0,0-1.15,1.15L55,56.14l-2.18-.29a.82.82,0,1,0-.22,1.62l4.58.61h.11a1.07,1.07,0,0,0,.3-.06h0a1,1,0,0,0,.27-.17A1,1,0,0,0,58,57.6s0,0,0,0a.86.86,0,0,0,0-.27Z"/><path class="cls-1" d="M10.42,33.89a.81.81,0,0,0-.81-.82H3.23L5,31.73a.83.83,0,0,0,.16-1.15A.83.83,0,0,0,4,30.43L.32,33.24l0,0-.08.08,0,0-.06.1,0,0a.56.56,0,0,0,0,.12s0,0,0,.05a1,1,0,0,0,0,.18.88.88,0,0,0,0,.17s0,0,0,0a.56.56,0,0,0,0,.12l0,.05.06.1,0,0,.08.08,0,0L4,37.34a.84.84,0,0,0,.5.17A.82.82,0,0,0,5,36L3.23,34.7H9.61A.81.81,0,0,0,10.42,33.89Z"/><path class="cls-1" d="M67.6,34.38a.27.27,0,0,0,.06-.1s0,0,0-.05l0-.12s0,0,0,0a1,1,0,0,0,0-.18.88.88,0,0,0,0-.17s0,0,0-.05l0-.12s0,0,0,0a.27.27,0,0,0-.06-.1l0,0a.6.6,0,0,0-.08-.08l0,0-3.67-2.8a.82.82,0,0,0-1,1.3l1.75,1.34H58.17a.82.82,0,1,0,0,1.63h6.37L62.79,36a.82.82,0,0,0,.5,1.47.83.83,0,0,0,.49-.17l3.67-2.81,0,0,.08-.08Z"/><path class="cls-1" d="M46.57,38s4.76-1.83,4.76-2.09l0-3.83c0-.26-4.81-2.05-4.81-2.05l-.91-2.14s2-4.69,1.81-4.87l-2.73-2.74c-.19-.19-4.79,1.92-4.79,1.92l-2.14-.91s-1.93-4.79-2.18-4.8l-3.83,0c-.27,0-2,4.77-2,4.77l-2.12.86S22.9,20,22.72,20.16L20,22.83c-.18.19,2,4.82,2,4.82l-.86,2.13s-4.76,1.83-4.76,2.09l0,3.82c0,.27,4.81,2.06,4.81,2.06l.91,2.14s-2,4.69-1.81,4.88l2.73,2.73c.19.19,4.79-1.92,4.79-1.92l2.13.9s1.94,4.81,2.2,4.81l3.82,0c.27,0,2-4.77,2-4.77l2.12-.86s4.73,2.1,4.91,1.92l2.68-2.68c.19-.19-2-4.83-2-4.83Zm-8.69-.11a5.65,5.65,0,1,1-.09-7.9A5.6,5.6,0,0,1,37.88,37.88Z"/><path class="cls-1" d="M16.14,50.48,11.63,55l.29-2.18a.82.82,0,1,0-1.62-.22l-.61,4.58v.13a.86.86,0,0,0,.05.27l0,0a.82.82,0,0,0,.16.25,1,1,0,0,0,.27.17h0a.8.8,0,0,0,.3.06h.11l4.58-.61A.82.82,0,1,0,15,55.85l-2.18.29,4.5-4.51a.81.81,0,0,0-1.15-1.15Z"/><path class="cls-1" d="M51.05,17.53a.82.82,0,0,0,.58-.24l4.51-4.5L55.85,15a.81.81,0,0,0,.7.92h.11a.83.83,0,0,0,.81-.71l.61-4.58v-.13a.86.86,0,0,0,0-.27s0,0,0,0a.69.69,0,0,0-.41-.41l0,0a.86.86,0,0,0-.27-.05h-.13l-4.58.61a.82.82,0,0,0,.22,1.62L55,11.63l-4.5,4.51a.81.81,0,0,0,0,1.15A.8.8,0,0,0,51.05,17.53Z"/></g></g></svg>