<svg xmlns="http://www.w3.org/2000/svg" viewBox="0 0 177.05 46.12"><defs><style>.cls-1{fill:#fff;}.cls-2{fill:#ab101a;}</style></defs><title>Botón Enviar</title><g id="Layer_2" data-name="Layer 2"><g id="Contenido"><rect class="cls-1" width="177.05" height="46.12" rx="23.06"/><path class="cls-2" d="M62.57,29.28h-9V15.48h9v2.18H56.38v3.25h5v2.18h-5v4h6.19Z"/><path class="cls-2" d="M76.65,29.28h-2l-7.22-9.11v9.11H65V15.48h2l7.22,9.1v-9.1h2.51Z"/><path class="cls-2" d="M92,15.48l-5.87,13.8H84l-5.86-13.8H81l4.11,9.93,4.07-9.93Z"/><path class="cls-2" d="M96.29,29.28H93.48V15.48h2.81Z"/><path class="cls-2" d="M111.67,29.28h-2.8l-1.38-3.41h-5.64l-1.38,3.41H97.76l5.86-13.8h2.19Zm-5-5.36-2-5-2,5Z"/><path class="cls-2" d="M120.51,23.48l4.09,5.8h-3.08l-3.83-5.5H116v5.5h-2.8V15.48h5.43a4.69,4.69,0,0,1,3.49,1.18,4.09,4.09,0,0,1,1.18,3,4.15,4.15,0,0,1-.73,2.45A3.57,3.57,0,0,1,120.51,23.48Zm-4.54-6V21.8h2.17c1.58,0,2.37-.71,2.37-2.14s-.79-2.18-2.37-2.18Z"/></g></g></svg>