<svg xmlns="http://www.w3.org/2000/svg" viewBox="0 0 146.26 288.58"><defs><style>.cls-1{fill:none;}.cls-2{fill:#885525;}.cls-3{fill:#723e14;}.cls-4{fill:#4f2c12;}.cls-5{fill:#4b2c15;}.cls-6{fill:#485b80;}.cls-7{fill:#633d1a;}.cls-8{fill:#946237;}.cls-9{fill:#7896cd;}.cls-10{fill:#2f3c56;}.cls-11{fill:#182134;}.cls-12{fill:#172033;}.cls-13{fill:#915f36;}.cls-14{fill:#7e4f25;}.cls-15{fill:#805233;}.cls-16{fill:#f3e5d6;}.cls-17{fill:#e9d8c8;}.cls-18{fill:#d8c8b1;}.cls-19{fill:#e7d6c3;}.cls-20{fill:#c8b39b;}.cls-21{fill:#634e42;}.cls-22{fill:#b99b7f;}.cls-23{fill:#805435;}.cls-24{fill:#f5decb;}.cls-25{fill:#7e4f24;}.cls-26{fill:#d9c9b2;}.cls-27{fill:#c9b39b;}.cls-28{fill:#f4f4f4;}.cls-29{fill:#ebebeb;}.cls-30{fill:#f5f4f4;}.cls-31{fill:#dedede;}.cls-32{fill:#fff;}.cls-33{fill:#d5c1ad;}.cls-34{fill:#b3b3b3;}.cls-35{fill:#ccc;}.cls-36{fill:#999;}.cls-37{fill:#1c4374;}.cls-38{fill:#e10613;}</style></defs><title>Mascota</title><g id="Layer_2" data-name="Layer 2"><g id="Contenido"><path class="cls-1" d="M124.86,251.27a17.8,17.8,0,0,0-3.53,3.62A17.8,17.8,0,0,1,124.86,251.27Z"/><polygon class="cls-1" points="125.11 246.33 125.11 246.34 125.09 246.5 124.98 246.63 124.98 246.63 125.09 246.51 125.11 246.33"/><path class="cls-1" d="M128.62,247.83h0l.42-.16.56-.19h0l-.56.19Z"/><path class="cls-1" d="M125.11,249.58c.27-.18.56-.33.84-.49-.28.16-.57.31-.84.48Z"/><path class="cls-1" d="M135.36,244.9v0h0l0,0Z"/><path class="cls-1" d="M126.84,248.62c.24-.12.49-.25.74-.36l.43-.18h0l-.44.18Z"/><path class="cls-1" d="M133.88,240.37c.05.1.09.2.14.29l0,.06a.36.36,0,0,1,0,.09h0a.36.36,0,0,0,0-.09l0-.06c-.05-.09-.09-.19-.14-.29Z"/><path class="cls-1" d="M129.39,248.55l.11,0h0l-.11,0c-.46.2-.92.42-1.36.65s-1,.56-1.48.86c.48-.3,1-.59,1.48-.86S128.92,248.75,129.39,248.55Z"/><path class="cls-1" d="M135.7,245.6l.05.22.06.27h0c0-.09,0-.19-.07-.28l-.05-.22Z"/><path class="cls-1" d="M129.74,248.41h0l.15-.07Z"/><path class="cls-1" d="M125.68,242.83a1,1,0,0,0,0,.17c0,.23-.06.46-.1.69,0-.23.08-.46.1-.69A1,1,0,0,1,125.68,242.83Z"/><path class="cls-1" d="M124.49,248a11.91,11.91,0,0,0,.39-1.14A11.79,11.79,0,0,0,124.49,248Z"/><path class="cls-2" d="M125.68,242.83a1,1,0,0,0,0,.17c0,.23-.06.46-.1.69s-.07.48-.12.72l.29-.43a.64.64,0,0,1,.61-1,.64.64,0,0,1,0,1.27,10.11,10.11,0,0,0-.58.87l.58.52a8.38,8.38,0,0,1,.73-.73.45.45,0,0,1,0-.23.64.64,0,1,1,.53.74l-.11,0a8.47,8.47,0,0,0-.67.67c.25.22.51.45.76.69a3.6,3.6,0,0,0,.64-.17s0,0,0-.05a.65.65,0,1,1,.54.74.66.66,0,0,1-.27-.12,3.3,3.3,0,0,1-.37.13c.17.18.35.37.52.58l.42-.16.56-.19a6.34,6.34,0,0,1,2.77-2.16,2.57,2.57,0,0,0-.18-.33c-.31-.46-.76-.79-1-1.26-.47-.79-.39-1.88-1-2.53a2.45,2.45,0,0,0-1.72-.58,7.07,7.07,0,0,1-2.42-.15c-.1.65-.19,1.3-.27,2v0C125.69,242.57,125.69,242.7,125.68,242.83Z"/><path class="cls-2" d="M125.09,246.51l-.11.12-.1.24a11.91,11.91,0,0,1-.39,1.14c-.06.2-.12.39-.16.59a5.51,5.51,0,0,1,.61-.67,8.46,8.46,0,0,1,1-1.81l-.51-.46-.33.67Z"/><path class="cls-2" d="M126.8,246.87l-.37-.34a5.93,5.93,0,0,0-.4.62A3,3,0,0,1,126.8,246.87Z"/><path class="cls-2" d="M126.18,247.78a5.17,5.17,0,0,0-.71.52,8,8,0,0,0-.36,1.27c.27-.17.56-.32.84-.48l.89-.47.73-.36.44-.18c-.22-.25-.43-.47-.65-.68A3,3,0,0,0,126.18,247.78Z"/><path class="cls-3" d="M133.89,241.15l.12-.34h0C134,240.9,133.93,241,133.89,241.15Z"/><path class="cls-3" d="M133.88,240.37h0c-.15-.3-.31-.6-.45-.84l-.61-.6.61.6C133.57,239.77,133.73,240.07,133.88,240.37Z"/><path class="cls-3" d="M134.18,243.56a.1.1,0,0,1,0-.05A.1.1,0,0,0,134.18,243.56Z"/><path class="cls-3" d="M136.06,247.19c-.07-.37-.16-.73-.24-1.09h0C135.9,246.45,136,246.82,136.06,247.19Z"/><path class="cls-3" d="M133.79,242.82c0-.06,0-.12,0-.18a2.13,2.13,0,0,1,0-.87h0a2.33,2.33,0,0,0,0,.87C133.76,242.7,133.77,242.76,133.79,242.82Z"/><path class="cls-3" d="M135.36,244.9h0l0,0-.24-.28.24.28Z"/><path class="cls-3" d="M136.18,247.78c.07.39.15.79.21,1.18C136.33,248.57,136.25,248.17,136.18,247.78Z"/><path class="cls-3" d="M128.39,240.62a2.45,2.45,0,0,1,1.72.58c.65.65.57,1.74,1,2.53.28.47.73.8,1,1.26a2.57,2.57,0,0,1,.18.33l.27-.11a5.63,5.63,0,0,1,1.13-.27,4.7,4.7,0,0,1-1.56-3.72,16.07,16.07,0,0,1-5-3.38l-.65.06,0-.15c-.62.51-1.37,1.35-1.25,2a1,1,0,0,0,.65.71A7.07,7.07,0,0,0,128.39,240.62Z"/><path class="cls-3" d="M130.1,237.58l-2.09.19a15.24,15.24,0,0,0,4.23,2.77A4.06,4.06,0,0,0,130.1,237.58Z"/><path class="cls-3" d="M134.47,249.07c.12.19.25.38.36.58a9.77,9.77,0,0,0-.35-1.78,5.6,5.6,0,0,1-.28-2.34,5.31,5.31,0,0,0-1.36.28,2.18,2.18,0,0,0-.23.09c.08.24.16.48.26.71A14,14,0,0,0,134.47,249.07Z"/><path class="cls-4" d="M134.05,240.72l0-.06c-.05-.09-.09-.19-.14-.29-.15-.3-.31-.6-.45-.84l-.61-.6-1.48-1.46-.25,0a4,4,0,0,1,1.77,3.31q.51.19,1,.36h0c0-.14.09-.25.12-.34A.36.36,0,0,0,134.05,240.72Z"/><path class="cls-4" d="M136.93,253.19c.09,1,.14,2,.18,3.06l-1.57.46c.16-5.67,0-7.59-.46-9a5,5,0,0,1-.24-2.18,6.27,6.27,0,0,1,.86.09l.05.22.06.27c.09.36.18.73.25,1.1,0,0,0,.05,0,.08s.06.34.1.51c.07.39.15.79.21,1.18s.14.83.2,1.24C136.73,251.19,136.84,252.19,136.93,253.19Z"/><path class="cls-4" d="M135.33,244.87l-.24-.28c-.23-.24-.49-.51-.78-.85,0-.06-.09-.11-.13-.18a.1.1,0,0,1,0-.05,1.4,1.4,0,0,1-.14-.22,2.2,2.2,0,0,1-.16-.31,1.42,1.42,0,0,1-.05-.16c0-.06,0-.12,0-.18a2.33,2.33,0,0,1,0-.87c-.3-.09-.59-.2-.89-.31a4.37,4.37,0,0,0,1.86,3.42,4.92,4.92,0,0,1,.67,0v0Z"/><path class="cls-5" d="M128.33,244.86a.64.64,0,1,0-1.27-.2.45.45,0,0,0,0,.23c.14-.13.28-.26.43-.38a.32.32,0,0,1,.44.06.27.27,0,0,1,.06.24.31.31,0,0,1-.11.2l-.41.35.11,0A.65.65,0,0,0,128.33,244.86Z"/><path class="cls-5" d="M129.48,246.7a.65.65,0,0,0-1.28-.2s0,0,0,.05l.48-.22a.31.31,0,0,1,.43.12.34.34,0,0,1,0,.2.33.33,0,0,1-.15.23,4,4,0,0,1-.53.24.66.66,0,0,0,.27.12A.64.64,0,0,0,129.48,246.7Z"/><path class="cls-5" d="M126.89,243.7a.64.64,0,1,0-1.27-.2.63.63,0,0,0,.12.48c.13-.19.26-.38.41-.56a.32.32,0,0,1,.44,0,.34.34,0,0,1,.12.3.27.27,0,0,1-.07.14l-.3.42A.64.64,0,0,0,126.89,243.7Z"/><path class="cls-2" d="M134.11,240.87v0h0Z"/><path class="cls-6" d="M125.11,246.34c0,.09-.09.19-.13.29l.11-.13Z"/><path class="cls-7" d="M139.19,255.64c-.1-1.91-.26-3.83-.53-5.73-.14-1-.32-2-.53-3.07-.11-.5-.22-1-.35-1.52l-.09-.38a3,3,0,0,0-.18-.53,4,4,0,0,0-.56-.86c-.38-.46-.77-.82-1-1.13l-.13-.17v0s0,0,0,0,0-.08,0-.23.14-.34.26-.74a1.74,1.74,0,0,0,.06-.83,1.34,1.34,0,0,0-.07-.27L136,240l0,0-.08-.19a12.92,12.92,0,0,0-.8-1.48l-.05-.08-.08-.08-2.54-2.47-.34-.34-.48,0-5.71.55a5,5,0,0,1,.39.52l-.22.18c.19.25.41.48.62.71l-.13.41h0l0,.15.65-.06a16.07,16.07,0,0,0,5,3.38,4.7,4.7,0,0,0,1.56,3.72,5.63,5.63,0,0,0-1.13.27l-.27.11a6.34,6.34,0,0,0-2.77,2.16h0l-.56.19-.42.16h0c-.17-.21-.35-.4-.52-.58a3.3,3.3,0,0,0,.37-.13,4,4,0,0,0,.53-.24.33.33,0,0,0,.15-.23.34.34,0,0,0,0-.2.31.31,0,0,0-.43-.12l-.48.22a3.6,3.6,0,0,1-.64.17c-.25-.24-.51-.47-.76-.69a8.47,8.47,0,0,1,.67-.67l.41-.35a.31.31,0,0,0,.11-.2.27.27,0,0,0-.06-.24.32.32,0,0,0-.44-.06c-.15.12-.29.25-.43.38a8.38,8.38,0,0,0-.73.73l-.58-.52a10.11,10.11,0,0,1,.58-.87l.3-.42a.27.27,0,0,0,.07-.14.34.34,0,0,0-.12-.3.32.32,0,0,0-.44,0c-.15.18-.28.37-.41.56l-.29.43q.08-.36.12-.72c0-.23.08-.46.1-.69a1,1,0,0,1,0-.17c0-.13,0-.26,0-.39v0l0,.18c-.07.61-.16,1.21-.27,1.82a1.74,1.74,0,0,1-.11.18c-.22-.22-.45-.45-.68-.7l-.47.42c.28.31.56.58.83.84a13,13,0,0,0-1.47,4.34l-.46.65.42.47A19,19,0,0,0,120,254a16.13,16.13,0,0,0-1.76,2.71,19.08,19.08,0,0,0-1.25,3,20.51,20.51,0,0,0-.6,2.55l2-.57a19.34,19.34,0,0,1,.51-2,16.8,16.8,0,0,1,2.38-4.75l.06-.07a17.8,17.8,0,0,1,3.53-3.62l.61-.49q.52-.37,1.08-.72c.48-.3,1-.59,1.48-.86s.9-.45,1.36-.65l.11,0h0a.35.35,0,0,0,.24-.1h0l.15-.07.2-.07a1.14,1.14,0,0,0,.61-.57l0-.17a.67.67,0,0,0-.21-.1,5.69,5.69,0,0,1,2.16-1.53,2.18,2.18,0,0,1,.23-.09,5.31,5.31,0,0,1,1.36-.28,5.6,5.6,0,0,0,.28,2.34,9.77,9.77,0,0,1,.35,1.78,56.86,56.86,0,0,1,.07,7.24l.64-.18c.16-5.67,0-7.59-.46-9a5,5,0,0,1-.24-2.18,6.27,6.27,0,0,1,.86.09h0l.05.22c0,.09,0,.19.07.28.08.36.17.72.24,1.09,0,0,0,.05,0,.08s.06.34.1.51c.07.39.15.79.21,1.18s.14.83.2,1.24c.14,1,.25,2,.34,3s.15,2,.19,3.06ZM126,247.15a5.93,5.93,0,0,1,.4-.62l.37.34A3,3,0,0,0,126,247.15Zm-.92,2.42a8,8,0,0,1,.36-1.27,5.17,5.17,0,0,1,.71-.52,3,3,0,0,1,1.18-.38c.22.21.43.43.65.68h0l-.43.18c-.25.11-.5.24-.74.36l-.89.47c-.28.16-.57.31-.85.49Zm-.17-1.64a5.51,5.51,0,0,0-.61.67c0-.2.1-.39.16-.59a11.79,11.79,0,0,1,.39-1.14l.1-.24h0c0-.1.09-.2.13-.29h0l.33-.67.51.46A8.46,8.46,0,0,0,124.94,247.93Zm9.17-7.06v0h0Zm-1.25-.07a4,4,0,0,0-1.77-3.31l.25,0,1.48,1.46.61.6c.14.24.3.54.45.84.05.1.09.2.14.29l0,.06a.36.36,0,0,1,0,.09l-.12.34h0Q133.37,241,132.86,240.8Zm-4.85-3,2.09-.19a4.06,4.06,0,0,1,2.14,3A15.24,15.24,0,0,1,128,237.77Zm6.68,7.11a4.37,4.37,0,0,1-1.86-3.42c.3.11.59.22.89.31h0a2.13,2.13,0,0,0,0,.87c0,.06,0,.12,0,.18a1.42,1.42,0,0,0,.05.16,2.2,2.2,0,0,0,.16.31,1.4,1.4,0,0,0,.14.22.1.1,0,0,0,0,.05c0,.07.09.12.13.18.29.34.55.61.78.85l.24.28,0,0,0,0h0A4.92,4.92,0,0,0,134.69,244.88Z"/><path class="cls-2" d="M134.83,249.65a56.86,56.86,0,0,1,.07,7.24l-15.75,4.59c0-.64,0-1.29,0-2l-.24.18a16.8,16.8,0,0,1,2.38-4.75l.06-.07a17.8,17.8,0,0,1,3.53-3.62l.61-.49q.52-.37,1.08-.72c.48-.3,1-.59,1.48-.86s.89-.45,1.36-.65l.11,0a.35.35,0,0,0,.24-.1l.15-.07.2-.07a1.14,1.14,0,0,0,.61-.57l0-.17a.67.67,0,0,0-.21-.1,5.69,5.69,0,0,1,2.16-1.53c.08.24.16.48.26.71a14,14,0,0,0,1.6,2.46C134.59,249.26,134.72,249.45,134.83,249.65Z"/><path class="cls-1" d="M75.37,284.71l.73.26Z"/><path class="cls-1" d="M102.08,270.85a13.68,13.68,0,0,1,1.43,0,3.81,3.81,0,0,1-.67.07A4.4,4.4,0,0,1,102.08,270.85Z"/><path class="cls-1" d="M91.42,267.83h0a13,13,0,0,1,2,.47,9.17,9.17,0,0,1,2.29,1,9.17,9.17,0,0,0-2.29-1A12,12,0,0,0,91.42,267.83Z"/><path class="cls-1" d="M99.62,274a14.13,14.13,0,0,1,.58,1.5h0A14.13,14.13,0,0,0,99.62,274Z"/><path class="cls-1" d="M95.8,269.4l-.09-.06Z"/><path class="cls-1" d="M89.72,286.66a43.57,43.57,0,0,0,6.16-.61,43.57,43.57,0,0,1-6.16.61c-1,0-2.09,0-3.13,0C87.63,286.69,88.68,286.69,89.72,286.66Z"/><path class="cls-1" d="M71,282.5c.32.22.66.43,1,.63-.34-.2-.68-.41-1-.63s-.7-.52-1-.8C70.34,282,70.68,282.25,71,282.5Z"/><path class="cls-1" d="M69.35,280.42a2.91,2.91,0,0,1,0-.31c0-.15,0-.31.07-.46h0c0,.15,0,.31-.07.46A2.91,2.91,0,0,0,69.35,280.42Z"/><path class="cls-2" d="M107,274.41a7,7,0,0,1-1.88,2.33,11.75,11.75,0,0,0-1.87-1.86,7.19,7.19,0,0,0,.66-.8l.12.13a.64.64,0,1,0,.61-.45.58.58,0,0,0-.14,0l-.23-.25c.19-.31.36-.63.52-1l.55.13a.63.63,0,0,0,.62.5.65.65,0,0,0,0-1.29.63.63,0,0,0-.45.18l-.47-.11c.11-.3.21-.61.29-.92l.34.07a.62.62,0,0,0,.6.45.64.64,0,0,0,.65-.64.65.65,0,0,0-.21-.47,5.43,5.43,0,0,0,.92-.08c0,.49.09,1,0,1.48A6.75,6.75,0,0,1,107,274.41Z"/><path class="cls-2" d="M102,271.74a10.64,10.64,0,0,0-1.6-.76,14.23,14.23,0,0,1,1.73-.13,4.4,4.4,0,0,0,.76.09,3.81,3.81,0,0,0,.67-.07c.41,0,.81.06,1.21.11a7,7,0,0,1-.29.88A11.43,11.43,0,0,0,102,271.74Z"/><path class="cls-2" d="M99.9,272.06c-.08-.23-.17-.45-.27-.67a12.62,12.62,0,0,1,1.21.47C100.52,271.92,100.21,272,99.9,272.06Z"/><path class="cls-2" d="M105.82,270.52l-.32-.06.41-.06h0Z"/><path class="cls-2" d="M99.11,270.42l.23-.54.11-.25a4.4,4.4,0,0,0,.26.39l.05.08.1.06.06,0h0l0,0,0,0,0,0,.07,0,.1.05h0c-.36,0-.72.11-1.07.18A1.05,1.05,0,0,0,99.11,270.42Z"/><path class="cls-2" d="M100.09,272.66a10.89,10.89,0,0,1,1.71-.28,10.3,10.3,0,0,1,1.67,1.26,9.52,9.52,0,0,1-.7.87,10.32,10.32,0,0,0-2.56-1.31C100.17,273,100.14,272.84,100.09,272.66Z"/><path class="cls-2" d="M105.27,279c-.15.19-.31.38-.47.56a13.72,13.72,0,0,1-5.94,3.63,32.27,32.27,0,0,1-13.73,1.06,37.86,37.86,0,0,1-10.4-2.43c-1-1.58-2.08-3.43-1.51-5.22A5.57,5.57,0,0,1,75.3,274a15.4,15.4,0,0,1,6.52-3.14c1.1-.2,2.23-.25,3.31-.53a36.64,36.64,0,0,0,4.72-2.09,6.56,6.56,0,0,1,1.57-.45,12,12,0,0,1,2,.46,9.17,9.17,0,0,1,2.29,1h0l.09.06A10.55,10.55,0,0,1,99.62,274a14.13,14.13,0,0,1,.58,1.5h0a6,6,0,0,0,0-1.59,10.29,10.29,0,0,1,4.33,3.21,7.32,7.32,0,0,1-1.27.67A1.68,1.68,0,0,1,105.27,279Z"/><path class="cls-2" d="M71.75,280.37l2.78,1.37A24.77,24.77,0,0,1,71.75,280.37Z"/><path class="cls-2" d="M102.89,272.35a11.05,11.05,0,0,1,1.28.11c-.11.22-.23.43-.35.64A10.9,10.9,0,0,0,102.89,272.35Z"/><path class="cls-3" d="M105.76,281.84l.2-.18Z"/><polygon class="cls-3" points="108.64 277.52 109.16 276.89 108.64 277.52 108.64 277.52"/><path class="cls-3" d="M109.74,271.27a9.21,9.21,0,0,0-1.64,3.89c-.21.24-.43.5-.64.78-.36.46-.69.95-1,1.43L106,278a10.85,10.85,0,0,0-.87-1.26,7,7,0,0,0,1.88-2.33,6.75,6.75,0,0,0,.68-2.53c0-.47,0-1,0-1.48a2.76,2.76,0,0,1,0-.51c.3-1.3,2.24-2.44,2.6-.57l0,.22c-.28.12-.56.25-.85.35Z"/><path class="cls-3" d="M107.27,280.16c.16-.22.3-.45.44-.68C107.57,279.71,107.43,279.94,107.27,280.16Z"/><path class="cls-3" d="M110.14,273.49l-.09,0,0,0a6.88,6.88,0,0,0-1.09.78,8.76,8.76,0,0,1,1-2.19l.25,1.33Z"/><path class="cls-3" d="M103.36,277.78a7.32,7.32,0,0,0,1.27-.67,10.85,10.85,0,0,1,1,1.45c-.11.15-.22.3-.34.44A1.68,1.68,0,0,0,103.36,277.78Z"/><path class="cls-8" d="M89.85,268.28a36.64,36.64,0,0,1-4.72,2.09c-1.08.28-2.21.33-3.31.53A15.4,15.4,0,0,0,75.3,274a5.57,5.57,0,0,0-2.08,2.56c-.57,1.79.49,3.64,1.51,5.22l-.2-.08-2.78-1.37a22.11,22.11,0,0,1-2-1.32h0l-.1-.08a.36.36,0,0,1,0-.1,11.51,11.51,0,0,1,.85-2.41,12.55,12.55,0,0,1,3-4.07,16.54,16.54,0,0,1,4.4-2.72A25.43,25.43,0,0,1,83,268.17a31.55,31.55,0,0,1,5.29-.55,20.71,20.71,0,0,1,3.16.2h0A6.56,6.56,0,0,0,89.85,268.28Z"/><path class="cls-5" d="M105.3,274.41a.65.65,0,1,1-1.25-.2c.12.13.25.26.36.4a.36.36,0,0,0,.25.11.31.31,0,0,0,.2-.07.32.32,0,0,0,0-.44c-.12-.15-.25-.28-.38-.42a.58.58,0,0,1,.14,0A.65.65,0,0,1,105.3,274.41Z"/><path class="cls-5" d="M106.62,272.56a.65.65,0,0,1-.64.65.63.63,0,0,1-.62-.5l.52.15.1,0a.32.32,0,0,0,.3-.22.33.33,0,0,0-.2-.4l-.55-.16a.63.63,0,0,1,.45-.18A.64.64,0,0,1,106.62,272.56Z"/><path class="cls-5" d="M106.94,271a.64.64,0,0,1-.65.64.62.62,0,0,1-.6-.45l.53.1a.31.31,0,0,0,.38-.24.31.31,0,0,0-.24-.37l-.54-.11.14-.11a.64.64,0,0,1,1,.54Z"/><path class="cls-4" d="M70,281.7l0,0c-.16-.15-.32-.29-.47-.45a2,2,0,0,1-.2-.21c0-.19,0-.4,0-.6a2.91,2.91,0,0,1,0-.31c0-.15,0-.31.07-.46,3.93,2.83,9,4.54,15.6,5.23a46.37,46.37,0,0,0,4.86.27,28.33,28.33,0,0,0,9.14-1.36,14.32,14.32,0,0,0,6.21-3.81c.23-.25.45-.52.66-.8a10,10,0,0,1,.65,1.83c-.2.23-.4.44-.62.65l-.2.18-.38.33a16.53,16.53,0,0,1-4.71,2.62,27.66,27.66,0,0,1-4.79,1.26,43.57,43.57,0,0,1-6.16.61c-1,0-2.09,0-3.13,0a39.69,39.69,0,0,1-8-1c-.84-.2-1.67-.44-2.48-.72l-.73-.26c-.68-.25-1.35-.53-2-.84-.46-.23-.91-.47-1.34-.74s-.68-.41-1-.63S70.34,282,70,281.7Z"/><path class="cls-4" d="M108.69,275.45a7.13,7.13,0,0,1,1.58-1.31l.2,1.14-1.32,1.61-.51.63A8.43,8.43,0,0,1,108.69,275.45Z"/><path class="cls-4" d="M107,277.72c.32-.47.64-1,1-1.4l0,0a8.56,8.56,0,0,0,.18,2.26l0,.06c-.08.19-.17.38-.26.57s-.12.2-.17.3-.28.46-.44.68l-.07.11c0,.05-.09.1-.13.16a9.85,9.85,0,0,0-.72-1.82C106.56,278.31,106.77,278,107,277.72Z"/><path class="cls-7" d="M67.41,281.41v.29l.17.22a8.22,8.22,0,0,0,.57.65c.19.18.38.36.58.53.39.34.79.65,1.2.95a20.72,20.72,0,0,0,2.6,1.52,27.16,27.16,0,0,0,5.6,1.95,44.83,44.83,0,0,0,11.64,1,36.7,36.7,0,0,0,11.55-2,18.21,18.21,0,0,0,5.26-2.94,12.52,12.52,0,0,0,2.13-2.23,9.73,9.73,0,0,0,.84-1.34c.12-.24.24-.48.34-.74s.14-.37.2-.59l2.11-2.58.28-.34-.08-.43-1.18-6.5c-.15.14-.28.29-.43.43l-.08.08-.13.06-.25.1c-.28.12-.56.25-.85.35l.25,1.38a9.21,9.21,0,0,0-1.64,3.89c-.21.24-.43.5-.64.78-.36.46-.69.95-1,1.43L106,278a10.85,10.85,0,0,0-.87-1.26,11.75,11.75,0,0,0-1.87-1.86,7.19,7.19,0,0,0,.66-.8l.12.13c.12.13.25.26.36.4a.36.36,0,0,0,.25.11.31.31,0,0,0,.2-.07.32.32,0,0,0,0-.44c-.12-.15-.25-.28-.38-.42l-.23-.25c.19-.31.36-.63.52-1l.55.13.52.15.1,0a.32.32,0,0,0,.3-.22.33.33,0,0,0-.2-.4l-.55-.16-.47-.11c.11-.3.21-.61.29-.92l.34.07.53.1a.31.31,0,0,0,.38-.24.31.31,0,0,0-.24-.37l-.54-.11-.32-.06.41-.06h0l-.23,0-.15,0a8.45,8.45,0,0,0,.14-1.32.31.31,0,0,0-.31-.32h0a.32.32,0,0,0-.32.3,8.11,8.11,0,0,1-.16,1.39,17.86,17.86,0,0,0-4.62,0c-.36,0-.72.11-1.07.18a1.05,1.05,0,0,0-.07-.11l.23-.54.11-.24c-.43-.62-.83-1.24-1.2-1.9l0-.06-.09.22-.37.88a10.72,10.72,0,0,0-3.77-2.2,17.88,17.88,0,0,0-5.72-.92,30.5,30.5,0,0,0-5.66.54,25.58,25.58,0,0,0-5.49,1.62,18.08,18.08,0,0,0-4.9,3.11,14.57,14.57,0,0,0-3.49,4.7,14,14,0,0,0-1,2.79,14.2,14.2,0,0,0-.26,1.45A10.73,10.73,0,0,0,67.41,281.41Zm32.22-10a12.62,12.62,0,0,1,1.21.47c-.32.06-.63.12-.94.2C99.82,271.83,99.73,271.61,99.63,271.39Zm4.8.47a11.43,11.43,0,0,0-2.48-.12,10.64,10.64,0,0,0-1.6-.76,14.23,14.23,0,0,1,1.73-.13,13.68,13.68,0,0,1,1.43,0c.41,0,.81.06,1.21.11A7,7,0,0,1,104.43,271.86Zm-.26.6c-.11.22-.23.43-.35.64a10.9,10.9,0,0,0-.93-.75A11.05,11.05,0,0,1,104.17,272.46Zm-1.4,2.05a10.32,10.32,0,0,0-2.56-1.31c0-.18-.07-.36-.12-.54a10.89,10.89,0,0,1,1.71-.28,10.3,10.3,0,0,1,1.67,1.26A9.52,9.52,0,0,1,102.77,274.51Zm2.84,4.05c-.11.15-.22.3-.34.44s-.31.38-.47.56a13.72,13.72,0,0,1-5.94,3.63,32.27,32.27,0,0,1-13.73,1.06,37.86,37.86,0,0,1-10.4-2.43l-.2-.08a24.77,24.77,0,0,1-2.78-1.37,22.11,22.11,0,0,1-2-1.32h0l-.1-.08a.36.36,0,0,1,0-.1,11.51,11.51,0,0,1,.85-2.41,12.55,12.55,0,0,1,3-4.07,16.54,16.54,0,0,1,4.4-2.72A25.43,25.43,0,0,1,83,268.17a31.55,31.55,0,0,1,5.29-.55,20.71,20.71,0,0,1,3.16.2,13,13,0,0,1,2,.47,9.4,9.4,0,0,1,2.3,1h0l.09.06A10.55,10.55,0,0,1,99.62,274a14.13,14.13,0,0,1,.58,1.5h0a6,6,0,0,0,0-1.59,10.29,10.29,0,0,1,4.33,3.21A10.85,10.85,0,0,1,105.61,278.56Zm3.54-1.67-.51.63h0a8.43,8.43,0,0,1,0-2.07,7.13,7.13,0,0,1,1.58-1.31l.2,1.14Zm-2.08,3.54a9.85,9.85,0,0,0-.72-1.82c.21-.3.42-.59.62-.89.32-.47.64-1,1-1.4l0,0a8.56,8.56,0,0,0,.18,2.26l0,.06c-.08.19-.17.38-.26.57s-.12.2-.17.3-.28.46-.44.68l-.07.11C107.16,280.32,107.11,280.37,107.07,280.43Zm2.83-8.28.25,1.33h0l-.09,0,0,0a6.88,6.88,0,0,0-1.09.78A8.76,8.76,0,0,1,109.9,272.15ZM71,282.5c-.35-.25-.7-.52-1-.8l0,0c-.16-.15-.32-.29-.47-.45a2,2,0,0,1-.2-.21c0-.19,0-.4,0-.6a2.91,2.91,0,0,1,0-.31c0-.15,0-.31.07-.46h0c3.93,2.83,9,4.54,15.6,5.23a46.37,46.37,0,0,0,4.86.27,28.33,28.33,0,0,0,9.14-1.36,14.32,14.32,0,0,0,6.21-3.81c.23-.25.45-.52.66-.8a10,10,0,0,1,.65,1.83c-.2.23-.4.44-.62.65l-.2.18-.38.33a16.53,16.53,0,0,1-4.71,2.62,27.66,27.66,0,0,1-4.79,1.26,43.57,43.57,0,0,1-6.16.61c-1,0-2.09,0-3.13,0a39.69,39.69,0,0,1-8-1c-.84-.2-1.67-.44-2.48-.72l-.73-.26c-.68-.25-1.35-.53-2-.84-.46-.23-.91-.47-1.34-.74S71.35,282.72,71,282.5Z"/><path class="cls-6" d="M98.31,265a1.83,1.83,0,0,1,0-.21s0-.09,0-.13a.8.8,0,0,1,.15-.2c0,.24-.07.48-.09.71Z"/><path class="cls-6" d="M102.81,269.1l-.45,0h0l.57,0Z"/><path class="cls-6" d="M100.86,268.81h-.06l0-.05.35.11Z"/><path class="cls-1" d="M103.28,274.32a18,18,0,0,0-4.13-2.93A18,18,0,0,1,103.28,274.32Z"/><path class="cls-1" d="M105,274.3c.21.25.41.51.61.76-.2-.25-.4-.51-.61-.76Z"/><path class="cls-1" d="M105.1,271h0c.08.26.18.53.28.77l.24.1-.24-.1A7.71,7.71,0,0,1,105.1,271Z"/><path class="cls-1" d="M120.94,281.27l-.43.17.43-.17a10.56,10.56,0,0,0,1.27-.61c.17-.09.32-.2.48-.29-.16.09-.31.2-.48.29A12.32,12.32,0,0,1,120.94,281.27Z"/><path class="cls-1" d="M126.56,277.33c-.36.35-.72.68-1.09,1C125.84,278,126.2,277.68,126.56,277.33Z"/><path class="cls-1" d="M137.93,256.31a67.8,67.8,0,0,1-2.5,6.86A67.8,67.8,0,0,0,137.93,256.31Z"/><path class="cls-1" d="M127.45,250a17.54,17.54,0,0,0-4.62,2A17.54,17.54,0,0,1,127.45,250Z"/><path class="cls-1" d="M132.23,248.24h.45l.59,0h0l-.59,0Z"/><path class="cls-1" d="M128.31,248.55c.32-.06.65-.1,1-.14l-1,.13Z"/><path class="cls-1" d="M145.17,248h0v0Z"/><path class="cls-1" d="M130.28,248.31c.27,0,.54-.05.82-.06h0C130.82,248.26,130.55,248.29,130.28,248.31Z"/><path class="cls-1" d="M132.67,249.2h0c-.5,0-1,.05-1.5.1s-1.14.14-1.7.25c.56-.11,1.13-.19,1.7-.25S132.17,249.21,132.67,249.2Z"/><path class="cls-1" d="M145.22,248.81l0,.23c0,.09,0,.18,0,.27h0c0-.1,0-.19,0-.28l0-.22Z"/><path class="cls-1" d="M133.05,249.19Z"/><path class="cls-2" d="M122.75,252.12a16.28,16.28,0,0,0-4,3.51l.28-.08c-2,4.75-2.94,9.49-1.62,14.6a19.48,19.48,0,0,0,1.54,4,4.82,4.82,0,0,0,2,2.25,3.45,3.45,0,0,0,2.49.07,35.06,35.06,0,0,0,8.42-11.25c3.63-7.89,5-11.17,5.46-13,0-.22-.07-.45-.12-.67a14.26,14.26,0,0,1-.57-2.88c0-.25,0-.5,0-.75a5.66,5.66,0,0,0-2.58.61.87.87,0,0,1,.16.17l0,.17a1.1,1.1,0,0,1-.79.3h-.37a.34.34,0,0,1-.26,0h-.12q-.75,0-1.5.09c-.57.06-1.14.14-1.7.25s-.85.16-1.27.27c-.25.06-.5.14-.75.22a17.54,17.54,0,0,0-4.62,2Z"/><path class="cls-3" d="M144.57,246.36s0-.05,0-.07S144.57,246.34,144.57,246.36Z"/><path class="cls-3" d="M145,250.42c.07-.37.12-.73.18-1.1h0C145.09,249.68,145,250.05,145,250.42Z"/><path class="cls-3" d="M145.17,248h0v0c0-.11-.08-.23-.13-.35.05.12.09.24.13.35A.06.06,0,0,0,145.17,248Z"/><path class="cls-3" d="M144.86,251l-.24,1.18Z"/><path class="cls-3" d="M137.19,251.57c.05.22.09.45.12.67a9.15,9.15,0,0,0,.33-1.78,5.73,5.73,0,0,1,.62-2.27,5.26,5.26,0,0,0-1.36-.25h-.25c0,.25,0,.5,0,.75A14.26,14.26,0,0,0,137.19,251.57Z"/><path class="cls-8" d="M105,270.79c0-.14-.07-.28-.11-.42h0c0,.14.07.28.11.42s0,.13.07.2h0C105.08,270.92,105.05,270.85,105,270.79Z"/><path class="cls-8" d="M120.94,276.43a4.82,4.82,0,0,1-2-2.25,19.48,19.48,0,0,1-1.54-4c-1.32-5.11-.38-9.85,1.62-14.6l-.28.08a20.36,20.36,0,0,0-3.26,5.55,28.13,28.13,0,0,0-1.56,5.75,22.43,22.43,0,0,0-.25,2.94,17.55,17.55,0,0,0,.24,2.9A13,13,0,0,0,116.1,278a12.08,12.08,0,0,0,1.91,2.13l.25.21a34.43,34.43,0,0,0,5.17-3.88A3.45,3.45,0,0,1,120.94,276.43Z"/><path class="cls-4" d="M139.59,249l0-.23a5,5,0,0,0-.76-.4,4.84,4.84,0,0,0-.59,2.11c-.18,2-1.07,4.62-5.85,15a32.11,32.11,0,0,1-1.63,3.09,37.39,37.39,0,0,1-12,12.2l.35.25.17.12c.23.15.48.31.71.43l.24-.07,0,0,.21-.07.43-.17a12.32,12.32,0,0,0,1.27-.61c.17-.09.32-.2.48-.29a17.46,17.46,0,0,0,1.91-1.31c.3-.23.59-.48.87-.73s.73-.65,1.09-1a30.9,30.9,0,0,0,2.17-2.4,46.52,46.52,0,0,0,6-10.22c.23-.51.45-1,.67-1.54a67.8,67.8,0,0,0,2.5-6.86c.3-1,.56-1.92.8-2.9.11-.4.2-.81.29-1.22l.24-1.18c0-.17.07-.34.1-.51a.22.22,0,0,1,0-.08c.07-.37.12-.74.18-1.11C139.56,249.22,139.58,249.13,139.59,249Z"/><path class="cls-7" d="M126.38,249a18.62,18.62,0,0,0-4.44,1.82,16.12,16.12,0,0,0-2.64,1.86,18.26,18.26,0,0,0-2.27,2.3,21.84,21.84,0,0,0-3.25,5.55,28.28,28.28,0,0,0-1.72,6.14,23.07,23.07,0,0,0-.29,3.22,19.77,19.77,0,0,0,.25,3.25,15,15,0,0,0,2.46,6.08,14.42,14.42,0,0,0,2.2,2.48,13.16,13.16,0,0,0,1.3,1,10.46,10.46,0,0,0,1.49.88l.27.14.3-.06a6.53,6.53,0,0,0,.88-.23l.79-.29a14.19,14.19,0,0,0,1.47-.7,18.54,18.54,0,0,0,2.68-1.77,27.28,27.28,0,0,0,4.48-4.44,46.48,46.48,0,0,0,6.34-10.66,70.07,70.07,0,0,0,4.09-11.66c.25-1,.46-2,.64-3,.09-.48.17-1,.24-1.47L138,247.21l.11.27a6.25,6.25,0,0,0-1.15-.17h-.29a6.38,6.38,0,0,0-3.37,1h0l-.59,0h-.45A19.09,19.09,0,0,0,126.38,249Zm11.88-.77a5.73,5.73,0,0,0-.62,2.27,9.15,9.15,0,0,1-.33,1.78c-.51,1.84-1.83,5.12-5.46,13a35.06,35.06,0,0,1-8.42,11.25,34.43,34.43,0,0,1-5.17,3.88l-.25-.21A12.08,12.08,0,0,1,116.1,278a13,13,0,0,1-2.16-5.27,17.55,17.55,0,0,1-.24-2.9,22.43,22.43,0,0,1,.25-2.94,28.13,28.13,0,0,1,1.56-5.75,20.36,20.36,0,0,1,3.26-5.55,16.28,16.28,0,0,1,4-3.51l.08-.05a17.54,17.54,0,0,1,4.62-2c.25-.08.5-.16.75-.22.42-.11.85-.19,1.27-.27s1.13-.19,1.7-.25,1-.09,1.5-.1h.12a.34.34,0,0,0,.26,0h.37a1.1,1.1,0,0,0,.79-.3l0-.17a.87.87,0,0,0-.16-.17,5.66,5.66,0,0,1,2.58-.61h.25A5.26,5.26,0,0,1,138.26,248.19Zm-19,33-.17-.12-.35-.25h0a37.39,37.39,0,0,0,12-12.2,32.11,32.11,0,0,0,1.63-3.09c4.78-10.37,5.67-13,5.85-15a4.84,4.84,0,0,1,.59-2.11,5,5,0,0,1,.76.4h0l0,.22c0,.09,0,.18,0,.28-.06.37-.11.73-.18,1.1a.22.22,0,0,0,0,.08c0,.17-.07.34-.1.51l-.24,1.18c-.09.41-.19.82-.29,1.22-.24,1-.5,1.94-.8,2.9a67.8,67.8,0,0,1-2.5,6.86c-.22.52-.44,1-.67,1.54a46.52,46.52,0,0,1-6,10.22,30.9,30.9,0,0,1-2.17,2.4c-.36.35-.72.68-1.09,1s-.57.5-.87.73a17.46,17.46,0,0,1-1.91,1.31c-.16.09-.31.2-.48.29a10.56,10.56,0,0,1-1.27.61l-.43.17-.21.07,0,0-.25.07A7.8,7.8,0,0,1,119.3,281.17Z"/><path class="cls-7" d="M141.65,249.4c.16-.78-4.05-5.06-5.21-6.35l.62,2.16,1,2.27Z"/><path class="cls-1" d="M120.78,211.22l-.1.11"/><polygon class="cls-6" points="77.03 241.12 77.7 223.81 78.31 220.36 84.01 220.27 86.27 222.14 96.13 247.7 97.66 260.6 97.56 263.88 96.42 264.83 96.04 267.11 103.54 270.12 109.07 268.8 111.55 266.12 111.03 263.83 109.27 263.04 108.61 261.77 105.21 191.6 98.96 196.04 57.42 201.11 61.17 227.59 63.06 233.19 66.04 237.87 71.32 239.61 77.03 241.12"/><path class="cls-9" d="M96.4,244.41l-1-.06c1.94,6.13,3.36,13.23,5.3,19.36-.68.07-1.76,0-2.44.1-.31,0-5.23-19.52-5.9-21.31-1.28-3.4-.73-6.78-2.13-10.14-1-2.44-5.16-9.77-5.12-12.34,3.33,0,5.76,9.22,6.76,11.55C93.74,236,94,240.26,96.4,244.41Z"/><path class="cls-10" d="M96.29,212.78c2.21,6.4,4.84,12.67,6.26,19.29.37,1.7.69,3.42,1,5.13l1.12,6c1.12,6-.28,12,.7,18a9.73,9.73,0,0,1,.14,3.4,3.33,3.33,0,0,1-2,2.57l1.31.85-.18,1.07c2.35.21,5.26-.29,6-2.51.54-1.53.69-2.77-1.26-3.2-1.42-.32-1-9.13-1.38-13.22-1.45-16.36-.69-33.08-2.13-49.44-.12-1.31-.39-7.37-1.69-7.52a2.89,2.89,0,0,0-1.23.22c-5.84,2-11.67,4.27-17.61,5.86C87.05,197.93,94.59,207.85,96.29,212.78Z"/><path class="cls-11" d="M97.31,264l1.86-.36c-.11-.56-.21-1.13-.31-1.71a49.84,49.84,0,0,0-2.24-9c-4.89-13.44-10.33-32.87-10.39-33.06l-1.82.51c.06.19,5.52,19.69,10.44,33.2A49.66,49.66,0,0,1,97,262.25C97.1,262.84,97.2,263.41,97.31,264Z"/><path class="cls-11" d="M107.8,263.18l1.88-.17c-.59-6.83-.82-14.76-1.06-23.16-.53-18.48-1.08-37.58-5.53-49.36l-1.77.67c4.34,11.48,4.88,30.43,5.41,48.74C107,248.33,107.2,256.29,107.8,263.18Z"/><path class="cls-11" d="M101.79,263.88l-.83-.24c-.28-.07-.56-.11-.85-.17a6.63,6.63,0,0,0-1.78,0,4.5,4.5,0,0,0-1.76.6,3.59,3.59,0,0,0-.77.59,3.42,3.42,0,0,0-.63.85l0,.08v.09a1.66,1.66,0,0,0,.31,1,4,4,0,0,0,.44.6,10,10,0,0,0,.94,1c.66.62,1.32,1.2,2,1.75l.08.07.14,0a11.74,11.74,0,0,0,2.69.65,5.88,5.88,0,0,0,1.51,0,3,3,0,0,0,.41-.09l.37-.11a1.12,1.12,0,0,1,.37-.08,2.15,2.15,0,0,1,.88.18,4,4,0,0,0,1.63.21,3.76,3.76,0,0,0,.8-.18l.62-.21.62-.24.32-.13.17-.08.11-.06.06,0,.05,0,0,0,0,0h0l.06,0,.09-.07,0-.09a23.68,23.68,0,0,0,1.22-2.41c.18-.42.35-.85.49-1.29a5.07,5.07,0,0,0,.25-1.47,2.43,2.43,0,0,0-.06-.44,1.5,1.5,0,0,0-.22-.46,1.71,1.71,0,0,0-.72-.54,3.82,3.82,0,0,0-1.42-.24,9,9,0,0,0-2.64.43h0a17.76,17.76,0,0,1,2.57.25,3.65,3.65,0,0,1,1.1.36.78.78,0,0,1,.29.28.31.31,0,0,1,0,.13.74.74,0,0,1,0,.21,6.61,6.61,0,0,1-.88,2.17,23,23,0,0,1-1.36,2.11l.13-.16.07-.05h0l0,0h0s0,0,0,0h0l-.12,0-.28.08-.59.17-.6.15a2.93,2.93,0,0,1-.45.07,2.18,2.18,0,0,1-.88-.18,4,4,0,0,0-1.6-.29,3.06,3.06,0,0,0-.88.2l-.24.07a1.08,1.08,0,0,1-.21.05,5,5,0,0,1-1,0,10.52,10.52,0,0,1-2.28-.42l.21.11c-.68-.46-1.39-1-2-1.48-.32-.26-.64-.53-.93-.8a4.38,4.38,0,0,1-.37-.4c-.12-.12-.16-.3-.16-.17l0,.16a2.19,2.19,0,0,1,.32-.55,2.72,2.72,0,0,1,.5-.52,4.17,4.17,0,0,1,1.35-.72,7.06,7.06,0,0,1,1.61-.3l.84,0Z"/><path class="cls-12" d="M104.84,208.61c.38,0,.78,0,1.18-.07l-.07-.63a7,7,0,0,1-5.41-1.37c-2.87-2.31-3.33-6.63-3.34-6.68l-.62.07c0,.19.49,4.63,3.56,7.1A7.29,7.29,0,0,0,104.84,208.61Z"/><path class="cls-12" d="M78.46,220.55l.53-.35S76.4,216,76.24,204h-.63C75.78,216.28,78.35,220.38,78.46,220.55Z"/><path class="cls-12" d="M83.06,220.35l.61-.14c0-.11-2.5-11.12-1.59-16.29l-.62-.11C80.53,209.11,83,219.89,83.06,220.35Z"/><path class="cls-9" d="M97.14,265.23a6.44,6.44,0,0,0,3.38,3,1.6,1.6,0,0,1-.51-.75c-.06-.3.11-.68.42-.7a3.23,3.23,0,0,1-.76-.4.92.92,0,0,1-.31-1.24c.19-.25.52-.2.22-.43C99,264.22,97.59,264.93,97.14,265.23Z"/><polygon class="cls-6" points="80.42 224.12 100.8 228.35 115.49 234.78 120.94 236.24 121.97 234 124.24 232.92 127.25 236.28 125.37 242.93 124.27 246.28 121.94 249.26 120.6 249.33 119.61 248.14 119.14 245.97 116.42 246.39 104.84 245.23 88.64 243.38 72.74 239.99 66.9 237.63 64.47 235.85 72.75 223.41 80.42 224.12"/><path class="cls-10" d="M83.28,224.2c1.37.05,2.58.82,3.89,1.23,7,2.19,12.49,3.78,21.17,5.88v.38l7.16,3.09,5.45,1.46,1-1.7.94-1.12c3.51-.1,5.11,1.24,4.24,5.62a13.14,13.14,0,0,1-2.39,4.73,22.44,22.44,0,0,1,0-3.93c0-1.32-.65-2.81-1.92-3.13a2.64,2.64,0,0,0-2.44.88,7.9,7.9,0,0,0-1.35,2.34l.84-2.7c-.15.48-8.92-1.3-9.78-1.48-3.46-.71-9.45-2.09-12.86-3-6.62-1.76-15.1-3.67-19.46-8C78.25,223.46,82,224.15,83.28,224.2Z"/><path class="cls-11" d="M119.29,243.93a6,6,0,0,0-.35.78,7.75,7.75,0,0,0-.21.83,5.15,5.15,0,0,0,0,1.75,3.94,3.94,0,0,0,.75,1.67,2.88,2.88,0,0,0,1.56,1.08l.1,0h0a1.51,1.51,0,0,0,.88-.29,4.69,4.69,0,0,0,.55-.42,11.32,11.32,0,0,0,.93-.9c.57-.63,1.11-1.27,1.62-2l0,0,0,0a10.82,10.82,0,0,0,.58-1.29c.16-.42.3-.84.43-1.26.27-.84.46-1.69.65-2.54s.34-1.63.56-2.42c.1-.4.22-.78.34-1.16.06-.19.12-.38.19-.55l.1-.26.08-.18.27-.59-.28-.45h0a10,10,0,0,0-1.54-2.12,6.78,6.78,0,0,0-1-.92,2.92,2.92,0,0,0-1.65-.61,2,2,0,0,0-1,.32,2.87,2.87,0,0,0-.6.53,5.54,5.54,0,0,0-.73,1.15,8.86,8.86,0,0,0-.77,2.42c.52-.66,1.06-1.28,1.6-1.84a5.87,5.87,0,0,1,.84-.71c.27-.19.57-.27.58-.19a2.54,2.54,0,0,1,.51.41,9.08,9.08,0,0,1,.69.79c.45.58.9,1.23,1.33,1.83v-1.05c-.1.2-.13.27-.19.4l-.13.34c-.08.22-.16.44-.23.65-.14.43-.25.86-.35,1.3A25.77,25.77,0,0,0,125,241c-.12.82-.27,1.64-.44,2.44-.08.41-.18.8-.28,1.19s-.25.81-.36,1.09l0-.06c-.41.67-.85,1.36-1.32,2-.24.32-.48.64-.73.93l-.38.38c-.12.12-.29.19-.25.19l.12,0a4.83,4.83,0,0,1-.89-1,5.34,5.34,0,0,1-.6-1.25,10.6,10.6,0,0,1-.34-1.45c0-.26-.07-.52-.12-.79A6.46,6.46,0,0,0,119.29,243.93Z"/><path class="cls-9" d="M121.9,247.26a1,1,0,0,1-.93.29,1.12,1.12,0,0,1-.61-.65,7,7,0,0,1-.46-2.1,3,3,0,0,0,.4.78.94.94,0,0,0,.74.4c.27,0,.53-.15.8-.11s.66.33.67.59S122.08,247.09,121.9,247.26Z"/><path class="cls-11" d="M121.2,237.31l.47-1.83c-.19,0-1.15-.44-2.16-.85-6.19-2.52-25-10.18-41.72-11.76l-.18,1.88c16.43,1.56,35.06,9.14,41.18,11.63A25.3,25.3,0,0,0,121.2,237.31Z"/><path class="cls-9" d="M60.06,229.84c-1.54-8.57-3.47-17.47-3.68-26,2.85-.56,3.49.36,3.85,2.93.46,3.31.68,6.67,1,10l1.85,18.27"/><path class="cls-9" d="M74.36,238.54c-2.28-.44-10.87-2.33-12.26-13.36l-1.75,1.74.56,4.67,3,5.32,3.1,1.75,5.44,1.21Z"/><path class="cls-12" d="M59,212.29a8.61,8.61,0,0,0,5.34-2.89,7.45,7.45,0,0,0,1.34-5.78l-.63.08a6.81,6.81,0,0,1-1.2,5.3,8,8,0,0,1-4.92,2.66Z"/><path class="cls-9" d="M64.42,236.6c-.34-.35,1,.2,1.45.29l25.25,4.9c3.45.67,7.19,1.3,10.32-.29a4.87,4.87,0,0,1,2.22.81,6,6,0,0,0,2.17,1.23,9.9,9.9,0,0,0,3.07.36c1.19,0-4.54-.85-3.38-.75,1.48.13,3,.47,4.42.67q4.43.6,8.88,1c.06,1.11-.18,1.64-.12,2.75-13-1.47-18.69-2-31.64-3.72-2.87-.39-5.8-.72-8.76-1C78.3,242.77,67.91,240.15,64.42,236.6Z"/><path class="cls-11" d="M119.72,247.43l.18-1.88c-1.93-.19-4.23-.37-6.78-.58-14.32-1.17-38.28-3.13-46.29-8.5C60.19,232,58.14,207.18,57.91,198L56,198c0,1.39.95,34.1,9.76,40,8.42,5.64,31.74,7.55,47.18,8.81C115.5,247.06,117.8,247.25,119.72,247.43Z"/><path class="cls-10" d="M77.37,232.52c.26-1.92.6-3.83.77-5.74a11.23,11.23,0,0,0-.17-4.29,3.57,3.57,0,0,0-3-2.66c-.29,2.31,1.8,6.79,2.41,12.69"/><polygon class="cls-11" points="77.71 233.05 78.83 220.63 76.94 220.56 77.18 233.03 77.71 233.05"/><path class="cls-12" d="M73.14,219.83a12.26,12.26,0,0,0,3.77,1,27.91,27.91,0,0,0,3.88.28l1,0,1-.09a14.58,14.58,0,0,0,2-.33,6.7,6.7,0,0,0,3.49-1.84h0a13.58,13.58,0,0,1-3.68.73c-1.23.11-2.47.16-3.73.15s-2.51,0-3.78,0a21.83,21.83,0,0,0-3.86.13Z"/><path class="cls-13" d="M95.61,68.31l-5,7.45-8-47L90,23.27s5.62,1.89,6.13,5.3c0,0-4-1.27-4,.05,0,0,3.9,1.38,7.23,7.53,0,0-2.32-1.33-3.89-.47A17.84,17.84,0,0,1,102.73,50a54.11,54.11,0,0,1-2.68,17.34s-.19-2.6-.42-6.21a1.69,1.69,0,0,0-.13-.48s.27,1.2-5.14,9.67"/><path class="cls-14" d="M99.22,73.28l2-5.53A55.21,55.21,0,0,0,104,50a19.06,19.06,0,0,0-4.56-12.28l3.09,1.78-2.11-3.91a21.81,21.81,0,0,0-4.25-5.64l1.5.48-.3-2c-.61-4.06-6.33-6.09-7-6.31l-.81,2.39L90,23.27l-.41,1.19a13,13,0,0,1,4.05,2.31,3.33,3.33,0,0,0-2,.4,1.77,1.77,0,0,0-.79,1.36l-.06,1,.9.32a12.7,12.7,0,0,1,4.89,4.32,3.66,3.66,0,0,0-1.74.44l-1.85,1,1.78,1.14A16.48,16.48,0,0,1,101.47,50a53.47,53.47,0,0,1-.91,10.24l-2.29.67a1.17,1.17,0,0,1,0-.31c0,.07-.29,1.74-4.94,9L95.42,71c1.42-2.23,2.47-4,3.25-5.37.07,1.13.12,1.8.12,1.8Z"/><path class="cls-15" d="M91.58,25.49a4.57,4.57,0,0,0,.33,7.63l-2,.53c2.58,3.88,5.27,8.12,5,12.78a14.8,14.8,0,0,0-4-5.68l4.33,19,.57,0a23.32,23.32,0,0,1-2.71,6.55c-1.41-.38-2-2-2.39-3.41-2.53-9.42-4.33-19-6.14-28.6-.32-1.75-.65-3.61,0-5.27A5.08,5.08,0,0,1,90.17,26l-.12.72"/><path class="cls-16" d="M43.85,103.18l56-20.88A127.37,127.37,0,0,1,93,65.44c-1.9-5.75-3.52-11.6-4.94-17.48s-1.91-11.7-2.89-17.7l-.11-.68.66-.33a5.81,5.81,0,0,0,1.91-1.69,17.23,17.23,0,0,0,2.1-2.47c1.13-1.81,1.44-4,2.18-6.05a28.31,28.31,0,0,0,1.52-6.21,9.17,9.17,0,0,0-.09-3,1.82,1.82,0,0,0-.46-.94.5.5,0,0,0-.14-.08.53.53,0,0,0-.21-.07,5.5,5.5,0,0,0-.69-.11c-1.83-.21-3.58,1-5.19,2.39s-3.18,3-4.86,4.51l-.64.55c-.18.18-.38.34-.55.52a9,9,0,0,0-1,1.15,10.18,10.18,0,0,0-1.44,2.68,12.12,12.12,0,0,0-.69,3c-.1,1-7.62,3-11.6.56-1.8,1.17-8,5-14.89,5.11-3.33,0-5.22-1.65-8.66-3.83l-1.66-.35-.26-.62c-1.22-.08-3.21.46-4.51.2a40.71,40.71,0,0,0-1.34,5.53c-.11.79-.16,1-.16,1-.42,3-.77,6.61.17,9.72.23-.4.46,2.1.21,2.57a11,11,0,0,1-.94,1.39A4.52,4.52,0,0,1,32.41,46a5,5,0,0,1-1.75.55,15.93,15.93,0,0,1-3.3,0l-6.31-.37c-1.06-.07-2.12-.15-3.19-.29A8.32,8.32,0,0,0,15,45.74a3.23,3.23,0,0,0-1.88,1.55,4,4,0,0,0-.49,2.58,21,21,0,0,0,.67,2.8c.28,1,.51,2,.74,3.07s.52,2.16.65,3.24l.41,3.16a19.29,19.29,0,0,0,.61,2.9,7.79,7.79,0,0,0,1.14,2.37c.88,1.27,2.78,1.8,4.72,2,1,.07,2,.06,3,0s2.1,0,3.12-.07a22.1,22.1,0,0,0,5.94-1,35.56,35.56,0,0,1,6.21-1.78c2.26-.27,4.35,0,6.4,0a34.42,34.42,0,0,0,6.14-.66A10,10,0,0,0,55.3,65a5.21,5.21,0,0,0,2-2.07,36.4,36.4,0,0,0,2.56-5.34,3.37,3.37,0,0,0-2.11-.8,2.14,2.14,0,0,1,1.42-.2,2.48,2.48,0,0,1,1.32.71,3.32,3.32,0,0,1,.76,1.27,5.63,5.63,0,0,1,.14.69,5.77,5.77,0,0,1,0,.72c-.12-.21-.21-.42-.31-.62l-.3-.6a5.28,5.28,0,0,0-.58-.8A33.74,33.74,0,0,1,58,63.37a6.13,6.13,0,0,1-2.2,2.56,10.82,10.82,0,0,1-3.1,1.15,37.78,37.78,0,0,1-6.35,1c-2.16.16-4.3,0-6.2.3a40.1,40.1,0,0,0-5.83,1.93,22.7,22.7,0,0,1-5.18,1.11,6.81,6.81,0,0,0,3.12,4.54,10.42,10.42,0,0,0,3.42,1.38,18.69,18.69,0,0,0,3.85.42,15.41,15.41,0,0,0,3.81-.33A15.63,15.63,0,0,0,47,75.89a15.6,15.6,0,0,1,4-1.55,19.2,19.2,0,0,1,4.24-.4,63.37,63.37,0,0,0,8,0,28.79,28.79,0,0,0,7.56-2.33,15.91,15.91,0,0,0,3.45-1.87,10.88,10.88,0,0,0,2.61-2.91,25.66,25.66,0,0,0,1.86-3.57c.27-.63.56-1.25.79-1.87a3.07,3.07,0,0,0,.17-2,3.16,3.16,0,0,1,0,2c-.18.66-.42,1.29-.64,2a25.49,25.49,0,0,1-1.59,3.8,11.69,11.69,0,0,1-2.59,3.32,18.34,18.34,0,0,1-3.55,2.26,28.23,28.23,0,0,1-7.85,2.86,60,60,0,0,1-8.26.43,32.21,32.21,0,0,0-3.86.33,13.46,13.46,0,0,0-3.64,1.18,27.07,27.07,0,0,1-3.93,1.6,17.12,17.12,0,0,1-4.28.53,23.6,23.6,0,0,1-2.78-.12l-6.38,13ZM18.42,50a5,5,0,0,1-.45.56.83.83,0,0,1-.46.24A1.35,1.35,0,0,0,17,51a1.13,1.13,0,0,0-.55.79,2.32,2.32,0,0,0-.08.67c0,.25,0,.51.06.78l-.22.12a6.94,6.94,0,0,1-.58-.62,3.57,3.57,0,0,1-.44-.82,2.88,2.88,0,0,1-.15-1c0-.18.07-.37.12-.56a3.54,3.54,0,0,1,.23-.53,5.51,5.51,0,0,1,.63-.94,1.67,1.67,0,0,1,.88-.52,2.26,2.26,0,0,1,1,0,2.1,2.1,0,0,1,1,.56l0,.25A5.69,5.69,0,0,1,18.42,50Zm13.76,2.54a3.57,3.57,0,0,1-.41.83,7,7,0,0,1-.57.64L31,53.92c0-.28,0-.53,0-.78a2.87,2.87,0,0,0-.09-.68,1.1,1.1,0,0,0-1.06-.88.75.75,0,0,1-.46-.23,4.86,4.86,0,0,1-.47-.55,6.58,6.58,0,0,1-.55-.88l0-.25a2.11,2.11,0,0,1,1-.59,2,2,0,0,1,1,0,1.53,1.53,0,0,1,.89.49,6.14,6.14,0,0,1,.66.92c.08.18.17.35.24.53s.09.37.13.55A2.94,2.94,0,0,1,32.18,52.57Zm5.33-3a2.92,2.92,0,0,0-.2.66l-.1.72c-.06.5-.12,1-.21,1.52a4.84,4.84,0,0,1-.43,1.48,25.56,25.56,0,0,0-.15-3,6.83,6.83,0,0,1,0-.79,7,7,0,0,1,.07-.82,2.54,2.54,0,0,0,.06-1.2,2.44,2.44,0,0,0-.25-.47,3.39,3.39,0,0,0-.41-.44,2.81,2.81,0,0,0-1.06-.61,3.39,3.39,0,0,0-2.66.37A2.86,2.86,0,0,1,35,45.53a3.33,3.33,0,0,1,1.64.69,3.29,3.29,0,0,1,.63.66,2.45,2.45,0,0,1,.44.87A3.16,3.16,0,0,1,37.51,49.53Z"/><path class="cls-17" d="M45.57,65c-1.45-1.12-2.87-4.74-2.88-4.8,0-.4-.55-3.83-.55-3.84,0-.52-.15-7.67-.55-8.7a6.86,6.86,0,0,0-1-1.82,8.67,8.67,0,0,0-.82-.78,15.48,15.48,0,0,0-4.41-1.47c-1.52-.19-2.3,1.31-3.67,1.67-3.6,1-7.65.1-11.31-.4a19.11,19.11,0,0,0-4.45-.36,4.64,4.64,0,0,0-3.72,2.16c-.7,1.3-.46,2.88-.2,4.33q1.05,6,2.12,12A12.22,12.22,0,0,0,15,66.11c1.27,2.64,4.33,4,7.26,4.2A33.37,33.37,0,0,0,34.15,69.2c1.65-.47,3.44-1.67,5.11-2.18a3.81,3.81,0,0,0,.72.38,6.84,6.84,0,0,0,3.51.1l5.62-.82A12.63,12.63,0,0,1,45.57,65Z"/><path class="cls-18" d="M33.58,69.87c-1.14,0,1.59,2.37,2.15,3.36s3.79,1.19,4.91,1.37a48,48,0,0,1,6.59,1.85c-1.23,2.14-7,2.15-9.52,2.24a15,15,0,0,1-7.12-1.87,7.63,7.63,0,0,1-2.22-1.5,3.08,3.08,0,0,1-.93-2.43c.27-2.31,3.18-3.25,5-2.37.77.36-.9,0,0,0C33.91,70.52,32.16,69.9,33.58,69.87Z"/><path class="cls-18" d="M50.21,83.9l-3.3-.4c6.69-2,13.56-4.15,19-8.53-6.53,0-13.18,0-19.43,1.9-2.83.86-5.63,2.1-8.58,2a3.42,3.42,0,0,0-2.16.34,2.82,2.82,0,0,0-.84,1.28l-1.82,4.23c-.26.6-2.82,8.18-2.69,8.82a3.21,3.21,0,0,0,1.25,1.67c2.05,1.76,4.06,3.58,6.16,5.26-.58-1.65,2.82-9.41,4.8-11.63A20.84,20.84,0,0,1,50.21,83.9Z"/><path class="cls-19" d="M37.53,3.3a2.06,2.06,0,0,0-.39,1c-2.2,10.13.76,13.53,1.57,14,2.66-.78,7.58-3.1,9.27-4.87-.13-.63-3.32-4-3-4.2C43.05,6.91,38.42,3.55,37.53,3.3Z"/><path class="cls-20" d="M60,57.76c-.06-.06-.13-.1-.19-.15A37.45,37.45,0,0,1,57.28,63a5.19,5.19,0,0,1-2,2.07,10.18,10.18,0,0,1-2.85.85,36.39,36.39,0,0,1-6.15.67c-2,.08-4.12-.23-6.4,0a35.7,35.7,0,0,0-6.2,1.79,22.09,22.09,0,0,1-5.94.95c-1,.05-2.06.07-3.11.08s-2.07,0-3.05-.05c-1.94-.14-3.83-.67-4.72-1.94A7.35,7.35,0,0,1,15.75,65a17.9,17.9,0,0,1-.61-2.9L14.73,59c-.13-1.08-.42-2.18-.65-3.24s-.46-2.11-.73-3.07a20.19,20.19,0,0,1-.68-2.79,4.08,4.08,0,0,1,.49-2.59A3.2,3.2,0,0,1,15,45.74a8.07,8.07,0,0,1,2.82.16c1.07.13,2.14.22,3.19.29l6.3.36a15.32,15.32,0,0,0,3.31,0A5.23,5.23,0,0,0,32.41,46a4.52,4.52,0,0,0,1.42-1.21,12.16,12.16,0,0,0,.94-1.39c.22-.4.44-.81.63-1.25-.06-.1-.13-.19-.19-.3l0,.1-1.17.48c0-.12-.08-.23-.13-.35-.12.19-.25.37-.39.56a9.64,9.64,0,0,1-.87,1.19,3.31,3.31,0,0,1-2.25,1.12,17.69,17.69,0,0,1-3,0l-6.3-.35c-1-.06-2.07-.13-3.09-.25l-1.57-.21a4.92,4.92,0,0,0-1.86.07,4.83,4.83,0,0,0-2.91,2.3,5.94,5.94,0,0,0-.68,1.7,10.78,10.78,0,0,0-.25,1.77,9.5,9.5,0,0,0,.45,3.39c.34,1,.86,2,1.25,2.92.78,1.88.66,3.91.67,6.06a16,16,0,0,0,.28,3.33A8,8,0,0,0,14.89,69a6.17,6.17,0,0,0,1.45,1.34,7,7,0,0,0,1.7.81,12.57,12.57,0,0,0,3.42.61c1.12.05,2.21,0,3.26,0l1.69-.08a6.8,6.8,0,0,1-.13-1.43l2.88.14a3.91,3.91,0,0,0,0,1.08,22.68,22.68,0,0,0,5.18-1.1,39.71,39.71,0,0,1,5.83-1.93c1.91-.33,4-.14,6.2-.3a36.78,36.78,0,0,0,6.35-1,11.13,11.13,0,0,0,3.1-1.15A6.13,6.13,0,0,0,58,63.37,34.07,34.07,0,0,0,60.21,58,1.81,1.81,0,0,0,60,57.76Z"/><path class="cls-20" d="M34.7,40.2a23.64,23.64,0,0,1-.31-9.12s0-.24.16-1a40.71,40.71,0,0,1,1.34-5.53c.17-.5.27-.8.28-.81L35,23.26c0,.07-.15.42-.34,1-.91,2.83-3.21,11.21-.7,17.82a3.62,3.62,0,0,1,.13.35l1.17-.48a.36.36,0,0,1,0-.11A3.39,3.39,0,0,1,34.7,40.2Z"/><path class="cls-18" d="M38.43,19.24,39,17.42a.72.72,0,0,1-.19-.09c-.82-.47-3.82-2.93-1.62-13.06a2.06,2.06,0,0,1,.39-1c.89.25,4.9,3.84,6.78,6.12.24.29.45.56.61.79l1.57-1.05c-.13-.18-.29-.4-.47-.62-1.88-2.36-6.65-6.92-8.23-7.11s-2.31,1.2-2.51,2.49c-1.82,8.39-.23,12.25,1.28,14A4.21,4.21,0,0,0,38.43,19.24Z"/><polygon class="cls-20" points="30.13 94.92 36.77 79.58 37.1 78.9 35.4 78.07 34.81 79.27 28.15 94.66 30.13 94.92"/><path class="cls-18" d="M37.29,46.87a3.52,3.52,0,0,0-.63-.65A3.33,3.33,0,0,0,35,45.53a2.86,2.86,0,0,0-2.87,1.4,3.39,3.39,0,0,1,2.66-.37,2.68,2.68,0,0,1,1.06.61,2.43,2.43,0,0,1,.4.45,1.58,1.58,0,0,1,.26.46,2.64,2.64,0,0,1-.06,1.19,7.33,7.33,0,0,0-.07.83,6.83,6.83,0,0,0,0,.79,25.56,25.56,0,0,1,.15,3A4.84,4.84,0,0,0,37,52.43c.09-.51.15-1,.21-1.52l.1-.72a3.53,3.53,0,0,1,.2-.66,3.16,3.16,0,0,0,.22-1.78A2.59,2.59,0,0,0,37.29,46.87Z"/><path class="cls-21" d="M34.45,49.51a5.67,5.67,0,0,0-.66-.92,1.6,1.6,0,0,0-.89-.5,2.12,2.12,0,0,0-1,.06,2.08,2.08,0,0,0-1,.58l0,.25a4.9,4.9,0,0,0,.54.88,4.11,4.11,0,0,0,.47.55.72.72,0,0,0,.46.24,1.17,1.17,0,0,1,.48.11,1.11,1.11,0,0,1,.58.77,2.38,2.38,0,0,1,.09.68c0,.24,0,.5,0,.77l.22.12a5.9,5.9,0,0,0,.57-.64,3.06,3.06,0,0,0,.41-.83,2.71,2.71,0,0,0,.13-1c0-.19-.08-.37-.13-.56A4.9,4.9,0,0,0,34.45,49.51Z"/><path class="cls-21" d="M17.93,48.32a2.12,2.12,0,0,0-1,0,1.64,1.64,0,0,0-.88.52,5.51,5.51,0,0,0-.63.94c-.08.18-.17.35-.23.53a5.59,5.59,0,0,0-.12.56,2.88,2.88,0,0,0,.15,1,4,4,0,0,0,.43.82,5.81,5.81,0,0,0,.59.62l.22-.12c0-.27-.05-.53-.06-.78a2.32,2.32,0,0,1,.08-.67A1.13,1.13,0,0,1,17,51a1.35,1.35,0,0,1,.48-.12.81.81,0,0,0,.46-.25,4.35,4.35,0,0,0,.45-.56,5.12,5.12,0,0,0,.52-.89l0-.25A2.1,2.1,0,0,0,17.93,48.32Z"/><path class="cls-18" d="M61.08,59.37a6.11,6.11,0,0,0,.31.63c0-.24,0-.47,0-.71a5.47,5.47,0,0,0-.16-.7,3.27,3.27,0,0,0-.74-1.27,2.59,2.59,0,0,0-1.33-.71,2.19,2.19,0,0,0-1.43.2,3.38,3.38,0,0,1,2.12.8c.06,0,.13.09.19.15a1.81,1.81,0,0,1,.18.21,8.25,8.25,0,0,1,.56.81Z"/><line class="cls-19" x1="35.41" y1="39.42" x2="35.91" y2="40.28"/><ellipse class="cls-21" cx="54.41" cy="37.76" rx="2.74" ry="4.19" transform="translate(-0.46 0.67) rotate(-0.7)"/><path class="cls-21" d="M36.74,41.41c1,0,1.86-1.78,1.84-3.95s-.89-3.92-1.94-3.9-1.86,1.78-1.83,3.95a7.38,7.38,0,0,0,.27,1.9,4.2,4.2,0,0,0,.49,1.17A1.46,1.46,0,0,0,36.74,41.41Z"/><polygon class="cls-16" points="53.25 37.77 51.02 36.52 51.05 39.08 53.25 37.77"/><polygon class="cls-16" points="36.33 37.3 34.5 36.03 34.53 38.6 36.33 37.3"/><path class="cls-22" d="M49.74,32A13.05,13.05,0,0,1,52,31.32a13.78,13.78,0,0,1,2.39-.27,10.54,10.54,0,0,1,2.38.2A9.63,9.63,0,0,1,59,32l.72-1.25a10.83,10.83,0,0,0-2.54-1.17,12.89,12.89,0,0,0-2.74-.53,16.12,16.12,0,0,0-2.78,0,15.29,15.29,0,0,0-2.8.53Z"/><path class="cls-22" d="M42.36,28.79a12.58,12.58,0,0,0-2.38,0,13.63,13.63,0,0,0-2.28.41,10.66,10.66,0,0,0-2.17.86,9.82,9.82,0,0,0-1.9,1.36l.94,1.11a7.88,7.88,0,0,1,1.69-.91,8.46,8.46,0,0,1,1.86-.47,11,11,0,0,1,3.8.11Z"/><path class="cls-20" d="M37.1,78.9l-.33.68a23.6,23.6,0,0,0,2.78.12,17.6,17.6,0,0,0,4.28-.53,27.07,27.07,0,0,0,3.93-1.6,13.87,13.87,0,0,1,3.63-1.18,32.56,32.56,0,0,1,3.87-.33,60,60,0,0,0,8.26-.43,27.76,27.76,0,0,0,7.84-2.87,17.61,17.61,0,0,0,3.56-2.25,11.66,11.66,0,0,0,2.59-3.32,25.17,25.17,0,0,0,1.59-3.81c.22-.64.45-1.28.64-2a3.14,3.14,0,0,0,0-2,3,3,0,0,1-.17,2c-.23.63-.52,1.25-.79,1.88a25.66,25.66,0,0,1-1.86,3.57,10.88,10.88,0,0,1-2.61,2.91,15.91,15.91,0,0,1-3.45,1.87,28.79,28.79,0,0,1-7.56,2.33,61.56,61.56,0,0,1-8,0,18.64,18.64,0,0,0-4.24.41,15.1,15.1,0,0,0-4,1.54,16.09,16.09,0,0,1-3.58,1.52,15.45,15.45,0,0,1-3.82.33,19.46,19.46,0,0,1-3.84-.41,10.66,10.66,0,0,1-3.42-1.39,6.77,6.77,0,0,1-3.12-4.55,3.91,3.91,0,0,1,0-1.08l-2.88-.14a6.8,6.8,0,0,0,.13,1.43,8.35,8.35,0,0,0,1.31,3.19,10.27,10.27,0,0,0,3.38,3.12,13,13,0,0,0,3.71,1.36l.59-1.2Z"/><path class="cls-13" d="M77.49,19.8a12.68,12.68,0,0,1,1.74-3.16,11,11,0,0,1,1.21-1.35c.21-.22.44-.41.67-.62l.08-.07-.28.16C75,4.81,67.13,7.7,66.81,7.85l-.68.31-.49-.57C58.78-.63,52.13,1.85,49.13,3.38a4.8,4.8,0,0,1,2,2c1.24,2.33-.16,5-.21,5.15l-.47.35-.77.11c-1.23-.92-4.17-.64-5-.3,1.07.9,3.34,2.22,3.42,3.18l-.59.32,0,.37C43.65,19,35.1,20.28,31.78,20.62c1.81,2.5,9.73,2.71,12.67,2.56l5.36-.27-6.24,2.64c10.7,5.14,22.19-2.49,22.31-2.58l.56-.41L67,23c4.27,3,9.49.54,9.54.52l.09.21,0-.44A14.31,14.31,0,0,1,77.49,19.8Z"/><path class="cls-23" d="M48.5,25a8.55,8.55,0,0,0,3.51.88,13.53,13.53,0,0,0,3.59-.31A13.71,13.71,0,0,0,59,24.33a10.87,10.87,0,0,0,2.88-2.16c-.62.07-1.18.24-1.75.36s-1.11.29-1.67.41c-1.09.3-2.18.53-3.25.79s-2.17.47-3.27.68S49.7,24.81,48.5,25Z"/><path class="cls-23" d="M37.47,21.15a11.45,11.45,0,0,0,4.1,1,16.83,16.83,0,0,0,8.23-1.52,13,13,0,0,0,3.5-2.33c-1.4.26-2.68.65-4,.93s-2.58.58-3.87.82-2.59.44-3.91.62S38.88,21,37.47,21.15Z"/><path class="cls-23" d="M51.92,4.31a13,13,0,0,1,7,2.14,15.46,15.46,0,0,1,1.45,1.11,17.83,17.83,0,0,1,1.35,1.27,8.37,8.37,0,0,1,.62.7l.64.71c.39.49.77,1,1.22,1.49-.2-.62-.44-1.22-.7-1.83a15.7,15.7,0,0,0-1-1.7,11.37,11.37,0,0,0-2.86-2.8,9.62,9.62,0,0,0-3.76-1.46A7.39,7.39,0,0,0,51.92,4.31Z"/><path class="cls-18" d="M55.22,71.5c3.57-1,7.31-1.32,10.8-2.58s6.83-3.69,7.88-7.25a4.12,4.12,0,0,1,.26,3.5,7.51,7.51,0,0,1-2.08,2.92A16.89,16.89,0,0,1,63.27,72a43.8,43.8,0,0,1-9.78.17"/><path class="cls-20" d="M82,22.54a47.26,47.26,0,0,1,3.43-4.2,7.15,7.15,0,0,0,1.88-5,14.8,14.8,0,0,1,.54,9,8.06,8.06,0,0,1-4.63,5.11C79.9,28.8,81,24.22,82,22.54Z"/><path class="cls-24" d="M85.1,56.19l.63-1.11A53.07,53.07,0,0,0,90.16,70L84.67,35.87c-.2-1.28-1-4.66-2.25-2.33-.92,1.67,0,5.4.11,7.24A92.32,92.32,0,0,0,85.1,56.19Z"/><path class="cls-18" d="M51.17,46.3a11.78,11.78,0,0,1,1.95-.14,10,10,0,0,1,1.9.2l-.22-.44-.53,1-.26.49.55,0a12.9,12.9,0,0,0,5-1.21,41.62,41.62,0,0,1-5,.58l.29.46.52-1,.19-.38-.41-.06a8,8,0,0,0-2,0A6.7,6.7,0,0,0,51.17,46.3Z"/><path class="cls-25" d="M51.09,29.1c7,0,13.09-3.57,14.9-4.76,4.89,3,10.31,1,10.55.88l-.69-1.76s-5.14,1.93-9.32-1L66,22l-.55.4c-.12.09-11.35,8.2-21.77,3.08l6.07-2.64-5.21.27A40.64,40.64,0,0,1,38,22.87c-1.87-.26-4.81-.87-5.84-2.29,3.25-.33,11.9-1.62,15.73-6.09l.37-.44-.21-.53a9.56,9.56,0,0,0-1.61-2.47,6.11,6.11,0,0,1,3.42,0l.64.23.42-.54c.26-.33,2.58-3.37,1.69-5.86a3.37,3.37,0,0,0-1.53-1.79A8.28,8.28,0,0,1,55.73,1.9C59,2.07,62.2,4.13,65.38,8l.47.58.67-.33c.31-.14,7.77-3.51,13.56,6.45l1.64-1c-5.62-9.65-13-8.21-15.31-7.47C63,2.31,59.43.19,55.79,0A10.21,10.21,0,0,0,48.45,2.7L47.24,3.92l1.68.37c1.06.23,1.7.64,1.91,1.23.37,1-.45,2.64-1,3.55a9.55,9.55,0,0,0-5.48.72L43,10.4l1.06.95A9.91,9.91,0,0,1,46,13.71c-4.44,4.42-15.12,5.08-15.23,5.09l-1,.06.09,1c.37,3.8,6,4.89,10.21,5.16l-.59.26,1.5,1A18.42,18.42,0,0,0,51.09,29.1Z"/><path class="cls-26" d="M96.49,75.58c-1.35-3.67-2.57-7.38-3.61-11.15s-2-7.56-2.76-11.39S88.62,45.37,88,41.51s-1.13-7.73-1.53-11.59l-.56,1h0A9.23,9.23,0,0,0,89,28.59a20.61,20.61,0,0,0,2.23-2.93,32.63,32.63,0,0,0,3.08-6.52A25.53,25.53,0,0,0,95.88,12a10.93,10.93,0,0,0-.06-2,5.26,5.26,0,0,0-.75-2.18,2.93,2.93,0,0,0-1.11-1,2.43,2.43,0,0,0-.37-.16l-.33-.09a4.35,4.35,0,0,0-.52-.1,6.62,6.62,0,0,0-2.13,0,8.7,8.7,0,0,0-3.67,1.65,26.11,26.11,0,0,0-2.77,2.38L81.68,13c-.41.4-.83.79-1.25,1.17a14.67,14.67,0,0,0-1.35,1.3,12.77,12.77,0,0,0-3,6.82,16.53,16.53,0,0,0,.57,7.11,45.86,45.86,0,0,1,1.22-6.75,13.7,13.7,0,0,1,2.83-5.68,13,13,0,0,1,1.18-1.09c.45-.38.9-.77,1.33-1.17l2.57-2.36C87.51,10.79,89.23,9.25,91,9a4,4,0,0,1,1.33,0c.11,0,.23.05.34.07l.08,0,0,0a.45.45,0,0,1,.16.16,2.85,2.85,0,0,1,.34,1.1,9.25,9.25,0,0,1,0,1.51,18.2,18.2,0,0,1-.45,3.22A30.18,30.18,0,0,1,92,18.35a33.23,33.23,0,0,1-2.69,6.13,19.25,19.25,0,0,1-1.86,2.7,7.51,7.51,0,0,1-2.32,2h0l-.64.33.08.64c.51,3.92,1.15,7.79,1.87,11.66S88,49.49,88.9,53.32,90.85,60.93,92,64.69s2.47,7.47,3.93,11.12Z"/><path class="cls-19" d="M20.77,177.12l.27,0-1.88-1.92,16.73-15.14,16.33,3.6,10.06,20.67-8.77,3.78c-.14.55-.26,1-.35,1.3-.37,1.26-2.34,3.48-5.89,3.94h-.05l-1.66.21a3.68,3.68,0,0,1-.72,1.6c-1.51,1.38-4.34,1.76-8.45,1.76-1.07,0-1.25-1-1.09-2.07l-.34,0c-1.59,2.67-3.95,5.29-5.21,4.76-3.43-1.44-7.09-5.12-5.91-6.86A16.55,16.55,0,0,0,26.6,187a5.94,5.94,0,0,0-1.32-4.7C24.42,181,20.77,177.12,20.77,177.12Z"/><path class="cls-18" d="M40.6,182.47a3.9,3.9,0,0,1,.17,1.52c-.05.85-.18,1.7-.31,2.54l-1,6.54c-.14.9-.28,1.8-.48,2.69a.9.9,0,0,1-.29.58.93.93,0,0,1-.55.11,9.18,9.18,0,0,1-2.34-.4.64.64,0,0,1-.32-.18.6.6,0,0,1-.09-.38,6.25,6.25,0,0,1,.76-2.25c1-2.22,1.12-4.71,1.66-7.08a11,11,0,0,0,.47-3.26c-.05-.7-.36-1.34-.43-2-.05-.53.15-.87.64-.55A5.48,5.48,0,0,1,40.6,182.47Z"/><path class="cls-18" d="M52.6,190.05a23.68,23.68,0,0,1-3.52,3.12,3.74,3.74,0,0,1-1.22.67A1.34,1.34,0,0,1,46,192.56a4.88,4.88,0,0,1,.11-1.2,37.57,37.57,0,0,0,.51-4.61,13.32,13.32,0,0,0-.26-4c-.45-1.74-1.48-3.4-1.29-5.18a8.34,8.34,0,0,0,.16-1.4,11.77,11.77,0,0,1-.27-1.75c0-.16.09-.35.25-.37s.22.07.31.16a15.32,15.32,0,0,1,3.31,5.22c.8,1.91,1.4,3.9,2.18,5.83.48,1.17,1,2.32,1.41,3.52a2.63,2.63,0,0,1,.18,1.1,1,1,0,0,1-.63.85"/><path class="cls-18" d="M27.33,195.3a16,16,0,0,1,.46-2.93c.29-1,.76-1.92,1.06-2.91a8.74,8.74,0,0,0,.22-4.22,9.72,9.72,0,0,1-.44-3.19,6.27,6.27,0,0,0-1.12,1.3,4.46,4.46,0,0,0-.3,1.14,22.8,22.8,0,0,1-1.47,5,20.86,20.86,0,0,0-1.21,3.13,4.3,4.3,0,0,0,.38,3.25,6.14,6.14,0,0,0,.93,1c.31.3,1.17,1.55,1.44.84a2.64,2.64,0,0,0,0-.93A9.74,9.74,0,0,1,27.33,195.3Z"/><path class="cls-18" d="M27.46,183.55a2.21,2.21,0,0,0,.26-.59,2,2,0,0,0,0-.94c-.38-1.46-1.59-2.55-2.28-3.9a33,33,0,0,1-1.15-3.44.86.86,0,0,0-.29-.45c-.3-.2-.7,0-1,.24a10,10,0,0,0-1.63,1.68,1.05,1.05,0,0,0-.27.56,1,1,0,0,0,.21.62,15,15,0,0,0,.91,1.34c.76,1.05,1.54,2.1,2.33,3.14l1.18,1.53a9.22,9.22,0,0,1,1.13,1.48C26.58,184.67,27.33,183.78,27.46,183.55Z"/><path class="cls-27" d="M45.86,194.35c4.65,0,7.56-2.72,8.15-4.7a63,63,0,0,0,1.69-8.29l-1.88-.1a65.81,65.81,0,0,1-1.62,7.84c-.28.94-2.38,3.46-6.63,3.35l0,1.89Z"/><path class="cls-27" d="M35.68,190.89a14.29,14.29,0,0,0-1.37,3.57,5.77,5.77,0,0,0-.14,1.07,2.76,2.76,0,0,0,.29,1.39,2,2,0,0,0,.65.73,2,2,0,0,0,.44.22L36,198l.38,0H37a32.84,32.84,0,0,0,3.68-.18,10.47,10.47,0,0,0,3.83-1.11,5.07,5.07,0,0,0,.92-.64l.12-.1.17-.18a1.94,1.94,0,0,0,.23-.32,2.92,2.92,0,0,0,.28-.56,9.67,9.67,0,0,0,.56-1.91c.26-1.22.42-2.42.56-3.62.26-2.4.41-4.77.5-7.17v.08a2.79,2.79,0,0,0,0-.39c0-.1,0-.19,0-.29a2.93,2.93,0,0,0-.13-.53,4.59,4.59,0,0,0-.44-.92A5.41,5.41,0,0,0,46,178.79a7.81,7.81,0,0,0-1.48-1,8.76,8.76,0,0,0-1.63-.57l0,.07c.38.43.77.82,1.13,1.22s.7.81,1,1.22a6.55,6.55,0,0,1,.71,1.24,3.1,3.1,0,0,1,.2.61c0,.1,0,.19,0,.28V182s0,.1,0,0l0-.61,0,.69c-.19,2.34-.45,4.69-.78,7-.16,1.15-.34,2.31-.6,3.4a8.47,8.47,0,0,1-.46,1.49,1.06,1.06,0,0,1-.12.24l0,0,0,0-.06,0a3.2,3.2,0,0,1-.54.37,8.62,8.62,0,0,1-3,.83,31.48,31.48,0,0,1-3.41.23l-.73,0h0l0,0a.21.21,0,0,1,.07.08.66.66,0,0,1-.06-.34,2.77,2.77,0,0,1,.06-.68,15.35,15.35,0,0,1,1-3.13Z"/><path class="cls-27" d="M20,177.71c1.33,1.42,2.67,2.86,3.88,4.33a9.65,9.65,0,0,1,.8,1.1,8.38,8.38,0,0,1,.64,1.15,4.14,4.14,0,0,1,.28,2.36,10.06,10.06,0,0,1-.85,2.53,23,23,0,0,1-1.38,2.46l-.39.59a2.29,2.29,0,0,0-.38,1.18,3.6,3.6,0,0,0,.5,1.89,9.85,9.85,0,0,0,2.06,2.51,15.76,15.76,0,0,0,2.52,1.86,13.24,13.24,0,0,0,1.4.73l.18.08.33.11a2.1,2.1,0,0,0,.7,0,3.06,3.06,0,0,0,1-.35,6.46,6.46,0,0,0,1.37-1,12.92,12.92,0,0,0,1.08-1.15,20.41,20.41,0,0,0,1.79-2.5A18.51,18.51,0,0,0,37,192.82c.36-1,.67-1.89,1-2.83.61-1.88,1.18-3.76,1.73-5.66h0l.07-.25,0-.14c-.15-.53-.32-1-.5-1.5a15.15,15.15,0,0,0-.61-1.44,11.27,11.27,0,0,0-.74-1.37,4.87,4.87,0,0,0-1-1.19l-.13.12a4.6,4.6,0,0,1,.59,1.32,10.13,10.13,0,0,1,.31,1.43c.08.48.13,1,.17,1.45s.06,1,.06,1.44l0-.39h0c-.54,1.87-1.11,3.74-1.71,5.59-.3.92-.61,1.86-.94,2.73A16.51,16.51,0,0,1,34,194.6a18.38,18.38,0,0,1-1.63,2.27,7.58,7.58,0,0,1-1.89,1.74,1,1,0,0,1-.36.13s0,0,0,0,.05,0,0,0l-.15-.07a10.74,10.74,0,0,1-1.21-.63,13.4,13.4,0,0,1-2.21-1.63,8.34,8.34,0,0,1-1.67-2,2,2,0,0,1-.28-.91.53.53,0,0,1,.06-.21l.42-.63a23.17,23.17,0,0,0,1.5-2.67,11.8,11.8,0,0,0,1-3,5.94,5.94,0,0,0-.41-3.4,9.25,9.25,0,0,0-.78-1.43,11,11,0,0,0-.92-1.27c-1.29-1.56-2.62-3-4-4.44Z"/><path class="cls-27" d="M27.55,186.35a9.18,9.18,0,0,1,.11-1.34,10.8,10.8,0,0,1,.3-1.37,7.85,7.85,0,0,1,.49-1.33,7.56,7.56,0,0,1,.72-1.26l-.18-.17A7.87,7.87,0,0,0,27.9,182,8.75,8.75,0,0,0,27,183.2a13.88,13.88,0,0,0-.74,1.37,11.36,11.36,0,0,0-.56,1.53Z"/><path class="cls-18" d="M35.49,177.57c-.06.07-.19-.79-.17-.9a1.56,1.56,0,0,1,.62-.79c.37-.29,1.34-.85,1.76-.47C38.56,176.23,35.9,177.08,35.49,177.57Z"/><path class="cls-18" d="M35.83,186a.8.8,0,0,1-.24.6.54.54,0,0,1-.68-.14,1.48,1.48,0,0,1-.29-.69,2.72,2.72,0,0,1,.14-2.31,1.72,1.72,0,0,1,.9-.61A6.22,6.22,0,0,1,35.83,186Z"/><path class="cls-28" d="M37.26,149.17c-.18-.17-14.7-5.89-14.7-5.89L11.37,153.39l1.94,11.7,8.19,3.4L41,160.57Z"/><path class="cls-28" d="M33.59,141.55c-.11-9.39-1.8-40.73-1.8-40.73-3.24,3.23-6,4.68-15.19,18.94-6.71,10.36-19.26,27-14.67,34.1s4.66,5.24,13,17.13"/><path class="cls-29" d="M14.11,171.53l1.55-1.08a120.34,120.34,0,0,0-8.15-10.69,49.88,49.88,0,0,1-4.79-6.41C-.92,147.71,8,134.43,14.45,124.72c1.05-1.57,2.05-3.06,2.94-4.45,7.67-11.84,10.75-14.72,13.48-17.26l.08-.08c.38,7.12,1.6,30.76,1.7,38.63l1.89,0c-.11-9.31-1.79-40.46-1.81-40.77l-.11-2.11-1.5,1.49c-.52.52-1,1-1.54,1.47-2.81,2.62-6,5.58-13.77,17.62-.9,1.38-1.89,2.87-2.94,4.43-7.15,10.71-16,24-11.74,30.7A51.09,51.09,0,0,0,6.07,161,114.77,114.77,0,0,1,14.11,171.53Z"/><path class="cls-29" d="M20,148A19.49,19.49,0,0,1,24.85,150a42,42,0,0,1,4.64,2.93q2.28,1.59,4.42,3.38c1.43,1.19,2.85,2.41,4.22,3.68-1.17-1.46-2.42-2.86-3.72-4.21s-2.63-2.69-4-3.94a43.11,43.11,0,0,0-4.5-3.52,19.43,19.43,0,0,0-5.29-2.65Z"/><path class="cls-29" d="M22.93,145.46a20,20,0,0,1,2.76,1.87,19.59,19.59,0,0,1,2.4,2.24c.38.39.71.82,1.05,1.24s.65.87.92,1.34A17.36,17.36,0,0,1,31.49,155l1.3-.52a15.09,15.09,0,0,0-1.74-3,16,16,0,0,0-2.32-2.54A17.57,17.57,0,0,0,22.93,145.46Z"/><path class="cls-30" d="M41.63,159.94s-9.51-3.2-16.88.88a20.74,20.74,0,0,0-9.23,9.54c-3,5.58.67,6.72,1.94,7.3s3.89,1.19,5.06-1.62,4-6.65,11-8.95,10.76-2.3,10.76-2.3Z"/><path class="cls-31" d="M33.92,160.29a1.12,1.12,0,0,1,.78.74,1,1,0,0,1-.5.93,3.51,3.51,0,0,1-1.16.48,12.61,12.61,0,0,1-2.25.58c-.12,0-.26,0-.28.14s.16.17.31.18a11.6,11.6,0,0,1,3.19.74,1.59,1.59,0,0,1,.57.32.44.44,0,0,1,.13.53,1,1,0,0,1-.47.35l-1.88.9a2.86,2.86,0,0,0,1.7.77,6.19,6.19,0,0,0,2-.14c.84-.18,3.36-.43,3.93-1,.9-.85-.55-1.91-.56-3,0-.43-.84-1.09-1.06-1.48a3.11,3.11,0,0,0-2.48-1.16,11.66,11.66,0,0,0-2.64,0A3.69,3.69,0,0,1,33.92,160.29Z"/><path class="cls-29" d="M17.14,178.35l-.26-.12a5,5,0,0,1-3-2.78c-.5-1.43-.16-3.26,1-5.45a21.6,21.6,0,0,1,9.53-9.85c7.58-4.18,17.09-1.06,17.49-.92l.29.09,3.36,6.25-1.29,0s-3.62,0-10.52,2.26c-5.35,1.77-8.88,4.63-10.49,8.52a3.77,3.77,0,0,1-3.66,2.58A6.08,6.08,0,0,1,17.14,178.35Zm24-17.77c-1.59-.47-9.68-2.59-16,.9a20,20,0,0,0-8.94,9.24c-.95,1.79-1.26,3.22-.91,4.24a3.64,3.64,0,0,0,2.22,1.88l.28.13a3.74,3.74,0,0,0,2.69.26,2.45,2.45,0,0,0,1.36-1.48c1.78-4.31,5.63-7.47,11.42-9.38A44.77,44.77,0,0,1,43,164.11Z"/><path class="cls-32" d="M22.13,173.05c0,1.23-1.05,3.32-2.23,3.26s-4.69-.9-3.64-3.26,1.68-3.84,1.77-3,.14,4.5,1.07,4.5S22.13,171.83,22.13,173.05Z"/><path class="cls-18" d="M98.51,147.8a79,79,0,0,0-1.28,16.68c0,.47,0,1,0,1.42l.61,0c0-.49,0-1,0-1.45a79.19,79.19,0,0,1,1.42-16.47,63.6,63.6,0,0,1,3-10.51c-.21-.25-.43-.5-.64-.76A63.6,63.6,0,0,0,98.51,147.8Z"/><path class="cls-33" d="M85.06,140.82l5.72-4.2a126.33,126.33,0,0,0,6.61,52.1c.39,1.12,1.16,2.46,2.33,2.29a1.79,1.79,0,0,0,1.35-1.55,5.21,5.21,0,0,0-.26-2.17c-4-15.34-5-31.87.14-46.85.55-1.59,1.17-3.32.6-4.89s-1.89-2.35-3-3.36c-4.18-3.62-5.44-9.57-9.4-13.18-5.37-4.89-4.52,8.53-4.53,11q0,2.76.12,5.52C84.72,136.18,85.42,140.56,85.06,140.82Z"/><path class="cls-28" d="M52.63,93.57l-3,.32s-9.14,5-8.16,15c0,0-3.29,24.54,7.27,41.4s15.77,25.34,17.85,33.6c1.57,6.24,2.93,14.89,3.5,18.74a2.35,2.35,0,0,0,2.32,2c5.78,0,22.19-.51,26.6-4.88a39.06,39.06,0,0,1,4.87-4.27,1.67,1.67,0,0,0,.64-1.71c0-.13.29-3.6.31-3.75.17-1.73-2.41-.59-3.19-2.73-1.78-4.89-2.87-11.45-2.51-22.66.67-20.77,7.29-33.19,7.29-33.19s11.15-16.7,8.76-30.39c0,0-18.55-19.6-19.38-25.43Z"/><path class="cls-31" d="M94.24,181.29c.54,3.16,1.1,6.74-.85,9.29-1.43,1.87-3.84,2.64-6.1,3.31,3.82-.67,7.5,1.25,12.42-2.25-1.12,2.61-4.63,3.83-6.74,5.73,1-.26,2.76.87,3.71.61l.72,2.13a13.65,13.65,0,0,0,7.68-9.78,2.76,2.76,0,0,1-2.73-1.29,7.72,7.72,0,0,1-1-3,108.84,108.84,0,0,1,2.11-48.16c-1.11-1.34-5.4-11-7.22-9.81-.87.57-1.5,7-1.69,8.07q-.58,3.15-1,6.33a130.24,130.24,0,0,0-.89,25.12C92.94,172.19,93.76,176.7,94.24,181.29Z"/><path class="cls-28" d="M42.4,102.21S36.18,92.9,31,93.55c0,0-3.26,14.74-5.55,18.4s-4,28.65,4.69,38.25,23,33.84,25.17,46c0,0-1.2.61-1.13,1.07a12.11,12.11,0,0,1,.37,3.13c-.18,1.89,11.43,7.77,14.53,1.81,0,0-1.68-11.33-2.44-18.29C65.23,171.33,47,152.07,45,142.62c-2.31-10.7-4.62-26-3.51-33.7C42.51,101.78,42.4,102.21,42.4,102.21Z"/><path class="cls-29" d="M69.18,202.8c-.53-3.51-1.91-12.36-3.49-18.65-2-8.06-7.19-16.51-17.73-33.33-10.37-16.56-7.68-39.89-7.43-41.91-.94-10.47,8.57-15.8,8.67-15.85l.16-.09,3-.32,44.2-18.34.17,1.21c.64,4.53,14,19.52,19.13,24.91l.2.2,0,.28c1,5.86-.18,12.88-3.55,20.86A68.09,68.09,0,0,1,107.25,132c-.39.76-6.52,13-7.16,32.74-.32,9.89.44,16.77,2.46,22.3.22.61.61.75,1.35.95s2,.56,1.89,2.2c0,.31-.28,3.08-.3,3.58a2.6,2.6,0,0,1-1.06,2.57,39,39,0,0,0-4.73,4.16c-4.59,4.55-20.6,5.12-27.26,5.15h0A3.29,3.29,0,0,1,69.18,202.8Zm34.23-13a3.39,3.39,0,0,1-2.64-2.12c-2.1-5.77-2.89-12.86-2.57-23,.67-20.75,7.13-33.09,7.4-33.61l.05-.08c.11-.16,10.77-16.31,8.67-29.42-2.51-2.66-16.76-18-19.13-24.58L52.86,94.5,50,94.81c-1.2.71-8.37,5.33-7.52,14v.11l0,.11c0,.24-3.11,24.4,7.14,40.77,10.65,17,15.87,25.53,18,33.87,1.61,6.37,3,15.29,3.53,18.83a1.37,1.37,0,0,0,1.37,1.19h0c19.86-.1,24.88-3.55,25.94-4.6a39.62,39.62,0,0,1,5-4.37.8.8,0,0,0,.25-.78c-.06-.35.29-4,.3-4v0C103.79,189.87,103.57,189.81,103.41,189.76Z"/><path class="cls-29" d="M99.7,200.45a39,39,0,0,1,4.73-4.16,2.6,2.6,0,0,0,1.06-2.57c0-.5.27-3.27.3-3.58.16-1.64-1.22-2-1.89-2.2s-1.13-.34-1.35-.95c-2-5.53-2.78-12.41-2.46-22.3.64-19.77,6.77-32,7.16-32.74a68.09,68.09,0,0,0,5.34-10.18c3.37-8,4.57-15,3.55-20.86l0-.28-.2-.2C110.79,95,97.4,80.05,96.76,75.52l-.17-1.21L52.39,92.65l-2.84.3.2,1.88,3.11-.33L95.19,76.94c2.37,6.62,16.62,21.92,19.13,24.58,2.1,13.1-8.56,29.26-8.67,29.42l-.05.08c-.27.52-6.73,12.86-7.4,33.61-.32,10.15.47,17.24,2.57,23a3.39,3.39,0,0,0,2.64,2.12c.16.05.38.11.5.16v0s-.36,3.66-.3,4a.8.8,0,0,1-.25.78,39.62,39.62,0,0,0-5,4.37Z"/><path class="cls-29" d="M102.37,188a1,1,0,0,1-.12.23l-.18.29c-.15.2-.29.4-.46.59a12.39,12.39,0,0,1-1.07,1.11A18.21,18.21,0,0,1,98,192.19a25.85,25.85,0,0,1-2.89,1.57l-1.52.67L92,195l1.65-.29,1.65-.37a29.81,29.81,0,0,0,3.24-1.05,19.69,19.69,0,0,0,3.12-1.55,13.09,13.09,0,0,0,1.47-1c.24-.19.47-.4.7-.62s.23-.22.34-.35a3.34,3.34,0,0,0,.36-.45Z"/><path class="cls-31" d="M56.1,201.94a5.76,5.76,0,0,0,4.5,1.68l-1.05-1.23c-.25-.31-.52-.71-.35-1.06.3-.6,1.42-.23,1.75-.81.23-.42-.16-.9-.54-1.19-.95-.72-4.29-2.8-5.5-2C53.53,198.22,55.39,201.21,56.1,201.94Z"/><path class="cls-29" d="M60.25,205.14c-2.8-.83-6.86-2.94-6.67-4.83a7.51,7.51,0,0,0-.22-2.11c0-.26-.1-.51-.14-.77a1.81,1.81,0,0,1,1-1.7c-2-9.26-13.52-32.35-24.82-44.89-9.13-10.14-7.1-35.69-4.79-39.39,2.17-3.48,5.39-18,5.43-18.1l.14-.66.66-.08C36.16,92,42,100,43,101.46c.4.3.32.91.19,1.85s-.34,2.56-.8,5.75c-1.09,7.61,1.21,22.72,3.51,33.36.85,4,4.84,10,9.06,16.34,5.51,8.32,11.76,17.75,12.56,25.06C68.3,190.68,70,202,70,202.07l0,.31-.14.27c-1.07,2-3.09,3.11-5.77,3.11A13.56,13.56,0,0,1,60.25,205.14ZM65.67,184c-.75-6.85-6.87-16.07-12.26-24.21-4.32-6.52-8.4-12.68-9.33-17-2.33-10.79-4.65-26.17-3.53-34,.61-4.26.81-5.78.88-6.33-1.71-2.46-6.13-7.77-9.7-8-.69,3-3.43,14.66-5.5,18s-3.83,27.77,4.58,37.12C35.15,154.39,41,162.9,46,171.78c3.25,5.77,8.89,16.59,10.26,24.26l.13.69-.63.32a3.67,3.67,0,0,0-.57.36c0,.14,0,.28.08.43a9.29,9.29,0,0,1,.25,2.55c.45.89,4.42,3.25,8.16,3.46,2.12.12,3.62-.49,4.44-1.82C67.79,200.13,66.35,190.26,65.67,184Z"/><path class="cls-28" d="M55.28,196.2a9.63,9.63,0,0,0,4.84,1.35"/><path class="cls-29" d="M54.74,197a7,7,0,0,0,1.4.45,11.08,11.08,0,0,0,1.35.21,11.49,11.49,0,0,0,2.63-.09,11.52,11.52,0,0,1-2.38-.82,12.18,12.18,0,0,1-1.06-.61,5.39,5.39,0,0,1-.86-.69Z"/><path class="cls-29" d="M62.14,137.39c-1.42-1-1.79-2.76-2-4.32L59,125.55a5.24,5.24,0,0,0-.11-.55c-.34-1.41-.54-2.54.08-3.24a2.31,2.31,0,0,1,1.77-.55H61l1.75-.17,3.44-.33,9.63-.92a2.43,2.43,0,0,1,3,2.08,48.65,48.65,0,0,1,2,10.61A3.77,3.77,0,0,1,77.27,137,74.27,74.27,0,0,1,66,138.12c-.3,0-.63,0-1,0A4.93,4.93,0,0,1,62.14,137.39ZM76,121.67l-9.63.91-3.43.33-1.75.17-.41,0h-.31a10.25,10.25,0,0,0,.27,1.46c.06.29.12.53.15.7l1.1,7.52c.18,1.23.43,2.49,1.24,3.05a4.33,4.33,0,0,0,2.69.39,72.2,72.2,0,0,0,11-1.12,3,3,0,0,0,1.75-.77,3,3,0,0,0,.32-1.8A46.56,46.56,0,0,0,77,122.35a1.9,1.9,0,0,0-.26-.66.71.71,0,0,0-.33,0C76.27,121.64,76.1,121.66,76,121.67Z"/><path class="cls-28" d="M58.89,122.51l18.66-2.12a2.25,2.25,0,0,0,1.17-.37,2.28,2.28,0,0,0,.45-2.1c-.14-1.06-.43-2.32-1.43-2.68a2.92,2.92,0,0,0-1.44,0L59.73,117.8a2.24,2.24,0,0,0-1.19.44C58,118.77,58.6,122.54,58.89,122.51Z"/><path class="cls-29" d="M57.92,122.78c-.19-.41-1.14-4.19,0-5.23a3,3,0,0,1,1.68-.68l16.57-2.58a3.76,3.76,0,0,1,1.9.06c1.69.6,2,2.67,2,3.45a3.12,3.12,0,0,1-.79,3,3.09,3.09,0,0,1-1.65.57L59,123.45h-.11A1,1,0,0,1,57.92,122.78Zm18.52-6.62-16.57,2.58a2.22,2.22,0,0,0-.58.13,9.28,9.28,0,0,0,.21,2.62l17.94-2a2,2,0,0,0,.69-.16c.11-.09.21-.38.1-1.25-.15-1.14-.41-1.77-.81-1.91a1,1,0,0,0-.31,0A5.26,5.26,0,0,0,76.44,116.16Z"/><path class="cls-31" d="M49.87,101.33c1.66-.55,3.4.55,4.71,1.72s2.68,2.54,4.43,2.65a14.65,14.65,0,0,0-5.91-9.62,1.11,1.11,0,0,0-.63-.27,1.1,1.1,0,0,0-.68.4c-2.3,2.31-4.43,5.69-4.83,9,.54-.47.6-1.41.93-2A3.68,3.68,0,0,1,49.87,101.33Z"/><path class="cls-31" d="M38.26,104.28a22.51,22.51,0,0,0-3-2.51c-4.39-2.49-5.5,5.64-6.84,5-.74-.33.65-4.29.53-5.1a4.13,4.13,0,0,1,.45-2.38,10.91,10.91,0,0,1,3.13-3.6,3.88,3.88,0,0,1,1.55-.88,3.72,3.72,0,0,1,2.9,1,11.07,11.07,0,0,1,3.94,4.94c.48,1.3.84,3.38.15,4.69C40.14,107.19,39.08,105,38.26,104.28Z"/><path class="cls-28" d="M37.31,96.06s-8,0-8.26,5.32L28,107.05l-5.66-3.43,1.94-5A6.62,6.62,0,0,1,30,93.7,7.62,7.62,0,0,1,37.31,96.06Z"/><path class="cls-29" d="M21.17,104l2.2-5.68a7.55,7.55,0,0,1,6.41-5.57,8.51,8.51,0,0,1,8.28,2.72L39.22,97H37.3c-.07,0-7.06,0-7.3,4.43l-1.32,7.13Zm13.76-8.69a7.22,7.22,0,0,0-4.82-.7,5.69,5.69,0,0,0-4.9,4.15l-1.71,4.44,3.82,2.31.79-4.27C28.36,97.47,31.92,95.86,34.93,95.33Z"/><path class="cls-28" d="M64.24,204.85l-.18-1.34c-.62-4.65-1.88-12.92-3-18.38-1.59-7.58-5.44-16-13.3-32.76-8-17.13-7.2-40.22-7-43.94C40,97.53,48,94,53.73,93.22l-.18,1.48c-1.89.26-7,9-6.53,13.68l0,.5,0,.51c0,.22-1.38,23,5.89,38.54,8.24,17.58,12.29,26.43,14.14,35.32,1.23,5.89,2.68,16.68,3.38,21.87l0-.05Z"/><path class="cls-29" d="M63.41,205.76l-.28-2.12c-.71-5.28-2-13.26-3-18.31-1.56-7.49-5.39-15.85-13.23-32.55-8-17.12-7.32-39.8-7.09-44.34-.35-5.14,1.12-9.22,4.38-12.13a18,18,0,0,1,9.43-4l1.21-.15-.33,2.69-.06.72-.73.1C52.35,96,47.53,104,48,108.28l.06.59,0,.58c0,.22-1.35,22.82,5.81,38.08,8.27,17.65,12.33,26.53,14.21,35.52C69.23,189,70.69,199.8,71.38,205l-.95.16,0,.86ZM46.08,108.47c-.42-4.19,3.29-11.72,6.06-14C42,96.59,41.43,104.8,41.69,108.37v.11c-.23,4.32-.95,26.71,6.91,43.49s11.77,25.28,13.37,33c1.06,5.1,2.32,13.14,3,18.44l.07.55,4.28.16c-.74-5.5-2.07-15.2-3.2-20.65-1.84-8.78-5.86-17.59-14.08-35.11-7.35-15.69-6-38.77-6-39l0-.42Z"/><path class="cls-34" d="M44.23,116.29h0s0,0,0,0h0l-.5,0c.65,0,1.25.67,1.34,1.61a1.59,1.59,0,0,1-.93,1.83l.4,0h.09c.66-.07,1.12-.9,1-1.86S44.86,116.28,44.23,116.29Z"/><path class="cls-34" d="M43.44,116.36v0l.1,0Z"/><path class="cls-34" d="M43.8,119.8h0Z"/><path class="cls-35" d="M45,118c-.09-.94-.69-1.64-1.34-1.61h-.07l-.1,0a1.62,1.62,0,0,0-.89,1.82,1.61,1.61,0,0,0,1.25,1.59h.13l.09,0A1.59,1.59,0,0,0,45,118Zm-2,.32a1.88,1.88,0,0,1,.07-.82.72.72,0,0,1,.56-.57.78.78,0,0,0-.32.62,2.48,2.48,0,0,0,0,.72,1.22,1.22,0,0,0,.28.61.89.89,0,0,0,.64.3.78.78,0,0,1-.8-.12A1.15,1.15,0,0,1,43,118.27Z"/><path class="cls-36" d="M43.42,119a.78.78,0,0,0,.8.12.89.89,0,0,1-.64-.3,1.22,1.22,0,0,1-.28-.61,2.48,2.48,0,0,1,0-.72.78.78,0,0,1,.32-.62.72.72,0,0,0-.56.57,1.88,1.88,0,0,0-.07.82A1.15,1.15,0,0,0,43.42,119Z"/><path class="cls-34" d="M48.26,143.3h-.11l-.49.14c.64-.15,1.35.44,1.61,1.34a1.59,1.59,0,0,1-.61,2l.39-.11h.09c.64-.19,1-1.08.68-2S48.88,143.18,48.26,143.3Z"/><path class="cls-34" d="M47.5,143.51h0l.09,0Z"/><path class="cls-34" d="M48.45,146.83h0Z"/><path class="cls-35" d="M49.27,144.8c-.26-.9-1-1.49-1.61-1.34h-.07l-.09,0a1.64,1.64,0,0,0-.56,1.95c.25.86.9,1.43,1.51,1.35h.13l.08,0A1.59,1.59,0,0,0,49.27,144.8Zm-1.88.66a1.92,1.92,0,0,1-.08-.82.73.73,0,0,1,.46-.66.81.81,0,0,0-.21.67,2.78,2.78,0,0,0,.13.71,1.1,1.1,0,0,0,.37.55.86.86,0,0,0,.68.18.77.77,0,0,1-.8,0A1.12,1.12,0,0,1,47.39,145.46Z"/><path class="cls-36" d="M47.94,146.12a.77.77,0,0,0,.8,0,.86.86,0,0,1-.68-.18,1.1,1.1,0,0,1-.37-.55,2.78,2.78,0,0,1-.13-.71.81.81,0,0,1,.21-.67.73.73,0,0,0-.46.66,1.92,1.92,0,0,0,.08.82A1.12,1.12,0,0,0,47.94,146.12Z"/><path class="cls-34" d="M59.19,167.11h-.12l-.5.07c.65-.06,1.26.63,1.39,1.56a1.6,1.6,0,0,1-.89,1.86l.4-.06h.09c.66-.09,1.09-.93,1-1.88S59.82,167.09,59.19,167.11Z"/><path class="cls-34" d="M58.4,167.21h0l.1,0Z"/><path class="cls-34" d="M58.85,170.64h0Z"/><path class="cls-35" d="M60,168.75c-.13-.93-.74-1.62-1.39-1.56H58.5l-.1,0a1.63,1.63,0,0,0-.84,1.84c.12.89.68,1.55,1.29,1.57H59l.09,0A1.6,1.6,0,0,0,60,168.75Zm-2,.38a1.78,1.78,0,0,1,0-.83.73.73,0,0,1,.55-.58.79.79,0,0,0-.31.63,2.88,2.88,0,0,0,0,.72,1.21,1.21,0,0,0,.29.6.91.91,0,0,0,.65.28.76.76,0,0,1-.8-.1A1.14,1.14,0,0,1,58,169.13Z"/><path class="cls-36" d="M58.45,169.85a.76.76,0,0,0,.8.1.91.91,0,0,1-.65-.28,1.21,1.21,0,0,1-.29-.6,2.88,2.88,0,0,1,0-.72.79.79,0,0,1,.31-.63.73.73,0,0,0-.55.58,1.78,1.78,0,0,0,0,.83A1.14,1.14,0,0,0,58.45,169.85Z"/><path class="cls-34" d="M66.25,195.16h-.11l-.5.07c.64-.06,1.26.63,1.38,1.56a1.6,1.6,0,0,1-.89,1.86l.4-.06a.27.27,0,0,0,.09,0c.66-.08,1.1-.92,1-1.87S66.88,195.14,66.25,195.16Z"/><path class="cls-34" d="M65.46,195.26h0l.09,0Z"/><path class="cls-34" d="M65.91,198.68h0Z"/><path class="cls-35" d="M67,196.8c-.12-.93-.74-1.62-1.38-1.56h-.08l-.09,0a1.61,1.61,0,0,0-.84,1.84c.11.89.67,1.55,1.28,1.57h.14l.08,0A1.6,1.6,0,0,0,67,196.8Zm-2,.37a1.74,1.74,0,0,1,.05-.82.72.72,0,0,1,.54-.58.79.79,0,0,0-.31.63,2.88,2.88,0,0,0,0,.72,1.13,1.13,0,0,0,.29.6.91.91,0,0,0,.64.28.76.76,0,0,1-.8-.1A1.12,1.12,0,0,1,65.07,197.17Z"/><path class="cls-36" d="M65.51,197.9a.76.76,0,0,0,.8.1.91.91,0,0,1-.64-.28,1.13,1.13,0,0,1-.29-.6,2.88,2.88,0,0,1,0-.72.79.79,0,0,1,.31-.63.72.72,0,0,0-.54.58,1.74,1.74,0,0,0-.05.82A1.12,1.12,0,0,0,65.51,197.9Z"/><path class="cls-28" d="M51.19,93.22s7.68,7.75,8.13,12c0,0,22.29-3,42.25-23.13,0,0-2.69-7.58-4.52-8.82S51.19,93.22,51.19,93.22Z"/><path class="cls-29" d="M58.38,105.35C58,102.11,52.59,96,50.52,93.89l-.93-1,1.19-.57c.11-.05,11.15-5.35,22.27-10.43C96,71.45,96.88,72,97.58,72.52c2,1.34,4.42,8,4.88,9.29l.2.55-.42.43c-19.95,20.15-42.57,23.37-42.79,23.4l-1,.13ZM96.67,74.2c-3.16.26-27.94,11.67-43.89,19.31,2,2.1,6.27,7,7.29,10.66,4.24-.8,23.24-5.19,40.41-22.29C99.42,79,97.7,75.14,96.67,74.2Z"/><path class="cls-32" d="M95.61,82.44A17.64,17.64,0,0,1,90.47,87q-9.19,6.15-19,11.38c2.66.07,5.18-1.14,7.49-2.46a127.09,127.09,0,0,0,11.37-7.6l5.75-4.14A4.45,4.45,0,0,0,98,82c.51-1.78,0-4.81-1.66-5.64C97.44,78.16,96.66,80.83,95.61,82.44Z"/><path class="cls-31" d="M71.61,199.48a22.61,22.61,0,0,0,3.12-1c1.11-.31,2.24-.57,3.38-.78a38.78,38.78,0,0,1,6.8-.66c1.74,0,1.47.43.1,1a15.47,15.47,0,0,1-5.29.74C77,198.93,74.3,199.17,71.61,199.48Z"/><path class="cls-20" d="M118.89,203a9.26,9.26,0,0,0,1.61-2.72,38.82,38.82,0,0,0,3.6-5.59,26.87,26.87,0,0,0,2.44-6.4c.15-.55.2-1.14.3-1.71s.08-1.17.11-1.76l-.11-1.73,0-.36v-.38c0-.26,0-.52,0-.78a44.15,44.15,0,0,1,1.14-6.42c.2-.85.42-1.69.64-2.54l-1.5-.1c-.2.76-.41,1.52-.6,2.29a47.91,47.91,0,0,0-1.24,6.65c0,.28-.05.57-.05.87v.45l0,.46.09,1.59c0,.52,0,1-.11,1.56s-.14,1-.3,1.55a30.87,30.87,0,0,1-6,11.28l-.08.11-.07.15h0a7.9,7.9,0,0,1-1.31,2.27,3.63,3.63,0,0,1-2,1.2,4.68,4.68,0,0,1-2.43-.24,8.66,8.66,0,0,1-2-1c-.08.21-.17.41-.25.6a5.17,5.17,0,0,1-.71,1,10.21,10.21,0,0,0,2.32,1.14,6.51,6.51,0,0,0,3.41.3A5.43,5.43,0,0,0,118.89,203Z"/><path class="cls-19" d="M117.48,201.71a7.9,7.9,0,0,0,1.31-2.27h0l.07-.15.08-.11a30.87,30.87,0,0,0,6-11.28c.16-.51.19-1,.3-1.55s.07-1,.11-1.56l-.09-1.59,0-.46v-.45c0-.3,0-.59.05-.87a47.91,47.91,0,0,1,1.24-6.65c.71-2.83-8.38-12.64-7.52-15.42l-15.42,3.73c-.41.83-.81,1.66-1.18,2.5a49.14,49.14,0,0,0-2.57,7.17c.38.19.76.39,1.13.6a18.36,18.36,0,0,1,2,1.3l-.19.28a17.45,17.45,0,0,0-2.07-.93,14,14,0,0,0-2.14-.62,8.26,8.26,0,0,0-2.13-.2,4.72,4.72,0,0,0-1.72.4c-2,1.7-4,3.46-5.9,5.27-1,.93-1.91,1.87-2.79,2.85-.43.49-.85,1-1.22,1.49a7.35,7.35,0,0,0-.49.75,2.26,2.26,0,0,0-.22.52,8.2,8.2,0,0,0,.27,1.57,7.94,7.94,0,0,0,.6,1.54,5,5,0,0,0,.93,1.27,3.8,3.8,0,0,0,.37.33,38.89,38.89,0,0,1,2.84-2.77c1-.87,2-1.7,3-2.52a4.23,4.23,0,0,1,.19-1.43,3.92,3.92,0,0,1,1-1.69,10.84,10.84,0,0,1,.43,1.81l.24,1.56a10.4,10.4,0,0,0,.31,1.39,6.39,6.39,0,0,0,.74,1.54,2.29,2.29,0,0,1-2-.7,4.07,4.07,0,0,1-.41-.52c-.78.64-1.55,1.3-2.3,2a33.83,33.83,0,0,0-3,3,8.15,8.15,0,0,0-.6.78c-.1.13-.13.24-.21.35s-.11.28-.17.42a10.49,10.49,0,0,0-.48,2,30.71,30.71,0,0,0-.38,3.6c1.2.55,2.41,1.11,3.63,1.61a26,26,0,0,0,4.21,1.41l.51.11.5.06a4.17,4.17,0,0,0,.93,0,6.52,6.52,0,0,0,1.9-.69,10.74,10.74,0,0,0,1.79-1.23,6.43,6.43,0,0,1,2.07-1.16l0,0a3.61,3.61,0,0,1-1.13,2.21,14.47,14.47,0,0,1-1.38,1.2c.75.32,1.53.64,2.31.9a20.39,20.39,0,0,0,3.91,1,6.29,6.29,0,0,0,3.66-.43,3.39,3.39,0,0,0,1.28-1.19,5.57,5.57,0,0,0,.41-.85,2.16,2.16,0,0,1,.82-.86,1.62,1.62,0,0,1,.17,1.74,8.66,8.66,0,0,0,2,1,4.68,4.68,0,0,0,2.43.24A3.63,3.63,0,0,0,117.48,201.71Z"/><path class="cls-18" d="M89.12,197.43c-.74-.31-1.54-.77-1.71-1.55a2.65,2.65,0,0,1,.46-1.75,49,49,0,0,1,4.18-6.38c.49-.63,1-1.54.45-2.13s-1.51-.17-2.14.33a16.11,16.11,0,0,0-5.83,9.9,4.35,4.35,0,0,0,.15,2.48,4.81,4.81,0,0,0,2.79,2.11,14.66,14.66,0,0,0,6.4,1.44c1.34-.08,6.47-2.43,3.11-2.8A26.76,26.76,0,0,1,89.12,197.43Z"/><path class="cls-18" d="M87.05,185.74a6.16,6.16,0,0,1,1.28-2.21L96.59,173a2.2,2.2,0,0,0-1.89-.25,5.74,5.74,0,0,0-1.72.93,36.33,36.33,0,0,0-6.86,6.3c-1.53,1.81-2.94,4-2.8,6.34a3.4,3.4,0,0,0,1.55,2.83c.73.4,2.34.34,2.66-.62S86.78,186.79,87.05,185.74Z"/><path class="cls-18" d="M102.25,200.76a9.47,9.47,0,0,0,6.25-.92,1,1,0,0,1-.16,1.15,2.39,2.39,0,0,1-1,.65,7.23,7.23,0,0,1-5.76-.42,2.12,2.12,0,0,1,2-.44"/><path class="cls-20" d="M97.05,200.7c.48.23,1,.46,1.49.68a14.47,14.47,0,0,0,1.38-1.2,3.61,3.61,0,0,0,1.13-2.21l0,0a6.43,6.43,0,0,0-2.07,1.16,10.74,10.74,0,0,1-1.79,1.23,6.52,6.52,0,0,1-1.9.69,4.17,4.17,0,0,1-.93,0l-.5-.06-.51-.11a26,26,0,0,1-4.21-1.41c-1.22-.5-2.43-1.06-3.63-1.61a30.71,30.71,0,0,1,.38-3.6,10.49,10.49,0,0,1,.48-2c.06-.14.11-.3.17-.42s.11-.22.21-.35a8.15,8.15,0,0,1,.6-.78,33.83,33.83,0,0,1,3-3c.75-.67,1.52-1.33,2.3-2,.33-.27.66-.55,1-.81l-1.17-1.48c-.14.1-.27.22-.4.33-1,.82-2,1.65-3,2.52a38.89,38.89,0,0,0-2.84,2.77c-.12.13-.24.25-.35.39a9.13,9.13,0,0,0-.73.95l-.09.14c-.09.14-.17.3-.25.45a5,5,0,0,0-.25.59A13,13,0,0,0,84,194a35.73,35.73,0,0,0-.43,4.48h0V199l.51.3a37.4,37.4,0,0,0,4.26,2.1A23.19,23.19,0,0,0,93,202.82l.63.09.66,0a5.64,5.64,0,0,0,2.24-.41l-.33-.17Z"/><path class="cls-20" d="M111.1,201.68a1.62,1.62,0,0,0-.17-1.74,2.16,2.16,0,0,0-.82.86,5.57,5.57,0,0,1-.41.85,3.39,3.39,0,0,1-1.28,1.19,6.29,6.29,0,0,1-3.66.43,20.39,20.39,0,0,1-3.91-1c-.78-.26-1.56-.58-2.31-.9-.51-.22-1-.45-1.49-.68l-.9,1.67.33.17a27.13,27.13,0,0,0,3.72,1.61,18.24,18.24,0,0,0,4.39.93,9.16,9.16,0,0,0,2.33-.09,5.78,5.78,0,0,0,2.28-.86,4.57,4.57,0,0,0,.94-.81,5.17,5.17,0,0,0,.71-1C110.93,202.09,111,201.89,111.1,201.68Z"/><path class="cls-20" d="M85.87,189.55c.11-.14.23-.26.35-.39a3.8,3.8,0,0,1-.37-.33,5,5,0,0,1-.93-1.27,7.94,7.94,0,0,1-.6-1.54,8.2,8.2,0,0,1-.27-1.57,2.26,2.26,0,0,1,.22-.52,7.35,7.35,0,0,1,.49-.75c.37-.5.79-1,1.22-1.49.88-1,1.83-1.92,2.79-2.85,1.9-1.81,3.89-3.57,5.9-5.27a4.72,4.72,0,0,1,1.72-.4,8.26,8.26,0,0,1,2.13.2,14,14,0,0,1,2.14.62,17.45,17.45,0,0,1,2.07.93l.19-.28a18.36,18.36,0,0,0-2-1.3c-.37-.21-.75-.41-1.13-.6s-.66-.31-1-.44l-.76-.26a7.8,7.8,0,0,0-1.62-.37,6.26,6.26,0,0,0-2.66.22h0l-.11,0-.13.1c-2.09,1.76-4.12,3.56-6.1,5.45-1,1-1.95,1.91-2.88,3a20,20,0,0,0-1.35,1.64,8.66,8.66,0,0,0-.62,1,3.48,3.48,0,0,0-.46,1.34v.09a11.22,11.22,0,0,0,.34,2.06,9.41,9.41,0,0,0,.76,1.94,6.87,6.87,0,0,0,1.28,1.73,4.5,4.5,0,0,0,.52.46l.09-.14A9.13,9.13,0,0,1,85.87,189.55Z"/><path class="cls-20" d="M95,187.05a6.39,6.39,0,0,1-.74-1.54,10.4,10.4,0,0,1-.31-1.39l-.24-1.56a10.84,10.84,0,0,0-.43-1.81,3.92,3.92,0,0,0-1,1.69,4.23,4.23,0,0,0-.19,1.43c.13-.11.26-.23.4-.33L93.61,185c-.33.26-.66.54-1,.81a4.07,4.07,0,0,0,.41.52A2.29,2.29,0,0,0,95,187.05Z"/><path class="cls-24" d="M116.18,196.67c-.72,1-1.81,2.06-3,1.68.09.81.42,1.83,1.23,1.83a1.59,1.59,0,0,0,.82-.31c3.57-2.27,7.23-6.7,7.51-11.11.06-.93,0-1.44-1-1.1s-1.26,1.59-1.64,2.39A42.38,42.38,0,0,1,116.18,196.67Z"/><path class="cls-18" d="M101.65,193.48A8.16,8.16,0,0,0,104,195a1.86,1.86,0,0,1-2,.08c-.37-.19-2.34-1.52-2.31-1.93C99.79,192.2,101.43,193.31,101.65,193.48Z"/><path class="cls-18" d="M107.74,195.74l2.94.78a3.78,3.78,0,0,1-1.24.94,1.76,1.76,0,0,1-1.52-.07,1.15,1.15,0,0,1-.48-1.36.86.86,0,0,1,1.3-.32"/><polygon class="cls-28" points="118.76 137.97 102.21 165.34 129.26 173.89 140.94 141.53 118.76 137.97"/><path class="cls-31" d="M110.29,158.6a11.66,11.66,0,0,0-.62,3.69,4.49,4.49,0,0,0,1.51,3.32l-6.94-2.35c-.4-.13-.87-.35-.93-.77a1.15,1.15,0,0,1,.24-.74l10.81-17.86c.81,1.14,1.54,1.57,1,2.84s-1.38,2.54-2,3.83A55,55,0,0,0,110.29,158.6Z"/><path class="cls-29" d="M117.94,138.68c-2,2.65-3.92,5.34-5.8,8.08s-3.69,5.51-5.43,8.33-3.41,5.71-4.92,8.69A46.86,46.86,0,0,0,98,173.16l1.83.44a45.93,45.93,0,0,1,3.52-9c1.44-2.94,3-5.8,4.75-8.62s3.46-5.59,5.3-8.32,3.72-5.44,5.67-8.08Z"/><path class="cls-28" d="M103.84,163.09s-2.57-1.24-3.59,1.08-3.21,7.36-.44,8.9,11.31,2.7,21.32,7.71c8,4,8.34,1.89,8.16.85a1.75,1.75,0,0,1,.1-1,15.27,15.27,0,0,0,1.14-5.13C130.71,172.12,103.84,163.09,103.84,163.09Z"/><path class="cls-31" d="M107.47,164.56a1.56,1.56,0,0,0-1.55,2.33,4.3,4.3,0,0,0,1.09,1.35,21.58,21.58,0,0,0,3.12,2.43c.13.09.28.22.24.37s-.32.15-.5.1a13.25,13.25,0,0,0-4.46-.65,2.38,2.38,0,0,0-.92.16.89.89,0,0,0-.54.72,1.35,1.35,0,0,0,.32.78l1.68,2.36a3.62,3.62,0,0,1-2.65.22,6.72,6.72,0,0,1-2.37-1.3,5.68,5.68,0,0,1-2-2.74c-.5-1.76.33-3.59,1.14-5.23a5.11,5.11,0,0,1,1.21-1.78,4.08,4.08,0,0,1,3.86-.37,13.05,13.05,0,0,1,3.28,1.39A4.18,4.18,0,0,0,107.47,164.56Z"/><path class="cls-29" d="M120.71,181.63a86.22,86.22,0,0,0-15.92-5.88,30.14,30.14,0,0,1-5.44-1.86c-3.53-1.95-1-7.66,0-10.1a3.19,3.19,0,0,1,1.79-1.78,4.22,4.22,0,0,1,3,.2c.62.21,7.07,2.4,13.41,4.95,14,5.62,13.92,7.45,13.87,8.43a16.37,16.37,0,0,1-1.21,5.45.81.81,0,0,0,0,.43,2.11,2.11,0,0,1-.74,2.13,2.6,2.6,0,0,1-1.62.47C126.58,184.07,124.46,183.5,120.71,181.63Zm-18.88-17.84a1.28,1.28,0,0,0-.71.76c-.79,1.79-2.88,6.57-.85,7.69a30,30,0,0,0,5,1.69,88.65,88.65,0,0,1,16.25,6c5.77,2.88,6.79,2.14,6.8,2.14a.59.59,0,0,0,0-.29,2.68,2.68,0,0,1,.16-1.49,14.48,14.48,0,0,0,1.07-4.75c-.51-1.72-12.19-6.9-26-11.56l-.11-.05a2.93,2.93,0,0,0-1.08-.24A1.5,1.5,0,0,0,101.83,163.79Z"/><path class="cls-32" d="M126.9,180.78a1.41,1.41,0,0,1-1.26-.1l-3.72-1.56c1-.57,2.47.23,3.32-.54a2,2,0,0,0,.52-1.21,4.62,4.62,0,0,0-.27-2.52,3.18,3.18,0,0,0-1-1.21,5.48,5.48,0,0,0-.43-.92c0-.07-.08-.16,0-.23s.22-.05.32,0c.83.53,1.64,1.07,2.44,1.63a3.25,3.25,0,0,1,1.44,1.63,3.4,3.4,0,0,1-.17,1.78l-.69,2.37A1.45,1.45,0,0,1,126.9,180.78Z"/><path class="cls-28" d="M130.28,143.57c-14.2-3.9-35.56-23.08-41.31-29.36s.88-18.79.88-18.79S98.64,83,110.7,92.91c0,0,23.73,19.09,32.89,36.69,4,7.59,2.07,8.12-14.33,44.29"/><path class="cls-29" d="M130.29,143.55a3.74,3.74,0,0,0-1.94-1.16c-.69-.24-1.36-.53-2-.8-1.34-.59-2.66-1.22-4-1.92a83.85,83.85,0,0,1-7.53-4.57,155,155,0,0,1-14-10.74q-3.37-2.86-6.59-5.89c-1.07-1-2.13-2-3.16-3.08-.52-.52-1-1-1.51-1.59a7.91,7.91,0,0,1-1.17-1.66,9.79,9.79,0,0,1-1-4,17.37,17.37,0,0,1,.32-4.24,31.58,31.58,0,0,1,2.83-8.14l0,.08A16.94,16.94,0,0,1,93,93.26a15.4,15.4,0,0,1,3-2A11.24,11.24,0,0,1,102.81,90a14.39,14.39,0,0,1,6.49,2.88c1,.73,1.94,1.55,2.9,2.37s1.9,1.64,2.85,2.47q5.65,5,10.92,10.44a135.09,135.09,0,0,1,9.93,11.35c1.53,2,3,4,4.34,6.12.67,1.06,1.31,2.13,1.91,3.21a30.56,30.56,0,0,1,1.63,3.3,8,8,0,0,1,.65,3.34,14,14,0,0,1-.65,3.48,68.55,68.55,0,0,1-2.72,7c-2,4.61-4.21,9.18-6.33,13.78s-4.24,9.19-6.33,13.8l1.72.78,6.32-13.79c2.12-4.6,4.27-9.18,6.31-13.83a68.51,68.51,0,0,0,2.79-7.18,15,15,0,0,0,.71-4,9.72,9.72,0,0,0-.78-4.05,30.83,30.83,0,0,0-1.74-3.5q-.93-1.69-2-3.3c-1.38-2.16-2.88-4.23-4.45-6.25A135.74,135.74,0,0,0,127.21,107q-5.33-5.46-11-10.49c-1-.84-1.91-1.68-2.88-2.5s-1.93-1.63-3-2.42A16.08,16.08,0,0,0,103,88.38a12.92,12.92,0,0,0-7.82,1.45,17.91,17.91,0,0,0-3.27,2.25A18.34,18.34,0,0,0,89.22,95l0,0,0,0a33.33,33.33,0,0,0-1.76,4.2,29.85,29.85,0,0,0-1.16,4.39,19,19,0,0,0-.32,4.59,11.27,11.27,0,0,0,1.19,4.55,9.66,9.66,0,0,0,1.39,2c.51.54,1,1.08,1.56,1.61,1.05,1.06,2.13,2.08,3.21,3.1q3.27,3,6.68,5.89a159.9,159.9,0,0,0,14.22,10.73,85.67,85.67,0,0,0,7.67,4.57c1.31.7,2.67,1.33,4,1.93.7.27,1.39.57,2.1.81a3.19,3.19,0,0,0,2.29.2Z"/><path class="cls-32" d="M107.85,93.57l-2.09,1.56a100.25,100.25,0,0,1,20.32,16c-9.4-3.14-15.84-12.34-25.29-15.3l.64-.34a31.23,31.23,0,0,1-3.17-.79c-.53-1,1.71-1,2.2-1A29,29,0,0,1,107.85,93.57Z"/><path class="cls-32" d="M136.34,149.1a75.44,75.44,0,0,0-11,20.68l3.27,1.76q3.63-7.31,6.75-14.85,1.55-3.74,3-7.53c.21-.54,1.39-2.78.39-2.75C138.06,146.43,136.72,148.61,136.34,149.1Z"/><path class="cls-37" d="M65.83,129.06a.07.07,0,0,1,.08.06l.09.25.26.53a.12.12,0,0,1,0,.1l-.63.73-.5.58s0,.06,0,.09a4,4,0,0,0,1,1,.08.08,0,0,0,.11,0l.72-.69.51-.49s.07,0,.11,0l.18.08c.22.08.43.17.65.24a.1.1,0,0,1,.06.07c0,.26,0,.52,0,.78s0,.63.07,1c0,0,0,.08.06.08l.53.05a4.11,4.11,0,0,0,.86-.08.09.09,0,0,0,.08-.1c0-.57,0-1.14,0-1.71,0,0,0-.06.06-.08a3.28,3.28,0,0,0,.81-.36c.05,0,.07,0,.11,0l.35.3.94.82a.1.1,0,0,0,.09,0l.15-.11a4.34,4.34,0,0,0,.82-.89.09.09,0,0,0,0-.13l-.21-.22-1-1a.11.11,0,0,1,0-.15l.3-.77s0-.06.06-.06l.22,0,1.33-.09-.51-1.54H71c-.05,0-.08,0-.05.07a1.85,1.85,0,0,1,.16.52A2,2,0,0,1,71,129a2.08,2.08,0,0,1-.57.71,2,2,0,0,1-.77.37,1.88,1.88,0,0,1-.71,0,2.07,2.07,0,0,1-.64-.2,1.9,1.9,0,0,1-.86-.89,1.79,1.79,0,0,1-.2-.84,1.67,1.67,0,0,1,.14-.73c0-.07,0-.08-.06-.08h-.17l-3.07.15a.09.09,0,0,0-.1.08c0,.21,0,.41,0,.61s.05.52.08.77c0,.06,0,.06.08.06l.74,0Z"/><path class="cls-38" d="M70,125.89a2,2,0,0,0-.29-.75,2.59,2.59,0,0,0-.67-.69l-.2-.12v0a.08.08,0,0,0,0,0,2.32,2.32,0,0,1,.36.8,1.41,1.41,0,0,1-.25,1.16,2.91,2.91,0,0,1-.56.55,2.48,2.48,0,0,0-.57.64,1.07,1.07,0,0,0-.16.55,1.58,1.58,0,0,0,.17.74,1.33,1.33,0,0,0,.46.54,1.78,1.78,0,0,0,.55.23.9.9,0,0,0,.16,0v0l0-.07a2.23,2.23,0,0,1-.27-.56.86.86,0,0,1,.21-.89l.65-.69a1.58,1.58,0,0,0,.47-1.18A1.86,1.86,0,0,0,70,125.89Z"/><path class="cls-38" d="M69.3,128.15a.83.83,0,0,0-.29.52.79.79,0,0,0,.28.72.47.47,0,0,0,.39.13l.3-.1a1.23,1.23,0,0,0,.66-.94,2.16,2.16,0,0,0,0-.84,4.76,4.76,0,0,0-.1-.52c0-.2-.12-.4-.19-.6a1.54,1.54,0,0,0-.08-.19h0s0,0,0,.06a2.3,2.3,0,0,1-.18.73A2.87,2.87,0,0,1,69.3,128.15Z"/><path class="cls-38" d="M68.44,123.49a1.32,1.32,0,0,0-.37.3.79.79,0,0,0-.12.87,2.58,2.58,0,0,0,.25.42,1.22,1.22,0,0,1,.26.8,1.55,1.55,0,0,1-.16.63s0,0,0,.06a1.14,1.14,0,0,0,.25-.18,1.38,1.38,0,0,0,.37-.49,1.14,1.14,0,0,0-.08-1c-.09-.18-.2-.33-.3-.5a.4.4,0,0,1,0-.34.89.89,0,0,1,.23-.34,1.33,1.33,0,0,0,.33-.48.77.77,0,0,0-.1-.73s0,0,0-.05l0,0v.13a.88.88,0,0,1-.09.5A1.06,1.06,0,0,1,68.44,123.49Z"/></g></g></svg>