<svg xmlns="http://www.w3.org/2000/svg" viewBox="0 0 66.91 59.42"><defs><style>.cls-1{fill:#333;}</style></defs><title>Ahorro</title><g id="Layer_2" data-name="Layer 2"><g id="Contenido"><path class="cls-1" d="M39.54,42.39a7.19,7.19,0,0,0-2.25-3.32c-5.6-5.09-18-7.34-26-6.15l.29-2.22a1,1,0,0,0-.2-.78,1.13,1.13,0,0,0-.71-.41L4.3,28.67a1.06,1.06,0,0,0-1.19.91L0,53.1a1.07,1.07,0,0,0,.21.79,1.07,1.07,0,0,0,.7.4l6.42.85h.14a1.06,1.06,0,0,0,1-.91l.21-1.62c3.6,1.45,17.38,6.81,24.44,6.81.36,0,.71,0,1-.05,6.39-.59,24.53-9.09,27.14-14.25a2.54,2.54,0,0,0,0-2.6C58.7,38,49.44,38,39.54,42.39ZM2.24,52.33,5.07,30.9l4.32.57L6.57,52.9Zm57.23-8.17C57.65,47.75,41.37,56.59,34,57.27c-6.43.6-22.5-5.82-25-6.83l2-15.32c9-1.64,20.43,1.52,24.83,5.52a4.32,4.32,0,0,1,1.73,3.17.2.2,0,0,0,0,.07,1.35,1.35,0,0,1-.7,1.17c-2.32,1.28-9.33-1.29-13.19-3.21a1.06,1.06,0,1,0-.94,1.9c.91.45,7.69,3.75,12.37,3.75a5.89,5.89,0,0,0,2.79-.59,3.39,3.39,0,0,0,1.67-2.21c10-4.64,18.12-4.21,20-1.08C59.67,43.74,59.52,44.07,59.47,44.16Z"/><path class="cls-1" d="M66.7.44A1.08,1.08,0,0,0,65.93,0c-.32,0-7.86-.51-12.17,3.83C51.63,6,50.68,9,51,12.58A24.47,24.47,0,0,0,42,25.27a30.64,30.64,0,0,0-2.25-7.83A7.31,7.31,0,0,0,38.88,12c-1.5-2.36-4.42-3.82-8.69-4.33a1,1,0,0,0-.83.26,1,1,0,0,0-.36.79c0,.23.08,5.55,3.39,8.35a7.1,7.1,0,0,0,4.76,1.66,8.71,8.71,0,0,0,.87,0c1.8,3.77,2.73,12.34,3,15.54,0,.41.06.84.11,1.27a1.06,1.06,0,0,0,1.05.94h.1a1.06,1.06,0,0,0,1-1.13c0-.1,0-.58-.11-1.33a21.87,21.87,0,0,1,9.36-19.88,1.56,1.56,0,0,0,.2-.16,10.93,10.93,0,0,0,2.6.32,9.71,9.71,0,0,0,4.53-1.11c3.48-1.84,5.85-5.82,7-11.83A1.07,1.07,0,0,0,66.7.44Z"/></g></g></svg>