<svg xmlns="http://www.w3.org/2000/svg" viewBox="0 0 48.86 66.79"><defs><style>.cls-1{fill:#333;}</style></defs><title>Apoyos</title><g id="Layer_2" data-name="Layer 2"><g id="Contenido"><path class="cls-1" d="M7.17,11.2a1,1,0,0,0-1.11,1.1c.35,6.06,2.13,10.3,5.3,12.59a9.77,9.77,0,0,0,5.78,1.81,9.51,9.51,0,0,0,2.25-.25,1.06,1.06,0,0,0,.75-.79c.79-3.56.27-6.59-1.55-9C15,11.78,7.49,11.22,7.17,11.2Z"/><path class="cls-1" d="M25.55.33A1,1,0,0,0,24.76,0,1,1,0,0,0,24,.38c-3.87,4.72-5.44,9.07-4.66,12.91a10.17,10.17,0,0,0,4.87,6.62,1,1,0,0,0,.49.12,1,1,0,0,0,.59-.19c3-2.09,4.69-4.69,5-7.72C30.91,6.06,25.77.56,25.55.33Z"/><path class="cls-1" d="M14.05,28.72C9,24.73,1.18,26.19.85,26.25a1.08,1.08,0,0,0-.71.5,1.06,1.06,0,0,0-.09.85c2,6.13,5,10,8.87,11.48a10,10,0,0,0,3.58.66,11,11,0,0,0,5.07-1.24,1,1,0,0,0,.52-1C17.93,33.68,16.57,30.71,14.05,28.72Z"/><path class="cls-1" d="M37.5,24.89c3.17-2.29,5-6.53,5.31-12.59a1.08,1.08,0,0,0-.31-.8,1,1,0,0,0-.81-.3c-.32,0-7.79.58-11.42,5.44-1.81,2.43-2.33,5.46-1.55,9a1.05,1.05,0,0,0,.76.79,9.31,9.31,0,0,0,2.25.25A9.76,9.76,0,0,0,37.5,24.89Z"/><path class="cls-1" d="M48.72,26.75a1.06,1.06,0,0,0-.7-.5c-.33-.06-8.16-1.52-13.21,2.47-2.52,2-3.88,5-4,8.83a1,1,0,0,0,.53,1,11,11,0,0,0,5.06,1.24,10,10,0,0,0,3.58-.66c3.87-1.48,6.85-5.35,8.87-11.48A1.06,1.06,0,0,0,48.72,26.75Z"/><path class="cls-1" d="M24,24.61a1,1,0,0,0-1,1.06l.75,40.09a1.05,1.05,0,0,0,1,1h0a1,1,0,0,0,1-1.07L25,25.63A1.05,1.05,0,0,0,24,24.61Z"/></g></g></svg>