<svg xmlns="http://www.w3.org/2000/svg" viewBox="0 0 65.71 68.85"><defs><style>.cls-1{fill:#333;}</style></defs><title>Energía</title><g id="Layer_2" data-name="Layer 2"><g id="Contenido"><path class="cls-1" d="M32.86,10.49a.85.85,0,0,0,.85-.85V.86A.86.86,0,1,0,32,.86V9.64A.85.85,0,0,0,32.86,10.49Z"/><path class="cls-1" d="M21.25,13.6a.8.8,0,0,0,.42-.11A.86.86,0,0,0,22,12.32L17.6,4.72a.86.86,0,0,0-1.17-.32.86.86,0,0,0-.32,1.17l4.39,7.61A.87.87,0,0,0,21.25,13.6Z"/><path class="cls-1" d="M13.18,20.5,5.57,16.11a.86.86,0,0,0-.85,1.49L12.32,22a.81.81,0,0,0,.43.11.86.86,0,0,0,.43-1.6Z"/><path class="cls-1" d="M61,48.11l-7.61-4.39a.86.86,0,0,0-.85,1.49l7.6,4.39a.81.81,0,0,0,.43.11.86.86,0,0,0,.43-1.6Z"/><path class="cls-1" d="M10.49,32.86A.85.85,0,0,0,9.64,32H.86a.86.86,0,1,0,0,1.71H9.64A.85.85,0,0,0,10.49,32.86Z"/><path class="cls-1" d="M64.85,32H56.08a.86.86,0,1,0,0,1.71h8.77a.86.86,0,1,0,0-1.71Z"/><path class="cls-1" d="M12.32,43.72l-7.6,4.39a.86.86,0,0,0-.32,1.17.86.86,0,0,0,.75.43.8.8,0,0,0,.42-.11l7.61-4.39A.85.85,0,0,0,13.49,44,.86.86,0,0,0,12.32,43.72Z"/><path class="cls-1" d="M53,22.1a.8.8,0,0,0,.42-.11L61,17.6a.85.85,0,0,0,.31-1.17.86.86,0,0,0-1.17-.32l-7.6,4.39a.86.86,0,0,0-.32,1.17A.86.86,0,0,0,53,22.1Z"/><path class="cls-1" d="M49.28,4.4a.86.86,0,0,0-1.17.32l-4.39,7.6A.86.86,0,0,0,44,13.49a.81.81,0,0,0,.43.11.86.86,0,0,0,.74-.42L49.6,5.57A.86.86,0,0,0,49.28,4.4Z"/><path class="cls-1" d="M32.86,16.86A16,16,0,0,0,20,42.37c5,6.92,4.64,12.18,4.3,16.82-.07.94-.14,1.82-.16,2.7,0,0,0,.46,0,.6v.08c.35,3.52,4.19,6.28,8.73,6.28s8.37-2.76,8.72-6.28v-.08c0-.13,0-.55,0-.6,0-.34,0-.68,0-1h0s0,0,0-.05c0-.52-.06-1.06-.1-1.61-.35-4.64-.74-9.9,4.29-16.82a15.82,15.82,0,0,0,3.14-9.51A16,16,0,0,0,32.86,16.86Zm0,39a18.7,18.7,0,0,0,6.67-1.08c0,.68,0,1.34,0,2-.19.42-2.41,1.47-6.69,1.47s-6.5-1-6.7-1.47c0-.64,0-1.3,0-2A18.72,18.72,0,0,0,32.86,55.9Zm-6.95,4.91c0-.49.06-1,.1-1.49,0-.17,0-.35,0-.52A16.48,16.48,0,0,0,32.86,60a16.54,16.54,0,0,0,6.81-1.18l0,.52c0,.51.08,1,.11,1.5-.29.53-2.93,1.54-7,1.54s-6.72-1-6.94-1.45C25.92,60.87,25.91,60.84,25.91,60.81Zm7,6.33c-3.43,0-6.35-1.82-6.93-4.23a19,19,0,0,0,6.93,1.16,18.2,18.2,0,0,0,6.93-1.21C39.24,65.29,36.31,67.14,32.86,67.14ZM44.33,41.35h0a23.19,23.19,0,0,0-4.64,11.15.88.88,0,0,0,0,.17h0c-.17.4-2.16,1.35-6,1.47V42.26c8.23,1.76,9.54-8.45,9.54-8.45-5.87,0-8.44,2-9.54,4V32.94c6.64,1.25,7.7-7,7.7-7-6.52,0-8.13,3-8.46,5h-.17c-.34-2-2-5-8.47-5,0,0,1.06,8.29,7.69,7v4.89c-1.11-2-3.68-4-9.53-4,0,0,1.31,10.21,9.53,8.45v11.9c-3.75-.12-5.75-1-5.95-1.46a.51.51,0,0,0,0-.17,23.32,23.32,0,0,0-4.64-11.18,14.29,14.29,0,1,1,23,0Z"/></g></g></svg>