<svg xmlns="http://www.w3.org/2000/svg" viewBox="0 0 82.54 68.85"><defs><style>.cls-1{fill:#333;}</style></defs><title>Estimulos</title><g id="Layer_2" data-name="Layer 2"><g id="Contenido"><path class="cls-1" d="M82.1,46.25c-3.62-6-16-6-29.23-.17a9.69,9.69,0,0,0-3-4.44c-7.5-6.8-24-9.82-34.72-8.22l.39-3a1.38,1.38,0,0,0-.28-1,1.36,1.36,0,0,0-.93-.54L5.74,27.73A1.42,1.42,0,0,0,4.16,29L0,60.41A1.42,1.42,0,0,0,1.23,62l8.58,1.14H10a1.41,1.41,0,0,0,1.4-1.23l.28-2.17c4.83,1.94,23.24,9.11,32.68,9.11.49,0,1,0,1.39-.06C54.3,68,78.55,56.63,82,49.73A3.44,3.44,0,0,0,82.1,46.25ZM3,59.37,6.78,30.72l5.77.76L8.78,60.14ZM79.52,48.45c-2.43,4.8-24.2,16.62-34,17.52-8.6.82-30.09-7.77-33.42-9.13l2.7-20.49c12-2.19,27.31,2,33.2,7.39,1.12,1,2.43,2.59,2.3,4.25,0,0,0,.06,0,.09a1.78,1.78,0,0,1-.93,1.55c-3.11,1.72-12.47-1.71-17.64-4.28a1.41,1.41,0,1,0-1.26,2.53c1.22.61,10.29,5,16.55,5a7.69,7.69,0,0,0,3.72-.79,4.5,4.5,0,0,0,2.23-3c13.34-6.2,24.24-5.63,26.75-1.45C79.79,47.89,79.58,48.32,79.52,48.45Z"/><path class="cls-1" d="M49.56,12.64a3.34,3.34,0,0,0,.69.42,6,6,0,0,0,.85.31l0-4.38a4.49,4.49,0,0,0-1.09.36,2.69,2.69,0,0,0-.72.53,1.7,1.7,0,0,0-.38.66,2.09,2.09,0,0,0-.08.75,1.87,1.87,0,0,0,.21.77A2.18,2.18,0,0,0,49.56,12.64Z"/><path class="cls-1" d="M55.16,18.56a1.79,1.79,0,0,0-.22-.77,1.64,1.64,0,0,0-.49-.56,2.57,2.57,0,0,0-.71-.4,6.83,6.83,0,0,0-.87-.28l0,4.8a3.12,3.12,0,0,0,1.83-1A2.5,2.5,0,0,0,55.16,18.56Z"/><path class="cls-1" d="M51.7,30.6A15.3,15.3,0,1,0,36.4,15.3,15.3,15.3,0,0,0,51.7,30.6ZM46.39,10a4.74,4.74,0,0,1,.93-1.61,5.45,5.45,0,0,1,1.6-1.23,5.62,5.62,0,0,1,2.26-.6L51.2,5a.82.82,0,0,1,.19-.53.7.7,0,0,1,.54-.26L53,4.16l0,2.32a6.52,6.52,0,0,1,2.2.55,7.75,7.75,0,0,1,1.66,1L56.2,9.17a1.2,1.2,0,0,1-.3.38.62.62,0,0,1-.39.15,1,1,0,0,1-.42-.08l-.58-.23c-.21-.09-.45-.18-.71-.27A3.65,3.65,0,0,0,53,8.91l-.06,4.89c.58.14,1.15.28,1.72.45a5.92,5.92,0,0,1,1.55.7,3.77,3.77,0,0,1,1.17,1.15,3.69,3.69,0,0,1,.54,1.81A5.48,5.48,0,0,1,57.66,20a5.16,5.16,0,0,1-.94,1.78,5.32,5.32,0,0,1-1.63,1.31,6.91,6.91,0,0,1-2.3.73v1.74a.86.86,0,0,1-.2.51.68.68,0,0,1-.54.27L51,26.4l0-2.53a8.88,8.88,0,0,1-2.64-.56,7.19,7.19,0,0,1-2.15-1.25l.8-1.39a.94.94,0,0,1,.68-.46,1.08,1.08,0,0,1,.57.15l.7.38c.26.14.56.28.89.43a4.36,4.36,0,0,0,1.17.28l.06-5.3a16.79,16.79,0,0,1-1.69-.44A5.4,5.4,0,0,1,47.86,15a3.85,3.85,0,0,1-1.15-1.25,4.41,4.41,0,0,1-.55-2A4.48,4.48,0,0,1,46.39,10Z"/></g></g></svg>