<svg xmlns="http://www.w3.org/2000/svg" viewBox="0 0 63.99 68.64"><defs><style>.cls-1{fill:#333;}</style></defs><title>Auto</title><g id="Layer_2" data-name="Layer 2"><g id="Contenido"><path class="cls-1" d="M63.72,18.52a.91.91,0,0,0-.6-.72A96.5,96.5,0,0,1,32.62.24a.92.92,0,0,0-1.24,0A96.78,96.78,0,0,1,.87,17.8a.91.91,0,0,0-.59.72A46.75,46.75,0,0,0,2.22,37.75c3,9.64,10.5,22.82,29.42,30.82a.89.89,0,0,0,.36.07.84.84,0,0,0,.35-.07c18.92-8,26.45-21.18,29.43-30.82A47,47,0,0,0,63.72,18.52ZM60,37.21C57.19,46.42,50,59,32,66.74,17.56,60.53,8.13,50.63,4,37.29a46.83,46.83,0,0,1-2-18A100.46,100.46,0,0,0,32,2.13a100.31,100.31,0,0,0,30,17.2A46.92,46.92,0,0,1,60,37.21Z"/><path class="cls-1" d="M55.91,21.46A73.9,73.9,0,0,1,32.62,8.06a.9.9,0,0,0-1.24,0,74,74,0,0,1-23.3,13.4.91.91,0,0,0-.6.72c0,.27-3.75,26.77,24.16,38.58a1.1,1.1,0,0,0,.36.07,1,1,0,0,0,.35-.07C60.26,49,56.55,22.45,56.51,22.18A.91.91,0,0,0,55.91,21.46ZM32,58.93V36H10.57A35.86,35.86,0,0,1,9.23,23,76,76,0,0,0,32,9.94h0V36H53.38C51.09,43.74,45.45,53.11,32,58.93Z"/></g></g></svg>