<svg xmlns="http://www.w3.org/2000/svg" viewBox="0 0 87.14 68.64"><defs><style>.cls-1{fill:#333;}</style></defs><title>Compacto</title><g id="Layer_2" data-name="Layer 2"><g id="Contenido"><path class="cls-1" d="M56.65,25.61l1-2.32s5.32-2.05,5.32-2.33V16.79c0-.28-5.32-2.18-5.32-2.18l-1-2.32S58.92,7.16,58.71,7L55.7,4c-.21-.2-5.34,2.14-5.34,2.14L48,5.2S45.9,0,45.61,0H41.36c-.3,0-2.23,5.22-2.23,5.22l-2.37,1s-5.24-2.22-5.44-2l-3,3c-.21.2,2.18,5.23,2.18,5.23l-1,2.32S24.2,16.69,24.2,17v4.16c0,.29,5.33,2.19,5.33,2.19l1,2.32S28.23,30.77,28.43,31l3,2.95c.21.2,5.34-2.14,5.34-2.14l2.38,1s2.09,5.2,2.38,5.2h4.25c.29,0,2.23-5.22,2.23-5.22l2.37-1s5.24,2.23,5.44,2l3-2.95C59.05,30.64,56.65,25.61,56.65,25.61ZM43.57,25A6.08,6.08,0,1,1,49.78,19,6.16,6.16,0,0,1,43.57,25Z"/><path class="cls-1" d="M79.92,16.12a2.17,2.17,0,0,0-2.16-.49c-4.21,1.47-5.82,9.17-3.9,18.18a6.15,6.15,0,0,0-3.15,1.29c-5.21,3.79-9.24,13.71-9.63,20.56L59.28,55a.87.87,0,0,0-.69,0,.89.89,0,0,0-.46.51l-1.82,5.2a.9.9,0,0,0,.56,1.14l19.05,6.67a.93.93,0,0,0,.29,0,.86.86,0,0,0,.39-.09.89.89,0,0,0,.46-.51l1.82-5.2a.9.9,0,0,0-.55-1.15L77,61.23c1.93-2.89,9.42-14.4,10.06-20C87.7,35.77,83.77,19.19,79.92,16.12ZM75.66,66.59,58.31,60.52,59.53,57l17.36,6.07ZM85.29,41c-.62,5.46-8.75,17.73-10,19.63L62.85,56.28c.19-7.74,4.82-16.75,8.91-19.72a3.68,3.68,0,0,1,2.95-.88h.06a1.14,1.14,0,0,1,.84.79c.67,2.16-2.68,7.54-5,10.43A.9.9,0,0,0,72.07,48c.66-.84,6.43-8.31,5.26-12.08a2.86,2.86,0,0,0-1.55-1.77c-2.13-9.12-.35-15.82,2.58-16.84.12,0,.36.13.44.19C81.47,19.66,86,34.75,85.29,41Z"/><path class="cls-1" d="M29,55.58a.86.86,0,0,0-.46-.51.85.85,0,0,0-.68,0l-1.81.63c-.39-6.85-4.41-16.77-9.62-20.56a6.15,6.15,0,0,0-3.15-1.29c1.91-9,.31-16.71-3.91-18.18a2.18,2.18,0,0,0-2.16.49C3.38,19.19-.55,35.77.06,41.19c.65,5.64,8.14,17.15,10.07,20l-1.32.46a.91.91,0,0,0-.55,1.15L10.08,68a.91.91,0,0,0,.85.6,1,1,0,0,0,.3,0l19.05-6.67a.89.89,0,0,0,.55-1.14ZM1.85,41c-.71-6.24,3.82-21.33,6.5-23.47.07-.06.31-.24.44-.19,2.93,1,4.7,7.72,2.57,16.84a2.89,2.89,0,0,0-1.55,1.77C8.65,39.71,14.42,47.18,15.08,48a.9.9,0,1,0,1.41-1.11c-2.27-2.89-5.63-8.27-5-10.43a1.14,1.14,0,0,1,.85-.79h.06a3.66,3.66,0,0,1,2.94.88c4.09,3,8.72,12,8.91,19.72L11.88,60.62C10.6,58.72,2.48,46.45,1.85,41Zm9.63,25.6-1.22-3.5L27.61,57l1.22,3.5Z"/></g></g></svg>