<svg xmlns="http://www.w3.org/2000/svg" viewBox="0 0 69.74 68.64"><defs><style>.cls-1{fill:#333;}</style></defs><title>Diseñado</title><g id="Layer_2" data-name="Layer 2"><g id="Contenido"><path class="cls-1" d="M45.56,32.12c7.23-2.79,7.23-3.09,7.23-3.62V23c0-.53,0-.86-7.24-3.44L44.48,17c3.09-7,2.86-7.2,2.49-7.57l-4-3.9c-.38-.37-.6-.59-7.58,2.59L32.78,7.06C29.93,0,29.62,0,29.1,0H23.31c-.47,0-1,.65-3.35,7.08l-2.6,1.05c-7.12-3-7.35-2.8-7.71-2.44l-4,3.9c-.39.38-.62.6,2.63,7.45L7.22,19.59l-2.38.93C0,22.45,0,22.74,0,23.2v5.53c0,.54,0,.86,7.24,3.45l1.07,2.53c-3.08,7-2.87,7.18-2.49,7.56l4,3.91c.37.37.59.59,7.58-2.59L20,44.65c2.85,7.06,3.16,7.06,3.68,7.06h5.64c.54,0,.86,0,3.5-7.09l2.61-1c7.11,3,7.33,2.8,7.7,2.45l4-3.91c.38-.38.61-.61-2.64-7.45ZM41.3,44.46l-.83-.31,4.73-4.67c.12.28.24.55.33.79Zm-2.21-.86-.81-.32,6-5.91c.12.26.24.52.35.78Zm-2.17-.88-.8-.34,7.17-7.09c.13.25.25.51.37.77Zm-5.86,2.75-4.94,4.88H25l6.76-6.68-.08.2C31.47,44.4,31.26,44.94,31.06,45.47ZM29.8,48.62A17.26,17.26,0,0,1,29,50.35h-1ZM35.28,25l7.83-7.75.34.8L35.31,26.1c0-.09,0-.17,0-.25C35.32,25.56,35.3,25.28,35.28,25ZM35,23.4c-.09-.28-.19-.56-.3-.83L45,12.38l-.79,1.91ZM23.11,34a8.63,8.63,0,0,0,.86.28l-9.06,9-2,.86Zm2.49.58a7,7,0,0,0,.8,0h.31l-8.12,8-.81-.33Zm.8-1.31A7.62,7.62,0,0,1,23,32.43l-.22-.11a5.09,5.09,0,0,1-.5-.3L22,31.86c-.09-.07-.19-.13-.27-.2l-.26-.21-.21-.19a5.3,5.3,0,0,1-.53-.53.6.6,0,0,1-.08-.08q-.13-.15-.27-.33l-.1-.13L20,29.83l0,0a6.41,6.41,0,0,1-.45-.81.36.36,0,0,1,0-.09,3.52,3.52,0,0,1-.17-.39c0-.06-.05-.12-.07-.19s-.09-.24-.13-.37-.1-.35-.14-.52,0-.18-.05-.26l-.06-.42,0-.23q0-.33,0-.66a7.48,7.48,0,0,1,7.57-7.38,6.46,6.46,0,0,1,1,.07l.2,0c.3.05.61.11.91.19h0a7.67,7.67,0,0,1,1.9.83h0A7.73,7.73,0,0,1,32,20.86l.12.13a7.21,7.21,0,0,1,.59.75l0,0a8.19,8.19,0,0,1,.45.77A7.26,7.26,0,0,1,34,25.85,7.49,7.49,0,0,1,26.4,33.25Zm8.54-4.88,9.08-9,.33.8L34,30.45A9.14,9.14,0,0,0,34.94,28.37ZM45.5,21l.83.31L21.82,45.49l-.33-.8Zm2.24.83.82.31L22.73,47.63c-.11-.25-.23-.52-.34-.79Zm2.2.86.8.33L23.68,49.73c-.11-.22-.23-.48-.36-.77Zm1.49,1.56v1.13l-5.08,5-1.54.6-.27.11-.79,1.85-10,9.85-1.93.78Zm0,3v.93c-.32.17-1,.47-1.77.82ZM20,43.17l9.06-9a8.46,8.46,0,0,0,2.12-1L20.77,43.49Z"/><path class="cls-1" d="M58.48,62.48a1,1,0,0,0,.38-.07L62.31,61l3.46-1.37a1,1,0,0,0,.56-.55,1,1,0,0,0,0-.78c-3-7.62.82-11.62,1-11.79A1,1,0,0,0,67.23,45L52.38,33.63h0a.82.82,0,0,0-.2-.12h0l-.17-.05h-.32a1.55,1.55,0,0,0-.23.06,1.05,1.05,0,0,0-.21.12l-.06,0-.12.12,0,.06a1,1,0,0,0-.11.17,0,0,0,0,1,0,0,1.55,1.55,0,0,0-.07.23v0l-3,18.47a1,1,0,0,0,1,1.18c.23,0,5.78.28,8.8,7.91A1,1,0,0,0,58.48,62.48ZM49.93,52.05l2.25-13.81,1.62,4.09a2.91,2.91,0,0,0,2,5.07,2.87,2.87,0,0,0,1.07-.21,2.92,2.92,0,0,0,1.63-3.78h0a2.91,2.91,0,0,0-2.76-1.83l-1.62-4.09L65.16,46c-1.2,1.72-3.22,5.84-1.07,12.14l-5.06,2C56.28,54.08,52,52.47,49.93,52.05Zm5.82-8.44a.88.88,0,0,1,.32,1.69.88.88,0,0,1-.65-1.63A1,1,0,0,1,55.75,43.61Z"/><path class="cls-1" d="M69.67,63.67l-1.22-3.08A1,1,0,0,0,67.13,60l-9,3.58a1,1,0,0,0-.57,1.32L58.76,68a1.06,1.06,0,0,0,.54.56,1.15,1.15,0,0,0,.41.08,1,1,0,0,0,.37-.07l9-3.58A1,1,0,0,0,69.67,63.67Z"/></g></g></svg>