<svg xmlns="http://www.w3.org/2000/svg" viewBox="0 0 45.82 68.64"><defs><style>.cls-1{fill:#333;}</style></defs><title>Econo</title><g id="Layer_2" data-name="Layer 2"><g id="Contenido"><path class="cls-1" d="M44,5.3h.83a1,1,0,0,0,1-1V1a1,1,0,0,0-1-1H1A1,1,0,0,0,0,1V4.34a1,1,0,0,0,1,1h.82C2.7,8,6.07,19.56,1.78,31.67H1a1,1,0,0,0-1,1V36a1,1,0,0,0,1,1h.82c.92,2.72,4.29,14.26,0,26.37H1a1,1,0,0,0-1,1v3.38a1,1,0,0,0,1,1H44.87a1,1,0,0,0,1-1V64.3a1,1,0,0,0-1-1H44C39.75,51.23,43.12,39.69,44,37h.83a1,1,0,0,0,1-1V32.63a1,1,0,0,0-1-1H44C39.75,19.56,43.12,8,44,5.3ZM1.91,1.91h42V3.39h-42Zm42,64.82h-42V65.25h42ZM42,31.67h-9.8a1,1,0,1,0,0,1.91h11.7v1.48H33.33a1,1,0,1,0,0,1.91H42a43.74,43.74,0,0,0,0,26.37H3.81A43.66,43.66,0,0,0,3.8,37h8.69a1,1,0,1,0,0-1.91H1.91V33.58h11.7a1,1,0,1,0,0-1.91H3.81A43.66,43.66,0,0,0,3.8,5.3H42A43.74,43.74,0,0,0,42,31.67Z"/><path class="cls-1" d="M22.91,27.35a.92.92,0,0,0-.68.29c-.26.26-6.34,6.55-6.34,13a7,7,0,1,0,14.05,0c0-6.45-6.09-12.74-6.35-13A.92.92,0,0,0,22.91,27.35Zm1.25,4.87a16.42,16.42,0,0,1,3.52,7.05,1,1,0,0,1-.8,1.09h-.15a1,1,0,0,1-.94-.8,14.44,14.44,0,0,0-3.12-6.14,1,1,0,1,1,1.49-1.21Z"/></g></g></svg>