<svg xmlns="http://www.w3.org/2000/svg" viewBox="0 0 37.6 68.65"><defs><style>.cls-1{fill:#333;}</style></defs><title>Low Nox</title><g id="Layer_2" data-name="Layer 2"><g id="Contenido"><path class="cls-1" d="M35.57,52.74H34.9a2,2,0,0,0-2,2v.35H31.36V49.42a8.42,8.42,0,0,0-1.3-4.5L23.83,35a.87.87,0,0,0-.75-.41H8.27a.89.89,0,0,0-.75.41L1.29,44.92A8.5,8.5,0,0,0,0,49.42V62.26a6.4,6.4,0,0,0,6.39,6.39H25a6.4,6.4,0,0,0,6.39-6.39V59.53h1.52v.36a2,2,0,0,0,2,2h.67a2,2,0,0,0,2-2V54.76A2,2,0,0,0,35.57,52.74Zm.25,7.15a.25.25,0,0,1-.25.24H34.9a.25.25,0,0,1-.25-.24V58.64a.88.88,0,0,0-.89-.88H30.47a.88.88,0,0,0-.89.88v3.62A4.62,4.62,0,0,1,25,66.88H6.39a4.62,4.62,0,0,1-4.62-4.62V49.42a6.72,6.72,0,0,1,1-3.55l6-9.52H22.59l6,9.52a6.64,6.64,0,0,1,1,3.55V56a.89.89,0,0,0,.89.89h3.29a.89.89,0,0,0,.89-.89V54.76a.25.25,0,0,1,.25-.25h.67a.25.25,0,0,1,.25.25Z"/><path class="cls-1" d="M13.06,32.69a7.93,7.93,0,0,1-1.89-3s-1-4,2.85-9.76c0,0,0,2.79,4.05,5.54a4.55,4.55,0,0,1,1.44,6.27,5.79,5.79,0,0,1-.66.65C23.78,30.56,29,25.25,29,20.65A14.82,14.82,0,0,0,23.57,9.44l-.43-.35c2,6.32-.64,11.21-2.54,10.33-1-.46-.87-2-.87-2A25.1,25.1,0,0,0,19,7.75a12.9,12.9,0,0,0-3.52-5.49A9.37,9.37,0,0,0,12.21,0a9.68,9.68,0,0,1-2,6.4A25.69,25.69,0,0,1,7.78,9.62c-2.39,2.7-5.37,6.07-5.37,11S7.21,31.33,13.06,32.69Z"/></g></g></svg>