<svg xmlns="http://www.w3.org/2000/svg" viewBox="0 0 32.22 32.22"><defs><style>.cls-1{fill:none;stroke:#333;stroke-linecap:round;stroke-linejoin:round;stroke-width:2px;}.cls-2{fill:#333;}</style></defs><title>Pasos</title><g id="Layer_2" data-name="Layer 2"><g id="Contenido"><circle class="cls-1" cx="16.11" cy="16.11" r="15.11"/><path class="cls-2" d="M15.34,7.28c8.8,4.82,4.68,13,4.68,13a4.86,4.86,0,0,0,1.88-4.15C25.06,23.25,18,24.94,18,24.94a3.6,3.6,0,0,0-.65-4.85s.46.91-1.28,2.72C13.17,20.6,14.8,18,14.8,18c-4.26,2.48-.83,7-.83,7-8.46-4-2.71-10.93-.29-13,2.9-2.53,1.66-4.63,1.66-4.63m-.14-2a1.92,1.92,0,0,0-1.62,3c.1.35-.05,1.14-1.21,2.15-.56.49-5.48,4.92-4.79,9.92C8,23,9.82,25.2,13.11,26.75a2,2,0,0,0,2.41-.55A2,2,0,0,0,16,24.8H16a2,2,0,0,0,2,2.14,2.5,2.5,0,0,0,.47-.05A8.8,8.8,0,0,0,24,22.65c1-2.11.95-4.58-.28-7.35a2,2,0,0,0-.83-.93c-.36-2.95-2-6.31-6.59-8.84a2.22,2.22,0,0,0-1.1-.28Z"/></g></g></svg>