<svg xmlns="http://www.w3.org/2000/svg" viewBox="0 0 121.89 44.25"><defs><style>.cls-1{fill:#fff;fill-rule:evenodd;}</style></defs><title>Asset 13</title><g id="Layer_2" data-name="Layer 2"><g id="Contenido"><path class="cls-1" d="M41.68,32.69a12.39,12.39,0,0,0,4.83-1.39,17.24,17.24,0,0,0,6.75-6.67,4.13,4.13,0,0,1,.25-.38l.1.05c-.5,2.7-1,5.4-1.5,8.12l.32,0,6.46.07c.93,0,.93,0,1.12-.92.73-3.64,1.48-7.27,2.21-10.91.07-.36.2-.49.59-.49,2.9,0,5.8,0,8.7,0l.47,0c-.76,4.09-1.5,8.12-2.26,12.18l.38,0H87.54c.3,0,.39-.1.45-.38.37-1.87.76-3.75,1.14-5.63.11-.54.22-1.08.34-1.69H79.06c0-.17,0-.29,0-.41.26-1.25.53-2.51.76-3.77.06-.33.2-.4.51-.4H90.54c.08-.59.16-1.12.24-1.65.28-1.84.55-3.69.84-5.54.08-.51.08-.52-.43-.52H81.94l-.51,0a4.17,4.17,0,0,1,0-.44c.21-1.14.43-2.28.63-3.42,0-.33.16-.46.53-.46,3.21,0,6.42,0,9.62,0,.28,0,.4-.07.46-.37.31-1.65.66-3.3,1-4.95.14-.7.27-1.41.42-2.15l-.41,0H58.43c-.3,0-.45.07-.51.4C57.47,3.6,57,6.15,56.51,8.7c-.12.65-.24,1.29-.37,1.94h-.09c0-.16-.11-.33-.16-.5a17,17,0,0,0-1.31-3.6C51.9,1.08,46.49-.69,41.53.23a15.07,15.07,0,0,0-8.37,4.84A21.17,21.17,0,0,0,27.79,18.7a15.21,15.21,0,0,0,1.46,7.66A10.94,10.94,0,0,0,36,32.26,14.66,14.66,0,0,0,41.68,32.69Zm35-31.18H92.74l.33,0c-.17.88-.34,1.74-.51,2.6S92.17,6,92,6.87c-.06.37-.23.42-.54.42-3.16,0-6.32,0-9.47,0-.39,0-.57.07-.64.51-.3,1.77-.65,3.53-1,5.29a1,1,0,0,0,0,.26H90.68c-.06.46-.11.86-.17,1.27-.22,1.46-.45,2.91-.65,4.38,0,.33-.25.33-.5.33H79.82c-.69,0-.55,0-.68.58-.37,1.77-.72,3.54-1.08,5.31,0,.13,0,.26-.07.44H88.41L88,27.73c-.23,1.14-.47,2.29-.69,3.44-.06.33-.19.43-.53.43H71.23l-.46,0c.1-.55.18-1.06.28-1.57q1-5.47,2-10.94t2-10.86c.4-2.12.79-4.25,1.18-6.37C76.33,1.58,76.42,1.51,76.66,1.51ZM63.92,12.43s-.05,0-.12,0c.14-.78.27-1.55.41-2.31.09-.5.2-1,.27-1.48,0-.3.15-.43.49-.43h8.85l.39,0c-.12.71-.24,1.39-.37,2.07s-.23,1.28-.37,1.91a.37.37,0,0,1-.26.24Zm-6.65-3q.7-3.79,1.4-7.6c0-.23.13-.3.36-.3H75.18l.27,0c-.12.64-.24,1.26-.36,1.87-.24,1.17-.49,2.34-.71,3.52,0,.3-.17.37-.45.36-3.18,0-6.37,0-9.55,0-.39,0-.56.09-.63.51-.3,1.78-.65,3.55-1,5.33a1,1,0,0,0,0,.22H73.07c-.1.67-.18,1.28-.27,1.89-.19,1.23-.39,2.46-.56,3.69,0,.3-.15.41-.46.41H62.09c-.34,0-.49.07-.56.43-.73,3.66-1.48,7.31-2.22,11-.2,1-.19,1-1.19,1l-4.51-.07-.46,0c.12-.66.22-1.27.33-1.88q1-5.5,2.05-11ZM55,16.74c-.21,1.14-.43,2.28-.63,3.42,0,.31-.16.42-.49.42-1.85,0-3.7,0-5.55,0a1.16,1.16,0,0,0-1.18.64,8.5,8.5,0,0,1-3.3,3.27,6.79,6.79,0,0,1-5,.69,5.16,5.16,0,0,1-3.91-4.33A12,12,0,0,1,38.75,9.24a7,7,0,0,1,4.49-1.63,5.06,5.06,0,0,1,4.18,1.57,7.29,7.29,0,0,1,1.74,3.1,4.47,4.47,0,0,1,.14.61c.1.67.1.56.65.56,1.71,0,3.43,0,5.14,0l.53,0C55.41,14.61,55.22,15.68,55,16.74ZM36.23,31.41a10.51,10.51,0,0,1-6.84-6.7,15.18,15.18,0,0,1-.83-6.78,21.66,21.66,0,0,1,2.58-8.79,15.64,15.64,0,0,1,9.14-7.71A11.09,11.09,0,0,1,51.59,3.81,11.79,11.79,0,0,1,54.81,9.2c.31,1,.48,2,.72,3,0,.25,0,.36-.3.36H50.31c-.25,0-.33-.12-.38-.34a8.24,8.24,0,0,0-1.48-3.12,5.87,5.87,0,0,0-5.24-2.38,8.57,8.57,0,0,0-7,4.28,12.69,12.69,0,0,0-2.08,5.84,13,13,0,0,0,0,3.94,6.26,6.26,0,0,0,4.28,5.13,7.55,7.55,0,0,0,5.55-.6,9,9,0,0,0,3.72-3.49.74.74,0,0,1,.71-.39c1.67,0,3.35,0,5,0l.56,0c-.31.65-.56,1.23-.84,1.79a16.58,16.58,0,0,1-6.61,7.09,11.84,11.84,0,0,1-5,1.47A13.56,13.56,0,0,1,36.23,31.41Z"/><path class="cls-1" d="M72,28.94c-.1.52-.18,1-.28,1.59H86c.28,0,.44-.05.48-.37.08-.52.22-1,.33-1.54s.26-1.26.4-2H76.56c0-.21,0-.35.07-.49.5-2.48,1-5,1.5-7.43.07-.38.21-.48.59-.48,3.23,0,6.46,0,9.69,0,.31,0,.43-.09.46-.4.07-.55.18-1.09.26-1.63l.28-1.8H79a2.7,2.7,0,0,1,0-.36c.51-2.5,1-5,1.52-7.49,0-.25.16-.31.39-.31h9.77c.17,0,.36,0,.41-.2.24-1.17.49-2.34.74-3.55l-.2,0H77.31c-.21,0-.28.07-.32.28-.21,1.19-.44,2.38-.67,3.56q-1.08,5.71-2.17,11.44Q73.08,23.37,72,28.94Z"/><path class="cls-1" d="M52.3,22.82a1.71,1.71,0,0,0,.08-.29l-.24,0c-1.1,0-2.2,0-3.31,0a.9.9,0,0,0-.75.35,22.32,22.32,0,0,1-2.4,2.46,7.91,7.91,0,0,1-6.32,1.86,7,7,0,0,1-5.79-4.91,11.56,11.56,0,0,1-.38-5.51,14.16,14.16,0,0,1,4.2-8.55,8.49,8.49,0,0,1,7.4-2.47,6.69,6.69,0,0,1,4.28,2.53,8.05,8.05,0,0,1,1.51,3,.37.37,0,0,0,.41.31c1,0,2.06,0,3.09,0,.34,0,.4-.15.33-.43-.14-.54-.26-1.09-.43-1.62a10.5,10.5,0,0,0-2.61-4.61,10.78,10.78,0,0,0-6.52-3,11,11,0,0,0-6.56,1.22,16.7,16.7,0,0,0-6.73,7.17,19.3,19.3,0,0,0-2.09,7.24,14.42,14.42,0,0,0,.39,5.7,11.1,11.1,0,0,0,3.86,5.88A9.41,9.41,0,0,0,39.25,31a12.72,12.72,0,0,0,5.3-.72A14.52,14.52,0,0,0,52.3,22.82Z"/><path class="cls-1" d="M54.22,30.53c1.24,0,2.4,0,3.56,0,.35,0,.46-.11.52-.42q1.14-5.69,2.29-11.38c.07-.37.2-.48.59-.48h9.73c.27,0,.4-.06.42-.36a11.32,11.32,0,0,1,.18-1.12c.12-.78.24-1.56.37-2.38H61.47a2.77,2.77,0,0,1,0-.33c.43-2.48.87-4.95,1.28-7.43.06-.31.18-.36.45-.36h9.85c.15,0,.33.07.38-.2.23-1.18.48-2.34.72-3.55l-.2,0H59.79c-.23,0-.3.09-.34.31Q58.72,6.75,58,10.67L54.4,29.44C54.33,29.79,54.28,30.14,54.22,30.53Z"/><path class="cls-1" d="M2.07,38.25a1.31,1.31,0,0,1,.82-.33.94.94,0,0,1,.7.29,1.69,1.69,0,0,1,.34.93L5,39a3,3,0,0,0-.67-1.74,2,2,0,0,0-1.44-.63,2.36,2.36,0,0,0-1.45.52A4,4,0,0,0,.41,38.66,6.94,6.94,0,0,0,0,41.06a3.86,3.86,0,0,0,.59,2.38,1.76,1.76,0,0,0,1.56.81,2.22,2.22,0,0,0,1.55-.63,3.72,3.72,0,0,0,1-1.93l-1.15-.22A2.07,2.07,0,0,1,3,42.58a1.16,1.16,0,0,1-.82.41,1,1,0,0,1-.77-.48,2.35,2.35,0,0,1-.34-1.37,5.08,5.08,0,0,1,.3-1.74A2.79,2.79,0,0,1,2.07,38.25Z"/><path class="cls-1" d="M7.63,38.66H7.41a2,2,0,0,0-1.56,1,4.77,4.77,0,0,0-.52,2.26,2.52,2.52,0,0,0,.52,1.7,1.66,1.66,0,0,0,1.34.63.43.43,0,0,0,.22,0,1.79,1.79,0,0,0,1.44-.89,4,4,0,0,0,.63-2.26A2.53,2.53,0,0,0,9,39.29,1.66,1.66,0,0,0,7.63,38.66Zm.37,4a1,1,0,0,1-.59.48,1.49,1.49,0,0,1-.19,0,.77.77,0,0,1-.59-.33,1.73,1.73,0,0,1-.22-.93,4,4,0,0,1,.18-1.15A2.42,2.42,0,0,1,7,40a1,1,0,0,1,.37-.18.37.37,0,0,1,.18,0,.73.73,0,0,1,.6.3,1.43,1.43,0,0,1,.22.85A3.64,3.64,0,0,1,8,42.62Z"/><path class="cls-1" d="M15.3,38.66a1.28,1.28,0,0,0-.81.26,2,2,0,0,0-.6.66,1,1,0,0,0-1-.92,1.61,1.61,0,0,0-1.23.77l.08-.66h-1L9.86,44.1h1.07l.41-2.44c.07-.48.15-.85.18-1a2.31,2.31,0,0,1,.41-.7.81.81,0,0,1,.48-.23.46.46,0,0,1,.3.11.7.7,0,0,1,.11.38c0,.11,0,.33-.07.7l-.52,3.22H13.3l.41-2.41a4.18,4.18,0,0,1,.41-1.48c.22-.37.44-.52.7-.52a.46.46,0,0,1,.3.11.54.54,0,0,1,.11.38s0,.26-.11.66L14.6,44.1h1.11l.48-3.26a7.07,7.07,0,0,0,.11-.92A1.36,1.36,0,0,0,16,39,.92.92,0,0,0,15.3,38.66Z"/><polygon class="cls-1" points="16.78 44.1 17.86 44.1 18.71 38.77 17.64 38.77 16.78 44.1"/><polygon class="cls-1" points="19.04 36.73 17.93 36.73 17.75 38.06 18.82 38.06 19.04 36.73"/><path class="cls-1" d="M21,39.66a.78.78,0,0,1,.86.63l1-.23a1.5,1.5,0,0,0-1.67-1.4,1.75,1.75,0,0,0-1.33.48,1.65,1.65,0,0,0-.49,1.26,1.54,1.54,0,0,0,.37,1A5.65,5.65,0,0,0,21,42.1c.26.11.41.19.44.26a.34.34,0,0,1,.12.26.52.52,0,0,1-.23.41.88.88,0,0,1-.55.18.94.94,0,0,1-.56-.18,1.1,1.1,0,0,1-.33-.63l-1.08.22a1.91,1.91,0,0,0,2,1.63,1.7,1.7,0,0,0,1.34-.56,1.78,1.78,0,0,0,.48-1.33,1.33,1.33,0,0,0-.37-1,2.38,2.38,0,0,0-1-.59,2.64,2.64,0,0,1-.66-.33.42.42,0,0,1-.12-.3.51.51,0,0,1,.15-.34A.69.69,0,0,1,21,39.66Z"/><polygon class="cls-1" points="24.19 38.06 25.27 38.06 25.49 36.73 24.41 36.73 24.19 38.06"/><polygon class="cls-1" points="23.23 44.1 24.34 44.1 25.16 38.77 24.08 38.77 23.23 44.1"/><path class="cls-1" d="M27.86,38.66h-.22a2,2,0,0,0-1.56,1,4.77,4.77,0,0,0-.52,2.26,2.52,2.52,0,0,0,.52,1.7,1.66,1.66,0,0,0,1.34.63.45.45,0,0,0,.22,0,1.79,1.79,0,0,0,1.44-.89,3.73,3.73,0,0,0,.63-2.26,2.48,2.48,0,0,0-.52-1.77A1.63,1.63,0,0,0,27.86,38.66Zm.37,4a1,1,0,0,1-.59.48,1.49,1.49,0,0,1-.19,0,.77.77,0,0,1-.59-.33,1.73,1.73,0,0,1-.22-.93,4,4,0,0,1,.18-1.15,2.42,2.42,0,0,1,.45-.78,1,1,0,0,1,.37-.18.37.37,0,0,1,.18,0,.73.73,0,0,1,.6.3,1.5,1.5,0,0,1,.22.85A3.64,3.64,0,0,1,28.23,42.62Z"/><polygon class="cls-1" points="28.01 38.1 29.23 36.58 28.08 36.58 27.64 37.43 27.27 38.1 27.64 38.1 28.01 38.1"/><path class="cls-1" d="M33.31,38.66a1.49,1.49,0,0,0-.67.18,2.82,2.82,0,0,0-.74.63l.11-.7H31l-.85,5.33h1.11l.34-2.18a7.18,7.18,0,0,1,.33-1.41,1.89,1.89,0,0,1,.48-.63.6.6,0,0,1,.45-.19.37.37,0,0,1,.33.15.72.72,0,0,1,.15.45c0,.07,0,.33-.11.81l-.49,3h1.08l.48-3A10.43,10.43,0,0,0,34.38,40a1.41,1.41,0,0,0-.29-1A.9.9,0,0,0,33.31,38.66Z"/><polygon class="cls-1" points="41.83 37.99 42.05 36.73 38.16 36.73 37.01 44.1 38.12 44.1 38.64 40.99 41.31 40.99 41.49 39.73 38.83 39.73 39.12 37.99 41.83 37.99"/><path class="cls-1" d="M44.13,38.66H43.9a1.89,1.89,0,0,0-1.44.92,4.29,4.29,0,0,0-.59,2.19,3,3,0,0,0,.51,1.81,1.61,1.61,0,0,0,1.3.67.41.41,0,0,0,.22,0,1.5,1.5,0,0,0,.86-.37,2.41,2.41,0,0,0,.77-1.15l-1-.22a1.15,1.15,0,0,1-.67.71.45.45,0,0,1-.18,0,.67.67,0,0,1-.56-.33,1.43,1.43,0,0,1-.22-.85v-.15h2.7a6.2,6.2,0,0,0,.08-.93,2.8,2.8,0,0,0-.45-1.7A1.3,1.3,0,0,0,44.13,38.66ZM44.72,41H43.05a1.81,1.81,0,0,1,.33-1,.93.93,0,0,1,.52-.34H44a.55.55,0,0,1,.52.3,1.42,1.42,0,0,1,.23.89Z"/><path class="cls-1" d="M49.83,36.73l-.44,2.78a1.29,1.29,0,0,0-1.19-.85,1.63,1.63,0,0,0-1.44,1A4.7,4.7,0,0,0,46.2,42a2.73,2.73,0,0,0,.41,1.7,1.16,1.16,0,0,0,1,.56,1.61,1.61,0,0,0,.59-.15l0,0a1.88,1.88,0,0,0,.59-.52l-.11.55h1l1.15-7.37Zm-.89,5.45a1.5,1.5,0,0,1-.44.77,1.25,1.25,0,0,1-.3.19,1.27,1.27,0,0,0-.18,0,.66.66,0,0,1-.56-.34,1.56,1.56,0,0,1-.22-.89,4.5,4.5,0,0,1,.18-1.22,1.86,1.86,0,0,1,.45-.78.91.91,0,0,1,.33-.22h.15a.66.66,0,0,1,.52.33,1.61,1.61,0,0,1,.26,1A4,4,0,0,1,48.94,42.18Z"/><path class="cls-1" d="M53.17,38.66h-.23a1.89,1.89,0,0,0-1.44.92,4.29,4.29,0,0,0-.59,2.19,3,3,0,0,0,.51,1.81,1.61,1.61,0,0,0,1.3.67.41.41,0,0,0,.22,0,1.5,1.5,0,0,0,.86-.37,2.41,2.41,0,0,0,.77-1.15l-1-.22a1,1,0,0,1-.63.71.45.45,0,0,1-.18,0,.67.67,0,0,1-.56-.33A1.43,1.43,0,0,1,52,42v-.15h2.7a6.2,6.2,0,0,0,.08-.93,2.8,2.8,0,0,0-.45-1.7A1.3,1.3,0,0,0,53.17,38.66ZM53.76,41H52.09a1.81,1.81,0,0,1,.33-1,.93.93,0,0,1,.52-.34h.11a.59.59,0,0,1,.52.3,1.44,1.44,0,0,1,.19.89Z"/><path class="cls-1" d="M58,38.66c-.45,0-.86.37-1.23,1.14l.15-1h-1L55,44.1h1.07l.3-1.66a10.39,10.39,0,0,1,.33-1.6,1.88,1.88,0,0,1,.52-.74.79.79,0,0,1,.48-.18A.66.66,0,0,1,58,40l.44-1.19A1,1,0,0,0,58,38.66Z"/><path class="cls-1" d="M60.39,38.66a2.58,2.58,0,0,0-.48,0,2,2,0,0,0-.67.34,2,2,0,0,0-.66,1.15l1.07.11a.64.64,0,0,1,.26-.49.78.78,0,0,1,.41-.11.5.5,0,0,1,.4.15.41.41,0,0,1,.15.37,1.32,1.32,0,0,1-.07.48,2.65,2.65,0,0,1-.89.19s-.08,0-.15,0a1.87,1.87,0,0,0-1.26.52,2,2,0,0,0-.37,1.25,1.76,1.76,0,0,0,.33,1.12,1.05,1.05,0,0,0,.82.44,1.37,1.37,0,0,0,.63-.18,2,2,0,0,0,.55-.56,2.63,2.63,0,0,0,.08.59h1a5.2,5.2,0,0,1-.08-.74c0-.26.08-.7.15-1.33a10.85,10.85,0,0,0,.22-1.45,1.91,1.91,0,0,0,0-.48,1.38,1.38,0,0,0-.37-1A1.54,1.54,0,0,0,60.39,38.66Zm.26,3.15a3.43,3.43,0,0,1-.22.81.92.92,0,0,1-.34.41c-.07,0-.11.07-.18.07a.53.53,0,0,1-.26.08.52.52,0,0,1-.37-.19.74.74,0,0,1-.11-.44.61.61,0,0,1,.22-.52.93.93,0,0,1,.52-.22l.48-.12c.11,0,.22,0,.26-.07Z"/><polygon class="cls-1" points="62.39 44.1 63.47 44.1 64.65 36.73 63.54 36.73 62.39 44.1"/><path class="cls-1" d="M70.51,36.73l-.45,2.78a1.29,1.29,0,0,0-1.22-.85,1.63,1.63,0,0,0-1.41,1A4.7,4.7,0,0,0,66.87,42a3.13,3.13,0,0,0,.37,1.7,1.19,1.19,0,0,0,1,.56,1.46,1.46,0,0,0,.56-.15s0,0,.07,0a1.78,1.78,0,0,0,.59-.52l-.11.55h1l1.15-7.37Zm-.89,5.45a2.24,2.24,0,0,1-.45.77,1.4,1.4,0,0,1-.33.19,1.49,1.49,0,0,1-.19,0,.67.67,0,0,1-.52-.34,1.65,1.65,0,0,1-.22-.89,4.51,4.51,0,0,1,.19-1.22,1.59,1.59,0,0,1,.44-.78.82.82,0,0,1,.3-.22H69a.64.64,0,0,1,.52.33,1.86,1.86,0,0,1,.22,1A3.94,3.94,0,0,1,69.62,42.18Z"/><path class="cls-1" d="M73.84,38.66h-.26a1.85,1.85,0,0,0-1.41.92,3.93,3.93,0,0,0-.59,2.19,3,3,0,0,0,.52,1.81,1.55,1.55,0,0,0,1.29.67.27.27,0,0,0,.19,0,1.5,1.5,0,0,0,.89-.37,3.17,3.17,0,0,0,.78-1.15l-1-.22a1,1,0,0,1-.67.71.34.34,0,0,1-.19,0,.63.63,0,0,1-.51-.33,1.2,1.2,0,0,1-.26-.85v-.15h2.74a6.3,6.3,0,0,0,.07-.93,2.87,2.87,0,0,0-.44-1.7A1.38,1.38,0,0,0,73.84,38.66ZM74.43,41h-1.7a2,2,0,0,1,.37-1,.82.82,0,0,1,.48-.34h.11a.63.63,0,0,1,.56.3,1.8,1.8,0,0,1,.18.89Z"/><polygon class="cls-1" points="82.95 37.99 83.14 36.73 79.06 36.73 77.92 44.1 82.25 44.1 82.44 42.88 79.25 42.88 79.55 40.88 82.44 40.88 82.62 39.66 79.77 39.66 80.03 37.99 82.95 37.99"/><polygon class="cls-1" points="83.03 44.1 84.1 44.1 85.29 36.73 84.18 36.73 83.03 44.1"/><path class="cls-1" d="M87.55,38.66h-.22a1.82,1.82,0,0,0-1.41.92,3.94,3.94,0,0,0-.6,2.19,3,3,0,0,0,.52,1.81,1.57,1.57,0,0,0,1.3.67.34.34,0,0,0,.19,0,1.48,1.48,0,0,0,.88-.37A2.71,2.71,0,0,0,89,42.69l-1-.22a1,1,0,0,1-.66.71.36.36,0,0,1-.19,0,.77.77,0,0,1-.56-.33,1.5,1.5,0,0,1-.22-.85v-.15H89.1a6.2,6.2,0,0,0,.08-.93,2.8,2.8,0,0,0-.45-1.7A1.37,1.37,0,0,0,87.55,38.66ZM88.18,41H86.47a2.18,2.18,0,0,1,.37-1,.84.84,0,0,1,.49-.34h.11A.62.62,0,0,1,88,40a1.78,1.78,0,0,1,.19.89Z"/><path class="cls-1" d="M91.36,40a.74.74,0,0,1,.52-.22c.37,0,.6.26.63.85l1-.14a2,2,0,0,0-.48-1.3A1.39,1.39,0,0,0,92,38.66a1.87,1.87,0,0,0-1.15.4A2.52,2.52,0,0,0,90,40.21a4.19,4.19,0,0,0-.3,1.74,2.9,2.9,0,0,0,.44,1.71,1.53,1.53,0,0,0,1.23.59,1.7,1.7,0,0,0,1.15-.48,2.66,2.66,0,0,0,.77-1.45l-1-.22a3,3,0,0,1-.37.78.81.81,0,0,1-.52.22.52.52,0,0,1-.45-.26,1.24,1.24,0,0,1-.15-.7,3.79,3.79,0,0,1,.19-1.33A1.72,1.72,0,0,1,91.36,40Z"/><path class="cls-1" d="M95.33,43c-.08,0-.11-.11-.11-.26a5.19,5.19,0,0,1,.11-.67l.37-2.26h.63l.18-1.07h-.66l.29-1.85-1.26,1-.11.85h-.52l-.18,1.07h.52L94.25,42c-.07.59-.14,1-.14,1.15a1,1,0,0,0,1.11,1.11,3.45,3.45,0,0,0,.55-.07L96,43.1a3.38,3.38,0,0,0-.37,0C95.48,43.14,95.36,43.1,95.33,43Z"/><path class="cls-1" d="M99.22,38.66c-.45,0-.85.37-1.22,1.14l.18-1h-1l-.81,5.33H97.4l.26-1.66a6.65,6.65,0,0,1,.37-1.6,1.88,1.88,0,0,1,.52-.74.78.78,0,0,1,.45-.18,1,1,0,0,1,.33.07l.41-1.19A1,1,0,0,0,99.22,38.66Z"/><polygon class="cls-1" points="100.33 38.06 101.44 38.06 101.63 36.73 100.55 36.73 100.33 38.06"/><polygon class="cls-1" points="99.4 44.1 100.48 44.1 101.33 38.77 100.22 38.77 99.4 44.1"/><path class="cls-1" d="M103.4,40a.81.81,0,0,1,.52-.22c.37,0,.6.26.63.85l1-.14a2,2,0,0,0-.48-1.3,1.39,1.39,0,0,0-1.11-.48,2,2,0,0,0-1.15.4,2.52,2.52,0,0,0-.85,1.15,5,5,0,0,0-.3,1.74,2.83,2.83,0,0,0,.45,1.71,1.61,1.61,0,0,0,1.22.59,1.83,1.83,0,0,0,1.18-.48,3.22,3.22,0,0,0,.78-1.45l-1.07-.22a2.1,2.1,0,0,1-.37.78.74.74,0,0,1-.52.22.46.46,0,0,1-.41-.26,1,1,0,0,1-.19-.7,5,5,0,0,1,.19-1.33A2.11,2.11,0,0,1,103.4,40Z"/><polygon class="cls-1" points="105.85 44.1 106.92 44.1 107.78 38.77 106.7 38.77 105.85 44.1"/><polygon class="cls-1" points="106.81 38.06 107.89 38.06 108.11 36.73 107 36.73 106.81 38.06"/><path class="cls-1" d="M111.78,36.73l-.41,2.78a1.36,1.36,0,0,0-1.22-.85,1.64,1.64,0,0,0-1.45,1,4.7,4.7,0,0,0-.55,2.33,3.11,3.11,0,0,0,.4,1.7,1.17,1.17,0,0,0,1,.56,1.48,1.48,0,0,0,.6-.15,0,0,0,0,0,0,0,1.9,1.9,0,0,0,.6-.52l-.11.55h1l1.15-7.37Zm-.89,5.45a1.75,1.75,0,0,1-.41.77,1.4,1.4,0,0,1-.33.19c-.08,0-.11,0-.19,0a.62.62,0,0,1-.52-.34,1.65,1.65,0,0,1-.22-.89,3.35,3.35,0,0,1,.19-1.22,2,2,0,0,1,.4-.78,1,1,0,0,1,.34-.22h.15a.75.75,0,0,1,.55.33,1.86,1.86,0,0,1,.22,1A4,4,0,0,1,110.89,42.18Z"/><path class="cls-1" d="M115,38.66a2.33,2.33,0,0,0-.48,0,2.58,2.58,0,0,0-.71.34,2.18,2.18,0,0,0-.63,1.15l1,.11a.67.67,0,0,1,.3-.49.68.68,0,0,1,.4-.11.56.56,0,0,1,.41.15.55.55,0,0,1,.15.37,4,4,0,0,1-.07.48,2.65,2.65,0,0,1-.89.19.21.21,0,0,1-.15,0,1.87,1.87,0,0,0-1.26.52,1.8,1.8,0,0,0-.37,1.25,1.76,1.76,0,0,0,.33,1.12,1,1,0,0,0,.82.44,1.41,1.41,0,0,0,.63-.18,4.19,4.19,0,0,0,.55-.56,2.63,2.63,0,0,0,.08.59h1a7,7,0,0,1-.07-.74A8.42,8.42,0,0,1,116.3,42a10.85,10.85,0,0,0,.22-1.45,1.91,1.91,0,0,0,0-.48,1.41,1.41,0,0,0-.41-1A1.51,1.51,0,0,0,115,38.66Zm.22,3.15a1.72,1.72,0,0,1-.22.81,1.21,1.21,0,0,1-.3.41.89.89,0,0,1-.18.07.92.92,0,0,1-.26.08.52.52,0,0,1-.37-.19.75.75,0,0,1-.15-.44A.63.63,0,0,1,114,42a.81.81,0,0,1,.52-.22l.48-.12a1.38,1.38,0,0,0,.26-.07Z"/><path class="cls-1" d="M120.82,36.73l-.45,2.78a1.27,1.27,0,0,0-1.18-.85,1.65,1.65,0,0,0-1.45,1,4.7,4.7,0,0,0-.55,2.33,3.11,3.11,0,0,0,.4,1.7,1.17,1.17,0,0,0,1,.56,1.47,1.47,0,0,0,.59-.15,0,0,0,0,0,0,0,1.8,1.8,0,0,0,.6-.52l-.11.55h1l1.15-7.37Zm-.89,5.45a1.44,1.44,0,0,1-.45.77.73.73,0,0,1-.29.19c-.08,0-.11,0-.19,0a.58.58,0,0,1-.52-.34,1.65,1.65,0,0,1-.22-.89,3.35,3.35,0,0,1,.19-1.22,2,2,0,0,1,.4-.78,1,1,0,0,1,.34-.22h.15a.75.75,0,0,1,.55.33,1.86,1.86,0,0,1,.22,1A4,4,0,0,1,119.93,42.18Z"/></g></g></svg>