<svg xmlns="http://www.w3.org/2000/svg" viewBox="0 0 56.11 72.31"><defs><style>.cls-1{fill:#fff;}</style></defs><title>Asset 12</title><g id="Layer_2" data-name="Layer 2"><g id="Contenido"><path class="cls-1" d="M51.44,61.26v7.49c-11,3.36-14.64-9.32-9.86-14.88,5.25-6.12,12.21-1.79,12.21-1.79l1.55-2.49S51.82,46.87,45,48.14c-7.66,1.61-11.2,7.75-10.31,13.25,0,.26.09.52.15.77l-5.47-14H25.79l-7,17.14a6.17,6.17,0,0,0,.08-.94c0-1.12.11-16.2.11-16.2H15V63.65c0,3.06-1.72,5.58-5.46,5.58-3.94,0-5.06-3.56-5.06-5.9V48.14H0V64c0,2.86,1.47,8.36,9.52,8.34,3.92,0,6.46-1.66,7.89-3.67l-1.33,3.23h3.7l2-5.19a30.13,30.13,0,0,1,8.83-3.25l3,8.44h5l-2-5.07c5.17,8.18,17.57,4.9,19.46,3.86v-9.4ZM23.15,63.05l3.78-9.92,3.53,9.95A19.76,19.76,0,0,0,23.15,63.05Z"/><path class="cls-1" d="M12,41.9,7.2,47.32c27.68-8.3,38.39-1.79,43.07-1.44C50.21,46,31.82,39,12,41.9Z"/><path class="cls-1" d="M8,39.69S24.12,35.33,49.84,45a97.39,97.39,0,0,0-37.67-8.87Z"/><path class="cls-1" d="M47.87,43.41A120,120,0,0,0,12,30.18L7.07,33.79S25.13,31.24,47.87,43.41Z"/><path class="cls-1" d="M46,41.87a112.43,112.43,0,0,0-33-17.43l-4.3,2.82S22.53,26.72,46,41.87Z"/><path class="cls-1" d="M15,18.86l-4.25,2.29S21.62,21.62,44,39.58A149.82,149.82,0,0,0,15,18.86Z"/><path class="cls-1" d="M43,37.83C32.89,25.5,18,14.4,18,14.4l-3.82,1.65S26.51,20,43,37.83Z"/><path class="cls-1" d="M41.49,35C37.83,27.52,21,10.36,21,10.36L16.68,11.9S25.66,13.92,41.49,35Z"/><path class="cls-1" d="M40.59,32.2A104,104,0,0,0,25,6.75l-4,.1S32.14,15.51,40.59,32.2Z"/><path class="cls-1" d="M40.38,29.54C37.56,19.18,29,3.83,29,3.83l-3.51-.11S32.14,9.46,40.38,29.54Z"/><path class="cls-1" d="M32.89,1.91l-2.5-.21s3.83,4.36,10,25.18A130.62,130.62,0,0,0,32.89,1.91Z"/><path class="cls-1" d="M37.08.32,34.75,0s3.34,4.14,5.84,22.58C39.58,6.32,37.08.32,37.08.32Z"/></g></g></svg>