<svg xmlns="http://www.w3.org/2000/svg" viewBox="0 0 147.57 32.95"><defs><style>.cls-1{fill:#fff;}</style></defs><title>Asset 11</title><g id="Layer_2" data-name="Layer 2"><g id="Contenido"><path class="cls-1" d="M9.53,22.11A4.61,4.61,0,0,1,5,18.38l-5,1a9.71,9.71,0,0,0,16.43,5l-4.1-3.17a4.75,4.75,0,0,1-2.8.93m0-9.21a4.63,4.63,0,0,1,2.8.95l4.1-3.18A9.72,9.72,0,0,0,0,15.67l5,1A4.59,4.59,0,0,1,9.53,12.9m69.18,9.89c-2.55,0-4.41-1.86-4.7-4.6V16.75a4.73,4.73,0,0,1,4.7-4.56c2.9,0,5,2.19,5,5.28s-2,5.32-5,5.32m1.5-15a7.65,7.65,0,0,0-6.21,3V8.22H68.75V33H74V24.16a7.55,7.55,0,0,0,6.21,3.06c5,0,8.54-4,8.54-9.73s-3.59-9.68-8.54-9.68m20.77,15a5.3,5.3,0,1,1,5.09-5.32A5.28,5.28,0,0,1,101,22.79m0-15c-5.52,0-10.16,4.4-10.16,9.68a10.13,10.13,0,0,0,20.25,0A10,10,0,0,0,101,7.81m12.58,19h5.24V1.71h-5.24ZM138.7,15.27c-2.5-.68-3.26-1-3.26-2,0-.64.89-1.12,2.18-1.12a10.42,10.42,0,0,1,5.2,1.66l2.11-3.73a13.54,13.54,0,0,0-7.31-2.29c-4.37,0-7.27,2.5-7.25,6s3,4.71,6.78,5.64c1.9.49,3.26.85,3.26,2,0,.82-1,1.41-2.41,1.41a10.54,10.54,0,0,1-6.21-2.09l-2.24,3.61a13.76,13.76,0,0,0,8.36,2.79c4.55,0,7.54-2.34,7.54-6,0-4-3.56-5.12-6.75-5.94M122.24,26.78h5.24V8.22h-5.24ZM124.88,0A2.86,2.86,0,0,0,122,2.81,2.83,2.83,0,1,0,124.88,0M61.54,1.73H56.29l-1.95,4h5.24ZM53,15.44a4.5,4.5,0,0,1,4.31-3,3.87,3.87,0,0,1,4,3Zm4.1-7.65a9.36,9.36,0,0,0-9.55,9.65,9.56,9.56,0,0,0,9.84,9.76,11.33,11.33,0,0,0,7.58-2.87l-3.35-3.42a6.68,6.68,0,0,1-4.27,1.65,4.5,4.5,0,0,1-4.41-3.38H66.28c0-7-3.4-11.39-9.21-11.39m-18.74,0a6.62,6.62,0,0,0-5.61,2.75V8.22H27.48V26.78h5.24v-11a3.72,3.72,0,0,1,3.92-3.57c2.09,0,3.51,1.58,3.51,3.88V26.78H45.2V15c0-4.2-2.85-7.16-6.87-7.16M21.18,0a2.86,2.86,0,0,0-2.87,2.79,2.83,2.83,0,1,0,5.66,0A2.84,2.84,0,0,0,21.18,0M18.52,26.78h5.24V8.22H18.52Z"/><path class="cls-1" d="M147.57,26.17a1.11,1.11,0,0,1-1.14,1.12,1.12,1.12,0,1,1,1.14-1.12Zm-2,0a.87.87,0,1,0,.87-.89A.88.88,0,0,0,145.56,26.17Zm.7.59H146V25.64a2.08,2.08,0,0,1,.43,0,.71.71,0,0,1,.38.08.33.33,0,0,1,.12.25c0,.11-.1.2-.23.26v0a.32.32,0,0,1,.21.27c0,.17.06.24.07.28h-.28a1,1,0,0,1-.1-.27c0-.11-.09-.17-.22-.17h-.12v.44Zm0-.63h.12c.15,0,.26-.05.26-.17s-.07-.17-.24-.17a.34.34,0,0,0-.16,0l0,.32Z"/></g></g></svg>