<svg xmlns="http://www.w3.org/2000/svg" viewBox="0 0 91.78 59.67"><defs><style>.cls-1{fill:#fff;}</style></defs><title>Asset 18</title><g id="Layer_2" data-name="Layer 2"><g id="Contenido"><path class="cls-1" d="M32.49,28.07a3.61,3.61,0,0,0,.32.8c.31.43.56.9.9,1.31A20.07,20.07,0,0,0,35.47,32c.42.39.91.7,1.37,1.05s.88.61,1.31.91a13.45,13.45,0,0,0,1.32.78c.73.38,1.46.76,2.21,1.12a19.19,19.19,0,0,0,1.93.81c.52.19,1,.42,1.54.57a13,13,0,0,0,1.51.42,5.8,5.8,0,0,1,.82.21c.2.07.44,0,.62.15.28,0,.54.16.82.09.36.21.79,0,1.15.19a4.49,4.49,0,0,0,1.15-.08,1.93,1.93,0,0,1,.72,0,2.43,2.43,0,0,0,.65-.09c.2,0,.44,0,.64-.09,0,0,.09,0,.14,0s.31,0,.47-.07.32.06.45-.11a6.21,6.21,0,0,0,1.21-.26,13.72,13.72,0,0,0,1.65-.52,6.17,6.17,0,0,0,1.16-.48c.27-.15.58-.22.84-.38.47-.28,1-.5,1.43-.83.25-.18.54-.32.79-.51.45-.33.91-.65,1.36-1a28.73,28.73,0,0,0,2.49-2.32c.39-.38.71-.82,1.07-1.23s.56-.67.82-1c.42-.58.81-1.17,1.21-1.76s.66-1.16,1-1.73a9.11,9.11,0,0,0,.74-1.69c.08-.23.22-.42.29-.66a6,6,0,0,1,.27-.7,12.89,12.89,0,0,0,.53-1.55c.19-.58.32-1.17.46-1.77a11.33,11.33,0,0,0,.31-1.56.93.93,0,0,1,0,.59.72.72,0,0,0-.07.28c.06.51-.14,1-.09,1.51-.2.3,0,.67-.19,1a2.15,2.15,0,0,1-.1.87c-.06.42-.15.84-.23,1.26s-.16.76-.23,1.14a10.87,10.87,0,0,1-.35,1.39c-.12.36-.21.73-.35,1.09A9.64,9.64,0,0,0,70,28c-.11.38-.28.73-.42,1.1a21.74,21.74,0,0,1-1,2.25,22.06,22.06,0,0,1-1.27,2.15c-.4.57-.79,1.16-1.19,1.73-.13.18-.28.34-.42.51a29.21,29.21,0,0,1-2.51,2.59c-.42.38-.87.73-1.31,1.08-.65.52-1.34,1-2,1.43a13.9,13.9,0,0,1-1.25.71c-.39.22-.77.47-1.18.65-.77.33-1.54.68-2.32,1-.62.25-1.27.43-1.9.67a11.53,11.53,0,0,1-1.19.31,9.21,9.21,0,0,0-.9.25c-.16.06-.33,0-.5.1a2.38,2.38,0,0,1-.73.11c-.14,0-.27.06-.41.09s-.28-.06-.38.07-.06,0-.08,0a1.2,1.2,0,0,0-.65.09,9.46,9.46,0,0,0-1.41.1c-.75,0-1.49.14-2.24.08L43.83,45A3.72,3.72,0,0,1,43,45a6.2,6.2,0,0,0-.74-.08,3,3,0,0,0-.73-.08c-.2-.2-.5,0-.7-.18a3.52,3.52,0,0,1-1.15-.2,7,7,0,0,1-1-.25c-.48-.15-1-.28-1.45-.46s-1.1-.4-1.64-.63-1.24-.59-1.85-.9a18.31,18.31,0,0,1-2-1.19l-1.48-1c-.25-.19-.46-.42-.7-.61a23.22,23.22,0,0,1-2.84-2.68,13.89,13.89,0,0,1-1.15-1.37c-.21-.31-.46-.6-.69-.9a16.14,16.14,0,0,1-1-1.49,27.47,27.47,0,0,1-1.5-2.84c-.26-.52-.47-1.07-.68-1.62s-.3-.88-.46-1.31a17.4,17.4,0,0,1-.52-1.74c-.08-.32-.15-.67-.22-1s-.13-.73-.24-1.08a2.26,2.26,0,0,1-.1-.73,4,4,0,0,0-.1-.5c0-.17.08-.37-.09-.51,0,0,0,0,0-.05a6.81,6.81,0,0,0-.09-1.19c0-.73-.12-1.45-.1-2.18s0-1.46,0-2.18c0-.19-.06-.4,0-.54a1.41,1.41,0,0,0,.08-.56c0-.18,0-.36.09-.51a.22.22,0,0,0,0-.14,2.53,2.53,0,0,1,.1-.82c0-.25.12-.5.16-.75a11.83,11.83,0,0,1,.56-2,11.78,11.78,0,0,1,1-2.12,3.83,3.83,0,0,1,.38-.44L54.19,0c-.37.65-.72,1.23-1,1.82s-.7,1.25-1,1.88c-.19.32-.36.67-.56,1s-.45.88-.73,1.29-.3.63-.49.93-.48.93-.79,1.36a11.27,11.27,0,0,0-.56,1c-.36.61-.66,1.25-1,1.84a5.52,5.52,0,0,0-.38.77c-.64.14-1.26.35-1.89.49-.39.08-.76.22-1.14.32l-1.56.4-1.42.4-1.23.33c-.36.09-.72.17-1.07.27-.55.17-1.11.32-1.67.46-.39.09-.76.23-1.14.32s-.73.23-1.1.31-.65.2-1,.26-.62.19-.94.26c-.53.1-1,.3-1.56.4a9.2,9.2,0,0,0-1.14.32l-.86.22a2.85,2.85,0,0,0-.31.12v1.75a.67.67,0,0,0,.37,0c.33-.07.65-.2,1-.24a3.76,3.76,0,0,0,.87-.19c.33-.13.69-.15,1-.25.58-.18,1.19-.24,1.77-.44.28-.1.58-.11.87-.19s.63-.1.92-.2a7.72,7.72,0,0,1,1-.25,16.85,16.85,0,0,1,1.71-.38c.13-.14.36,0,.45-.1s.34,0,.49-.16.3-.07.45-.1l.51-.09c.16,0,.36,0,.45-.11s.38,0,.48-.17a14.42,14.42,0,0,0,1.85-.37A11.33,11.33,0,0,0,44.93,15c.35-.09.69-.15,1-.25.58-.16,1.18-.27,1.77-.43.3-.08.61-.14.91-.21l1.71-.38c.25-.05.5-.09.75-.16l.69-.19.51-.13c-.45.55-.58,1.16-1,1.63a4.37,4.37,0,0,0-.23.49Q50.39,16.7,49.7,18c-.37.71-.77,1.41-1.16,2.12l-1.29,2.41c-.32.58-.65,1.15-1,1.75a.75.75,0,0,1-.54.43c-.42.07-.83.2-1.24.29s-.85.23-1.28.32-1,.28-1.51.41c-.81.21-1.62.39-2.43.61-.39.11-.79.19-1.19.3s-.8.18-1.2.3-.87.22-1.31.33l-1.27.34Z"/><path class="cls-1" d="M77.88,54.31,78,54.2h1.13c.7,1.16,1.24,2.4,1.88,3.62a2.37,2.37,0,0,0,.22-.33l1.55-3.12a1.26,1.26,0,0,1,.11-.17H84v5.33H82.77V56.22l0,0-1.67,3.33h-.54l-1.74-3.41v3.42h-.89Z"/><path class="cls-1" d="M26.09,55.07l.09.8a2.06,2.06,0,0,1-.76.9,1.76,1.76,0,0,1,1,1,1.44,1.44,0,0,1-.25,1,2.27,2.27,0,0,1-.89.6,26.31,26.31,0,0,1-3.44.12c-.07-.4-.1-3.84,0-5.28h1.53c.3,0,.61,0,.91,0a2.93,2.93,0,0,1,1.1.19,1,1,0,0,1,.36.24A3.23,3.23,0,0,1,26.09,55.07Zm-1,3.28V58a1.07,1.07,0,0,0-.78-.93,4.5,4.5,0,0,0-.51-.08,5.47,5.47,0,0,0-.57,0l-.13.13V59a4.16,4.16,0,0,0,1.56-.16Zm-2-1.8h1.12c.71-.38.78-.71.56-1.39l-.61-.41H23.09Z"/><path class="cls-1" d="M64.15,59.53V54.31l.13-.12h2.09c.21.15.47.08.71.14a2.08,2.08,0,0,1,1.06.73c.18,1,.21,1.27-1.08,2l1.86,2.48H67.5l-1.77-2.34h-.18l0,0v2.32ZM66.87,56v-.58a2.22,2.22,0,0,0-.3-.47,1.08,1.08,0,0,0-.49-.21,3.49,3.49,0,0,0-.56,0v1.88A1.14,1.14,0,0,0,66.87,56Z"/><path class="cls-1" d="M60.69,54.2h.82v3.54a2.42,2.42,0,0,1-.26.93,1.73,1.73,0,0,1-1.14.87,4.39,4.39,0,0,1-1.77.08,1.82,1.82,0,0,1-1-.46,1.93,1.93,0,0,1-.75-1.69c0-1,0-2.11,0-3.2a1.15,1.15,0,0,1,.29-.08H58v.4c0,1.09,0,2.18,0,3.27a1.09,1.09,0,0,0,.33.77,1.77,1.77,0,0,0,.46.4c.13.08.27,0,.38.09s.22.06.35,0,.23,0,.35,0,.06-.08.1-.1a1.51,1.51,0,0,0,.73-1,1,1,0,0,0,0-.3Z"/><path class="cls-1" d="M42.16,54.19h1.22c.18.1.14.24.14.37v3.55c.06.1.12.19.17.29a1.11,1.11,0,0,0,.93.7,1.3,1.3,0,0,0,1.54-1,3.52,3.52,0,0,0,.09-.91v-3h.8c0,.1,0,.21,0,.33,0,1,0,2,0,3a3,3,0,0,1-.17.84,1.26,1.26,0,0,1-.41.65,2.28,2.28,0,0,1-1.43.58h-.91a2.07,2.07,0,0,1-1.28-.53,1.51,1.51,0,0,1-.49-.57,2.28,2.28,0,0,1-.22-.86Z"/><path class="cls-1" d="M5.06,57.82l.5.4A2.72,2.72,0,0,1,4,59.54a2.44,2.44,0,0,1-.73.09,4,4,0,0,1-.49,0,3.17,3.17,0,0,1-2-.86A2.82,2.82,0,0,1,.08,57.5,2.3,2.3,0,0,1,0,56.72a2.71,2.71,0,0,1,.6-1.57,3.18,3.18,0,0,1,.81-.67,1.88,1.88,0,0,1,1-.3c.12,0,.24-.08.37-.08a2.91,2.91,0,0,1,2.5.95.7.7,0,0,1,.28.53l-.48.32A3.23,3.23,0,0,0,4,54.9a1.56,1.56,0,0,0-1.79.27,3.81,3.81,0,0,0-.48.57c-.11.17-.07.42-.22.59.05.39-.12.8.09,1.18,0,.62.48.91.85,1.28a.76.76,0,0,0,.46.19,2.34,2.34,0,0,0,.91,0,1.49,1.49,0,0,0,.63-.37l.51-.51C5,58,5,57.91,5.06,57.82Z"/><path class="cls-1" d="M89.27,54.11c.22.47.43.91.63,1.35.37.81.69,1.63,1.13,2.4a2.38,2.38,0,0,0,.35.8l.32.78a.57.57,0,0,0,.08.08H90.42l-.66-1.41H87.71L87,59.53h-.9c.21-.43.41-.83.6-1.24L88,55.68l.75-1.57Zm.21,3.51a6.41,6.41,0,0,0-.77-1.69c-.17.59-.56,1.09-.78,1.69Z"/><path class="cls-1" d="M72.8,54.1h.57c.28.58.58,1.16.83,1.75.35.79.73,1.57,1.08,2.36.18.4.37.79.56,1.18a.42.42,0,0,1,0,.14H74.54l-.66-1.42H71.81l-.71,1.43h-.87c.42-.87.87-1.7,1.24-2.57s.73-1.48,1.07-2.23C72.63,54.53,72.71,54.32,72.8,54.1Zm.82,3.52a10.12,10.12,0,0,0-.75-1.71,9.14,9.14,0,0,0-.76,1.71Z"/><path class="cls-1" d="M14.27,54.28h1.26c0,.11,0,.23,0,.34v3a2.47,2.47,0,0,0,.17.75,1.27,1.27,0,0,0,.84.77,1.32,1.32,0,0,0,1.71-.93,1.92,1.92,0,0,0,.1-.59c0-1.09,0-2.18,0-3.28h.72v3.6a1.48,1.48,0,0,1-.79,1.37,2.24,2.24,0,0,1-1.34.38c-.22,0-.45,0-.68,0a2.12,2.12,0,0,1-1.86-1.26,1.65,1.65,0,0,1-.14-.58C14.26,56.63,14.27,55.47,14.27,54.28Z"/><path class="cls-1" d="M37.25,56.9v2.63H35.93c-.06-.38-.08-3.72,0-5.33h3.8v.44H37.26v1.8h2.15l0,.46Z"/><path class="cls-1" d="M51.15,59.53V54.66h-1.8l0-.46h5l0,.42H52.53v4.91Z"/><path class="cls-1" d="M8.1,54.28H9.35v4.66l0,.05h2.68v.52h-4Z"/></g></g></svg>