<svg xmlns="http://www.w3.org/2000/svg" viewBox="0 0 83.78 75.53"><defs><style>.cls-1{fill:#fff;}</style></defs><title>Asset 14</title><g id="Layer_2" data-name="Layer 2"><g id="Contenido"><path class="cls-1" d="M83,70.73a2.66,2.66,0,0,0-2-.82,2.81,2.81,0,1,0,0,5.62,2.75,2.75,0,0,0,2-.8,2.84,2.84,0,0,0,0-4Zm-.34,3.64a2.24,2.24,0,0,1-1.63.68,2.2,2.2,0,0,1-1.64-.68,2.25,2.25,0,0,1-.68-1.65A2.34,2.34,0,0,1,81,70.4a2.18,2.18,0,0,1,1.63.7,2.2,2.2,0,0,1,.67,1.62A2.27,2.27,0,0,1,82.62,74.37Z"/><path class="cls-1" d="M82.27,74.09s0,0,0-.09v-.27A.82.82,0,0,0,82,73a1.21,1.21,0,0,0-.45-.17,1,1,0,0,0,.54-.21.67.67,0,0,0,.22-.57.79.79,0,0,0-.41-.74,1.56,1.56,0,0,0-.61-.16H79.76v3.11h.81V73.17h.34a1.18,1.18,0,0,1,.28,0,.4.4,0,0,1,.23.23,1.84,1.84,0,0,1,0,.39,3.2,3.2,0,0,0,0,.43h.78l0-.09S82.27,74.13,82.27,74.09Zm-1-1.58a.7.7,0,0,1-.44.11h-.31v-.9h.19a1.52,1.52,0,0,1,.48.06.38.38,0,0,1,.25.36A.43.43,0,0,1,81.32,72.51Z"/><path class="cls-1" d="M57.36,13.84c-4-.68-7.68,1.43-8.81,6.6-1.44,6.4,1.13,13.11,6.1,14.23,3.61.8,6.14-1.12,7.61-4.29C64.87,24.73,64.05,15,57.36,13.84Z"/><path class="cls-1" d="M22.37,41.22,22.12,41A16.79,16.79,0,0,1,18.7,26.66a11.5,11.5,0,0,1,13-8.84c5.1,1.14,7.3,4,8.37,7.05a1.65,1.65,0,0,1,.09.33S40,25.06,40,25A10.56,10.56,0,0,0,35,21.68c-2.9-.64-5.39.93-6.18,4.52C26.69,35.83,38.78,46,55,46.43c3.16-2.94,5-7.57,6.17-12-1.17,1.68-4.47,3.61-8.66,2.67-8.67-1.93-12.91-11-11.13-19C43,10.87,48.57,5.55,55.6,7.1c3.63.82,6.52,3.84,8.09,7.69h0c2.21,5.09,3.29,15.12-2.3,27.32v0a18.3,18.3,0,0,1-5.16,7.26c.92.13,1.8.23,2.67.32s1.75.14,2.62.19a27.37,27.37,0,0,0,3.07-5.48.14.14,0,0,1,0,.06c7.77-17.07,3.76-29,2.34-32.27-2.36-5.76-6.77-9.8-12.05-11C46.08-.78,38,4.39,34.76,13.63a20.6,20.6,0,0,0-4.33-1.48,16.75,16.75,0,0,0-12.29,2.44,17,17,0,0,0-7.5,10.71,22,22,0,0,0,2.64,16.33A26.15,26.15,0,0,1,22.37,41.22Z"/><path class="cls-1" d="M64.58,44.42l0,.1Z"/><path class="cls-1" d="M66.37,45.32h0a.36.36,0,0,1,0,.07h0a32.59,32.59,0,0,1-2.43,4.55c1.53,0,2.91,0,4.15-.13a27.24,27.24,0,0,0,2.34-5c0-.11.07-.22.11-.33-1.06-.15-2.25-.25-3.42-.32l-.19,0h0c-.06.13-.12.26-.17.39s-.18.41-.28.61h0l0,0Z"/><path class="cls-1" d="M74,33.53a.39.39,0,0,0,0-.4c-.64-.81-.92-1.94-1.29-1.94s-1.08,2.05-1.08,3.57a1.09,1.09,0,0,0,0,.18,4.38,4.38,0,0,0,1.47,2.94s.1.11.16,0l.07-.08a.27.27,0,0,0,.07-.2,11.75,11.75,0,0,1,0-3.07A3.35,3.35,0,0,1,74,33.53Z"/><path class="cls-1" d="M75.21,28.23c-.68-.77-1.45-2.13-1.84-2.13h0c-.32,0-.4,1.21-.4,2.45,0,.46,0,.94,0,1.36a4.45,4.45,0,0,0,1.7,2.55.22.22,0,0,0,.3,0l.33-.29c.14-.1.08-.3.06-.42a14.08,14.08,0,0,1-.26-2.28,2.14,2.14,0,0,1,.18-1A.23.23,0,0,0,75.21,28.23Z"/><path class="cls-1" d="M75.86,16.68c.27-.69.58-1,1-1s.85.34,1.28,1c.05.08.18.08.19,0,0-.35.06-.77.06-1.21a5.22,5.22,0,0,0-.21-1.64A4.77,4.77,0,0,0,75.83,12h-.08c-.44.16-.51,1.19-.85,2.52a1.26,1.26,0,0,0-.05.33,3.3,3.3,0,0,0,.79,1.82C75.69,16.75,75.82,16.8,75.86,16.68Z"/><path class="cls-1" d="M76.28,21.54a3.56,3.56,0,0,1,.83-.9.66.66,0,0,1,.27-.06c.21,0,.5.09.94.7.06.1.14,0,.15,0a8.25,8.25,0,0,0,.22-1.89c0-.52-1.08-3.22-1.87-3.22-.55,0-1.13,2.71-1.13,3.62a5.86,5.86,0,0,0,.46,1.74A.08.08,0,0,0,76.28,21.54Z"/><path class="cls-1" d="M75.76,23.72a16.61,16.61,0,0,0,.54,2.76c0,.23.13.06.14.05s.09-.14.14-.2a2.61,2.61,0,0,1,.53-.56.71.71,0,0,1,.36-.13.65.65,0,0,1,.36.15,1.37,1.37,0,0,1,.27.31,3,3,0,0,1,.25.44c0,.05.08.18.18-.07a6.11,6.11,0,0,0,.63-2.12,1.7,1.7,0,0,0-.06-.46c-.32-1.08-1.31-2.81-1.72-2.81h0a5.84,5.84,0,0,0-1.56,2.52Z"/><path class="cls-1" d="M81.28,26.91h0c-.42.14-.91,1-1.91,1.78,0,0-.12.13,0,.35a1.7,1.7,0,0,1,.07.51A4.62,4.62,0,0,1,79,31.12a10,10,0,0,1-.7,1.39.65.65,0,0,0,0,.57c.07.29.13.61.18.94,0,.07.07.17.25,0a18.18,18.18,0,0,0,1.78-1.71c.77-.82,1.1-2.84,1.1-4.17C81.56,27.43,81.46,26.91,81.28,26.91Z"/><path class="cls-1" d="M78.88,29.55a1.23,1.23,0,0,0,0-.35,17.75,17.75,0,0,0-1-2.55,2,2,0,0,0-.33-.46.18.18,0,0,0-.21,0,1.12,1.12,0,0,0-.19.19,4.92,4.92,0,0,0-.53.74c-.37.59-.71,1.27-.94,1.64a1.65,1.65,0,0,0-.1.68,14.18,14.18,0,0,0,.24,2.13c0,.05.06.13.14.08a1.92,1.92,0,0,1,1-.38c.37,0,.68.25.93.74a.08.08,0,0,0,.13,0c.11-.2.23-.42.35-.66A5,5,0,0,0,78.88,29.55Z"/><path class="cls-1" d="M80.8,33h0a14,14,0,0,0-2,1.61.45.45,0,0,0-.19.42c0,.2,0,.4,0,.58a6.13,6.13,0,0,1-1.47,3.06L76.9,39c-.08.07-.16.12-.11.25s.1.17.29.1a10.1,10.1,0,0,0,1.78-.88l0,0,.07,0,.05,0,.11-.07h0l0,0,0,0C81.22,36.61,81.26,33,80.8,33Z"/><path class="cls-1" d="M74,37.17a5.16,5.16,0,0,1,1.16-1,.87.87,0,0,1,.41-.11c.45,0,.77.36.94,1.08a7.51,7.51,0,0,1,.17,1.07c0,.08,0,.23.12.08a5.87,5.87,0,0,0,1.29-2.63c0-1.38-.44-3.86-1.16-3.86s-2.68,1.77-3,2.91a5.19,5.19,0,0,0-.1,1.23c0,.37,0,.78,0,1.18C73.9,37.26,74,37.21,74,37.17Z"/><path class="cls-1" d="M75.23,23a3.41,3.41,0,0,1-.73-.57c-.57-.51-.94-2.26-1.11-3.28,0-.24-.06-.47-.1-.71a.1.1,0,0,0,0,0h0A42.67,42.67,0,0,0,69.72,7.46a.2.2,0,0,0-.28-.1.22.22,0,0,0-.09.29A43.67,43.67,0,0,1,73.09,22.2h0c0,.06,0,.22,0,.3a11.5,11.5,0,0,0,.17,1.81c.19,1.11,1.61,2.54,2.32,3.19.06,0,.16.14.22,0l.14-.25a.24.24,0,0,0,0-.2,19.65,19.65,0,0,1-.67-3.55C75.31,23.34,75.38,23.07,75.23,23Z"/><path class="cls-1" d="M73.08,12.94a27.68,27.68,0,0,1,1.27,5.65c0,.44,0,.9,0,1.35a2.2,2.2,0,0,0,1.32,2.17c.05,0,.18.07.12-.08a7.29,7.29,0,0,1-.61-2.14,9.53,9.53,0,0,1,.13-1.31.55.55,0,0,0-.12-.47,4,4,0,0,1-.26-.54c-.4-1-.94-3-.94-3v.06A55.2,55.2,0,0,0,69.61,4.09.2.2,0,0,0,69.33,4a.24.24,0,0,0-.08.31A58.15,58.15,0,0,1,73.08,12.94Z"/><path class="cls-1" d="M79.14,14.5a9.16,9.16,0,0,1,.25,2.93,4.37,4.37,0,0,1-.21.9l-.1.17a.53.53,0,0,0,0,.36,3.41,3.41,0,0,1,.11.77,6.36,6.36,0,0,1-.29,2,1,1,0,0,0,0,.16,3.11,3.11,0,0,0,.2.69s.08.05.15,0a2.69,2.69,0,0,0,1.39-2.41c0-.13,0-.27,0-.41a27,27,0,0,0-.91-4.76.93.93,0,0,1,0-.13,42.25,42.25,0,0,0-5.11-11,.19.19,0,0,0-.28-.06.21.21,0,0,0-.06.3A43.15,43.15,0,0,1,79.14,14.5Z"/><path class="cls-1" d="M69.4.52A51,51,0,0,1,72.7,6a7.28,7.28,0,0,1,1.11,3.94c0,.25-.06.51-.11.8a.88.88,0,0,0,0,.17,2.94,2.94,0,0,0,1,1.78s.17,0,.18,0c.16-.55.35-.94.74-1.09h0a.86.86,0,0,1,.24,0,1.66,1.66,0,0,1,.74.25c.05,0,.16,0,.16-.17a4.6,4.6,0,0,0-.33-1.76,3.06,3.06,0,0,0-1-.86h0a8.54,8.54,0,0,1-2.12-2.73l-.19-.37,0-.07h0A49.28,49.28,0,0,0,69.61.08a.2.2,0,0,0-.29,0,.23.23,0,0,0,0,.31Z"/><path class="cls-1" d="M81.19,20.44c0,.15,0,.3,0,.45a2.8,2.8,0,0,1-.67,1.6,10.81,10.81,0,0,1-.9.69c-.22.11-.1.43-.06.56.36,1.2-.56,2.93-.84,3.41,0,.06,0,.05,0,.21s.15.43.24.68c0,0,.07.1.19,0A6.64,6.64,0,0,0,81.2,25.6h0a.83.83,0,0,1,0-.15l0-.12s0-.07,0-.11a10,10,0,0,0,.17-1.11,11.08,11.08,0,0,0,.1-1.46h0c0-.69,0-1.39,0-2,0-.07,0-.14,0-.21,0-.58,0-1.15-.08-1.72v-.09h0a30.91,30.91,0,0,0-2.9-10.38.2.2,0,0,0-.28-.09.24.24,0,0,0-.09.3A29.48,29.48,0,0,1,81.19,20.44Z"/><path class="cls-1" d="M72.64,38.79a.15.15,0,0,0,0-.18c-.62-.83-1-2-1.26-2.35a.12.12,0,0,0-.2,0c-.78.83-1.25,3.07-1.25,4.38a2.2,2.2,0,0,0,.11.83c.59,1.4,1.09,2.38,1.35,2.86.06.1.17.1.19,0a3.68,3.68,0,0,0,.11-.87,7.13,7.13,0,0,0-.12-1.18,3.87,3.87,0,0,1,0-1.79A7.3,7.3,0,0,1,72.64,38.79Z"/><path class="cls-1" d="M74.39,45.14a6.52,6.52,0,0,0,3.43-1.33,7.11,7.11,0,0,0,1.87-4.32c0-.64-.2-.76-.22-.77a.18.18,0,0,0-.15,0,10.9,10.9,0,0,1-2.27,1.19.28.28,0,0,0-.19.31,4.3,4.3,0,0,1-.69,3,5.69,5.69,0,0,1-.75.63,5.8,5.8,0,0,0-1.13,1C74.23,45,74.23,45.17,74.39,45.14Z"/><path class="cls-1" d="M73,46.32l.23-.45h0a.61.61,0,0,1,.07-.14c0-.08.07-.16.11-.23.83-1.58,1.85-1.9,2.48-2.57a3.62,3.62,0,0,0,.55-2.3c0-.49,0-1-.07-1.37-.13-1.27-.19-2.69-.74-2.69a.41.41,0,0,0-.21,0,13.58,13.58,0,0,0-3.33,4,2,2,0,0,0-.09.63c0,.63.22,1.31.22,2.18a4.43,4.43,0,0,1-.39,1.79l-.33.63a39.7,39.7,0,0,1-2.37,3.83c.76-.08,1.45-.18,2.09-.28C71.8,48.44,72.39,47.4,73,46.32Z"/><path class="cls-1" d="M50.69,58.46a.73.73,0,0,0-.53-.81c-1.45-.21-2.61,1.16-3.5,4.13a16.87,16.87,0,0,0,2.47-1.19A2.65,2.65,0,0,0,50.69,58.46Z"/><path class="cls-1" d="M63.51,61.09a5,5,0,0,0-.9,3.45c0,.44.26,1.37.85,1.12s1-.67,1.82-2a24.44,24.44,0,0,0,2.18-4.61l0-.14-.14,0C67.29,58.92,65.35,58.57,63.51,61.09Z"/><path class="cls-1" d="M22.21,53.72A5.07,5.07,0,0,0,20.74,57c0,.44,0,1.41.66,1.26s1.11-.5,2.14-1.66a24.12,24.12,0,0,0,2.94-4.25l.07-.13-.13,0C26.35,52.18,24.47,51.52,22.21,53.72Z"/><path class="cls-1" d="M79,49.51a9.34,9.34,0,0,0-.19-1.3c-.26-1.1-.86-1.66-2.78-2.41h0l-.37-.14-.54-.16-.23.35h0c-.52.8-1.2,1.9-1.92,3.22l.93-.23A6.44,6.44,0,0,0,77,47.47a.47.47,0,0,0,0-.23.47.47,0,0,1,0,.23h0c-.13.56-1,1.2-3.22,1.84a39,39,0,0,1-12.13,1.38c-6.06-.15-11.93-1-25-4.63s-20-3.43-24.19-2.14A16.11,16.11,0,0,0,1.82,53.52,27.36,27.36,0,0,0,.2,66.74c.11.87.24,1.77.43,2.7.15.75,1.11,1.52,2.81,2a49.39,49.39,0,0,0,13.82,1.38h.4q1.71,0,3.66-.06a60.23,60.23,0,0,0,14.26-2c-6.15-2-12-3.88-17.18-4.48-7.79-.89-12-.37-14.26.56A11.89,11.89,0,0,1,6.81,66a44.41,44.41,0,0,1,11.59-.43c11.14.69,25.52,7.27,39.25,7.47s17.12-3.8,19.59-10.14A40.09,40.09,0,0,0,79,53.48,24.27,24.27,0,0,0,79,49.51Zm-76.87,20A3.58,3.58,0,0,0,4,70.94,3.14,3.14,0,0,1,2.15,69.52Zm15.52-14.3c-.24.51-1.07,2.45-1.42,3a3.8,3.8,0,0,1-1.8,1.47A6.22,6.22,0,0,1,11,60a2.73,2.73,0,0,1-2.19-2,3.77,3.77,0,0,1-.1-2,11.25,11.25,0,0,1,3.2-6.18,6.47,6.47,0,0,1,5.61-2.18c1.84.26,2.67.83,2.54,1.7a1.76,1.76,0,0,1-.7,1c-.5.4-1.1,0-1.35-.5a2.24,2.24,0,0,0-1.55-1c-1.07-.14-2.06.53-3,2a14.1,14.1,0,0,0-1.82,5c-.29,1.74.05,2.71.91,2.8a1.69,1.69,0,0,0,1.66-.88,23.49,23.49,0,0,0,1-2.23,1.83,1.83,0,0,0-.92,0c-.47.1-.5-.18-.46-.41a1.19,1.19,0,0,1,.62-.79,3.1,3.1,0,0,1,1.64-.28,10.85,10.85,0,0,1,1.21.15A.83.83,0,0,1,17.67,55.22Zm9.66,3.62a.59.59,0,0,0,.45.07c.11,0,.13.1.13.16a1.58,1.58,0,0,1-2,1.59c-1.13-.18-1.59-.69-1.47-1.7l0-.28.36-1.88-.31.37c-1.76,2.17-3.28,3.11-4.8,3a2,2,0,0,1-1.4-.65,2.8,2.8,0,0,1-.39-2.07,7.89,7.89,0,0,1,2.29-4.78,7.17,7.17,0,0,1,5.88-2.07,9.35,9.35,0,0,1,3.1.75c.29.2.07.5,0,.68A28.91,28.91,0,0,0,28,54.67a20.44,20.44,0,0,0-.87,3.13C27.06,58.29,27.1,58.68,27.33,58.84ZM42,63.22a1.92,1.92,0,0,1-2,1c-1.28-.21-1.33-.79-1.23-1.41l.07-.29a13.31,13.31,0,0,1,1-2.5c1.08-2.16,1.66-3.36,1.72-3.59s0-.28-.1-.31c-.32-.08-1.26.67-2.86,2.26a10.47,10.47,0,0,0-2.76,3.76c-.06.22-.13.71-.46.71a3.56,3.56,0,0,1-1-.16c-.71-.18-1-.56-.84-1.13a7.78,7.78,0,0,1,.61-1.33,43.7,43.7,0,0,0,2.49-5.14c.05-.17,0-.28-.1-.3-.32-.09-1.27.65-2.87,2.25a15.59,15.59,0,0,0-2.43,3,4.41,4.41,0,0,0-.34.75c-.17.4-.45.67-.75.68a2.52,2.52,0,0,1-.71-.11c-.78-.23-1.11-.63-.93-1.21a23.31,23.31,0,0,1,1.5-3,34.08,34.08,0,0,0,1.63-3.29,6.2,6.2,0,0,1,.77-1.59,1.52,1.52,0,0,1,1.49-.45c.68.19.93.57.77,1.18a6.07,6.07,0,0,1-.6,1.4l-.74,1.35c2.19-2.19,3.89-3.13,5.08-2.81.87.24,1.16.87.88,1.89A6.46,6.46,0,0,1,38.83,56a9.84,9.84,0,0,0-.51,1.13c2.19-2.21,3.9-3.13,5.12-2.8.87.24,1.17.83.92,1.79a12.92,12.92,0,0,1-.7,1.59,42.82,42.82,0,0,0-2.19,4.77c-.11.43.17.51.5.54C42.08,63,42.07,63.16,42,63.22Zm4.42.59c.17.45,1,1.37,2.83,1a7.57,7.57,0,0,0,1.61-.51c.42-.21.5-.16.55-.11s0,.16-.08.32a4.2,4.2,0,0,1-2,1.28,6.29,6.29,0,0,1-3.71.16,3,3,0,0,1-2.23-1.8,4.43,4.43,0,0,1,0-2.05,8.06,8.06,0,0,1,3.11-4.56,5.64,5.64,0,0,1,4.55-1.08c1.55.34,2,1.26,1.95,2.16a2.47,2.47,0,0,1-.86,1.7c-1.62,1.55-3.9,2.17-5.83,2.71A1.17,1.17,0,0,0,46.45,63.81Zm12.94-5.06c-.07.68-1,1.56-1.34,1.46s.15-.36.34-.61.43-.86,0-1.14a1.33,1.33,0,0,0-1.64.76c-.2.64.42,1.24,1.08,2a4.47,4.47,0,0,1,1.38,3.36c-.15,1.48-2.13,2.73-3.57,2.83A3.93,3.93,0,0,1,53.18,67a1.51,1.51,0,0,1-.53-2.11,2.42,2.42,0,0,1,2-.95c.38,0-.08.26-.26.43a1.06,1.06,0,0,0-.45.77c0,.39.3.65.81.69A1.27,1.27,0,0,0,56,64.74a1.34,1.34,0,0,0-.19-.8h0a25.31,25.31,0,0,1-1.64-2.6h0a2.16,2.16,0,0,1-.14-1.27A4,4,0,0,1,55,58.42a2.75,2.75,0,0,1,.43-.37,3.83,3.83,0,0,1,2.91-.56C59.17,57.74,59.47,58.06,59.39,58.75Zm10.67-.66a22.09,22.09,0,0,0-.76,3A18,18,0,0,0,69,64.9c0,.14,0,.31,0,.51a1.91,1.91,0,0,0,.18.68c.13.23.42.6.24.78a2.35,2.35,0,0,1-1.22.37c-1.13,0-1.66-.42-1.7-1.42l0-.28,0-1.88-.23.4c-1.36,2.4-2.7,3.57-4.19,3.67a1.92,1.92,0,0,1-1.47-.42,2.68,2.68,0,0,1-.72-1.94,7.91,7.91,0,0,1,1.45-5c2.52-3.54,6.69-3.11,8.28-2.79C69.93,57.62,70.15,57.85,70.06,58.09Zm6.59-11.47a1.57,1.57,0,0,1,.18.19A1.57,1.57,0,0,0,76.65,46.62Z"/></g></g></svg>