<svg xmlns="http://www.w3.org/2000/svg" viewBox="0 0 100.86 43.59"><defs><style>.cls-1{fill:#fff;}</style></defs><title>Asset 16</title><g id="Layer_2" data-name="Layer 2"><g id="Contenido"><path class="cls-1" d="M88.47,19.16H80.78a.19.19,0,0,1-.21-.17l-.24-1.12c0-.13.06-.19.17-.23l1.1-.33.83-.25a.29.29,0,0,0,.26-.32c0-.76.08-1.53.11-2.29.12-3,0-5.95,0-8.93,0-.74-.1-1.49-.16-2.23a.8.8,0,0,0-.55-.74c-.5-.2-1-.39-1.51-.56-.31-.1-.32-.09-.25-.42s.13-.61.19-.93c0-.14.1-.22.25-.21h11c.63,0,1.26,0,1.89-.06L95.4.25a.44.44,0,0,1,.44.21c.12.19.26.38.4.56a.55.55,0,0,1,.1.46c-.13.81-.27,1.61-.41,2.41-.09.53-.18,1.06-.28,1.59,0,.07,0,.15,0,.22a.18.18,0,0,1-.19.15l-1.32,0-.49,0c-.26,0-.33-.09-.38-.34-.15-.88-.31-1.76-.47-2.63a.28.28,0,0,0-.28-.26,24.75,24.75,0,0,0-3.85-.16,11.46,11.46,0,0,0-1.17.06,2.42,2.42,0,0,0-.53.13c-.12,0-.14.11-.14.22,0,.42-.05.84-.06,1.26q0,1.08-.06,2.16c0,.8,0,1.61,0,2.41,0,.31,0,.32.3.31l2-.11H89l2-.06,1.26-.06a.56.56,0,0,1,.46.21.75.75,0,0,1,.2.81c-.09.38-.15.77-.22,1.15s-.06.27-.3.26l-1.2-.05H89.76L87.71,11l-.86,0c-.22,0-.23,0-.23.23,0,.78,0,1.57,0,2.36q0,.7.06,1.41c0,.5.11,1,.17,1.51a.48.48,0,0,0,.34.42,3.68,3.68,0,0,0,.63.17c.43.05.86.1,1.29.11.7,0,1.4,0,2.1,0s1.11-.1,1.66-.14c.19,0,.26-.11.3-.28l.63-2.66s0-.1,0-.14a.23.23,0,0,1,.27-.23l2,.07c.2,0,.25.07.26.27,0,1.28,0,2.55.05,3.83,0,.34,0,.69-.05,1s0,.22-.25.23H88.47Z"/><path class="cls-1" d="M28.53,16.27c0-.38,0-.77,0-1.15s0-.84,0-1.26c0-.15.07-.23.23-.24l.86-.06,1-.05h.15c.32,0,.37.05.44.36.15.69.31,1.37.47,2.05a2,2,0,0,1,.09.33c0,.37.29.54.59.68a5.51,5.51,0,0,0,1.49.42,7.74,7.74,0,0,0,1.17.12,6.26,6.26,0,0,0,2.42-.41.72.72,0,0,0,.31-.23,3,3,0,0,0,.53-2.46,2.26,2.26,0,0,0-.83-1.25,8.09,8.09,0,0,0-2-1.16c-1.17-.5-2.38-.93-3.51-1.53a7.75,7.75,0,0,1-1.77-1.22,4.59,4.59,0,0,1-1.46-3,5,5,0,0,1,.36-2.53,4.6,4.6,0,0,1,.84-1.3A6.64,6.64,0,0,1,31.79,1,9,9,0,0,1,34.33.14,10.61,10.61,0,0,1,37,0a10.15,10.15,0,0,1,3.47.84c.33.15.64.31,1,.47a.86.86,0,0,1,.33.35,1.36,1.36,0,0,1,.18,1.13c-.23,1.1-.43,2.2-.64,3.31,0,.16-.1.23-.26.23l-2-.12c-.12,0-.15-.08-.17-.19-.07-.51-.14-1-.23-1.53s-.18-.9-.25-1.36a.71.71,0,0,0-.39-.5,4.47,4.47,0,0,0-1.55-.5A5.37,5.37,0,0,0,34,2.34a6.45,6.45,0,0,0-.82.34.52.52,0,0,0-.18.18,3.39,3.39,0,0,0-.3,2.78,2.83,2.83,0,0,0,.92,1.29,10.56,10.56,0,0,0,2.58,1.45c.84.36,1.68.71,2.5,1.1a8.06,8.06,0,0,1,2,1.25,4.42,4.42,0,0,1,1.57,2.91,5.18,5.18,0,0,1-.16,2.11,4.33,4.33,0,0,1-.81,1.51A5.55,5.55,0,0,1,38.76,19a8.5,8.5,0,0,1-2.95.57c-.28,0-.56.05-.83,0a14.61,14.61,0,0,1-4.35-.7,10.88,10.88,0,0,1-1.83-.85.53.53,0,0,1-.28-.52c0-.42,0-.85,0-1.27Z"/><path class="cls-1" d="M11.57,16.4c0-.83,0-1.67.07-2.5,0-.23,0-.26.27-.28l1.84-.11h.17c.27,0,.32.07.38.34.11.54.22,1.07.35,1.6.08.34.19.67.27,1a.41.41,0,0,0,.23.31,4.09,4.09,0,0,0,1.51.54,8,8,0,0,0,1.45.16,5.75,5.75,0,0,0,2.39-.39.77.77,0,0,0,.36-.27,2.94,2.94,0,0,0,.44-2.63,2.28,2.28,0,0,0-.83-1.11,8.15,8.15,0,0,0-2-1.1c-1.14-.49-2.32-.91-3.43-1.49a7.84,7.84,0,0,1-1.93-1.34,4.51,4.51,0,0,1-1.31-2.42,4.83,4.83,0,0,1,1-4.15,5.93,5.93,0,0,1,1.79-1.47,8.47,8.47,0,0,1,3-1,11.36,11.36,0,0,1,2.67,0,10.83,10.83,0,0,1,3.22.82c.29.12.57.28.86.42s.5.56.65.91a.89.89,0,0,1,0,.45c-.22,1.15-.44,2.29-.67,3.44-.05.26-.06.27-.32.25l-1.92-.1c-.14,0-.19-.08-.21-.22-.12-.82-.26-1.64-.39-2.46a.13.13,0,0,1,0-.06c-.13-.67-.21-.77-.85-1a4.85,4.85,0,0,0-1.36-.34,5.78,5.78,0,0,0-2.44.26,1.41,1.41,0,0,0-1,1,3.39,3.39,0,0,0,.06,2.39,2.87,2.87,0,0,0,.75,1,9.41,9.41,0,0,0,2.53,1.47c1,.43,2,.85,2.94,1.31a7.23,7.23,0,0,1,2.07,1.49,4.37,4.37,0,0,1,1.15,2.46,4.86,4.86,0,0,1-.18,2.24,4.54,4.54,0,0,1-1.66,2.29,7.39,7.39,0,0,1-3.27,1.33,10.34,10.34,0,0,1-2.15.17,14.4,14.4,0,0,1-4.32-.69,8.9,8.9,0,0,1-1.85-.86.52.52,0,0,1-.3-.51c0-.38,0-.76,0-1.15Z"/><path class="cls-1" d="M45.47,16.17c0-.43,0-.86,0-1.29s0-.69.05-1c0-.14.07-.22.21-.23l.77-.06,1.09-.05h.2c.26,0,.31.06.37.32.2.84.4,1.67.59,2.51a.72.72,0,0,0,.42.52,6.07,6.07,0,0,0,1.67.5,6.29,6.29,0,0,0,1.14.11,6.59,6.59,0,0,0,2.24-.34,1.2,1.2,0,0,0,.69-.6,3.72,3.72,0,0,0,.4-1.49,2.29,2.29,0,0,0-.91-1.93,9.38,9.38,0,0,0-2.24-1.23c-1-.43-2-.83-3-1.28a7.65,7.65,0,0,1-2.06-1.35,4.64,4.64,0,0,1-1.5-3,4.91,4.91,0,0,1,.54-2.89,5.45,5.45,0,0,1,1.69-1.85A8.35,8.35,0,0,1,51.35.12,10.65,10.65,0,0,1,53.87,0,10.36,10.36,0,0,1,58,1.17a3.5,3.5,0,0,1,.42.24.64.64,0,0,1,.19.21,1.3,1.3,0,0,1,.21,1.3c-.2,1.07-.41,2.13-.62,3.19-.05.24-.06.26-.3.25L56,6.26a.19.19,0,0,1-.19-.2c-.05-.38-.1-.76-.17-1.14-.11-.6-.23-1.2-.34-1.81A.53.53,0,0,0,55,2.75a4,4,0,0,0-1.64-.58,5.51,5.51,0,0,0-2.42.17,4.14,4.14,0,0,0-.59.21,1,1,0,0,0-.51.49,3.52,3.52,0,0,0-.18,2.61,2.82,2.82,0,0,0,1,1.31,8.61,8.61,0,0,0,2,1.2c1,.42,2,.82,2.9,1.27A7.81,7.81,0,0,1,57.89,11a4.46,4.46,0,0,1,1.31,2.78,5.2,5.2,0,0,1-.37,2.5,4,4,0,0,1-.67,1.06,6.51,6.51,0,0,1-3.83,2.06,7.85,7.85,0,0,1-1.6.18c-.26,0-.53.05-.8,0A13.7,13.7,0,0,1,47,18.69c-.43-.18-.82-.42-1.23-.63a.5.5,0,0,1-.3-.53c0-.45,0-.91,0-1.36Z"/><path class="cls-1" d="M68.05.42c2,0,4.07,0,6.11,0,.7,0,1.39-.07,2.09-.1l1.5-.07a.4.4,0,0,1,.4.21,2.21,2.21,0,0,0,.28.4,1,1,0,0,1,.22.86c0,.35-.07.71-.1,1.06-.06.54-.11,1.08-.16,1.63s-.09.83-.13,1.25c0,.22-.05.29-.27.29-.66,0-1.31,0-2,0-.13,0-.14-.1-.16-.2L75.6,4.44l-.36-1.69c0-.15-.08-.24-.26-.25-.51,0-1-.08-1.54-.1s-.89,0-1.33,0c-.23,0-.24,0-.25.25v.2c0,3.73,0,7.45,0,11.18A17.16,17.16,0,0,0,72,16.28a1,1,0,0,0,.66.83c.47.18.94.34,1.41.49.3.1.32.11.26.42s-.13.61-.19.91-.08.23-.3.23H66a.17.17,0,0,1-.2-.16c-.08-.38-.16-.77-.25-1.15,0-.13,0-.17.14-.2l.69-.21c.44-.14.88-.28,1.33-.4a.28.28,0,0,0,.22-.29c0-.45,0-.9.06-1.35,0-.81,0-1.62.06-2.44s0-1.42,0-2.13c0-2.65,0-5.3,0-7.95V2.74c0-.35,0-.35-.35-.35s-.84,0-1.27,0-1,.08-1.46.1a.26.26,0,0,0-.28.25c-.12.56-.25,1.12-.37,1.68s-.19.88-.29,1.32C64,6,64,6,63.72,6c-.59,0-1.19,0-1.78-.06s-.46,0-.46-.49c0-1.26,0-2.53,0-3.8,0-.35,0-.7,0-1.06,0-.11.06-.18.18-.18h6.39Z"/><path class="cls-1" d="M2.53,9.57c0-1.26,0-2.52,0-3.77,0-.82-.11-1.63-.16-2.44a.89.89,0,0,0-.6-.83C1.29,2.34.8,2.16.31,2,0,1.89,0,1.89,0,1.56S.17.94.23.63A.21.21,0,0,1,.46.43h7.9c.15,0,.21.07.24.22.06.32.14.64.2,1s0,.3-.21.38L7,2.46l-.17,0c-.36.12-.33.1-.36.47-.08,1-.08,1.95-.12,2.93-.1,2.63,0,5.26,0,7.89,0,.82.1,1.64.16,2.46A.85.85,0,0,0,7,17l1.57.58c.27.1.28.09.22.39s-.14.61-.19.93a.24.24,0,0,1-.28.22H.47A.22.22,0,0,1,.23,19c-.06-.33-.14-.67-.21-1s0-.25.21-.32l1.84-.56c.27-.08.28-.08.3-.37,0-.9.09-1.8.11-2.7,0-1.48.06-2.95.08-4.43Z"/><path class="cls-1" d="M13.77,41.54v-1.7c0-.27,0-.28.28-.29.48,0,1,0,1.44,0a6.93,6.93,0,0,1,.88.13,1,1,0,0,1,.57.41.9.9,0,0,1-.13,1.13l-.21.18.22.17a1,1,0,0,1-.22,1.75,2.5,2.5,0,0,1-.89.2H14.07c-.28,0-.3,0-.3-.29Zm1.55,1.15c.19,0,.38,0,.56-.09a.28.28,0,0,0,.22-.3.32.32,0,0,0-.23-.33,1.28,1.28,0,0,0-.27,0,5,5,0,0,0-.55,0c-.21,0-.23,0-.23.23C14.82,42.74,14.78,42.65,15.32,42.69Zm0-1.58h.28c.23,0,.36-.13.36-.32a.31.31,0,0,0-.3-.35,5.3,5.3,0,0,0-.69,0c-.05,0-.13.08-.14.14-.1.44,0,.54.43.54Z"/><path class="cls-1" d="M31.29,41.52V39.86c0-.3,0-.31.31-.31s.85,0,1.27,0A3,3,0,0,1,34,39.8a1.93,1.93,0,0,1,1,2.06,1.87,1.87,0,0,1-1.75,1.61c-.6,0-1.2.05-1.81.06-.19,0-.22,0-.22-.25Zm1.1,0c0,.28,0,.56,0,.84s0,.23.23.23h.52a.81.81,0,0,0,.56-.25,1.14,1.14,0,0,0-.78-1.89h-.15c-.38,0-.38,0-.38.38Z"/><path class="cls-1" d="M6.41,28.79v1.67c0,.26,0,.27-.28.28-.66,0-.65,0-1.06-.52L4,28.73l-.06-.07-.09-.05a.18.18,0,0,0,0,.1,1.33,1.33,0,0,0,0,.2c0,.52,0,1,0,1.55,0,.26,0,.28-.28.28H3c-.25,0-.27,0-.27-.29V27.14c0-.32,0-.33.32-.32.73,0,.54-.08,1,.47s.8,1.06,1.21,1.58a.8.8,0,0,0,.13.13,1.38,1.38,0,0,0,0-.2V27.13c0-.31,0-.31.32-.31a2,2,0,0,1,.35,0c.31,0,.31,0,.32.33v1.64Z"/><path class="cls-1" d="M78.25,35.17V33.51c0-.29,0-.3.29-.3h1.53a1.85,1.85,0,0,1,1.75,1,2,2,0,0,1-.07,2,1.78,1.78,0,0,1-1.25.83,6.11,6.11,0,0,1-.86.06H78.55c-.29,0-.3,0-.3-.29Zm1.1,0v.61c0,.54-.06.49.5.48a1.53,1.53,0,0,0,.63-.15,1.13,1.13,0,0,0,.44-1.26,1,1,0,0,0-1-.77h-.29c-.25,0-.26,0-.26.26S79.35,34.9,79.35,35.17Z"/><path class="cls-1" d="M72.55,28.78c0-.56,0-1.12,0-1.67,0-.28,0-.29.29-.29.53,0,1.06,0,1.59,0a1.88,1.88,0,0,1,1.91,2,1.86,1.86,0,0,1-1.86,1.92c-.56,0-1.13,0-1.7,0-.21,0-.23,0-.23-.26C72.54,29.91,72.55,29.34,72.55,28.78Zm1.09,0v.8c0,.28,0,.29.3.29h.29a.93.93,0,0,0,1-.71,1.13,1.13,0,0,0-.39-1.28,1.56,1.56,0,0,0-.94-.19c-.17,0-.22.07-.22.22S73.64,28.49,73.64,28.78Z"/><path class="cls-1" d="M55.72,41.54V39.87c0-.31,0-.32.3-.32s.86,0,1.29,0a2.46,2.46,0,0,1,1.32.34,1.84,1.84,0,0,1,.85,1.36,2,2,0,0,1-.22,1.25,1.75,1.75,0,0,1-1.38,1c-.64.07-1.28,0-1.93.07-.21,0-.23,0-.23-.27Zm1.05,0c0,.28,0,.56,0,.83s0,.24.22.24h.61a.72.72,0,0,0,.62-.39,1.21,1.21,0,0,0,.1-1.11.9.9,0,0,0-.81-.62H57c-.16,0-.23.06-.23.22S56.77,41.25,56.77,41.53Z"/><path class="cls-1" d="M87,41.52V39.86c0-.3,0-.31.31-.31s.81,0,1.21,0A2.51,2.51,0,0,1,90,40a1.7,1.7,0,0,1,.68,1.3,2.57,2.57,0,0,1-.06.83,1.81,1.81,0,0,1-1.54,1.33,12.71,12.71,0,0,1-2,.06c-.18,0-.19-.12-.19-.25Zm1,0v.83c0,.21,0,.23.24.23a2.53,2.53,0,0,0,.55,0,1,1,0,0,0,.76-1.5.91.91,0,0,0-.93-.62h-.38c-.21,0-.23,0-.24.23Z"/><path class="cls-1" d="M35.78,41.57a2,2,0,0,1,1.76-2,2.27,2.27,0,0,1,1.68.4A1.82,1.82,0,0,1,40,41.41,1.93,1.93,0,0,1,39.41,43a2.13,2.13,0,0,1-1.82.58,2,2,0,0,1-1.52-.94A1.71,1.71,0,0,1,35.78,41.57Zm3.11,0a1,1,0,0,0,0-.17,1,1,0,0,0-1.57-.75A1.17,1.17,0,0,0,37,42.15a1,1,0,0,0,1.4.34A1,1,0,0,0,38.89,41.55Z"/><path class="cls-1" d="M94.6,33.15a2,2,0,0,1,1.8.87,2,2,0,0,1-1,3.06,2.19,2.19,0,0,1-2.22-.41,1.91,1.91,0,0,1-.63-1.19,2,2,0,0,1,.67-1.84A1.88,1.88,0,0,1,94.6,33.15Zm1.05,2a1,1,0,0,0-1-1.1,1,1,0,0,0-1.09,1.08,1.09,1.09,0,0,0,1,1.11A1.06,1.06,0,0,0,95.65,35.18Z"/><path class="cls-1" d="M4.38,41.54v-1.7c0-.27,0-.28.28-.29.47,0,.94,0,1.41,0a2.2,2.2,0,0,1,1.26.34,1,1,0,0,1,.4.57,1.61,1.61,0,0,1-.22,1.43.93.93,0,0,1-.13.15c-.22.2-.23.2-.07.45s.34.54.5.81.08.21-.12.22H6.94a.32.32,0,0,1-.32-.2c-.11-.21-.23-.42-.32-.64a.37.37,0,0,0-.4-.26c-.42,0-.42,0-.42.43v.43c0,.15-.07.24-.22.24H4.62c-.21,0-.23,0-.23-.26s0-.73,0-1.1ZM5.48,41h0v.43a.14.14,0,0,0,.16.16,5.3,5.3,0,0,0,.69,0A.53.53,0,0,0,6.79,41a.5.5,0,0,0-.41-.55,5.38,5.38,0,0,0-.69-.07c-.16,0-.22.08-.21.23S5.48,40.86,5.48,41Z"/><path class="cls-1" d="M49.91,33.15a2,2,0,0,1,.83,3.9,2.16,2.16,0,0,1-2.38-.46,2,2,0,0,1-.45-2.21,2,2,0,0,1,1.86-1.23Zm0,.93a1,1,0,0,0-1.05,1.08,1.1,1.1,0,0,0,1,1.11,1,1,0,0,0,1-1.1A1,1,0,0,0,49.92,34.08Z"/><path class="cls-1" d="M34.92,37.19a2.08,2.08,0,0,1-1.8-.89,2.17,2.17,0,0,1,.22-2.55,2.34,2.34,0,0,1,3.18,0A2,2,0,0,1,37,34.91a1.93,1.93,0,0,1-.43,1.53,2,2,0,0,1-1.48.75A1.08,1.08,0,0,1,34.92,37.19Zm0-.92a1.05,1.05,0,0,0,1-1.09,1,1,0,0,0-1.06-1.11,1.1,1.1,0,0,0-1,1.13A1.08,1.08,0,0,0,34.93,36.27Z"/><path class="cls-1" d="M93.44,43.59a2,2,0,0,1-.25-4.05,2.18,2.18,0,0,1,1.61.37,2,2,0,0,1,.28,3A2.18,2.18,0,0,1,93.44,43.59Zm.15-.93a1.64,1.64,0,0,0,.19,0,1.15,1.15,0,0,0,.49-1.83,1,1,0,0,0-1.27-.2,1.14,1.14,0,0,0-.26,1.66A1,1,0,0,0,93.59,42.66Z"/><path class="cls-1" d="M32.23,30.8a2.05,2.05,0,0,1-2-1.54,2,2,0,0,1,1.35-2.39,2.23,2.23,0,0,1,2.26.47,1.74,1.74,0,0,1,.54,1,2.33,2.33,0,0,1,0,1.05,2,2,0,0,1-1.95,1.45Zm1-2a1.61,1.61,0,0,0,0-.22,1,1,0,0,0-1.42-.79,1.07,1.07,0,0,0-.58,1.15,1,1,0,0,0,1.6.75A1,1,0,0,0,33.25,28.8Z"/><path class="cls-1" d="M14.93,35.16V33.49c0-.26,0-.28.27-.28H17a1.35,1.35,0,0,1,1.31.94,1.46,1.46,0,0,1-.46,1.59c-.14.11-.12.19,0,.31.19.28.37.56.55.85s.09.23-.13.23h-.77a.26.26,0,0,1-.27-.18c-.11-.22-.24-.44-.34-.67a.35.35,0,0,0-.39-.25c-.42,0-.42,0-.42.42a3.53,3.53,0,0,0,0,.46c0,.17-.09.22-.24.22h-.63c-.21,0-.23,0-.23-.24Zm1.1-.55V35c0,.14.06.19.19.19h.63a.52.52,0,0,0,.49-.54.54.54,0,0,0-.48-.55h-.29C16,34.09,16,34,16,34.61Z"/><path class="cls-1" d="M65.69,28.77V27.1c0-.26,0-.28.27-.28.56,0,1.12,0,1.67,0a1.59,1.59,0,0,1,1,.31,1.14,1.14,0,0,1,.48.93,3.64,3.64,0,0,1,0,.57,1,1,0,0,1-.42.69c-.17.13-.19.15,0,.38l.52.83c.11.18.1.2-.11.21h-.78a.26.26,0,0,1-.27-.16c-.11-.22-.24-.42-.34-.64a.36.36,0,0,0-.4-.24c-.41,0-.41,0-.41.4,0,.16,0,.31,0,.46s0,.18-.17.18h-.69c-.2,0-.23,0-.23-.24V28.77Zm1.1-.53v.4c0,.12,0,.19.16.19a6,6,0,0,0,.74-.06.54.54,0,0,0,.06-1,1.27,1.27,0,0,0-.39,0C66.71,27.69,66.79,27.61,66.79,28.24Z"/><path class="cls-1" d="M82.05,28.76V27.09c0-.26,0-.27.28-.27.54,0,1.08,0,1.62,0a1.87,1.87,0,0,1,1.8,1.39,2,2,0,0,1-.44,1.94,1.94,1.94,0,0,1-1.34.58c-.55,0-1.11,0-1.67,0-.22,0-.25,0-.25-.25Zm1.56,1.11a1,1,0,0,0,.79-.24,1.15,1.15,0,0,0,.3-1.1.88.88,0,0,0-.6-.74,2.6,2.6,0,0,0-.68-.1c-.32,0-.32,0-.32.31v1.41C83.1,29.91,83.05,29.87,83.61,29.87Z"/><path class="cls-1" d="M37.17,28.76c0-.55,0-1.1,0-1.65,0-.28,0-.29.28-.29.51,0,1,0,1.53,0a1.9,1.9,0,0,1,1.9,1.5A1.93,1.93,0,0,1,39,30.74c-.49,0-1,0-1.46,0s-.33,0-.33-.34C37.16,29.85,37.17,29.3,37.17,28.76Zm1,0v.86c0,.22,0,.23.25.24H39a.89.89,0,0,0,.75-.51,1.37,1.37,0,0,0,.12-.69,1,1,0,0,0-.73-.92,3.28,3.28,0,0,0-.63-.06c-.23,0-.24,0-.25.24Z"/><path class="cls-1" d="M41,41.54c0-.57,0-1.14,0-1.7,0-.27,0-.28.27-.29.47,0,.94,0,1.41,0a2.75,2.75,0,0,1,1,.19,1.44,1.44,0,0,1,.21,2.37c-.14.11-.12.18,0,.31s.36.54.53.82.1.27-.14.28h-.72a.29.29,0,0,1-.3-.18c-.1-.22-.22-.43-.32-.65a.4.4,0,0,0-.42-.27c-.43,0-.43,0-.43.42v.38c0,.28,0,.29-.29.3h-.46c-.28,0-.29,0-.29-.29C41,42.67,41,42.1,41,41.54Zm1-.57h0v.44a.15.15,0,0,0,.17.15,5.58,5.58,0,0,0,.71,0,.5.5,0,0,0,.44-.52c0-.32-.12-.5-.4-.55s-.49,0-.74-.06a.16.16,0,0,0-.18.18Z"/><path class="cls-1" d="M70.18,41.52V39.85c0-.28,0-.3.29-.3H73c.28,0,.29,0,.29.3,0,.66.07.57-.56.57H71.53c-.23,0-.24,0-.25.25,0,.44,0,.44.42.44h1.18c.22,0,.24,0,.25.25v.29c0,.32,0,.32-.32.32H71.6c-.32,0-.32,0-.32.32v0c0,.33,0,.33.32.33H73c.31,0,.32,0,.32.32,0,.61.06.55-.53.55H70.49c-.3,0-.31,0-.31-.31Z"/><path class="cls-1" d="M45.52,41.54c0-.55,0-1.11,0-1.67,0-.28,0-.32.3-.32h2.54c.25,0,.27,0,.27.29v.31c0,.25,0,.27-.26.27H47.06c-.44,0-.53.13-.43.55,0,.13.12.13.21.14H48c.55,0,.49,0,.5.51v.12c0,.21,0,.23-.24.23H47c-.41,0-.41,0-.4.42,0,.26,0,.27.29.27H48.4c.29,0,.29,0,.3.29v.35c0,.2,0,.23-.24.23H45.81c-.24,0-.28,0-.28-.29C45.52,42.67,45.52,42.11,45.52,41.54Z"/><path class="cls-1" d="M10.66,35.16V33.49c0-.26,0-.28.28-.28H13.5c.26,0,.28,0,.28.28v.23c0,.36,0,.36-.37.36h-1.3c-.11,0-.29,0-.31.07a1.29,1.29,0,0,0,0,.48s.14.08.22.08h1.38c.14,0,.2.08.22.22.06.62,0,.65-.58.65H12c-.22,0-.23,0-.24.24,0,.44,0,.44.43.44h1.38c.25,0,.26,0,.27.26v.34c0,.24,0,.26-.27.26H11c-.34,0-.35,0-.35-.33Z"/><path class="cls-1" d="M83,35.15V33.5c0-.28,0-.29.3-.29h2.53c.28,0,.29,0,.29.3,0,.65.07.56-.57.57H84.4c-.25,0-.27,0-.27.28v0c0,.31,0,.32.32.32h1.16c.35,0,.36,0,.36.38v.12c0,.37,0,.37-.38.37H84.38c-.23,0-.24,0-.25.25,0,.43,0,.43.41.43h1.39c.26,0,.27,0,.28.27s0,.25,0,.38-.08.22-.23.21H83.36c-.32,0-.33,0-.33-.31Z"/><path class="cls-1" d="M41.89,28.77c0-.56,0-1.11,0-1.67,0-.26,0-.28.27-.28.85,0,1.71,0,2.56,0,.26,0,.28,0,.28.28v.23c0,.35,0,.35-.34.36s-.91,0-1.36,0-.32,0-.32.32a.66.66,0,0,1,0,.14c0,.16.07.22.22.22H44.4c.46,0,.44,0,.44.43s0,.38-.38.39l-1.26,0c-.15,0-.2.07-.21.21,0,.4,0,.42.4.42h1.38c.28,0,.29,0,.3.29v.4a.16.16,0,0,1-.18.18H42.24c-.34,0-.34,0-.35-.36Z"/><path class="cls-1" d="M60.5,41.54V39.87c0-.31,0-.32.3-.32h2.54c.26,0,.28,0,.28.28,0,.69.07.58-.57.59H61.78c-.21,0-.22,0-.23.24,0,.45,0,.45.42.45h1.15c.25,0,.26,0,.27.26s0,.25,0,.37,0,.23-.24.23H61.86c-.31,0-.31,0-.31.3v.15c0,.21,0,.23.23.23h1.47c.43,0,.43,0,.43.42s0,.45-.46.45H60.83c-.32,0-.33,0-.33-.32Z"/><path class="cls-1" d="M68.11,35.15V33.54c0-.32,0-.33.31-.33h2.51c.28,0,.29,0,.29.29a1.93,1.93,0,0,1,0,.34c0,.21,0,.23-.23.24H69.55c-.39,0-.48.13-.39.51,0,.13.13.12.22.12h1.21c.41,0,.41,0,.41.41s0,.46-.45.46H69.4c-.23,0-.24,0-.25.25,0,.43,0,.43.41.43H71c.26,0,.28,0,.28.27,0,.69.07.59-.57.59H68.52c-.44,0-.41,0-.41-.44Z"/><path class="cls-1" d="M52.09,28.76V27.09c0-.26,0-.27.28-.27.86,0,1.71,0,2.57,0,.24,0,.26,0,.27.25v.38c0,.21,0,.23-.24.23H53.76a1.77,1.77,0,0,0-.23,0c-.13,0-.31-.07-.36.08a1.05,1.05,0,0,0,0,.5s.13.09.21.1h1.44c.12,0,.17.07.17.18s0,.29,0,.44-.07.19-.21.2l-1.32,0c-.31,0-.31,0-.31.3v.12c0,.16.07.21.22.21h1.7c.15,0,.21.07.2.21,0,.79.08.65-.59.66s-1.51,0-2.27,0c-.3,0-.31,0-.31-.31Z"/><path class="cls-1" d="M9.13,43.53H8.75c-.2,0-.22,0-.15-.23s.26-.62.4-.93l1-2.32c.21-.5.2-.5.75-.5s.54,0,.75.49c.44,1.06.88,2.12,1.33,3.18l0,.14c0,.1,0,.17-.12.17H12a.34.34,0,0,1-.2-.14.88.88,0,0,1-.12-.28c-.1-.25-.1-.26-.35-.26H10.1a.24.24,0,0,0-.28.18.08.08,0,0,1,0,0C9.59,43.6,9.68,43.52,9.13,43.53ZM10.72,42H11c.11,0,.13-.06.09-.16l-.36-.93s0,0-.06-.06l-.05.06c-.09.22-.17.43-.25.64C10.23,42,10.23,42,10.72,42Z"/><path class="cls-1" d="M29.88,43.53c-.56,0-.52.1-.72-.5a.26.26,0,0,0-.28-.19H27.67a.28.28,0,0,0-.31.2c-.21.58-.18.48-.77.49h-.17c-.33,0-.35,0-.22-.35l.36-.85c.36-.82.72-1.65,1.07-2.48.09-.21.2-.33.45-.3a3.25,3.25,0,0,0,.54,0,.28.28,0,0,1,.29.19c.31.75.63,1.5.94,2.26l.51,1.22c.11.27.08.3-.22.31ZM28.25,42h.34c.11,0,.14,0,.1-.14-.12-.3-.24-.61-.35-.91a.71.71,0,0,0-.07-.09.39.39,0,0,0-.08.1l-.24.62C27.79,42,27.79,42,28.25,42Z"/><path class="cls-1" d="M85.45,43.53c-.33.1-.57-.06-.66-.47a.26.26,0,0,0-.31-.22H83.27A.25.25,0,0,0,83,43c-.23.57-.1.49-.79.5h-.32c-.13,0-.17-.07-.12-.19s.16-.35.23-.52c.43-1,.86-2,1.28-3a.36.36,0,0,1,.43-.28,3,3,0,0,0,.52,0,.31.31,0,0,1,.34.24c.19.47.39.93.59,1.4L86,43.26c.1.23.08.26-.17.27ZM83.91,42h.26c.17,0,.18,0,.12-.19s-.22-.59-.34-.88c0,0,0,0-.07-.08l0,.07-.24.62C83.4,42,83.4,42,83.91,42Z"/><path class="cls-1" d="M21.68,43.53c-.45.12-.67-.09-.76-.5a.25.25,0,0,0-.28-.19H19.43a.25.25,0,0,0-.3.2s0,.05,0,.08c-.14.46-.12.4-.58.41h-.4c-.24,0-.26,0-.18-.25.15-.37.31-.73.46-1.09.34-.79.69-1.58,1-2.38a.33.33,0,0,1,.38-.26,4.51,4.51,0,0,0,.52,0,.35.35,0,0,1,.39.26c.13.34.27.67.42,1,.33.8.68,1.61,1,2.41.12.29.11.3-.2.3ZM20,42h.35c.09,0,.12,0,.09-.13l-.36-.94a.27.27,0,0,0-.08-.07.47.47,0,0,0-.06.09l-.24.61C19.56,42,19.56,42,20,42Z"/><path class="cls-1" d="M21.9,28.22c0-.39,0-.77,0-1.16,0-.22,0-.24.25-.24a5,5,0,0,1,.55,0c.22,0,.24,0,.24.25,0,.6,0,1.21,0,1.81a1.74,1.74,0,0,0,.06.51.7.7,0,0,0,1.37-.21v-2c0-.32,0-.32.32-.32h.54c.16,0,.24.06.24.22,0,.72,0,1.44,0,2.16a1.67,1.67,0,0,1-.57,1.24,1.39,1.39,0,0,1-.67.32,2.16,2.16,0,0,1-1.71-.27,1.43,1.43,0,0,1-.62-1.14c0-.38,0-.75,0-1.12Z"/><path class="cls-1" d="M63.44,28.09v-1c0-.21,0-.23.24-.23h.63c.16,0,.23.06.23.22,0,.7,0,1.4,0,2.1A1.73,1.73,0,0,1,64,30.42a1.44,1.44,0,0,1-.64.32,2.18,2.18,0,0,1-1.76-.26A1.39,1.39,0,0,1,61,29.35c0-.75,0-1.51,0-2.27,0-.25,0-.26.27-.26a4.51,4.51,0,0,1,.52,0c.24,0,.25,0,.26.27v2a.85.85,0,0,0,.27.67.68.68,0,0,0,1.1-.28,2.38,2.38,0,0,0,.06-.37v-1Z"/><path class="cls-1" d="M63,37.13c-.6,0-.55.11-.75-.5a.25.25,0,0,0-.26-.19q-.63,0-1.26,0a.24.24,0,0,0-.26.19v0c-.2.48-.2.48-.71.48h-.35c-.2,0-.22-.05-.15-.23l.51-1.19c.33-.75.66-1.51,1-2.27a.31.31,0,0,1,.34-.23h.6a.32.32,0,0,1,.37.24c.19.47.39.94.59,1.41l.85,2c.09.21.08.23-.15.23Zm-1.66-1.5h.37c.09,0,.12-.05.09-.14l-.38-1-.05-.06s0,0,0,.06c-.1.23-.19.46-.28.69C60.9,35.63,60.9,35.63,61.38,35.63Z"/><path class="cls-1" d="M45.4,37.21a3.2,3.2,0,0,1-1.57-.5c-.21-.12-.22-.18-.11-.4s.14-.29.22-.44.09-.17.24-.06a2.39,2.39,0,0,0,1.14.47,1.31,1.31,0,0,0,.28,0,.32.32,0,0,0,.29-.24.36.36,0,0,0-.24-.33L45,35.52c-.23-.09-.47-.17-.69-.28a1.1,1.1,0,0,1,0-1.84,2,2,0,0,1,1.33-.27,3.35,3.35,0,0,1,1.12.32c.24.12.24.12.12.37s-.12.26-.19.39-.11.2-.32.11-.45-.18-.68-.25a1.91,1.91,0,0,0-.48,0,.23.23,0,0,0-.24.21.22.22,0,0,0,.14.25l.43.17c.24.08.48.15.71.24a1.1,1.1,0,0,1,.63,1.56,1.21,1.21,0,0,1-.87.66C45.84,37.16,45.62,37.18,45.4,37.21Z"/><path class="cls-1" d="M73.88,37.22a3.27,3.27,0,0,1-1.58-.5c-.22-.13-.22-.19-.11-.42s.15-.29.22-.44.11-.13.23-.06a7.16,7.16,0,0,0,.88.43.88.88,0,0,0,.56.05c.14-.05.25-.11.27-.26a.29.29,0,0,0-.22-.3c-.2-.08-.41-.13-.6-.2a5.7,5.7,0,0,1-.72-.29,1.07,1.07,0,0,1-.21-1.62,1.37,1.37,0,0,1,.51-.35,2.74,2.74,0,0,1,2.25.24c.11,0,.12.13.07.23a5,5,0,0,0-.25.52.17.17,0,0,1-.27.09,4.54,4.54,0,0,0-.7-.26,1.73,1.73,0,0,0-.51,0,.22.22,0,0,0-.22.19.22.22,0,0,0,.13.27l.31.13c.28.1.57.18.85.29a1.09,1.09,0,0,1,.65,1.46,1.12,1.12,0,0,1-.75.7C74.41,37.14,74.14,37.17,73.88,37.22Z"/><path class="cls-1" d="M51.39,39.49a3.06,3.06,0,0,1,1.4.38c.12.06.15.13.09.25s-.19.36-.27.54-.11.13-.23.08a6.67,6.67,0,0,0-.74-.29,2.69,2.69,0,0,0-.49,0,.21.21,0,0,0-.23.18.35.35,0,0,0,.1.24.89.89,0,0,0,.31.15c.25.09.52.15.77.25a1.15,1.15,0,0,1,.82.84,1.16,1.16,0,0,1-.84,1.38,2.66,2.66,0,0,1-2.35-.39c-.19-.13-.2-.17-.1-.38s.16-.31.23-.47.11-.12.22,0a6.06,6.06,0,0,0,.84.43,2,2,0,0,0,.6,0,.26.26,0,0,0,.27-.17.27.27,0,0,0-.13-.32A1.69,1.69,0,0,0,51.3,42l-.74-.23a1,1,0,0,1-.77-.88,1.09,1.09,0,0,1,.63-1.18A2.09,2.09,0,0,1,51.39,39.49Z"/><path class="cls-1" d="M59.87,29.53a4.51,4.51,0,0,0,0,.52.35.35,0,0,1-.25.4,4.88,4.88,0,0,1-1,.32,2.22,2.22,0,0,1-1.43-.17,1.92,1.92,0,0,1-1.1-1.76,1.89,1.89,0,0,1,1.22-1.9,2.4,2.4,0,0,1,2.33.23c.25.16.24.18.07.4l-.3.39c-.08.12-.17.13-.29,0a1.43,1.43,0,0,0-.87-.32,1,1,0,0,0-1.05.92,1.22,1.22,0,0,0,.14.77,1.1,1.1,0,0,0,1.44.4.23.23,0,0,0,.13-.23c0-.2,0-.39,0-.58s0-.23.22-.24h.49c.15,0,.21.06.21.2v.61Z"/><path class="cls-1" d="M80.59,30.74c-.6,0-.48.11-.71-.5a.25.25,0,0,0-.27-.19H78.4c-.15,0-.25,0-.28.19a.57.57,0,0,1-.77.5,1.93,1.93,0,0,0-.34,0c-.16,0-.18,0-.12-.2s.12-.28.18-.42c.44-1,.89-2.06,1.32-3.09a.31.31,0,0,1,.33-.22q.3,0,.6,0a.32.32,0,0,1,.35.23c.32.8.66,1.59,1,2.38l.4,1,.06.13c.06.19.05.22-.15.23ZM79,29.23h.31c.12,0,.16-.06.11-.17-.11-.3-.23-.59-.34-.88a.43.43,0,0,0-.09-.1l-.07.11c-.08.2-.15.4-.23.59C78.5,29.24,78.5,29.24,79,29.23Z"/><path class="cls-1" d="M8.22,37.2a3.07,3.07,0,0,1-1.75-.5c-.21-.14-.22-.17-.11-.4s.12-.26.19-.38.14-.2.31-.08a2.52,2.52,0,0,0,1.08.45,1,1,0,0,0,.39,0,.32.32,0,0,0,.19-.19.21.21,0,0,0-.11-.27,3.9,3.9,0,0,0-.47-.2c-.25-.09-.52-.16-.76-.26a1,1,0,0,1-.67-1.06,1.14,1.14,0,0,1,.75-1,2.29,2.29,0,0,1,1.44-.08,6,6,0,0,1,.78.27c.15,0,.18.16.11.3s-.18.34-.26.52-.13.13-.25.08a7.21,7.21,0,0,0-.77-.3.9.9,0,0,0-.43,0,.33.33,0,0,0-.23.18.28.28,0,0,0,.11.24.79.79,0,0,0,.3.16L9,35a1,1,0,0,1,.64,1,1.07,1.07,0,0,1-.76,1A4.47,4.47,0,0,1,8.22,37.2Z"/><path class="cls-1" d="M39.35,37.19A2.85,2.85,0,0,1,38,36.73c-.24-.16-.24-.19-.12-.44l.21-.42c.06-.12.13-.13.25,0a6.31,6.31,0,0,0,.63.34,1.22,1.22,0,0,0,.78.12c.14,0,.26-.08.27-.25a.3.3,0,0,0-.21-.31c-.19-.08-.38-.13-.57-.19s-.43-.14-.63-.23a1,1,0,0,1-.6-.84,1.07,1.07,0,0,1,.5-1.06,2,2,0,0,1,1.32-.27,3.34,3.34,0,0,1,1.13.32c.21.11.21.11.11.33l-.22.49c0,.12-.12.13-.23.08a6.42,6.42,0,0,0-.84-.29,1,1,0,0,0-.45,0,.27.27,0,0,0-.19.18.25.25,0,0,0,.1.22,2.94,2.94,0,0,0,.44.2c.25.1.51.17.76.27a1,1,0,0,1,.73,1A1.1,1.1,0,0,1,40.41,37,2.24,2.24,0,0,1,39.35,37.19Z"/><path class="cls-1" d="M76,43.59a3.24,3.24,0,0,1-1.6-.49c-.24-.15-.24-.17-.12-.41s.15-.29.22-.44.12-.13.24-.06a5.63,5.63,0,0,0,.82.4,2,2,0,0,0,.6.07.28.28,0,0,0,.28-.21.26.26,0,0,0-.15-.31,3,3,0,0,0-.37-.16c-.27-.09-.55-.16-.82-.26a1,1,0,0,1-.66-.77,1.11,1.11,0,0,1,.46-1.16,2,2,0,0,1,1.27-.29,2.75,2.75,0,0,1,1.21.34c.18.11.19.12.1.31s-.15.35-.23.53-.11.11-.21.07a4.8,4.8,0,0,0-.66-.27,2.76,2.76,0,0,0-.57-.06.23.23,0,0,0-.26.18.22.22,0,0,0,.17.27c.25.11.52.19.78.29a3.83,3.83,0,0,1,.65.3.9.9,0,0,1,.41.77,1.14,1.14,0,0,1-.91,1.25l-.45.1Z"/><path class="cls-1" d="M99.26,37.22a3.21,3.21,0,0,1-1.65-.54c-.13-.09-.16-.18-.08-.31s.18-.34.26-.52.1-.13.21,0a2.44,2.44,0,0,0,1.15.48.86.86,0,0,0,.39,0,.25.25,0,0,0,0-.47,1.27,1.27,0,0,0-.32-.13c-.27-.1-.55-.17-.82-.27a1,1,0,0,1-.77-1,1.16,1.16,0,0,1,.82-1.1,2.75,2.75,0,0,1,2.19.24c.12.07.15.14.09.26s-.17.36-.25.55-.13.12-.23.07a7.12,7.12,0,0,0-.72-.28,1.49,1.49,0,0,0-.51,0,.29.29,0,0,0-.22.15.34.34,0,0,0,.08.25,1,1,0,0,0,.3.16l.84.29a1.11,1.11,0,0,1,.51,1.8,1.4,1.4,0,0,1-.59.38A3.5,3.5,0,0,1,99.26,37.22Z"/><path class="cls-1" d="M9.2,26.76a2.59,2.59,0,0,1,1.37.32c.2.11.19.11.11.3l-.2.45c-.1.21-.12.2-.33.12s-.55-.21-.84-.3a.53.53,0,0,0-.47.06c-.12.08-.15.18-.05.29a.88.88,0,0,0,.3.2c.28.11.57.17.84.29a1.84,1.84,0,0,1,.55.35,1.12,1.12,0,0,1-.38,1.78,2.33,2.33,0,0,1-1.35.16,2.78,2.78,0,0,1-1.23-.48c-.12-.09-.16-.18-.08-.31s.15-.31.23-.47.13-.19.3-.06a2.35,2.35,0,0,0,1,.43,1,1,0,0,0,.45,0,.28.28,0,0,0,0-.54L9,29.19,8.36,29a1.13,1.13,0,0,1-.76-1,1.2,1.2,0,0,1,.74-1.1A1.71,1.71,0,0,1,9.2,26.76Z"/><path class="cls-1" d="M49.52,26.73a2.81,2.81,0,0,1,1.36.35c.19.1.2.13.11.33s-.16.31-.23.47-.12.14-.25.09a8.29,8.29,0,0,0-.83-.31.9.9,0,0,0-.4,0,.29.29,0,0,0-.2.17.27.27,0,0,0,.09.24,2.78,2.78,0,0,0,.49.24c.22.08.45.14.68.23a1,1,0,0,1,.73,1.08,1.16,1.16,0,0,1-.74,1.06,2.42,2.42,0,0,1-1.16.12,2.63,2.63,0,0,1-1.38-.54.15.15,0,0,1-.07-.21L48,29.5c.07-.15.16-.13.27-.05a2.53,2.53,0,0,0,1,.45,1.7,1.7,0,0,0,.45,0c.12,0,.23-.1.21-.23a.42.42,0,0,0-.16-.28,2,2,0,0,0-.48-.18c-.22-.07-.45-.12-.66-.21A1.06,1.06,0,0,1,48,27.52a1.12,1.12,0,0,1,.83-.69A5.06,5.06,0,0,1,49.52,26.73Z"/><path class="cls-1" d="M28.18,33.15a2.15,2.15,0,0,1,1.44.49c.2.16.19.19,0,.39l-.35.42c-.08.1-.15.09-.24,0a1.72,1.72,0,0,0-.35-.25.92.92,0,0,0-1.07,0,1.07,1.07,0,0,0-.4,1.16,1,1,0,0,0,1.62.61c.34-.22.34-.22.63.07l.16.17c.16.17.17.19,0,.34a2.16,2.16,0,0,1-2.68.23,2,2,0,0,1-.57-2.76A2,2,0,0,1,28.18,33.15Z"/><path class="cls-1" d="M52.71,35.28a2,2,0,0,1,2-2.13,2.29,2.29,0,0,1,1.57.53c.15.12.16.13,0,.3s-.25.31-.38.46-.15.11-.25,0a1.39,1.39,0,0,0-.27-.21,1,1,0,0,0-1.06-.06,1,1,0,0,0-.51.9,1,1,0,0,0,.35.9,1,1,0,0,0,1.08.14,1.56,1.56,0,0,0,.28-.16c.27-.17.28-.18.51.07.52.56.4.43-.07.77a2.07,2.07,0,0,1-2.45,0A1.79,1.79,0,0,1,52.71,35.28Z"/><path class="cls-1" d="M19.64,33.21c.68,0,.54-.1.77.56l.64,1.87a1,1,0,0,0,.09.18.87.87,0,0,0,.11-.18c.25-.71.49-1.42.73-2.13.11-.3.11-.3.43-.3h.52c.25,0,.26,0,.17.27-.19.5-.39,1-.58,1.48s-.51,1.28-.75,1.93a.32.32,0,0,1-.36.25,4,4,0,0,0-.6,0,.3.3,0,0,1-.32-.22l-.79-2-.51-1.32c0-.07-.05-.14-.07-.21s0-.13.09-.14Z"/><path class="cls-1" d="M25.42,41.11v1.21a1.22,1.22,0,0,1-1.22,1.22,1.93,1.93,0,0,1-1.32-.39c-.23-.19-.24-.22-.07-.47l.24-.36c.06-.1.13-.12.23,0a1.74,1.74,0,0,0,.36.24,1,1,0,0,0,.39.08.26.26,0,0,0,.28-.27c0-.56,0-1.13,0-1.69,0-.13-.09-.16-.19-.16h-.84c-.28,0-.29,0-.29-.3s0-.26,0-.4a.2.2,0,0,1,.23-.23h1.92c.25,0,.27,0,.27.26Z"/><path class="cls-1" d="M.6,33.21c.39-.1.6.06.75.42s.37.68.55,1c.09.16.11.17.2,0,.21-.37.42-.75.6-1.14a.44.44,0,0,1,.51-.3,5,5,0,0,0,.55,0c.14,0,.17.07.1.19l-.27.5c-.33.61-.65,1.22-1,1.83a.75.75,0,0,0-.07.33c0,.29,0,.57,0,.86s-.06.22-.21.21H1.65c-.14,0-.21-.06-.2-.2s0-.43,0-.64a1.41,1.41,0,0,0-.23-.87c-.27-.49-.53-1-.8-1.49-.08-.14-.17-.28-.24-.43s-.13-.29.16-.29Z"/><path class="cls-1" d="M79.93,39.55h1.38c.31,0,.34,0,.34.33,0,.69.08.59-.59.6s-.56-.08-.56.54v2.16c0,.33,0,.35-.34.35h-.58a.16.16,0,0,1-.18-.18V40.79c0-.31,0-.31-.3-.31h-.64c-.16,0-.22-.08-.21-.24v-.46c0-.2,0-.22.24-.23Z"/><path class="cls-1" d="M13.14,26.82c.47,0,.94,0,1.41,0,.25,0,.26,0,.27.26v.38c0,.2,0,.22-.25.23h-.66c-.23,0-.24,0-.25.25v1.15c0,.46,0,.92,0,1.38,0,.25,0,.26-.26.27h-.57c-.24,0-.26,0-.26-.27,0-.73,0-1.46,0-2.19s.1-.58-.59-.59h-.31c-.22,0-.24,0-.25-.23v-.38c0-.24,0-.26.27-.26.4,0,.8,0,1.2,0Z"/><path class="cls-1" d="M28,26.82c.47,0,.94,0,1.41,0,.26,0,.28,0,.28.27,0,.69.07.59-.56.6H28.8c-.26,0-.27,0-.27.28v2.48c0,.28,0,.29-.3.29h-.54c-.23,0-.25,0-.26-.25V28c0-.33,0-.33-.34-.33s-.4,0-.6,0-.21-.07-.21-.21v-.43c0-.21,0-.23.24-.23C27,26.81,27.5,26.82,28,26.82Z"/><path class="cls-1" d="M1.8,39.55H3.1c.37,0,.37,0,.37.39v.34a.18.18,0,0,1-.2.2H2.64c-.32,0-.32,0-.32.31v2.42c0,.31,0,.32-.33.32H1.61c-.34,0-.34,0-.34-.36V41c0-.52.05-.47-.48-.47H.33c-.14,0-.21-.06-.21-.21s0-.32,0-.49,0-.22.24-.23Z"/><path class="cls-1" d="M19.37,26.82c.46,0,.91,0,1.36,0s.31,0,.31.3c0,.65.07.56-.56.57s-.59,0-.59.59v2c0,.45,0,.42-.43.42H19.2c-.36,0-.36,0-.36-.34V27.89c0-.14-.06-.21-.2-.2H18c-.23,0-.26,0-.26-.25,0-.73-.08-.61.59-.62C18.65,26.81,19,26.82,19.37,26.82Z"/><path class="cls-1" d="M65.86,41.11c0,.4,0,.81,0,1.21s0,.28.27.28h1.09c.23,0,.24,0,.25.25v.43c0,.22,0,.25-.26.25H65c-.26,0-.27,0-.27-.29s0-.46,0-.69c0-.89,0-1.79,0-2.68,0-.31,0-.32.32-.32h.52c.21,0,.25.05.25.26,0,.44,0,.87,0,1.3Z"/><path class="cls-1" d="M64.42,35.14V33.5c0-.28,0-.29.3-.29h.43c.37,0,.37,0,.37.36v2.19c0,.48,0,.45.45.45h.89c.26,0,.27,0,.28.28s0,.29,0,.43-.06.21-.21.21h-2.3c-.19,0-.2,0-.21-.26Z"/><path class="cls-1" d="M89.08,35.15V33.54c0-.33,0-.33.34-.33H90a.16.16,0,0,1,.18.18v2.47c0,.35,0,.35.35.35h1c.23,0,.25,0,.25.24a3.23,3.23,0,0,1,0,.44c0,.22,0,.24-.25.24H89.33c-.22,0-.25,0-.25-.25Z"/><path class="cls-1" d="M30.72,35.15c0-.55,0-1.09,0-1.64,0-.29,0-.3.28-.3h.55c.24,0,.26,0,.26.27,0,.41,0,.83,0,1.24v2.1c0,.3,0,.31-.3.31H31c-.22,0-.24,0-.24-.25C30.71,36.3,30.72,35.73,30.72,35.15Z"/><path class="cls-1" d="M16.78,28.79c0,.55,0,1.11,0,1.67,0,.26,0,.28-.27.28h-.58c-.22,0-.23,0-.24-.26V27.14c0-.32,0-.32.32-.32a4.51,4.51,0,0,1,.52,0c.24,0,.25,0,.25.27C16.78,27.65,16.78,28.22,16.78,28.79Z"/><path class="cls-1" d="M24,35.16V33.49c0-.26,0-.28.28-.28h.52c.28,0,.29,0,.3.29v3.31c0,.32,0,.32-.32.32H24.4c-.37,0-.37,0-.37-.35Z"/><path class="cls-1" d="M71.34,28.8v1.66c0,.26,0,.28-.28.28h-.55c-.25,0-.27,0-.27-.29V27c0-.14.06-.19.19-.19h.69c.17,0,.22.08.22.23s0,.54,0,.81Z"/><path class="cls-1" d="M57.33,35.16V33.49c0-.26,0-.28.28-.28h.57c.13,0,.2.06.2.19v3.39a1.09,1.09,0,0,1,0,.18.14.14,0,0,1-.15.16H57.5c-.17,0-.17-.12-.17-.24Z"/><path class="cls-1" d="M1.51,28.78v1.67c0,.28,0,.29-.29.29H.64a.16.16,0,0,1-.18-.18V27.14c0-.32,0-.32.32-.32a4,4,0,0,1,.49,0c.21,0,.24,0,.24.23v1.73Z"/></g></g></svg>