<svg xmlns="http://www.w3.org/2000/svg" viewBox="0 0 67.1 75.75"><defs><style>.cls-1{fill:#fff;}</style></defs><title>Asset 17</title><g id="Layer_2" data-name="Layer 2"><g id="Contenido"><path class="cls-1" d="M37.62,37.33a28.8,28.8,0,0,1,1.27-9.13A8.33,8.33,0,0,1,41.47,24a3.12,3.12,0,0,1,1.09-.62,1.87,1.87,0,0,1,2.55,1.33,9.64,9.64,0,0,1,.55,2.36c.15,1.77.2,3.55.27,5.32.09,2.12.15,4.24.25,6.36a16.25,16.25,0,0,0,.24,1.84c.39,2.36.79,4.71,1.2,7.07a2.14,2.14,0,0,0,.09.34c.17.56.19.57.66.23l4.05-2.89a.89.89,0,0,1,.41-.21c.08,0,.27.15.26.2-.39,1.81-.74,3.64-2.24,5-.61.53-1.13,1.16-1.7,1.73a1.51,1.51,0,0,0-.44,1.27c.09.92.15,1.84.27,2.76.35,2.75.79,5.5,1.06,8.26A30.48,30.48,0,0,1,49.91,68a23.51,23.51,0,0,1-.78,4.56,4.51,4.51,0,0,1-1.85,2.71,2.55,2.55,0,0,1-1.75.47,7.47,7.47,0,0,1-6.77-6.4A18.8,18.8,0,0,1,40.33,59a25.25,25.25,0,0,1,3.82-6.59c1.22-1.5,1.2-1.53.88-3.47s-.66-3.64-1-5.47c-.08-.45-.11-.92-.19-1.37-.11-.62-.44-.79-1-.48-.3.16-.54.43-.83.62-.45.29-.9.58-1.37.84a1.79,1.79,0,0,1-2.47-1,11.75,11.75,0,0,1-.56-2.58A16.18,16.18,0,0,1,37.62,37.33Zm10,28.81h.11c-.11-1.19-.18-2.38-.33-3.56-.31-2.45-.66-4.89-1-7.32A10.67,10.67,0,0,0,46.13,54a.41.41,0,0,0-.36-.09,1.39,1.39,0,0,0-.35.44,23.59,23.59,0,0,0-2.87,6.42,26.53,26.53,0,0,0-1,7.3A3.21,3.21,0,0,0,43.28,71a8.1,8.1,0,0,0,.94.45A2,2,0,0,0,46.47,71a3.52,3.52,0,0,0,1.13-2.58C47.64,67.68,47.61,66.91,47.61,66.14ZM44.36,30.6a1.14,1.14,0,0,0-.71-1.32,1.31,1.31,0,0,0-1.62.15,4.36,4.36,0,0,0-1,1.15q-.95,2.05-1.74,4.17c-.28.74,0,1.24.68,1.79a1.31,1.31,0,0,0,1.8.08,3.75,3.75,0,0,0,1-1.07A15.06,15.06,0,0,0,44.36,30.6Z"/><path class="cls-1" d="M27.19,41.28c0-1.16,0-2.32,0-3.48a18.46,18.46,0,0,1,.71-4.67,4.46,4.46,0,0,1,2.46-2.93c.45-.2.93-.37,1.39-.56a1.89,1.89,0,0,1,2,.13c.34.25.5.14.46-.25-.18-1.76-.35-3.53-.58-5.29a13,13,0,0,0-.48-1.91,7.91,7.91,0,0,0-3.38-4.41c-1.11-.74-1.11-1-.28-2.1.12-.15.26-.28.39-.42,1.27-1.28,2.75-1.12,3.6.49a11.72,11.72,0,0,1,1,2.81,32.17,32.17,0,0,1,.78,6.2c.07,1.92.27,3.84.41,5.76.08,1.16.2,2.31.23,3.47.09,4,.44,8,.24,12.05-.09,1.65-.32,3.3-.49,4.95a1,1,0,0,1-.1.33,2.39,2.39,0,0,1-.21.26c-.07-.08-.19-.14-.22-.23-.11-.33-.18-.67-.28-1s-.25-.73-.38-1.09a1.4,1.4,0,0,0-1.61-1,9.13,9.13,0,0,0-1,.19c-.41.1-.82.21-1.23.34-1.94.63-2.84-.64-3.17-2a10.56,10.56,0,0,1-.26-2.18c0-1.15,0-2.32,0-3.48Zm6.53-1.94c-.32-1.1-.67-2.4-1.08-3.68-.15-.47-.43-1-1-1s-.92.49-1.19,1c0,.07-.05.14-.08.22-.43,1.31-.93,2.61-1.28,4a3.32,3.32,0,0,0,.18,2.7c.74,1.19,1.65,1.33,2.64.35a7.51,7.51,0,0,0,1.65-2.63A5.49,5.49,0,0,0,33.72,39.34Z"/><path class="cls-1" d="M6,37.39V30.66a4.36,4.36,0,0,0,0-.81,2.62,2.62,0,0,0-.29-.58,2.05,2.05,0,0,0-.41.48,29.55,29.55,0,0,0-2.1,7.44c-.32,2-.57,4.05-1,6.05a28.25,28.25,0,0,1-1,3.45c-.05.18-.29.29-.45.44a2,2,0,0,1-.32-.45,2.36,2.36,0,0,1-.2-.78c-.14-2.51-.36-5-.25-7.52.08-2.13.16-4.25.2-6.37a31.83,31.83,0,0,1,.7-6.08A2,2,0,0,1,1,25.61c.06.09.16.17.19.27a2.13,2.13,0,0,1,.11.57c.09,1.65.16,3.31.27,5A15,15,0,0,0,1.84,33a.2.2,0,0,0,.14.14A.23.23,0,0,0,2.16,33c.14-.36.29-.72.39-1.08C3.08,30,3.6,28.08,4.14,26.15a4.93,4.93,0,0,1,1.4-2.24c.41-.39.67-.38.9.11A6.76,6.76,0,0,1,7.12,26c.17,1.46.19,2.93.28,4.39.06.88.14,1.77.22,2.65,0,.12.14.23.21.34.09-.07.21-.12.26-.22.25-.52.5-1,.73-1.57a26.13,26.13,0,0,1,2.25-4.82,17.12,17.12,0,0,1,1.82-2.24c.67-.7,1-.61,1.28.28a20.83,20.83,0,0,1,.83,3.6c.25,2.42.44,4.85.47,7.27,0,2.08-.24,4.16-.38,6.24C15,43,15,44.2,14.82,45.35s-.29,2.53-.54,3.78a8.53,8.53,0,0,1-.78,1.79.35.35,0,0,1-.29.13A.4.4,0,0,1,13,50.8,7.31,7.31,0,0,1,13,50c0-2.71.21-5.4.42-8.09a75.29,75.29,0,0,0,.25-9.73,6.72,6.72,0,0,0-.62-2.81c-.28-.53-.56-.62-1-.15a5.26,5.26,0,0,0-1,1.54c-.65,1.77-1.24,3.57-1.8,5.38C8.4,39,7.53,42,6.65,44.89a1.46,1.46,0,0,1-.19.42.48.48,0,0,1-.27.15s-.11-.11-.11-.18c0-.38-.07-.77-.07-1.16,0-2.24,0-4.48,0-6.73Z"/><path class="cls-1" d="M67.07,34.2a21,21,0,0,1-.7,6.31,10.71,10.71,0,0,1-1.69,3.79c-1,1.31-1.9,2.63-2.93,3.87A8.31,8.31,0,0,1,59,50.26a2.3,2.3,0,0,1-2.9-.71,8.13,8.13,0,0,1-1.51-3.71,18.84,18.84,0,0,1-.23-4.62A38.67,38.67,0,0,1,56.71,28.9a13.36,13.36,0,0,1,1.6-2.8,2.87,2.87,0,0,1,3.36-1.2c.58.18,1.18.35,1.75.58a5,5,0,0,1,3.17,3.57A16.87,16.87,0,0,1,67.07,34.2Zm-.67,1.35a4.21,4.21,0,0,0-.51-2.4,7.78,7.78,0,0,0-2.11-2.58,3.06,3.06,0,0,0-4.2.1,6.89,6.89,0,0,0-1.78,2.67,37.18,37.18,0,0,0-2,7.7,3.16,3.16,0,0,0,1.3,3.15c2.09,1.58,4.2,1.08,5.73-.74A17.3,17.3,0,0,0,65.5,39,6.56,6.56,0,0,0,66.4,35.55Z"/><path class="cls-1" d="M25,29.09c0,2.2.05,4.41,0,6.61s-.26,4.46-.4,6.7c-.09,1.5-.18,3-.29,4.5a6.9,6.9,0,0,1-.23,1.36c-.11.37-.45.43-.72.15a3.16,3.16,0,0,1-.81-2c0-.62,0-1.24,0-1.85,0-2.79,0-5.57,0-8.35,0-2.36.05-4.72.25-7.06.29-3.28.16-6.56.14-9.84,0-2-.24-4.08-.38-6.12,0-.15,0-.31,0-.46,0-3.25,0-6.5,0-9.74A16.74,16.74,0,0,1,23,.37c0-.14.15-.25.23-.37.07.11.2.22.22.35.17,1.45.32,2.91.47,4.36s.3,2.68.42,4c.1,1.19.2,2.39.26,3.58q.15,3.24.26,6.48c.12,3.43.22,6.86.32,10.3Z"/><path class="cls-1" d="M50.8,35.42c0,1.28.07,2.56,0,3.82a24.53,24.53,0,0,1-.55,3.06c0,.15-.24.26-.36.38a1.27,1.27,0,0,1-.17-.4c-.16-1.49-.35-3-.45-4.48C48.9,32.87,49,27.92,49,23a8.49,8.49,0,0,1,.14-1.1,7.18,7.18,0,0,1,.65,1,12,12,0,0,1,.36,1.46.76.76,0,0,0,.12.19c.09-.06.24-.1.27-.18.19-.59.36-1.18.55-1.77s.38-1.25.61-1.86a2,2,0,0,1,.45-.66c.64-.69,1.19-.63,1.67.17a7.89,7.89,0,0,1,.94,3.43c.07.76.11,1.53.18,2.3,0,.34-.09.54-.43.54a6,6,0,0,1-1-.09c-.89-.17-1.12-.09-1.61.68a5.06,5.06,0,0,0-.79,2.4c-.16,2-.26,3.92-.38,5.88Z"/><path class="cls-1" d="M18.08,46.94c-.08-2.47-.14-4.94-.23-7.41-.05-1.47-.16-2.93-.22-4.4-.09-2-.16-4-.25-6,0-1-.17-2-.16-3a23.19,23.19,0,0,1,.26-3.23A9.23,9.23,0,0,1,18.19,21a1.49,1.49,0,0,1,.46-.51,1.4,1.4,0,0,1,.41-.19,1.37,1.37,0,0,1,.14.4c0,.58,0,1.16,0,1.74.09,3.24.18,6.49.28,9.73.06,1.85.12,3.7.19,5.55.07,2.28.19,4.56.21,6.83a7.83,7.83,0,0,1-.61,3.4c-.06.13-.08.32-.18.42-.29.28-.6.53-.91.8,0-.34-.08-.68-.1-1s0-.77,0-1.16Z"/><path class="cls-1" d="M16.71,12.13c0-1,0-1.93,0-2.89a1.35,1.35,0,0,1,.09-.33,1.08,1.08,0,0,1,.28.16,6.23,6.23,0,0,1,1.38,5.51,1.57,1.57,0,0,1-.88,1.26c-.45.23-.64.21-.75-.25a4,4,0,0,1-.1-.91c0-.85,0-1.7,0-2.55Z"/><path class="cls-1" d="M34.56,60.25c0,.18,0,.41,0,.64,0,.7-.08.72-.75.57a4.63,4.63,0,0,0-2.28-.15.86.86,0,0,1-1.12-.57,1,1,0,0,1,.33-1.24,3.89,3.89,0,0,1,2.46-.83c.47,0,.53-.14.35-.55a1.66,1.66,0,0,0-1.58-1c-.09,0-.17-.1-.26-.16.07-.07.14-.18.23-.21a1.64,1.64,0,0,1,2,.77A4.4,4.4,0,0,1,34.56,60.25Zm-2.3-.84c-.44.2-.86.37-1.25.58a.46.46,0,0,0-.21.37.42.42,0,0,0,.31.29,3.92,3.92,0,0,0,2.27-.2c.28-.12.31-.38.07-.53A8.86,8.86,0,0,0,32.26,59.41Z"/><path class="cls-1" d="M21.51,63.46c0,1.15,0,2.31,0,3.46,0,.1-.1.2-.15.3-.07-.11-.18-.21-.2-.33a33.39,33.39,0,0,1,0-4.36A6.64,6.64,0,0,0,21,61.27c-.19-.71-.43-.82-1.19-.66l-1,.23a1.12,1.12,0,0,1-1.15-.35c-.36-.4-.15-.82,0-1.19a2,2,0,0,1,1.24-1.14A4.34,4.34,0,0,1,20.06,58c1.08,0,1.3-.11,1.31,1.13,0,1.46.17,2.91.26,4.37Zm-2.29-3.17a10.35,10.35,0,0,0,1.35-.64,1.07,1.07,0,0,0,.32-.69c.06-.34-.11-.57-.51-.6a2.28,2.28,0,0,0-2.08,1.19c-.17.35-.06.57.34.66C18.75,60.24,18.87,60.24,19.22,60.29Z"/><path class="cls-1" d="M14.57,61.62c-1.21,0-1.56-.3-1.54-1.43a3.64,3.64,0,0,1,1.38-2.81,2.57,2.57,0,0,1,2.22-.33.76.76,0,0,1,.42,1.26,1.8,1.8,0,0,1-.86.51c-.71.19-1.44.27-2.15.44s-.74.46-.59,1.13.42.84,1,.72,1.33-.4,2-.59c.1,0,.22,0,.33.06-.05.1-.06.22-.14.29A2.79,2.79,0,0,1,14.57,61.62Zm.31-3a2.91,2.91,0,0,0,.45,0,1.57,1.57,0,0,0,1.29-.8c0-.07-.05-.25-.12-.27a1.66,1.66,0,0,0-1.42.14,1.23,1.23,0,0,0-.37.26c-.1.13-.24.35-.19.46S14.81,58.58,14.88,58.62Z"/><path class="cls-1" d="M11.63,58.49c0-.85,0-1.7,0-2.55s0-.88-.86-.86q-.93,0-1.86,0c-.06,0-.13-.15-.19-.23s.11-.12.17-.13l.69-.07c1-.11,2-.24,3-.33.69-.06,1.38-.08,2.08-.1.06,0,.13.05.2.08a.94.94,0,0,1-.18.12c-.3.08-.6.15-.9.2s-.69.1-1,.15a.73.73,0,0,0-.72.86c.07,1.5.13,3,.16,4.51a12.56,12.56,0,0,1-.11,1.61c0,.34-.07.68-.1,1a5.06,5.06,0,0,1-.33-1.16c-.05-1,0-2.08,0-3.13Z"/><path class="cls-1" d="M26.22,59.46c0,.61.07,1.15-.15,1.42s-.75.18-1.16.23a8.85,8.85,0,0,1-1.15,0c-.8,0-1.08-.21-1.19-1a7.84,7.84,0,0,1,0-1.37c0-.09.12-.18.19-.26a.87.87,0,0,1,.15.24c.12.45.19.91.35,1.34s.53.66,1.1.44a1.38,1.38,0,0,0,1-1.05c.09-.53.14-1.06.23-1.59a1.17,1.17,0,0,1,.2-.36c.08.11.21.22.23.35C26.11,58.51,26.17,59.08,26.22,59.46Z"/><path class="cls-1" d="M29.59,58.11c-.06,1.15-.11,2.11-.17,3.07,0,.08-.1.15-.16.23s-.15-.09-.16-.15a3.11,3.11,0,0,1-.14-.89,17.32,17.32,0,0,0-.11-4.49,2.08,2.08,0,0,1,.2-1.68,12.8,12.8,0,0,1,.38,1.57C29.53,56.61,29.55,57.46,29.59,58.11Z"/><path class="cls-1" d="M27.89,60.47l-.29,1c-.43-.2-.37-.6-.44-1a3.78,3.78,0,0,1,0-2.16,1,1,0,0,1,.11-.17c.05,0,.13.1.15.16C27.59,59,27.73,59.73,27.89,60.47Z"/><path class="cls-1" d="M27.15,55.38c-.11.15-.17.31-.23.31-.37,0-.41-.29-.4-.55s.12-.24.18-.35Z"/></g></g></svg>