<svg xmlns="http://www.w3.org/2000/svg" viewBox="0 0 169.96 45.2"><defs><style>.cls-1{fill:#fff;}</style></defs><title>Asset 15</title><g id="Layer_2" data-name="Layer 2"><g id="Contenido"><polygon class="cls-1" points="28.85 25.36 28.85 45.2 18.11 31.27 2.13 39.71 8.2 25.36 0 13.16 14.11 13.16 14.11 17.36 9.03 17.36 9.03 25.36 14.11 25.36 14.11 30.44 22.1 30.44 22.1 25.36 28.85 25.36"/><polygon class="cls-1" points="22.11 13.16 22.11 14.93 41.46 14.93 43.6 13.16 22.11 13.16"/><polygon class="cls-1" points="22.11 17.36 38.52 17.36 40.65 15.6 22.11 15.6 22.11 17.36"/><polygon class="cls-1" points="27.19 19.79 35.58 19.79 37.71 18.03 27.19 18.03 27.19 19.79"/><polygon class="cls-1" points="27.19 22.23 32.63 22.23 34.77 20.46 27.19 20.46 27.19 22.23"/><polygon class="cls-1" points="27.19 24.66 29.7 24.66 31.83 22.9 27.19 22.9 27.19 24.66"/><polygon class="cls-1" points="28.85 3.43 25.9 3.43 24.38 5.2 28.85 5.2 28.85 3.43"/><polygon class="cls-1" points="28.85 0 26.48 2.76 28.85 2.76 28.85 0"/><polygon class="cls-1" points="22.29 7.63 28.85 7.63 28.85 5.87 23.81 5.87 22.29 7.63"/><polygon class="cls-1" points="20.2 10.06 28.85 10.06 28.85 8.3 21.72 8.3 20.2 10.06"/><polygon class="cls-1" points="18.11 12.5 28.85 12.5 28.85 10.73 19.63 10.73 18.11 12.5"/><path class="cls-1" d="M59,37.11a4.1,4.1,0,0,1-.95.08A1.65,1.65,0,0,1,57,36.84a1.58,1.58,0,0,1-.63-1.23V29h3.23V26.27H56.33v-2.9l-3.5.62v2.28H50.94V29h1.89V34c0,.57,0,3,0,3.19A2.62,2.62,0,0,0,54,39.39a5.07,5.07,0,0,0,3,.71,11.51,11.51,0,0,0,2.77-.31V36.92Z"/><path class="cls-1" d="M72.75,30.28l0-.63a3.72,3.72,0,0,0-1.29-2.9,6.38,6.38,0,0,0-3.83-.86,19.58,19.58,0,0,0-5,.62v2.95A11.55,11.55,0,0,1,67,28.4a2.67,2.67,0,0,1,1.47.33,1.25,1.25,0,0,1,.6,1.09,1,1,0,0,1-.41.86,9.83,9.83,0,0,1-1.92.7l-2.69.78a4.82,4.82,0,0,0-2.41,1.49A3.83,3.83,0,0,0,61,36.17,3.89,3.89,0,0,0,62.36,39a4.57,4.57,0,0,0,3.23,1.1,6,6,0,0,0,1.69-.23,3.47,3.47,0,0,0,2-1.86l.25,1.7h3.22Zm-4.53,6.59a3.33,3.33,0,0,1-1.15.43,3.2,3.2,0,0,1-1.62-.09,1.14,1.14,0,0,1-.32-.18,1.52,1.52,0,0,1-.55-1,1.21,1.21,0,0,1,.33-.94,4.46,4.46,0,0,1,1.44-.72c.57-.2,2.74-1,3-1.09v2.67A4.11,4.11,0,0,1,68.22,36.87Z"/><path class="cls-1" d="M170,30.28l0-.63a3.75,3.75,0,0,0-1.29-2.9,6.41,6.41,0,0,0-3.84-.86,19.58,19.58,0,0,0-5,.62v2.95a11.59,11.59,0,0,1,4.45-1.06,2.67,2.67,0,0,1,1.47.33,1.27,1.27,0,0,1,.6,1.09,1,1,0,0,1-.42.86,9.32,9.32,0,0,1-1.92.7l-2.68.78a4.8,4.8,0,0,0-2.42,1.49,4.09,4.09,0,0,0,.69,5.35,4.56,4.56,0,0,0,3.22,1.1,6,6,0,0,0,1.69-.23,3.46,3.46,0,0,0,2-1.86l.24,1.7H170Zm-4.53,6.59a3.44,3.44,0,0,1-2.76.34,1,1,0,0,1-.32-.18,1.48,1.48,0,0,1-.55-1,1.17,1.17,0,0,1,.33-.94,4.35,4.35,0,0,1,1.44-.72c.57-.2,2.74-1,3-1.09v2.67A4.15,4.15,0,0,1,165.42,36.87Z"/><polygon class="cls-1" points="101.64 39.71 97 39.71 93.01 25.34 93.01 39.71 89.52 39.71 89.52 22.2 95.63 22.2 99.34 36.02 103.32 22.2 109.13 22.2 109.13 39.71 105.64 39.71 105.64 25.34 101.64 39.71"/><polygon class="cls-1" points="120.83 21.37 117.57 21.37 115.94 24.47 118.38 24.47 120.83 21.37"/><path class="cls-1" d="M78.53,39.71H74.94V26.29h3.3l.27,1.88A3.57,3.57,0,0,1,82.61,26h0v3.13a8.43,8.43,0,0,0-1-.09,3.69,3.69,0,0,0-1.41.22A2.51,2.51,0,0,0,78.62,31a17.21,17.21,0,0,0-.09,2.58Z"/><path class="cls-1" d="M121.57,27.37a6.81,6.81,0,0,0-9,.63,7.11,7.11,0,0,0-1.51,5.43,7.11,7.11,0,0,0,2.07,4.94,6.71,6.71,0,0,0,4.92,1.73,13.08,13.08,0,0,0,2-.18c.75-.11,2.79-.58,2.79-.58l-.45-3.09-.48.2a10.75,10.75,0,0,1-1.23.38,9.53,9.53,0,0,1-1.85.21,4.71,4.71,0,0,1-2.8-.79,3.29,3.29,0,0,1-1.18-2.43v-.63h8.42s0-.44,0-1.49A6.31,6.31,0,0,0,121.57,27.37Zm-6.67,3.55a2.32,2.32,0,0,1,2.42-2.36,2.3,2.3,0,0,1,1.69.65,2.57,2.57,0,0,1,.6,1.71Z"/><path class="cls-1" d="M153.71,37a4.07,4.07,0,0,1-2.82-.94,3.91,3.91,0,0,1-1.13-2.75,4.67,4.67,0,0,1,.8-3.21,3.53,3.53,0,0,1,2.9-1.11,9.81,9.81,0,0,1,1.64.2,15.06,15.06,0,0,1,1.69.48V26.51a16.41,16.41,0,0,0-4-.54,6.31,6.31,0,0,0-5.06,2,6.92,6.92,0,0,0-1.49,5.42,7.25,7.25,0,0,0,2.08,5,6.52,6.52,0,0,0,4.91,1.73,15.86,15.86,0,0,0,3.56-.55V36.42c-.66.18-1.1.3-1.66.42A5,5,0,0,1,153.71,37Z"/><path class="cls-1" d="M50.11,33.41A4.71,4.71,0,0,0,49,31.7a7.25,7.25,0,0,0-1.7-1.27,18,18,0,0,0-2.19-1A8.07,8.07,0,0,1,42.53,28,1.83,1.83,0,0,1,42,26.38a1.69,1.69,0,0,1,.93-1.44,4.16,4.16,0,0,1,2.49-.3,19.19,19.19,0,0,1,2.12.44c.38.1.77.22,1.16.36l.34.1V22.36l-.14-.05c-.44-.14-.86-.26-1.23-.35a18.37,18.37,0,0,0-2.19-.43,9.73,9.73,0,0,0-2.75,0,6.08,6.08,0,0,0-2.21.76A4.6,4.6,0,0,0,39,23.8a5,5,0,0,0-.68,2.14,5.78,5.78,0,0,0,.15,2.12,4.52,4.52,0,0,0,.93,1.74,7.18,7.18,0,0,0,1.69,1.36,16.46,16.46,0,0,0,2.4,1.14c.53.2,1,.41,1.45.62a5,5,0,0,1,1,.66,2.34,2.34,0,0,1,.58.77,1.89,1.89,0,0,1,.13,1c-.14,1.41-1.32,1.94-3.6,1.64a19.21,19.21,0,0,1-2.53-.53c-.46-.12-2-.58-2-.58v3.22l1.59.44a21.32,21.32,0,0,0,2.82.59,12.74,12.74,0,0,0,1.7.11,6.73,6.73,0,0,0,3.49-.82,4.62,4.62,0,0,0,2.2-3.78A5.37,5.37,0,0,0,50.11,33.41Z"/><path class="cls-1" d="M135.07,22.2v4.45a11.87,11.87,0,0,0-3.73-.52,9.9,9.9,0,0,0-1.44.15A6.51,6.51,0,0,0,127,27.5a6.4,6.4,0,0,0-.72.66A7.68,7.68,0,0,0,124.74,34a7.11,7.11,0,0,0,1.72,4.56,5.89,5.89,0,0,0,4.28,1.57,5,5,0,0,0,2.41-.55,5.14,5.14,0,0,0,1.92-1.78l.22,1.94h3.25V22.2ZM135,33.09a4.78,4.78,0,0,1-.94,2.93,3.1,3.1,0,0,1-2.52,1,2.87,2.87,0,0,1-2.17-.87,3.87,3.87,0,0,1-1-2.52,4.42,4.42,0,0,1,.87-3.28,4.16,4.16,0,0,1,3.21-1.19,10.21,10.21,0,0,1,2.56.39S135.06,31.56,135,33.09Z"/><rect class="cls-1" x="140.98" y="26.3" width="3.45" height="13.42"/><rect class="cls-1" x="140.97" y="22.19" width="3.46" height="3.01"/></g></g></svg>