<svg xmlns="http://www.w3.org/2000/svg" viewBox="0 0 63.98 62.61"><defs><style>.cls-1{fill:#fff;}</style></defs><title>Asset 19</title><g id="Layer_2" data-name="Layer 2"><g id="Contenido"><path class="cls-1" d="M0,0H64V62.61H0ZM.92.93v60.7H63V.93Z"/><path class="cls-1" d="M13.46,28H23.78c.44-2.54.9-5,1.31-7.51.3-1.88.43-3.8.89-5.64.17-.68,1.06-1.18,1.73-1.89l.44-2.14c2,0,2,0,2.49,2.57l2-1.47-.3-.09c.1-.71,0-1.74.36-2a2.4,2.4,0,0,1,2.2-.2c.52.33.59,1.36.6,2.16L39,16l-.1,0c.4.75.84,1.49,1.18,2.27a3.18,3.18,0,0,1,.3,1.53,13.71,13.71,0,0,0,.72,4.84,26.61,26.61,0,0,1,.42,3.8l.25,2.12a29,29,0,0,0,9.09.25,12.62,12.62,0,0,1-6.53.85c-6.45-.88-12.87-2-19.32-2.76-3.8-.48-7.64-.59-11.47-.87Zm21,1.49c.21-3.12.49-6.07.58-9a4.69,4.69,0,0,1,1.07-3.05,2.73,2.73,0,0,0,.52-3.07,2.74,2.74,0,0,0-3.26-1.65,2.83,2.83,0,0,0-2.2,2.78c-.07.79-.19,1.59-.22,2.38q-.22,5.25-.41,10.48a2.07,2.07,0,0,0,.25.65Zm-5.06-.73.91-14.63-.91-.55L27,14.52,24.75,28.06Zm11.17,1.8c.7-4.16-1.58-7.82-1.1-11.58-.69-1.05-1.53-1.43-2.43-.9a2.43,2.43,0,0,0-1,1.58c-.29,2.9-.45,5.81-.64,8.72a10.06,10.06,0,0,0,.09,1.36ZM33.18,10.26l-.16.42c.36.24.69.63,1.07.67.2,0,.47-.54.7-.85l-.22-.34ZM30.06,12.2c-.66-.37-.89-.6-1-.56a.66.66,0,0,0-.38.52c0,.15.32.37.51.39S29.59,12.39,30.06,12.2ZM37.91,16c-.19.33-.32.46-.3.56s.19.18.3.26c.08-.1.23-.2.24-.31S38,16.22,37.91,16Z"/><path class="cls-1" d="M28.6,44.94l-1.73-.08,1-5.73h1.81l.81,1.93.7-1.9H33l1.06,5.67L32.34,45l-.64-2.19-.71,2c-1.06,0-1.06,0-1.74-1.85Z"/><path class="cls-1" d="M40.33,39c1.49.1,3-.47,4,.8.74.91.31,1.91-.3,2.84L45,44.75a1.87,1.87,0,0,1-2.66-1L42,44.88H40.33Zm2.29,2c0-.09,0-.2-.09-.25s-.16,0-.25.06l.13.32Z"/><path class="cls-1" d="M12,44.41,10,45.07V39.21c1.41-.16,2.79-.54,3.82.57.87.94.41,2-.26,2.9l.93,2-.19.36Zm-.1-3.28.25,0,.08-.47-.24,0Z"/><path class="cls-1" d="M53.32,45.08a5.86,5.86,0,0,1-1.59-.55,1.26,1.26,0,0,0-1.82,0,4.2,4.2,0,0,1-1.51.5L48,44.75l1.75-5.65h2.18l1.73,5.6Zm-2.38-3c-.12.16-.18.21-.17.23a.87.87,0,0,0,.11.18Z"/><path class="cls-1" d="M39.55,45.1a9.26,9.26,0,0,1-1.62-.64,1.27,1.27,0,0,0-1.7,0,5.67,5.67,0,0,1-1.61.56l-.32-.36L36,39.13h2.16l1.75,5.53Zm-2.47-2.94c.09.21,0,.1,0,0Z"/><path class="cls-1" d="M58.11,39.68l-.39,1H56.08c2.22,1.36,2.62,2,2.09,3.13a2.53,2.53,0,0,1-3.18,1c-1-.35-1.07-.47-.77-1.65l1.57.2A16.51,16.51,0,0,1,54,41.22c-.17-.28.07-.94.29-1.33C54.86,38.82,56.2,38.75,58.11,39.68Z"/><path class="cls-1" d="M18.74,40.46l-1.55.25-.05.27,1.43.46.1,1.1-1.86.56,1.88.51v1.25H15.26c0-.41-.12-.72-.13-1,0-1.49,0-3,0-4.63h3.56Z"/><path class="cls-1" d="M23.35,39.62l-.18,1H21.5c1.06.9,2.79,1.28,1.94,3.22a2.47,2.47,0,0,1-3.2,1c-.91-.33-.94-.4-.68-1.54l1.76.22a18.27,18.27,0,0,1-2-2.13c-.19-.27,0-1,.23-1.33C20.2,38.88,21.49,38.77,23.35,39.62Z"/><path class="cls-1" d="M8.3,41.14v3.69H6.62v-3.6l-.24,0L5.17,39.19H9.64l-1,1.89Z"/><path class="cls-1" d="M45.75,39.33,47,37.75l.27.11.36,7L45.75,45Z"/><path class="cls-1" d="M41.52,49.41a1.83,1.83,0,0,1-2.06,1.76,1.9,1.9,0,0,1-1.91-1.78,2,2,0,0,1,2-1.87A1.86,1.86,0,0,1,41.52,49.41Zm-1.4-.07-.39-.42-.58.68.31.29Z"/><path class="cls-1" d="M36.74,48c.3,1.18,1.2,2.46-.67,3.08a1.92,1.92,0,0,1-2.29-.64,1.58,1.58,0,0,1,.1-2.18A2.12,2.12,0,0,1,36.74,48Zm-1.28,1-.27-.15c-.09.32-.18.65-.25,1,0,0,.16.1.28.18Z"/><path class="cls-1" d="M35.5,53.91c.35-.28.65-.69,1-.81A20.87,20.87,0,0,1,47,52.38c-.84.11-1.67.24-2.51.31s-1.83,0-2.72.13c-2.1.32-4.18.71-6.28,1.08Z"/><path class="cls-1" d="M47.12,47.7c-.42,1.58-.52,3-2.4,3.53V47.7Z"/><path class="cls-1" d="M44.55,51H42.06v-3.3h1.13l.2,1.64Z"/><path class="cls-1" d="M29.86,49.59,29.32,51l-1.56.12c-.69-1.63-.45-2,1.44-2.38l.45-1.41h.17v2.3Zm-.81,0-.56-.3-.57,1.06.54.29Z"/><path class="cls-1" d="M24.3,48.72l1.35.36c0,.5.12,1.22-.14,1.44a6.14,6.14,0,0,1-1.82.73l-.31-.36L24,47.26l.35,0Zm-.17,1.59.35.39,1-1C24.36,49.2,24.07,49.51,24.13,50.31Z"/><path class="cls-1" d="M19.85,47.88c-1.11.2-2.4.31-2.26,1.77.05.49,1,.88,1.56,1.36a1.32,1.32,0,0,1-1.74-.34,1.57,1.57,0,0,1,0-2.18A1.72,1.72,0,0,1,19.85,47.88Z"/><path class="cls-1" d="M29.82,49.64c.66-.49,1.28-1.24,2.27-.23l-.45,1.52c-1.52.28-1.54.26-1.78-1.34Zm1.3-.29-.14.21s.08.1.11.09a1.59,1.59,0,0,0,.22-.13Zm-.46.95,0,.21.53,0,0-.2Z"/><path class="cls-1" d="M23.08,49.05c-.21,2-.34,2.11-1.77,1.85V49.2h.29l.08,1.3.31.13Z"/><path class="cls-1" d="M21.05,47.35l-.57,3.55L20,50.83l.55-3.51Z"/><path class="cls-1" d="M35.47,53.9c-.11,0-.22,0,0,0l.06,0Z"/></g></g></svg>