<svg xmlns="http://www.w3.org/2000/svg" viewBox="0 0 72.33 73.58"><defs><style>.cls-1{fill:#fff;}</style></defs><title>Asset 20</title><g id="Layer_2" data-name="Layer 2"><g id="Contenido"><path class="cls-1" d="M55.18,15.94a18.36,18.36,0,0,0-6.24-3.38c-3.7-.94-8.62.48-10.25,2.75,4.92,8.08,4.44,15.92-1.6,23.36,3.92-7,4-13.87-.75-21l-1.6,2.8c2.92,6,2.94,11.92-1.15,17.49,2.33-6,2.12-11.67-1.89-16.84l-.63,0V25l-.44,0A39.22,39.22,0,0,1,30,20.57a2.66,2.66,0,0,0-2.28-2.74l-.35,2-.23,0-.54-2.9C21.83,14.22,17,14.27,12,16.62,16.29,13,21.18,12.56,26.56,14l1-2.75C22.21,9.33,17.3,10,12.27,12.43,15.6,9,21,7.26,28.55,8.35,32.71,1.93,38.76-1,46.38.33A14.65,14.65,0,0,1,57.65,9.17,17.06,17.06,0,0,0,41.41,2.85,16.19,16.19,0,0,0,30.82,9.14l2.4,1.53C37.27,6.8,42,4.63,47.57,6a13.33,13.33,0,0,1,9.55,7.3A14.61,14.61,0,0,0,46.73,8a13.69,13.69,0,0,0-11.26,4l1.78,1.58c3.64-2.56,7.47-4.07,11.84-2.45,2.53.94,4.81,2.29,6,4.88ZM33.39,14.39l-1.63,2.74,2.06,2.2,1.28-3Zm-4.15-2.46-1.12,2.7,2.29,1.42,1.19-2.73Zm6.53,15.46-.11,0,.06.12Z"/><path class="cls-1" d="M12.72,47.72h2v4.44c0,1.26-.08,2.53,0,3.78a2.43,2.43,0,0,0,2.56,2.49A2.72,2.72,0,0,0,20.24,56c.19-2.18.18-4.38.25-6.56,0-.52,0-1,0-1.75l2.13-.13V59.9l-2.72-.71a13.37,13.37,0,0,1-2.72.88c-3.08.36-4.81-1.24-4.81-4.35,0-2.45.06-4.91.11-7.37A2.23,2.23,0,0,1,12.72,47.72Z"/><path class="cls-1" d="M32.55,53.86c0-3.9,2.51-6.6,6.19-6.58A6.06,6.06,0,0,1,45,53.63a6.12,6.12,0,0,1-6.13,6.48A6.06,6.06,0,0,1,32.55,53.86Zm9.9-.18-.13,0a18.63,18.63,0,0,0-.15-2,3.57,3.57,0,0,0-3.34-3.16,3.11,3.11,0,0,0-3.37,3,16.75,16.75,0,0,0,.24,5.09,2.73,2.73,0,0,0,2.86,2.29,3.09,3.09,0,0,0,3.26-2.11A19.55,19.55,0,0,0,42.45,53.68Z"/><path class="cls-1" d="M63.62,53.7H55.43c0,4.84,2.55,6,7.64,3.6.58.8.15,1.28-.51,1.73C60,60.83,55.83,60.34,54,58c-2.15-2.76-1.8-7.38.72-9.47a6.63,6.63,0,0,1,7-.48C63.4,49.11,64.18,51.23,63.62,53.7Zm-8.15-1.43h5.8c.11-2.25-.8-3.6-2.44-3.74C57,48.37,55.85,49.59,55.47,52.27Z"/><path class="cls-1" d="M7.87,44V59.64H5V44.05H0V42.32H12.82L12.9,44Z"/><path class="cls-1" d="M49.37,47.51l2.9.18c-.15,1.11-.15,1.11-3,1.37.05,3.15-.7,6.34.42,9.54H53a3.52,3.52,0,0,1-4,1.43,2.84,2.84,0,0,1-2.36-2.84c-.09-2,0-4,0-6,0-.59,0-1.19,0-1.75L45,48.2l1.77-.94v-2.4l2.28-.76Z"/><path class="cls-1" d="M66,40.6h2.2v19H66Z"/><path class="cls-1" d="M28.11,59.68H26V47.74c1.05-.15,2.07-.63,2.47.65l3.75-1.19-.13,2.51c-3.24.11-3.63.49-3.85,3.62-.08,1.06-.08,2.12-.09,3.18S28.11,58.48,28.11,59.68Z"/><path class="cls-1" d="M18.76,65.81c1.21.62,1.49,2.24,1.18,6.19a4.32,4.32,0,0,1-.66,1.37l-.56-.16-.29-3.37H15.12c-.89,1,.48,2.81-1.66,3.74,0-2.61,0-4.84,0-7.06,0-.25.53-.48,1.09-1l.31,3.07h3.5Z"/><path class="cls-1" d="M38.62,70.76,35.47,71c.18,2.19,1.74,1.4,3,1.29-1.07,1.21-2.14,1.41-3.29.74a2.83,2.83,0,0,1-.95-3.69,2.42,2.42,0,0,1,3-1.34A2,2,0,0,1,38.62,70.76Zm-.94-.89c-1.31-1.24-1.31-1.24-2,0Z"/><path class="cls-1" d="M45.9,71.43l1.23,1.3,2.12-.58a2.49,2.49,0,0,1-3.44.88,2.92,2.92,0,0,1-1-3.53A2.59,2.59,0,0,1,47.9,68c1.09.3,1.52,1.11,1.37,2.77l-3.1.25Zm2.32-1.55c-1.12-1.32-1.12-1.32-2.13,0Z"/><path class="cls-1" d="M25,73.38a2.59,2.59,0,0,1-2.64-2.62A2.71,2.71,0,0,1,25,67.89a2.61,2.61,0,0,1,2.71,2.77A2.51,2.51,0,0,1,25,73.38Zm.2-.59c1.4-1.42,1.46-2.14.38-3.83a1.27,1.27,0,0,0-1.86,1.11C23.49,71.24,23.64,72.32,25.15,72.79Z"/><path class="cls-1" d="M31.31,72.5l1.15.33,0,.45a10.57,10.57,0,0,1-1.78,0c-.26,0-.65-.42-.66-.65,0-1.78-.82-3.55-.08-5.34.1-.24.22-.47.45-.94l1.32,2.51C31,69.66,30.89,69.92,31.31,72.5Z"/><path class="cls-1" d="M53.84,71.8c-1.1-.79-2.66-.75-2.45-2.31a2,2,0,0,1,.91-1.35,1.82,1.82,0,0,1,2.47.71L52.56,69l-.18.38,2.21,1.44a1.65,1.65,0,0,1-1.07,2.44,1.72,1.72,0,0,1-2.44-1.15l2.06.54Z"/><path class="cls-1" d="M42.07,65.25a26.7,26.7,0,0,1,.14,8h-.79c-.77-2.64-.28-5.3-.25-7.95Z"/><path class="cls-1" d="M72.32,42a1.59,1.59,0,0,1-1.63,1.8A1.56,1.56,0,0,1,69,42.28a1.71,1.71,0,0,1,1.56-1.93A1.65,1.65,0,0,1,72.32,42Zm-2.65.16.07-.14-.11,0Z"/><path class="cls-1" d="M55.13,16c.07.09.13.19.07.1,0,.09,0,0,0-.15Z"/></g></g></svg>