<svg xmlns="http://www.w3.org/2000/svg" viewBox="0 0 267.02 65.13"><defs><style>.cls-1{fill:#fff;}</style></defs><title>B. Conoce 2</title><g id="Layer_2" data-name="Layer 2"><g id="Contenido"><path class="cls-1" d="M257.7,10.33A31.94,31.94,0,0,0,235,.82L32.29,0h-.14A32.15,32.15,0,0,0,9.33,54.8,31.92,31.92,0,0,0,32,64.31l202.71.82h.13a32.16,32.16,0,0,0,22.83-54.8Zm-22.83,49.2h-.11L32.05,58.71a26.55,26.55,0,0,1-18.59-45.4,26.36,26.36,0,0,1,18.69-7.7h.11L235,6.43a26.55,26.55,0,0,1-.1,53.1Z"/><path class="cls-1" d="M42.07,24.37A9.65,9.65,0,0,0,39,31.81a9.65,9.65,0,0,0,3,7.47,10.69,10.69,0,0,0,7.5,2.86,11,11,0,0,0,6.87-2V36.52A9.49,9.49,0,0,1,50,38.92,6.61,6.61,0,0,1,45.06,37a7,7,0,0,1-1.89-5.16,7,7,0,0,1,1.93-5.15A6.6,6.6,0,0,1,50,24.8a9.45,9.45,0,0,1,6.43,2.45l0-3.65a11.12,11.12,0,0,0-6.86-2A10.68,10.68,0,0,0,42.07,24.37Z"/><path class="cls-1" d="M69.17,21.52a10.63,10.63,0,0,0-7.67,2.93,9.88,9.88,0,0,0-3.11,7.44,9.86,9.86,0,0,0,3,7.47,10.63,10.63,0,0,0,7.64,3,10.45,10.45,0,0,0,7.6-2.93A9.9,9.9,0,0,0,79.77,32a10,10,0,0,0-3-7.47A10.49,10.49,0,0,0,69.17,21.52Zm4.6,15.66a5.93,5.93,0,0,1-4.67,2,6.07,6.07,0,0,1-4.74-2,7.54,7.54,0,0,1-1.77-5.23,7.55,7.55,0,0,1,1.81-5.22,6,6,0,0,1,4.76-2,5.91,5.91,0,0,1,4.65,2A7.56,7.56,0,0,1,75.56,32,7.54,7.54,0,0,1,73.77,37.18Z"/><polygon class="cls-1" points="95.95 35.19 85.69 22.14 82.9 22.13 82.82 41.84 86.4 41.86 86.45 28.85 96.71 41.9 99.5 41.91 99.58 22.2 96 22.19 95.95 35.19"/><path class="cls-1" d="M113.42,21.7a10.63,10.63,0,0,0-7.67,2.93,9.93,9.93,0,0,0-3.12,7.44,9.9,9.9,0,0,0,3.06,7.47,10.67,10.67,0,0,0,7.64,3,10.49,10.49,0,0,0,7.6-2.93A9.9,9.9,0,0,0,124,32.16a10,10,0,0,0-3-7.47A10.45,10.45,0,0,0,113.42,21.7ZM118,37.35a5.91,5.91,0,0,1-4.67,2,6,6,0,0,1-4.74-2,7.54,7.54,0,0,1-1.77-5.23,7.55,7.55,0,0,1,1.81-5.22,6.08,6.08,0,0,1,4.75-2,6,6,0,0,1,4.66,2,7.56,7.56,0,0,1,1.75,5.23A7.51,7.51,0,0,1,118,37.35Z"/><path class="cls-1" d="M129.25,24.72a9.69,9.69,0,0,0-3.1,7.44,9.69,9.69,0,0,0,3,7.47,10.65,10.65,0,0,0,7.5,2.86,11,11,0,0,0,6.87-2l0-3.64a9.53,9.53,0,0,1-6.45,2.4,6.67,6.67,0,0,1-4.89-1.92,7,7,0,0,1-1.88-5.17A7,7,0,0,1,132.28,27a6.65,6.65,0,0,1,4.91-1.88,9.52,9.52,0,0,1,6.42,2.45l0-3.64a11,11,0,0,0-6.86-2A10.65,10.65,0,0,0,129.25,24.72Z"/><polygon class="cls-1" points="146.81 42.1 159.65 42.16 159.67 39.03 150.83 39 150.85 33.28 158.05 33.31 158.06 30.19 150.87 30.16 150.88 25.53 159.72 25.57 159.73 22.45 146.89 22.39 146.81 42.1"/><path class="cls-1" d="M180.17,37,173.69,22.5h-4.07l-.08,19.71h3.52l0-12.09a8.75,8.75,0,0,0-.06-1.05l0-.82c.26.79.48,1.42.67,1.88l5.26,12.1h2.46l5.34-12.06.73-1.87a8.57,8.57,0,0,0-.14,1.87l-.05,12.09h3.65L191,22.57l-4.14,0Z"/><path class="cls-1" d="M201.52,22.61l-8.46,19.68,3.88,0,2-4.86,8,0,2,4.87,4,0-8.3-19.74Zm-1.45,12L203,27.55l2.86,7.14Z"/><polygon class="cls-1" points="207.58 17.87 206.21 15.73 201.4 19.66 201.95 20.58 207.58 17.87"/><path class="cls-1" d="M221.56,30.22a6.87,6.87,0,0,1-2.64-1.15,2.05,2.05,0,0,1,.1-3.22,3.68,3.68,0,0,1,2.26-.59A9.14,9.14,0,0,1,226.37,27l.86-2.78a9.34,9.34,0,0,0-5.9-2,7.5,7.5,0,0,0-5,1.53,5,5,0,0,0-1.85,4q0,4.64,5.75,6.07a9.33,9.33,0,0,1,3.27,1.34,2.41,2.41,0,0,1,.86,2,2.36,2.36,0,0,1-1,2,4.08,4.08,0,0,1-2.5.71,8.67,8.67,0,0,1-6.07-2.68l-.93,3.15a10.16,10.16,0,0,0,7,2.49A8.31,8.31,0,0,0,226,41.27a5.26,5.26,0,0,0,2.1-4.52,5.47,5.47,0,0,0-1.54-4.11A10.7,10.7,0,0,0,221.56,30.22Z"/></g></g></svg>