<svg xmlns="http://www.w3.org/2000/svg" xmlns:xlink="http://www.w3.org/1999/xlink" viewBox="0 0 57.68 68.64"><defs><style>.cls-1{fill:none;}.cls-2{fill:#333;}.cls-3{clip-path:url(#clip-path);}</style><clipPath id="clip-path"><path class="cls-1" d="M43,28.5l-1-2.35s2.3-5.18,2.09-5.38l-3-3c-.21-.2-5.4,2.16-5.4,2.16L33.3,19s-2.11-5.25-2.4-5.25H26.61c-.3,0-2.26,5.27-2.26,5.27L22,20s-5.29-2.24-5.49-2l-3,3c-.21.2,2.21,5.28,2.21,5.28l-1,2.35S9.28,30.6,9.28,30.87v4.21c0,.29,5.38,2.21,5.38,2.21l1,2.34s-2.3,5.18-2.1,5.38l3,3c.21.2,5.4-2.17,5.4-2.17l2.39,1S26.49,52,26.79,52h4.29c.3,0,2.25-5.26,2.25-5.26l2.4-1s5.28,2.25,5.49,2l3-3c.21-.21-2.21-5.29-2.21-5.29l1-2.34s5.37-2.07,5.37-2.36V30.7C48.4,30.41,43,28.5,43,28.5ZM28.84,39a6.14,6.14,0,1,1,6.27-6.14A6.22,6.22,0,0,1,28.84,39Z"/></clipPath></defs><title>Asset 6</title><g id="Layer_2" data-name="Layer 2"><g id="Contenido"><path class="cls-2" d="M31.08,52.56H26.79c-.4,0-.64,0-2.81-5.37l-2-.81c-5.31,2.42-5.49,2.25-5.77,2l-3-3c-.29-.29-.45-.45,1.9-5.75l-.82-1.93c-5.51-2-5.51-2.21-5.51-2.62V30.87c0-.4,0-.62,5.5-2.75l.81-1.92c-2.47-5.21-2.29-5.39-2-5.67l3-3c.28-.28.45-.44,5.87,1.86l2-.81c2-5.38,2.25-5.39,2.66-5.39H30.9c.39,0,.63,0,2.8,5.38l2,.8c5.31-2.42,5.48-2.25,5.77-2l3,3c.29.28.46.45-1.89,5.76l.81,1.93c5.51,2,5.51,2.21,5.51,2.61v4.2c0,.41,0,.64-5.5,2.76l-.81,1.93c2.48,5.2,2.3,5.38,2,5.66l-3,3c-.28.27-.45.43-5.86-1.86l-2,.8C31.73,52.56,31.48,52.56,31.08,52.56Zm-4.06-1h3.81c.35-.63,1.26-2.89,2-4.93l.08-.22,2.8-1.13.2.08c2.07.88,4.4,1.81,5.1,2l2.69-2.63c-.22-.69-1.2-2.91-2.14-4.87l-.1-.21,1.16-2.75.21-.08c2.09-.81,4.4-1.77,5-2.12V31c-.65-.34-3-1.23-5-2l-.21-.08-1.16-2.76.09-.21c.89-2,1.83-4.27,2-5L40.9,18.34c-.69.2-3,1.17-5,2.09l-.2.09-2.8-1.13-.09-.2c-.82-2.05-1.8-4.32-2.16-4.93H26.85c-.35.62-1.26,2.89-2,4.93l-.08.21L22,20.53l-.2-.08c-2.07-.88-4.4-1.81-5.1-2L14,21.09c.21.7,1.2,2.91,2.13,4.87l.1.21L15,28.93l-.21.08c-2.08.8-4.39,1.76-5,2.11v3.71c.64.34,2.95,1.23,5,2l.22.07,1.16,2.76-.09.2c-.89,2-1.83,4.28-2,5l2.69,2.63c.7-.2,3-1.18,5-2.1l.2-.09,2.81,1.14.08.2C25.68,48.65,26.66,50.91,27,51.53ZM17,47.62ZM48,31Zm-.14-.34Zm-34.1-9.44h0Zm30-.12ZM16.83,18.29h0Zm12,21.26a6.66,6.66,0,1,1,6.79-6.66A6.74,6.74,0,0,1,28.84,39.55Zm0-12.28a5.62,5.62,0,1,0,5.76,5.62A5.69,5.69,0,0,0,28.84,27.27Z"/><path class="cls-2" d="M26.22,38.47,16.59,48l-3-3c-.2-.2,2.1-5.38,2.1-5.38l-1-2.34s-5.38-1.92-5.38-2.21V30.87c0-.27,5.37-2.34,5.37-2.34l1-2.35s-2.42-5.08-2.21-5.28l3-3c.2-.2,5.49,2,5.49,2l2.39-1s2-5.27,2.26-5.27H30.9c.29,0,2.4,5.25,2.4,5.25l2.39,1s5.19-2.36,5.4-2.16l3,3-9.6,9.49,0,0a6.28,6.28,0,0,0-5.65-3.47,6.21,6.21,0,0,0-6.27,6.13,6.13,6.13,0,0,0,3.64,5.57"/><path class="cls-2" d="M16.59,48.5a.54.54,0,0,1-.36-.14l-3-3c-.29-.29-.45-.45,1.9-5.75l-.82-1.93c-5.51-2-5.51-2.21-5.51-2.62V30.87c0-.4,0-.62,5.5-2.75l.81-1.92c-2.47-5.21-2.29-5.39-2-5.67l3-3c.28-.28.45-.44,5.87,1.86l2-.81c2-5.38,2.25-5.39,2.66-5.39H30.9c.39,0,.63,0,2.8,5.38l2,.8c5.31-2.42,5.48-2.25,5.77-2l3,3a.51.51,0,0,1,0,.74l-9.6,9.49a.59.59,0,0,1-.37.15.52.52,0,0,1-.36-.16.91.91,0,0,1-.13-.16,5.81,5.81,0,0,0-5.19-3.19,5.69,5.69,0,0,0-5.75,5.62A5.63,5.63,0,0,0,26.43,38a.61.61,0,0,1,.16.12.51.51,0,0,1,0,.73L17,48.35A.53.53,0,0,1,16.59,48.5Zm-2.5-3.68,2.5,2.44,8.77-8.66a6.63,6.63,0,0,1,3.48-12.36,6.87,6.87,0,0,1,5.8,3.19l8.76-8.66-2.5-2.43c-.69.2-3,1.17-5,2.09a.53.53,0,0,1-.41,0l-2.39-1a.53.53,0,0,1-.29-.28c-.82-2.05-1.8-4.32-2.16-4.93H26.85c-.35.62-1.26,2.89-2,4.93a.57.57,0,0,1-.29.3l-2.39,1a.55.55,0,0,1-.4,0c-2.07-.88-4.4-1.81-5.1-2L14,21.09c.21.7,1.2,2.91,2.13,4.87a.51.51,0,0,1,0,.42l-1,2.35a.5.5,0,0,1-.29.28c-2.08.8-4.39,1.76-5,2.11v3.71c.64.34,2.95,1.23,5,2a.51.51,0,0,1,.31.28l1,2.34a.49.49,0,0,1,0,.41C15.23,41.85,14.29,44.12,14.09,44.82Zm-.3-23.56h0Zm3-3h0Z"/><path class="cls-2" d="M54.17,32.1a.71.71,0,0,1-.28-.06.77.77,0,0,1-.44-1c3-7.71,3.47-12.77,1.33-15.92-3.24-4.76-12.71-5.73-25.94-5.73s-22.7,1-25.93,5.73C.76,18.27,1.18,23.33,4.23,31a.77.77,0,0,1-1.44.57c-3.3-8.34-3.66-13.7-1.16-17.36,3.62-5.34,13.1-6.41,27.21-6.41s23.59,1.07,27.22,6.41c2.49,3.66,2.13,9-1.17,17.36A.78.78,0,0,1,54.17,32.1Z"/><path class="cls-2" d="M28.84,9.39a.77.77,0,0,1-.77-.78V1a.76.76,0,0,1,.77-.77.77.77,0,0,1,.78.77V8.61A.78.78,0,0,1,28.84,9.39Z"/><path class="cls-2" d="M45.22,2.06H12.46a1,1,0,1,1,0-2.06H45.22a1,1,0,0,1,1,1A1,1,0,0,1,45.22,2.06Z"/><g class="cls-3"><rect class="cls-2" x="12.16" y="35.02" width="38.72" height="1.03" transform="translate(-15.88 32.43) rotate(-44.67)"/><rect class="cls-2" x="13.33" y="36.19" width="38.72" height="1.03" transform="translate(-16.36 33.58) rotate(-44.67)"/><rect class="cls-2" x="14.49" y="37.35" width="38.72" height="1.03" transform="translate(-16.84 34.73) rotate(-44.67)"/><rect class="cls-2" x="15.65" y="38.51" width="38.72" height="1.03" transform="translate(-17.32 35.89) rotate(-44.68)"/><rect class="cls-2" x="16.81" y="39.67" width="38.72" height="1.03" transform="translate(-17.81 37.04) rotate(-44.67)"/><rect class="cls-2" x="17.97" y="40.83" width="38.72" height="1.03" transform="translate(-18.29 38.19) rotate(-44.67)"/><rect class="cls-2" x="19.13" y="41.99" width="38.72" height="1.03" transform="translate(-18.77 39.34) rotate(-44.67)"/><rect class="cls-2" x="20.29" y="43.15" width="38.72" height="1.03" transform="translate(-19.25 40.49) rotate(-44.67)"/><rect class="cls-2" x="21.46" y="44.32" width="38.72" height="1.03" transform="translate(-19.73 41.65) rotate(-44.68)"/><rect class="cls-2" x="22.62" y="45.48" width="38.72" height="1.03" transform="translate(-20.21 42.8) rotate(-44.67)"/></g><path class="cls-2" d="M49.75,68.64H7.93a7,7,0,0,1,0-14.09H49.75a7,7,0,1,1,0,14.09ZM7.93,56.1a5.5,5.5,0,0,0,0,11H49.75a5.5,5.5,0,1,0,0-11Z"/><path class="cls-2" d="M47.47,65.17a3.58,3.58,0,1,1,3.58-3.57A3.57,3.57,0,0,1,47.47,65.17Zm0-5.6a2,2,0,1,0,2,2A2,2,0,0,0,47.47,59.57Z"/><path class="cls-2" d="M38.16,65.17a3.58,3.58,0,1,1,3.57-3.57A3.58,3.58,0,0,1,38.16,65.17Zm0-5.6a2,2,0,1,0,2,2A2,2,0,0,0,38.16,59.57Z"/><path class="cls-2" d="M28.84,65.17a3.58,3.58,0,1,1,3.58-3.57A3.58,3.58,0,0,1,28.84,65.17Zm0-5.6a2,2,0,1,0,2,2A2,2,0,0,0,28.84,59.57Z"/><path class="cls-2" d="M19.52,65.17A3.58,3.58,0,1,1,23.1,61.6,3.57,3.57,0,0,1,19.52,65.17Zm0-5.6a2,2,0,1,0,2,2A2,2,0,0,0,19.52,59.57Z"/><path class="cls-2" d="M10.21,65.17a3.58,3.58,0,1,1,3.58-3.57A3.58,3.58,0,0,1,10.21,65.17Zm0-5.6a2,2,0,1,0,2,2A2,2,0,0,0,10.21,59.57Z"/></g></g></svg>