<svg xmlns="http://www.w3.org/2000/svg" viewBox="0 0 61.98 70.23"><defs><style>.cls-1{fill:#333;}</style></defs><title>Asset 6 (2)</title><g id="Layer_2" data-name="Layer 2"><g id="Contenido"><path class="cls-1" d="M42.41,27.15l-.79-1.89s1.85-4.17,1.68-4.33l-2.44-2.39c-.17-.17-4.35,1.74-4.35,1.74l-1.93-.78a34.47,34.47,0,0,0-1.93-4.23H29.19c-.24,0-1.82,4.24-1.82,4.24l-1.92.78A36.23,36.23,0,0,0,21,18.64L18.57,21c-.17.17,1.78,4.26,1.78,4.26l-.79,1.89a35.33,35.33,0,0,0-4.33,1.89v3.39c0,.23,4.34,1.78,4.34,1.78l.79,1.88a34.78,34.78,0,0,0-1.69,4.33l2.45,2.4c.17.17,4.35-1.74,4.35-1.74l1.93.78a34.47,34.47,0,0,0,1.93,4.23h3.46c.24,0,1.82-4.24,1.82-4.24l1.93-.78A35.47,35.47,0,0,0,41,42.75l2.45-2.4c.17-.16-1.78-4.25-1.78-4.25l.79-1.89a35.29,35.29,0,0,0,4.32-1.9V28.93C46.75,28.69,42.41,27.15,42.41,27.15ZM31,35.64A4.95,4.95,0,1,1,36,30.69,5,5,0,0,1,31,35.64Z"/><path class="cls-1" d="M58.11,56.81H3.86A.79.79,0,0,1,3.07,56V5.37a.79.79,0,0,1,.79-.8H58.11a.8.8,0,0,1,.8.8V56A.79.79,0,0,1,58.11,56.81ZM4.66,55.22H57.32V6.16H4.66Z"/><path class="cls-1" d="M61.18,6.16H.8A.79.79,0,0,1,0,5.37V.8A.8.8,0,0,1,.8,0H61.18a.8.8,0,0,1,.8.8V5.37A.79.79,0,0,1,61.18,6.16ZM1.59,4.57h58.8v-3H1.59Z"/><path class="cls-1" d="M61.18,56.81H.8A.79.79,0,0,1,0,56a.8.8,0,0,1,.8-.8H61.18a.8.8,0,0,1,.8.8A.79.79,0,0,1,61.18,56.81Z"/><path class="cls-1" d="M31,67.51a.8.8,0,0,1-.8-.8V56a.8.8,0,0,1,.8-.8.79.79,0,0,1,.79.8V66.71A.79.79,0,0,1,31,67.51Z"/><path class="cls-1" d="M18.78,70.23a.79.79,0,0,1-.78-.62.81.81,0,0,1,.6-1l12.22-2.72a.8.8,0,0,1,.95.6.81.81,0,0,1-.61.95L19,70.21Z"/><path class="cls-1" d="M43.2,70.23l-.17,0L30.82,67.49a.81.81,0,0,1-.61-.95.79.79,0,0,1,.95-.6l12.21,2.72a.79.79,0,0,1-.17,1.57Z"/></g></g></svg>