<svg xmlns="http://www.w3.org/2000/svg" viewBox="0 0 214.84 147.86"><defs><style>.cls-1{fill:#fff;}.cls-2{fill:#1a4e7e;}.cls-3{fill:#eb1c24;}</style></defs><title>Asset 4</title><g id="Layer_2" data-name="Layer 2"><g id="Contenido"><path class="cls-1" d="M214.84,76.72c0-.1,0-.2,0-.31V65a9.41,9.41,0,0,0-4.18-7.88,11.45,11.45,0,0,0-6.63-2h-13.1a14.43,14.43,0,0,0-3.36.44,10.92,10.92,0,0,0-1.4.46,7.4,7.4,0,0,0-3.86-.91H171.39l2.47-2.38A7,7,0,0,0,175.43,45a74.21,74.21,0,0,0-8.85-15.36,7,7,0,0,0-7-2.65l-.55.13L152.45,29l1.91-6.65a7,7,0,0,0-2.51-7.48A72.94,72.94,0,0,0,136.48,6a7,7,0,0,0-7.74,1.56l-4.24,4.38a5.22,5.22,0,0,0-.39.43l-.16.15-.33-1.31-.06-.21a1.6,1.6,0,0,0,0-.21l-1.24-5a7,7,0,0,0-5.9-5.22,73.21,73.21,0,0,0-17.75,0A7,7,0,0,0,92.7,5.73L91,12.46h0l-4.79-5a7,7,0,0,0-7.74-1.57C77,6.53,75.55,7.22,74.08,8l-.29.15-.22.11c-.68.35-1.37.72-2,1.09-.13.08-.26.15-.39.24a4,4,0,0,0-.46.24,72.8,72.8,0,0,0-7.58,5,7,7,0,0,0-2.53,7.48l1.9,6.64L55.82,27a7,7,0,0,0-7.48,2.51c-.43.56-.84,1.14-1.25,1.71l-.29.43-.24.34a74.48,74.48,0,0,0-4,6.47,11.44,11.44,0,0,0-1.44-5.35,7,7,0,0,0-10-3.2L31,30a7,7,0,0,0-3.4,5.71,12.47,12.47,0,0,0-3,2.61h0c-.22.27-.44.55-.65.86a8.81,8.81,0,0,0-.47.77,7.84,7.84,0,0,0-.49.85,11.18,11.18,0,0,0-.24,9.35,18.59,18.59,0,0,0,2,3.44l0,.08.09.14a1.53,1.53,0,0,1-.16.49c-.12.22-.21.44-.3.65h-.07l-3.4.09-13.24.32A7.4,7.4,0,0,0,.36,62c0,.29-.07.57-.11.85l0,.3c0,.23,0,.46,0,.69a6,6,0,0,0-.1.74C0,65.17,0,65.68,0,66.15c0,1.28.13,2.46.23,3.51,0,.39.08.78.11,1.17a7.31,7.31,0,0,0,7.07,6.74l1.07.05-.69.76a7.31,7.31,0,0,0-.69,9.23c.15.22.31.43.46.64l.05.06a5.67,5.67,0,0,0,.68.79,7,7,0,0,0,.62.84,29.61,29.61,0,0,0,5.23,4.74,7.38,7.38,0,0,0,9.33-.61c.29-.27.58-.54.88-.8,0,.42,0,.85,0,1.28a7.36,7.36,0,0,0,6.52,7l.78.1c.71.09,1.52.19,2.39.24.48,0,1,0,1.42,0a28.68,28.68,0,0,0,3.53-.24,7.8,7.8,0,0,0,.36,1.13,73.92,73.92,0,0,0,8.87,15.37,6.94,6.94,0,0,0,7.48,2.52l6.64-1.89-1.91,6.65A7,7,0,0,0,63,133a71.21,71.21,0,0,0,7.37,4.88,6.23,6.23,0,0,0,1,.48,6.58,6.58,0,0,0,.94.61c2,1.06,4,2,6,2.91a6.93,6.93,0,0,0,7.73-1.56l4.81-5,1.67,6.71a7,7,0,0,0,5.91,5.23c2.21.27,4.44.44,6.65.51h.61l1.91,0c.72,0,1.42,0,2.11,0a3.55,3.55,0,0,0,.46,0h.33c2-.08,3.86-.23,5.67-.45a7,7,0,0,0,5.92-5.22l1.7-6.72,4.79,5a7,7,0,0,0,7.74,1.57A74.48,74.48,0,0,0,149,135l.19-.13.22-.15c.89-.62,1.64-1.15,2.33-1.67a7,7,0,0,0,2.52-7.48L152.37,119l6.65,1.91a7,7,0,0,0,7.48-2.5A73.46,73.46,0,0,0,175.38,103a6.94,6.94,0,0,0-.89-7h7.84a8.74,8.74,0,0,0,2.12-.27l.5-.16a7.67,7.67,0,0,0,2.6.43c1,0,2.07,0,3.11,0a7.37,7.37,0,0,0,5.54-2.1,7.18,7.18,0,0,0,1.24-1.63,6.92,6.92,0,0,0,3.27,2.93l.18.08A7.08,7.08,0,0,0,204,96h3.67a7.86,7.86,0,0,0,7.16-7.41.71.71,0,0,0,0-.14V76.72Z"/><path class="cls-2" d="M52.35,35.94h-.06a66.68,66.68,0,0,0-4.67,7.88.23.23,0,0,1,.16.21c0,.34-.2.31-.4.28-.53,1.08-1,2.18-1.52,3.31l3.92,3.8c.17-.25.42-.19,1,.09a.75.75,0,0,1-.11.76L54,55.53a.12.12,0,0,0,0-.09.19.19,0,0,0,.15,0,1.74,1.74,0,0,1,1,.85l2,.66c.23-.68.48-1.35.73-2l0,0c-.11-.25.14-.75.42-1.05h.05A53.19,53.19,0,0,1,70,36.38c0-.13,0-.27,0-.4h0l0,0,0,0h0a2.87,2.87,0,0,1,.56-.1,52.87,52.87,0,0,1,15.82-10.6v0c-.31-.2-.54-.5-1-.58S85,24.26,85,24a.38.38,0,0,1,.16-.38c.16-.11.26,0,.38.1l1.41,1a1.36,1.36,0,0,1,.24.24,52.5,52.5,0,0,1,14.35-3.69.3.3,0,0,1-.26-.32.54.54,0,0,1,.53-.58.39.39,0,0,1,.45.29.66.66,0,0,1-.47.58,55.92,55.92,0,0,1,5.68-.31,53,53,0,0,1,47.46,29.42l0-.08c.68.06.64.4.35.85.31.64.6,1.29.88,1.94.15-.12.36-.15.73,0v0c.17.71.18.95-.33,1,.4,1,.77,2,1.11,3l2.69-.91L169,47.71a67.84,67.84,0,0,0-8-13.92h-.07l-11.55,3.29a55,55,0,0,0-5-5.08l3.33-11.6a66.53,66.53,0,0,0-13.92-8l-4.25,4.39a.41.41,0,0,0,.05.09c.29.18.23.45.19.72a.67.67,0,0,1-1.05,0L125.35,21q-2.49-.86-5.1-1.47c-.61-.14-1.21-.26-1.81-.38l-.52-2.07a3.1,3.1,0,0,1-.18.26l-.15.21c-.55.49-1.17.31-1.79.17l-.18-.19c-.3-.45-.07-.85.12-1.25a1.36,1.36,0,0,1,1.49-.5,2,2,0,0,1,.41.15l-.78-3.1v.05h-.7c0-.26.09-.55.44-.53a.34.34,0,0,1,.16,0l-1.24-5a66.48,66.48,0,0,0-16.07,0l-2,8.1a.24.24,0,0,1,0,.12c0,.22,0,.35-.16.41l-.78,3.1A54.69,54.69,0,0,0,89.58,21l-2.91-3-.19.05c-.31-.1-.59-.23-.53-.6a.75.75,0,0,1,0-.16l-4.79-5c-1.35.57-2.68,1.19-4,1.85l.06,0c.3.12.15.39,0,.6s0,.44.17.62l-.07.09c.3.35.12.51-.22.61a.5.5,0,0,1,0,.21c-.14.31-.35.38-.64.16a4.41,4.41,0,0,1,.11-1.84,1.63,1.63,0,0,1,.11-.23q-.93.48-1.86,1a1,1,0,0,1-.64.41.3.3,0,0,1-.12,0,66.6,66.6,0,0,0-6.87,4.51L70.58,32a54.91,54.91,0,0,0-5.08,5L53.9,33.69c-.39.51-.76,1-1.13,1.55a.8.8,0,0,1,.06.2.43.43,0,0,1-.48.5m116.05,11c.18,0,.39.09.36.3-.09.55-.55.85-.95,1.16-.15.11-.33-.08-.38-.25s.74-1.21,1-1.21m-5.26-1.06c.35.06.67.13.7.49s-.31.37-.55.46l-.19-.15c0-.26,0-.52,0-.8m-.86,4,.29-.21c.38,0,1-.09.91.49s-.6.61-1.09.59c-.19,0-.26-.08-.32-.22s-.07-.5.21-.65m-2.35-2.33c.37,0,.76-.19,1,.19a.6.6,0,0,1,.07.73,1,1,0,0,1-1,.63c-.46-.05-.46-.46-.52-.8.13-.25.25-.5.37-.75m.47,5c.15.36-.17.38-.35.5h0c-.1.13-.21.13-.33,0s-.79-.45-.35-.88.75,0,1,.37M159.35,42a.38.38,0,0,1-.38.47.31.31,0,0,1-.32-.33.38.38,0,0,1,.34-.43c.19,0,.34.09.36.29m-1.47-4.49a.82.82,0,0,1,1.09-.28c.09.69.12,1.35-.86,1.37a.78.78,0,0,1-.23-1.09m-3.7,4.13c0,.73-.32.84-.91.53.07-.58.25-1,.91-.53M149.5,41a.43.43,0,0,1,.64,0c.39.4,0,.61-.25.83h-.16c-.29-.22-.6-.45-.23-.84m-5.82-7.44a.73.73,0,0,1-1.09.07v-.5c.28-.37.54-.87,1.09-.42a.54.54,0,0,1,0,.85m-.91-13.63c.26,0,.53-.1.74.16s.28.61-.22.74c-.18,0-.41,0-.51-.23h0c-.17-.06-.19-.21-.23-.35l.22-.32M142,23.36a.53.53,0,0,1,.66,0l.43.28h0c0,.46,0,.92-.69.87-.33,0-.45-.26-.54-.52a.54.54,0,0,1,.14-.64m-.54,5.5c.23.23.39.51.06.74a.57.57,0,0,1-.88-.24c.22-.26.34-.68.82-.5m-3.7-7.57c.26.06.68-.19.73.34a.36.36,0,0,1-.27.39c-.45.13-.5-.24-.62-.53l.16-.2m-6.34-6a1,1,0,0,1,.84.9c0,.34-.17.64-.53.58a.88.88,0,0,1-.8-.92c0-.3.07-.65.49-.56m-9,6.28c.37-.13.53.1.62.41a.7.7,0,0,1-.8.33c0-.27-.22-.59.18-.74m-1.32-.77,0,.49c-.3.52-.61.35-.92,0,0-.59.42-.59.87-.49m-7.62-4.7c.39,0,.33.29.29.55a1,1,0,0,1-.63,0c0-.28,0-.54.34-.53m-7.33-4.74c.34-.14.63,0,.64.44l-.64.19c-.13-.22-.39-.48,0-.63m-1.94,8.83a.36.36,0,0,1,.42.35.41.41,0,0,1-.39.4.34.34,0,0,1-.41-.35c0-.24.14-.37.38-.4m-2.1-7.7a.66.66,0,0,1,.67-.14.48.48,0,0,1,.31.49c0,.3-.21.4-.45.45l-.6.13h0c-.31-.34-.18-.65.07-.93M80.85,13a.32.32,0,0,1,.25-.18c.38.06.28.34.24.59h0c-.27,0-.54,0-.49-.41m-1.66,11.5c.1.45-.13.58-.53.56-.22-.57.09-.63.53-.56m-1.36-1.42c.28,0,.38.24.43.48s-.19.39-.42.38-.4-.23-.4-.5.13-.39.39-.36m-1.65,1.72c0-.25.22-.34.48-.32s.4.11.37.37-.25.37-.51.36a.32.32,0,0,1-.34-.41m-7.86-1a.35.35,0,0,1,.41-.36c.67.15.3.87.68,1.21-.47-.19-1.08-.19-1.09-.85M71.21,34.3h0c-.08-.27-.27-.57.19-.67a.31.31,0,0,1,.37.29c.07.48-.28.39-.56.38m.17-8.54c-.35-.81-.11-1.1.81-1,.23.73,0,1.07-.81,1M74,19.18a.5.5,0,0,1,.16.38.34.34,0,0,1-.4.36c-.24,0-.4-.14-.39-.38s.15-.38.63-.36m-3-.64c.49,0,1-.11,1.29.46a.2.2,0,0,0,0,.15c-.45.38-.89,0-1.34,0-.13,0-.23-.16-.21-.32a.33.33,0,0,1,.3-.28M60.63,41.25c.46-.07.69.16.77.59a.68.68,0,0,1-.73.48h0c-.36-.35-.53-.7,0-1.08m-1.51-4.64c.43-.13.67.09.61.57a.88.88,0,0,1-.68.18c-.19-.27-.41-.6.07-.75M58,40.94c.3,0,.5.14.49.41s-.11.48-.42.47a.39.39,0,0,1-.41-.38c0-.27.06-.46.34-.5m-.31,10a.28.28,0,0,1-.3.35c-.45,0-.49-.32-.43-.68h0c.33-.07.67-.16.73.33M56.91,45c.06.13.13.26.2.39a.84.84,0,0,1-.71.5c-.34-.58-.19-.89.51-.89m-2.16-.34c.75-.1.89.27.7.9-.74.09-1.12-.09-.7-.9M53.27,52c-.05.28-.11.54-.48.48a.34.34,0,0,1-.29-.39c.08-.33.36-.33.64-.28l.13.19m-.18-3.27c0,.19-.11.31-.32.35a.33.33,0,0,1-.33-.31.27.27,0,0,1,.29-.33.31.31,0,0,1,.36.29"/><path class="cls-2" d="M145.43,129h0c.71-.49,1.42-1,2.12-1.51l-3.31-11.61a56.29,56.29,0,0,0,5.08-5.05l11.6,3.32a65.56,65.56,0,0,0,8-13.92l-3.06-3c-.17.62-.37.59-1,.06h0c-.24-.18-.09-.53-.28-.7-.51-.43-.36-.59-.05-.68l-4.22-4.1L157.63,91a51.91,51.91,0,0,1-3.89,8.74,1.74,1.74,0,0,1,.26-.15c.32-.13.65-.16.84.2.11.19.28.41,0,.64s-.47.55-.89.39c-.13-.06-.25-.15-.37-.22a.92.92,0,0,0-.25-.2A53.31,53.31,0,0,1,142.12,114c0,.4-.43.57-.83.75h-.06a52.31,52.31,0,0,1-5.47,4l0,0c.08.36-.22.56-.36.82a.56.56,0,0,1-.6-.25,52.7,52.7,0,0,1-25,7.57.52.52,0,0,1,.2.49c-.09.58-.64.72-1.2.66a1.87,1.87,0,0,1-.32-.08h0a1.3,1.3,0,0,1,0-1l-1.07,0a52.94,52.94,0,0,1-45-25,.45.45,0,0,1-.31.21c-.29,0-.35-.19-.35-.42s0-.47.18-.59a51.91,51.91,0,0,1-4.74-10.25l-1.63.55c.42.13.39.6.49,1s0,.84-.51.78a1,1,0,0,1-.85-1,1.09,1.09,0,0,1,.06-.46l-.25.08-8.68,8.39a67.24,67.24,0,0,0,8,13.93l11.61-3.31a55,55,0,0,0,5,5.08l-.16.56a.43.43,0,0,1,.1.26.47.47,0,0,1-.32.51l-3,10.27a67.13,67.13,0,0,0,6.68,4.42,2,2,0,0,1,.37-.11.44.44,0,0,1,.16-.06.14.14,0,0,1,.16-.16c.27-.42.57-.7,1.08-.34h0c.62.34.27.92.36,1.39l-.38.25q2.65,1.44,5.48,2.64l8.4-8.67c1.66.56,3.36,1.06,5.11,1.47.6.15,1.2.26,1.8.38l2.92,11.73c2,.24,4,.4,6,.46l.12-.17a.41.41,0,0,1,.43.19c1.22,0,2.43,0,3.64,0,0-.13,0-.29,0-.41v0c.27.08.67-.11.74.34,0,0,0,0,0,.06,1.72-.07,3.43-.2,5.12-.41l2-8a1.36,1.36,0,0,1-.21.34c-.42-.11-.73-.32-.66-.83.28-.1.58-.17.8.08a.39.39,0,0,1,.11.29l.7-2.81v-.79l.16,0,.17-.18c.19-.22.4-.24.57,0a.09.09,0,0,1,0,.06,56.53,56.53,0,0,0,6.19-1.69l8.38,8.68a68,68,0,0,0,11.45-6.27.33.33,0,0,1,.34-.25m16.95-24.23.19-.18c1.13-.16,1.16-.13,1.15,1.09-.45.36-.92.55-1.4,0a1,1,0,0,1,.06-.95m-2.12,5.55a.35.35,0,0,1,.23-.14.56.56,0,0,1,.57.32.52.52,0,0,1-.28.69l-.35.18a.14.14,0,0,0-.12,0c-.38-.33-.22-.67-.05-1m-2.15-3.79c.24,0,.36.23.5.39s.06.34.08.51c.09.79-.12.94-.92.69l-.34-.33c.08-.5-.3-1.25.68-1.26m-13,5.73c.61-.08.58.29.52.7-.41.2-.86.5-.85-.34l.33-.36m0,1.24c.37,0,.56.11.56.41a.44.44,0,0,1-.52.45c-.28,0-.38-.22-.38-.48s.17-.4.34-.38M49.67,102.1c-.26,0-.36-.16-.31-.4s.13-.46.43-.45.31.23.36.43-.2.42-.48.42m1.83,3.44c-.31,0-.55-.14-.55-.45s.32-.52.67-.55.49.16.47.5-.26.49-.59.5m3.79,6c-.19,0-.34-.1-.34-.32a.31.31,0,0,1,.33-.34.35.35,0,0,1,.38.39c0,.25-.17.29-.37.27m.8-13.22c-.24,0-.31-.1-.27-.32s.21-.48.53-.47a.29.29,0,0,1,.28.3c0,.41-.25.48-.54.49m1.84,5.34a.48.48,0,0,1-.5-.52c0-.28.14-.53.47-.52a.52.52,0,0,1,.55.56.45.45,0,0,1-.52.48m2.82-3.36a10.41,10.41,0,0,1-1.46.27c-.29,0-.46-.27-.53-.53s.18-.49.42-.57a2.44,2.44,0,0,1,.64-.08c.41,0,.59,0,.76,0a.4.4,0,0,1,.5.37.42.42,0,0,1-.33.54m10.47,23.32a.3.3,0,0,1-.35-.29.33.33,0,0,1,.31-.35.32.32,0,0,1,.36.3.33.33,0,0,1-.32.34m.35-3.34c-.71.07-.73-.39-.57-.91.3-.14.61-.35.92,0-.15.29.28.84-.35.9m.81-1.52c-.15.16-.31,0-.32-.21s0-.64,0-1l.18-.17c.43,0,.93-.16,1,.46s-.61.59-.91.88m2.77,8.3a.26.26,0,0,1-.29-.33c0-.21.17-.29.36-.31s.31.14.29.35a.32.32,0,0,1-.36.29M79,131.26a.41.41,0,0,1-.33-.47c0-.2.08-.44.35-.41s.42.12.4.38-.22.4-.42.5m2.69,2.39a.73.73,0,0,1-1.25,0c-.36-.47,0-.82.43-1,.87-.15.84.43.82,1m-.18-4.09c-.3,0-.52-.13-.52-.47s.19-.4.46-.41.49.2.47.52a.35.35,0,0,1-.41.36m5.9-3a1.55,1.55,0,0,1-.36,1.32l-.56.26c-.48.19-1,.37-1.35-.17a1.19,1.19,0,0,1,.11-1.55l.57-.65a1,1,0,0,0,1.13-.45c.18-.34.42-.21.65,0a2,2,0,0,0-.19,1.28m2.59-.32a.85.85,0,0,1-1.34.27l-.18-.15c-.47-.34-.34-.71,0-1a1,1,0,0,1,1.3,0,.63.63,0,0,1,.2.93m1.36.63c-.42.24-.75.27-.73-.37.31-.38.61-.44.91,0l-.18.36m13,4.62a.53.53,0,0,1,.58,0,.87.87,0,0,1,.14,1l-.87-.05-.16-.14c0-.35-.12-.71.31-.89m-1.24,5.16c-.51.75-.71.8-1.4.32a2.62,2.62,0,0,1-.19-1.33.42.42,0,0,1,.44-.31H102a1.73,1.73,0,0,0,.57-.78l.32-.05h0c.67-.42.88-.11.89.55a1.28,1.28,0,0,0-.69,1.18v.41m2.57.92-.1.17.19.87c-.07.12-.11.28-.32.23,0,.12,0,.18-.19.18l-.72,0-.88-.37c-.24-.29-.07-.51.14-.71l.74-.52.32-.21a.54.54,0,0,1,.86-.39c.39.21.2.53,0,.78m2.72.2a.43.43,0,0,1-.44-.44.32.32,0,0,1,.37-.37c.27,0,.54.06.52.43s-.18.4-.45.38m5.93-5.06c-.54-.2-1.31.16-1.57-.67,1-.4,1.47-.19,1.57.67m-3.17-4.59c.94-.25.88.23.64.85a.13.13,0,0,0-.12,0c-.68,0-.91-.27-.52-.9m.73,7.28a.65.65,0,0,1-.64.22.38.38,0,0,1-.34-.35c-.08-.49.37-.52.64-.7h.07c.32.2.59.42.27.83m.71.18c0-.16,0-.33,0-.49a.54.54,0,0,1,.51,0l.2,0,.3.24a.71.71,0,0,1-.67.72c-.16-.09-.33-.19-.33-.41m2.1,2.32c-1.17.47-1.42.35-1.44-.69.07-.11.14-.22.22-.33,1.24-.17,1.28-.13,1.22,1m.55-3.72c-.37-.07-.58-.33-.45-.67s-.07-.82.37-.76.38.71.56,1.07-.23.33-.48.36m1.24-3.58c-1,.5-.71-.22-.7-.69.56-.11.79.13.7.69m8.57-3.88c-.11.28-.34.11-.52.12a.35.35,0,0,1-.19-.12c-.06-.06-.11-.13-.16-.19.1,0,.22-.08.31-.13s.3-.2.47-.07a.32.32,0,0,1,.09.39m.56-1.65c-.11.36-.4.4-.71.26s-.37-.18-.55-.27a.2.2,0,0,0,0-.15c.07-.5.4-.62.83-.54a.51.51,0,0,1,.46.7m9.21-1.42a.9.9,0,0,1-1,.53l-.35,0a.61.61,0,0,1-.17-.64c0-.06.11-.12.16-.19a.83.83,0,0,1,1.07-.33.5.5,0,0,1,.29.66m1.09-1.67a.43.43,0,0,1,.36-.58l.35.13c.08.29,0,.54-.27.64a.34.34,0,0,1-.44-.19m1.45,2.55-.36.15c-.25.25-.39.09-.5-.14-.51-.43-.56-.94,0-1.31a.79.79,0,0,1,1.28.41c.23.46.12.77-.4.89m1.43,1.43c-.45.06-.88.07-.91-.55a.9.9,0,0,1,.88-.13.94.94,0,0,1,0,.68m-.13-7c-.14-.2-.5-.31-.38-.62s.45-.18.7-.21c.44.49.18.71-.32.83m3.19,5.78c-.54.18-.58-.14-.55-.54.19-.13.41-.31.61-.15s0,.46-.06.69m.92-3.94c-.21-.09-.4.09-.63.25a.57.57,0,0,1-.79-.16.62.62,0,0,1,0-.75.51.51,0,0,1,.72-.07.67.67,0,0,0,.73.09.4.4,0,0,1,.61.39c0,.39-.27.39-.65.25m2.64,6.26.54,0c0,.22.08.52-.25.53s-.3-.26-.29-.5m-1-6.22a.73.73,0,0,1,1,.49l-.13.18c-.43,0-1,.1-.84-.67"/><path class="cls-3" d="M61.69,57.69c-.19.16-.19.51-.51.56l-.06,0h-.07l0,0v0l3,1a45.8,45.8,0,0,1,7.57-13.82.56.56,0,0,1,.33-.4,45.75,45.75,0,0,1,67.68-3.71.54.54,0,0,1,0-.18.86.86,0,0,1,1-.87c.43,0,.91.21.9.74s-.54.8-1.06.85a1,1,0,0,1-.3,0,46,46,0,0,1,10.78,17.48l3-1A49.21,49.21,0,0,0,134.38,33a.44.44,0,0,1-.2,0,.43.43,0,0,1-.37-.38,48.9,48.9,0,0,0-63.47,9.27.38.38,0,0,1-.13.35.43.43,0,0,1-.27.13,49.08,49.08,0,0,0-8.46,14.5c.26.18.46.39.21.78m81.93-13.53c.25-.3.6-.16.91-.21.63-.37.9-.15.9.54-.24.35-.48.65-.9.22a1.3,1.3,0,0,1-.86-.22.22.22,0,0,1,0-.33M106.62,26a.44.44,0,0,1,.44.3c0,.29-.16.34-.34.34s-.35-.08-.37-.29,0-.37.27-.35"/><path class="cls-3" d="M149.57,92a46,46,0,0,1-10.94,15.52H139c.21.29.66.56.31,1s-1,.24-1.54.08a1.36,1.36,0,0,1,0-.29A45.8,45.8,0,0,1,65.23,91.88l-2.9,1.24a49.72,49.72,0,0,0,3.88,7.28c.2,0,.43.19.38.29a.49.49,0,0,0-.07.19c.66,1,1.37,2,2.11,3a1.17,1.17,0,0,1,.36-.11c.57-.08.52.46.83.66a6.34,6.34,0,0,0-.27.61c.45.55.91,1.08,1.38,1.61a.62.62,0,0,1,.36-.09c.21,0,.41.06.4.36a.53.53,0,0,1-.23.31,50.2,50.2,0,0,0,5.77,5.33h.11c.38,0,.7.19.69.61a48.2,48.2,0,0,0,5.23,3.45l0,0c.45-.39.8-.17,1.13.18l-.17.39a49,49,0,0,0,36.44,4c-.24-.12-.34-.35-.22-.76l.14,0c.72,0,.91.09.76.61A49.25,49.25,0,0,0,152.47,93.2ZM96.32,120.83l-.51.21c-.29-.37-.55-.73,0-1.1.55.08.61.44.52.89m.89-1.25c-.3,0-.5-.16-.5-.5.44-.1.61.06.5.5m5.92,1.79c-.25,0-.36-.14-.36-.38s.16-.35.4-.35.34.19.31.42a.32.32,0,0,1-.35.31m4.63.38a.34.34,0,0,1-.34-.43c0-.25.19-.46.49-.35a.44.44,0,0,1,.32.47.42.42,0,0,1-.47.31m2.1.32c-.4,0-1,.15-.66-.67.51-.06.77.12.66.67m13.46-2.31h0c0-.26-.17-.6.25-.71.22-.06.43,0,.46.26,0,.58-.4.41-.71.45m5.94-3.54c-.26,0-.42-.1-.4-.33a.46.46,0,0,1,.51-.4c.2,0,.35.09.33.32a.47.47,0,0,1-.44.41m2.41-1.63a3.05,3.05,0,0,1-1.2.15h0a.54.54,0,0,1-.06-.84,1,1,0,0,1,1.32-.37c.4.38.46.74-.06,1.06"/><path class="cls-2" d="M69.48,57.71a41.33,41.33,0,0,1,6.44-10.4.48.48,0,0,1-.1-.63c.19-.37.52-.21.81-.19a41.47,41.47,0,0,1,6.05-5.57L82,40A42.62,42.62,0,0,0,68.4,57.24Z"/><path class="cls-2" d="M119.53,113.78a1.72,1.72,0,0,1-.52.11l-.17-.18a.62.62,0,0,1,0-.13A41.2,41.2,0,0,1,74.41,98.67l-1,.7a42.54,42.54,0,0,0,23.69,15.75,7.7,7.7,0,0,1,.8,0l.2.21a42.36,42.36,0,0,0,43.18-15.92l-1-.71a41.39,41.39,0,0,1-20.59,14.58.49.49,0,0,1-.26.48"/><path class="cls-2" d="M146.47,57.31A42.73,42.73,0,0,0,132.92,40l-.71.95a41.69,41.69,0,0,1,7.49,7.29l0,0c.3,0,.68-.17.85.24a.61.61,0,0,1-.18.69,41.77,41.77,0,0,1,5,8.62Z"/><path class="cls-2" d="M94.86,105.32c.07-.2.11-.3.18-.51-1.19-.39-1.78-.61-3-1.09L90.34,108c1.3.53,2,.77,3.27,1.2.07-.2.1-.31.17-.51-1-.34-1.56-.53-2.58-.93l.62-1.58c1,.39,1.49.56,2.49.89.07-.21.1-.31.17-.51-1-.33-1.49-.5-2.46-.89l.07-.18h-.21a.57.57,0,0,1,.33-.87l.14.22.13-.35c1,.38,1.42.55,2.38.86"/><path class="cls-2" d="M96.56,105.94a1.65,1.65,0,0,1,.85,0,3.34,3.34,0,0,1,.85.36,2.52,2.52,0,0,1,.62.51h0l.15-.7a5,5,0,0,0-.66-.38,4.24,4.24,0,0,0-.87-.31,2.18,2.18,0,0,0-1.32,0,1.12,1.12,0,0,0-.76.76,1,1,0,0,0,.07.87,1.76,1.76,0,0,0,.82.69c.2.1.4.18.58.26s.35.15.51.23a1.23,1.23,0,0,1,.44.33.58.58,0,0,1,.05.48.63.63,0,0,1-.47.47,2,2,0,0,1-1,0,3.07,3.07,0,0,1-.89-.41,2.74,2.74,0,0,1-.75-.68h0c-.09.29-.14.44-.22.73a5.45,5.45,0,0,0,.8.52,5.35,5.35,0,0,0,1,.36,3.11,3.11,0,0,0,.91.1,2,2,0,0,0,.71-.15,1.3,1.3,0,0,0,.48-.35,1.12,1.12,0,0,0,.24-.49,1,1,0,0,0-.12-.81,1.82,1.82,0,0,0-.72-.58c-.17-.08-.37-.18-.62-.28l-.56-.25a1.14,1.14,0,0,1-.47-.39.6.6,0,0,1,0-.48.64.64,0,0,1,.44-.42"/><path class="cls-2" d="M101.31,110.94c.23-1.6.34-2.4.56-4,.67.09,1,.13,1.69.2l0-.54a33.12,33.12,0,0,1-3.94-.58l-.1.53c.67.13,1,.19,1.67.3-.24,1.59-.37,2.39-.62,4l.69.1"/><path class="cls-2" d="M103.94,110.35l-.82-.07c0,.34-.05.52-.08.87l.83.07c0-.35,0-.52.07-.87"/><path class="cls-2" d="M109.68,108.67a.53.53,0,0,1,.09-.69l0,0c0-.37,0-.76-.07-1.23l-.49,0a.54.54,0,0,1-.3.52,1,1,0,0,1-.35.11,3.28,3.28,0,0,1-.43,0c0,.17,0,.25,0,.42l1,0c0,1.23.08,1.84.12,3.07l-1.07,0c0,.19,0,.28,0,.47,1.12,0,1.69-.05,2.81-.14,0-.19,0-.28,0-.46l-1,.07c0-.79-.08-1.39-.11-2a.68.68,0,0,1-.19-.19"/><path class="cls-2" d="M113.4,110.54a1.43,1.43,0,0,1-.41,0,1.54,1.54,0,0,1-.3,0h0c0,.24,0,.35.07.59l.29,0,.34,0a2.8,2.8,0,0,0,1.09-.35,2,2,0,0,0,.7-.66,2.1,2.1,0,0,0,.31-.91,3.42,3.42,0,0,0-.06-1.09,3.07,3.07,0,0,0-.34-1,1.71,1.71,0,0,0-.53-.57,1.48,1.48,0,0,0-.55-.22,2,2,0,0,0-.64,0,1.66,1.66,0,0,0-1.09.58,1.47,1.47,0,0,0-.35,1.09l.18.12-.09.38a.84.84,0,0,0,.13.27,1.15,1.15,0,0,0,.49.43,1.76,1.76,0,0,0,.53.15,2.69,2.69,0,0,0,.56,0,2.54,2.54,0,0,0,.59-.17c.17-.08.51-.35.54-.34a3.08,3.08,0,0,1-.3,1.19,1.61,1.61,0,0,1-1.13.58m.9-1.93a1.91,1.91,0,0,1-.52.14l-.4,0a1,1,0,0,1-.34-.08.76.76,0,0,1-.34-.29,1.08,1.08,0,0,1-.15-.46,1,1,0,0,1,.18-.8,1,1,0,0,1,.68-.38.92.92,0,0,1,.37,0,1.07,1.07,0,0,1,.36.14,1.16,1.16,0,0,1,.35.4,2.16,2.16,0,0,1,.23.73,1.37,1.37,0,0,1,0,.16c0,.05,0,.11,0,.13s-.3.2-.46.27"/><path class="cls-2" d="M118.06,110.12a40.89,40.89,0,0,0,1.19-4.36l-.2-.65c-1.24.37-1.87.53-3.13.8,0,.21.07.31.11.52,1.07-.22,1.6-.36,2.65-.65a42.87,42.87,0,0,1-1.35,4.51l.73-.17"/><path class="cls-2" d="M122.23,108.43a1.8,1.8,0,0,1-.41.09,1.05,1.05,0,0,1-.3,0h0c.07.23.11.34.18.56a1.55,1.55,0,0,0,.29,0l.34-.1a2.81,2.81,0,0,0,1-.57,2.13,2.13,0,0,0,.56-.79c0-.1.06-.2.08-.3a.64.64,0,0,1-.32-.12c-.18-.13-.12-.31,0-.47a2,2,0,0,1,.32-.38,3.64,3.64,0,0,0-.22-.74,3.25,3.25,0,0,0-.54-.91,1.79,1.79,0,0,0-.64-.45,1.72,1.72,0,0,0-.6-.1,2,2,0,0,0-.63.13,1.74,1.74,0,0,0-1,.8,1.63,1.63,0,0,0,.24,1.85,1.14,1.14,0,0,0,.57.31,1.35,1.35,0,0,0,.56,0,2.55,2.55,0,0,0,.55-.13,2.2,2.2,0,0,0,.55-.29c.16-.11.44-.45.47-.44a3.18,3.18,0,0,1-.06,1.23,1.68,1.68,0,0,1-1,.8m.5-2.08a2.76,2.76,0,0,1-.48.25,2.13,2.13,0,0,1-.4.1.83.83,0,0,1-.35,0,.81.81,0,0,1-.4-.21,1.18,1.18,0,0,1-.23-.42,1.08,1.08,0,0,1,0-.83,1,1,0,0,1,.6-.51,1.27,1.27,0,0,1,.38-.07,1.06,1.06,0,0,1,.38.07,1.29,1.29,0,0,1,.43.31,2.61,2.61,0,0,1,.38.68l0,.15s0,.1,0,.12-.25.25-.4.36"/><path class="cls-3" d="M86.94,104.49a1.4,1.4,0,1,0-1.39-1.4,1.4,1.4,0,0,0,1.39,1.4"/><path class="cls-3" d="M127.89,104.49a1.4,1.4,0,1,0,0-2.79,1.38,1.38,0,0,0-.72.21.36.36,0,0,1,.19.35.46.46,0,0,1-.49.42.51.51,0,0,1-.28-.08,1.58,1.58,0,0,0-.09.49,1.39,1.39,0,0,0,1.39,1.4"/><path class="cls-3" d="M86.94,43.67a1.4,1.4,0,0,0,0,2.79,1.4,1.4,0,1,0,0-2.79"/><path class="cls-3" d="M127.22,46.27a1.3,1.3,0,0,0,.67.19,1.4,1.4,0,1,0,0-2.79,1.39,1.39,0,0,0-1.39,1.39,1.37,1.37,0,0,0,.4,1,.4.4,0,0,1,.32.23"/><path class="cls-2" d="M94.41,55.5,100,47.23l5.48,8.27h3.09L106.87,53l-.13,0a.4.4,0,0,1-.39-.47.34.34,0,0,1,.09-.18l-2-3a3.54,3.54,0,0,1-.23.67l-.17.16a2,2,0,0,1-1.46-.16,1.06,1.06,0,0,1-.63-1.08,1,1,0,0,1,.93-.83,3.26,3.26,0,0,1,.7,0l-1.86-2.73,6.94-9.93h-2.93l-4.63,6.82a.39.39,0,0,1,.13.31.35.35,0,0,1-.37.37.36.36,0,0,1-.19,0l-.48.7-5.41-8.16H91.66l1.59,2.33.25,0c.67-.05,1.14.45,1.75.57a.83.83,0,0,1,0,.26c-.14.49.5,1.25-.06,1.42l-.39.11,3.67,5.39-7,10Z"/><path class="cls-2" d="M112.21,35.41v6.23h0a.86.86,0,0,1,.15.83l-.17.1V55.5h7.12a.56.56,0,0,1,.33-.07.83.83,0,0,1,.27.07h5V53.13h-6.58l-.21.13a1.07,1.07,0,0,1-.38-.13h-2.87V49.94c-.28.1-.58.23-.8-.1a.19.19,0,0,1,.09-.29c.24,0,.51-.14.71,0V35.41Zm1.39,8.89c-.32,0-.66-.12-.64-.55s.3-.53.66-.52.68.15.68.52-.36.48-.7.55"/><path class="cls-2" d="M63.75,70c0-.16.06-.32.08-.48a18.59,18.59,0,0,0,.2-4.08c-.09-.85-.21-1.69-.29-2.54a.51.51,0,0,0-.57-.53l-8.48-.2a.51.51,0,0,1,.05.71l-.19.32-.32,0c-.46-.1-.93-.18-1.06-.75a1,1,0,0,1,0-.36L48.39,62l-2.85-.08c-.26,0-.4.09-.27.37a9.23,9.23,0,0,1,.8,2.87,10.31,10.31,0,0,1-1,6.08A10.49,10.49,0,0,1,41.85,75a10,10,0,0,1-3,1.57c.2.68-.14.94-.84.9l-.37-.34c0-.08,0-.15,0-.23a10.5,10.5,0,0,1-2.24.21.33.33,0,0,1-.1.29c-.27.3-.51,0-.67-.27l0-.06A8,8,0,0,1,33.8,77a10.73,10.73,0,0,1-3.42-1.16,11.35,11.35,0,0,1-1.51-1c-.06.15-.22.19-.57,0s-.35-.28-.3-.54h.27A10.79,10.79,0,0,1,25.8,70.9a10.59,10.59,0,0,1-1-4.62,9.75,9.75,0,0,1,.84-3.94c.15-.33.07-.43-.29-.43l-.94,0L7.8,62.34c-.34,0-.49.16-.52.46s-.11.85-.16,1.28a2,2,0,0,1,0,.93.91.91,0,0,0-.11.16c0,.31,0,.61,0,.92,0,1.39.21,2.79.32,4.19,0,.29.23.33.45.34l4,.18,5.37.23a.42.42,0,0,1,.44.37A10.21,10.21,0,0,0,18,72.75c.42,1,.88,1.93,1.3,2.9a.59.59,0,0,1-.09.53c-1.15,1.31-2.32,2.59-3.5,3.88-.93,1-1.87,2-2.82,3.07a.35.35,0,0,0,0,.52c.12.18.25.35.38.52.08-.22.28-.27.66-.07.09.25.17.51.27.75a.57.57,0,0,1,0,.55,22,22,0,0,0,4,3.59.41.41,0,0,0,.59,0l4-3.65,2.86-2.61a.42.42,0,0,1,.59-.08,4.25,4.25,0,0,0,.6.31l.1-.1c.31-.23.54-.58,1-.64.92.47,0,.77-.1,1.14l2.89,1.15a.37.37,0,0,1,.28.38c.06,1.4.13,2.8.19,4.2.08,1.73.15,3.46.23,5.19,0,.24.08.41.35.44.94.11,1.89.25,2.83.31a21,21,0,0,0,4.68-.3c.34-.06.42-.24.43-.54h0a1.08,1.08,0,0,1-.86.47.32.32,0,0,1-.34-.41c.09-.48.32-.75.85-.68a.56.56,0,0,1,.37.16c.07-1.82.14-3.65.22-5.48,0,0,0,0,0,0-.18.42-.42.76-.93.49a.45.45,0,0,1-.11-.75c.39-.46.75-.32,1.07.1L40,85.14c-.31-.19-.27-.37.07-.49a.39.39,0,0,1,.26-.17,18.31,18.31,0,0,0,4.45-1.86.39.39,0,0,1,.56.07l1.86,1.7,1.43,1.3a.81.81,0,0,1,.49.45l1.53,1.39a.38.38,0,0,1,.38-.28c.32.07.53.21.51.54a.34.34,0,0,1-.27.32l.93.83a.53.53,0,0,0,.48.1,5.82,5.82,0,0,0,.83-.57,21.86,21.86,0,0,0,4.55-4.71.49.49,0,0,0,0-.7l-1.12-1.22c-1.68-1.83-3.36-3.67-5.06-5.5a.65.65,0,0,1-.09-.81c.59-1.38,1.14-2.77,1.72-4.16a.57.57,0,0,1,.35-.3c.4,0,.8,0,1.2-.06l8-.38c.62,0,.62,0,.71-.65M9.59,65c-.21.06-.43.26-.63,0s-.07-.5.07-.72c.6-.08.63.28.56.72M8.32,63.41c.23-.5.68-.34,1.08-.35.17.29.35.58.52.88a1.6,1.6,0,0,1-1.6-.53m2.32,6.41h-.3c-.3-.47-.28-.84.32-1,.18.35.33.7,0,1M12.14,66c-.24.14-.43-.13-.51-.35-.18-.45,0-.67.48-.69h0c0,.08.11.15.12.23.06.28.2.63-.1.8m2.09-.66-.62,0c-.08-.2-.12-.39.08-.54s.43-.33.71-.13h0a.77.77,0,0,1-.17.7m1.8,3.4a.31.31,0,0,0,0,.13c-.51,0-1.18.27-1.09-.67,0-.41.28-.54.62-.62a.7.7,0,0,1,.61.33.79.79,0,0,1-.11.83m2.5,1.07-.67,0c-.06-.27-.24-.56.06-.78a.47.47,0,0,1,.4,0c.39.18.23.53.21.83m5,1.08c.15,0,.27.1.26.35s-.2.23-.38.23a.27.27,0,0,1-.26-.31c0-.23.18-.29.38-.27M19.41,82.33c.32.13.65.24.52.69-.21.1-.44.26-.63,0a.47.47,0,0,1,.11-.69m-.89,1.42c-.07-.49.25-.37.51-.34h0c0,.11,0,.22,0,.33-.14.36.3,1-.17,1.05-.79,0,.1-.77-.33-1m1.56,3a.85.85,0,0,1-.66.51l-.18-.19c-.27-.27-.47-.54-.21-.93a.5.5,0,0,1,.61-.25.7.7,0,0,1,.44.86m.32-5.89a.36.36,0,0,1-.34-.33c0-.18.09-.27.24-.29a.37.37,0,0,1,.43.29c0,.24-.14.34-.33.33M20,77.65c-.35-.27-.49-.58-.15-1a1.71,1.71,0,0,1,1.18,0l0,.81a1.69,1.69,0,0,1-1.06.16M21,72.34a1,1,0,0,0,0,.17v0c-.14.14,0,.38-.2.51-.85-.13-.51-.51-.19-.89,0-.28.2-.47.44-.35s.15.37,0,.54m-.19-5.72c0-.23,0-.45,0-.68.39-.6.81-.53,1.23,0,.1.39-.14.64-.38.89-.29-.05-.61.09-.86-.17m1.4,16.58c-.2,0-.41,0-.54-.17,0-.22.13-.4.39-.33s.16.31.15.5m1-.66a2.88,2.88,0,0,1-.42.11h0a1.83,1.83,0,0,1-.18-.3.52.52,0,0,1,.39-.74c.21-.06.42-.09.5.19a.55.55,0,0,1-.29.74m1.32-3.44a.6.6,0,0,1-1,0,.46.46,0,0,1,.16-.74c.35-.11.79-.16.82.44,0,.11,0,.22,0,.34M26,76.56a1.06,1.06,0,0,1-1.11-.69c-.09-.36.38-.38.66-.35s.93-.2,1.24.23c-.08.55-.4.8-.79.81m4.42,2.22c-.47,0-.41-.43-.45-.74l.17-.19c.43-.06.9-.07.94.48,0,.29-.32.48-.66.45m2.94.17c-.25,0-.59,0-.61-.34a.37.37,0,0,1,.39-.4c.39,0,.4.27.41.55l-.19.19m.51,7.61a.29.29,0,0,1-.31-.34.31.31,0,0,1,.36-.3.36.36,0,0,1,.33.34.35.35,0,0,1-.38.3m2.34-6.2a.51.51,0,0,1-.36.7.64.64,0,0,1-.35-.51c.2-.22.41-.36.71-.19m-1.1,4.1c.36-.57.79-.49,1.26-.13-.35.8-.66.83-1.26.13m2.06,4.41a.43.43,0,0,1-.53-.35c-.1-.39-.27-.85.13-1.14s.33.21.48.34,0,.32,0,.49c-.15.21.28.53-.1.66m1.74.9c0,.18,0,.34-.26.37a.31.31,0,0,1-.32-.33c0-.2.09-.33.3-.32a.28.28,0,0,1,.28.28M40.67,84c-.22,0-.28-.2-.28-.38s.08-.28.29-.29a.34.34,0,0,1,.31.34.28.28,0,0,1-.32.33m.54-6-.12-.32a.7.7,0,0,1,.5-1c.63-.14.61.49.82.82-.19.71-.5,1.08-1.2.46M43,81.25c-.29.12-.64.34-.84-.08s.15-.5.44-.59c.26.15.55.28.4.67m-.06-5.92a.23.23,0,0,1-.27-.25c0-.16.11-.25.51-.23h0a.19.19,0,0,1,.1.17c0,.21-.15.3-.34.31m5.42-8.51c.49,0,.81.1.67.68-.24.1-.46.45-.75.17s-.11-.58.08-.85M44.42,80.94c-.05.55-.4.37-.71.28h0s0-.11,0-.17c0-.33-.05-.71.44-.67.31,0,.3.33.28.56m.18-1c0-.1,0-.2,0-.3.18-.28.38-.42.68-.14h0c.07.58-.21.64-.66.44m1-3.5c-.26,0-.35-.21-.31-.44a.38.38,0,0,1,.45-.33.39.39,0,0,1,.39.4.46.46,0,0,1-.53.37M46.92,83c-.07-.15-.16-.32,0-.46s.34.07.49.16a.46.46,0,0,1-.49.3m3.71,1.59c-.61.88-.61.88-1.43-.13-.38-.1-.67.32-1.05.16a.8.8,0,0,1,0-.15c-.21-.09-.55,0-.49-.44s.45-.21.68-.28L49,83.7a.51.51,0,0,1,.17,0c.33-.2.64-.55,1.08-.28s.37.73.34,1.16M53,67.09c-.74.09-1.52.38-2.15-.32,0-.16,0-.32,0-.48s0-.24.15-.31a.51.51,0,0,1,.17,0c.23-.32.33-.75.65-1a.64.64,0,0,1,.19-.22,2,2,0,0,1,1-.1,1.23,1.23,0,0,1,.41.13c.77.86.7,1.3-.35,2.34m2.48-1.72h-.26c-.41,0-.91,0-.92-.54a.68.68,0,0,1,.71-.73c.53,0,.83.2.84.76a.88.88,0,0,0,0,.17l-.39.35M57,63.68a.61.61,0,0,1-.63-.13c-.36-.13-.34-.38-.23-.67l.38-.22.37,0c.5.28.55.6.11,1M58.86,69a.43.43,0,0,0-.16,0c0-.27-.19-.61.26-.7.16,0,.36,0,.41.21.1.42-.24.45-.51.54"/><path class="cls-3" d="M104.67,62.34a1,1,0,0,0-.65-.27c-.87,0-1.75,0-2.63,0s-1.35.42-1.35,1.35V64c.33.19.13.51,0,.8h0q0,11,0,22.1c0,.59,0,1.18,0,1.77,0,.19,0,.35.28.35H104a.35.35,0,0,0,.4-.42c0-.47,0-1,0-1.43q0-9.19,0-18.39c0-.06,0-.12.1-.23.22.19.44.34.62.52l4.22,4.23c1.23,1.23,2.45,2.46,3.7,3.68a.93.93,0,0,0,.56.22,13.61,13.61,0,0,0,1.69,0A1.17,1.17,0,0,0,116,77c.79-.75,1.54-1.54,2.31-2.31l4.27-4.26c-.17,0-.31,0-.33-.26a.28.28,0,0,1,.26-.36c.19,0,.39,0,.42.27.31-.3.61-.6.91-.91s.42-.36.63-.54l.12.07v1.57q0,3.21,0,6.43a.38.38,0,0,1,.23-.35c.24-.12.51-.15.66.17a3,3,0,0,0,.16.31.27.27,0,0,0,0,.13l-.41.17a.44.44,0,0,1-.57-.26.49.49,0,0,1,0-.16v5.45a.68.68,0,0,1,.56-.69c.4-.07.51.27.55.55a.58.58,0,0,1-.54.69c-.36,0-.48-.22-.57-.45v3.27c.7-.31.8-.21.85.56-.35.2-.66.33-.85.19v2.23c0,.48.06.57.48.57,1.19,0,2.38,0,3.57,0,.27,0,.35-.11.35-.36,0-.56,0-1.13,0-1.69V82.18a.59.59,0,0,1-.45.13.73.73,0,1,1,.11-1.45.81.81,0,0,1,.34.08q0-8.81,0-17.61a1.12,1.12,0,0,0-1.24-1.27c-.93,0-1.86,0-2.79,0a.89.89,0,0,0-.58.24c-.87.85-1.72,1.72-2.57,2.59s-2,2-2.94,2.95q-2,2.06-4,4.12a.34.34,0,0,1-.57,0c-.36-.39-.74-.76-1.11-1.13-1.35-1.35-2.71-2.7-4.06-4.07s-2.91-3-4.38-4.43m-2.26,2c-.06-.18-.12-.36-.17-.53.24-.3.51-.51.89-.25a.41.41,0,0,1,.17.47c-.15.48-.54.31-.87.32.17.32.43.63.12,1a.67.67,0,0,1-1,.07c-.23-.79.26-1,.87-1.07M101.9,79a.44.44,0,0,1-.63-.14.42.42,0,0,1,.23-.7c0-.11,0-.22,0-.33l.51-.91c1.54-.19.94,1.2,1.5,1.91a2.47,2.47,0,0,0-1.66.17m6.22-11.2a5.09,5.09,0,0,0-1.38-.35c-.25-.45-.44-.89.4-.74.42.08.78-.31,1.2-.14a.85.85,0,0,1-.22,1.23m18.37-2.52c0-.36.14-.72.62-.68s.64.44.67.87-.32.56-.68.62a.67.67,0,0,1-.61-.81m-.33,10.23c.31-.06.64-.07.58.36s-.41.38-.74.29v-.47l.16-.18"/><path class="cls-3" d="M156.24,87v1.62c0,.25.07.39.37.39h3.53c.33,0,.5-.13.49-.5,0-1.24,0-2.48,0-3.72V63.39c0-.93-.39-1.32-1.32-1.33s-1.68,0-2.52,0a1.21,1.21,0,0,0-1,.4c-1.27,1.32-2.55,2.62-3.83,3.92l-5.45,5.5c-.37.37-.41.37-.77,0l-4.9-5c-1.4-1.42-2.79-2.84-4.2-4.24-.26-.26-.45-.63-.94-.62-.91,0-1.82,0-2.74,0a1.14,1.14,0,0,0-1.29,1.28c0,1,0,1.91,0,2.86V78.08a.4.4,0,0,1,.36.3c.09.33-.17.49-.36.68v9.51c0,.38.1.48.53.48h3.35c.4,0,.5-.09.5-.47V85.47l-.11-.1-.67-.05a.78.78,0,0,1,.78-.89V83s0-.08,0-.11a.31.31,0,0,1,0-.28v-14l.11,0c.1.09.21.16.3.25l4,4c1.4,1.4,2.79,2.81,4.2,4.19a1,1,0,0,0,.56.23,16.64,16.64,0,0,0,1.73,0,1.17,1.17,0,0,0,.62-.25c.62-.59,1.22-1.21,1.83-1.82L155,69.58l1.08-1.07.13,0V87m1.12-8.84-.46.18c-.68-.55-.68-.68,0-1a.06.06,0,0,0,.09,0,.65.65,0,0,1,.37.85m2.35-5.7c.29-.11.55-.18.79.13s0,.38-.08.55c-.3.4-.57.11-.85,0,.05-.22.1-.44.14-.66m-.05,11.11h0a.56.56,0,0,1,0,.84h0c-.35.07-.65.06-.67-.42s.35-.41.66-.4m-1.4-17.11c0,.22,0,.44,0,.66l-.17,0h0c-.49.51-1-.25-1.45,0a.94.94,0,0,1-.15-.67,4.79,4.79,0,0,1,1.73,0m-.46,4.7c.18,0,.39,0,.49.23l.33.11c.19.06.42.07.39.37s-.27.22-.46.23l-.61,0a.27.27,0,0,0,0,.12,2.4,2.4,0,0,1-1,.23,1.58,1.58,0,0,1-.52-1.22c.46-.46.92-.83,1.46-.1M133.13,85.82a.61.61,0,0,1-.68.56.44.44,0,0,1-.42-.48c0-.41.29-.56.63-.61a1.12,1.12,0,0,1,.42.1h0l0,0,0,0h0a1.58,1.58,0,0,1,0,.43m1.71-19.54c-.17,0-.35-.16-.33-.35a.74.74,0,0,1,.57-.77c.39.07.43.39.51.69-.15.33-.36.54-.75.43m18.59-.51h0a3.82,3.82,0,0,1-.15.48c-.09.21-.27.18-.44.1a.35.35,0,0,1-.25-.4c0-.23.24-.22.41-.22a3.28,3.28,0,0,1,.43,0h0l0,0Z"/><path class="cls-3" d="M187,86.83c0,.58,0,1.15,0,1.73,0,.43.1.49.51.49,1.08,0,2.15,0,3.23,0,.63,0,.67,0,.67-.64q0-3.73,0-7.46a1.22,1.22,0,0,0-.26.3l-.32,0c-.4-.33-.65-.75-.27-1.21a.58.58,0,0,1,.85,0V78.29c0-1.41,0-2.83,0-4.24,0-.33.09-.45.43-.43l.66,0c0-.54.32-.69,1.1-.57,0,.23,0,.41,0,.56h2.18a3.74,3.74,0,0,1,.33-1,1.5,1.5,0,0,1,1,.25v.71h5.9a.81.81,0,0,1,0-.39l.15,0c.66,0,.95.29.56,1a2.42,2.42,0,0,1-.35-.11c0,.29,0,.59,0,.88v2s0,0,.07,0a.43.43,0,0,0,.48-.32v0a1,1,0,0,1,1.23-.26c.52.43.21,1,.16,1.45a1.54,1.54,0,0,1-1.94.06V88.52a2.11,2.11,0,0,0,0,.3.43.43,0,0,1,.24,0c.2,0,.26.14.26.27h3.47a1.58,1.58,0,0,1,.42-.54V76.72h0V65a2.48,2.48,0,0,0-1.15-2.15,4.6,4.6,0,0,0-2.69-.78c-4.36,0-8.72,0-13.09,0a7.38,7.38,0,0,0-1.73.25A3,3,0,0,0,187,65.21c0,7.21,0,14.41,0,21.62m17.39,1.52a.56.56,0,0,1-.52-.64.62.62,0,0,1,.76-.64c.38,0,.47.33.53.64s-.3.69-.77.64m3.34-1.61c0,.47-.31.91-.78.8-.94-.22-.7-1-.68-1.7h0c.69,0,1.48-.18,1.46.89M206,83.18l.83.25c.16.92-.35.69-.85.5l-.36.17a.25.25,0,0,1-.35,0c-.32-.4-.06-.73.15-1.07.22,0,.43-.07.58.16m-.89-20.47c.45,0,.55.28.46.67l-.64,0a.69.69,0,0,1,.18-.69m-.72,10c.35-.33.3-1.06,1-1,0,.22,0,.43,0,.65-.26.09-.28.34-.35.55s-.22.45-.48.4-.2-.36-.21-.57m-.61-.69c.09.48-.32.47-.65.49h0c0-.23-.51-.48,0-.69.21-.09.61-.14.68.2m-4.69-7.43a.27.27,0,0,1,.38.11c.16.3-.08.42-.29.53l-.15,0c-.09-.21-.26-.43.06-.6m-.78-.65a.33.33,0,0,0,.13,0c.05.29.45.57,0,.84a.3.3,0,0,1-.44-.17c-.12-.3-.25-.64.27-.71m-3.36.53a.37.37,0,0,1,.43.34c0,.25-.16.35-.39.37s-.4-.13-.38-.38a.34.34,0,0,1,.34-.33m-3.5,3a1.41,1.41,0,0,1,1.42-1.21c.65,0,1.3,0,1.95,0,2.36,0,4.72,0,7.08,0a1.49,1.49,0,0,1,1.59,1.5c0,.48,0,1,0,1.43,0,.26-.11.35-.37.34H191.77c-.29,0-.38-.11-.38-.36,0-.57,0-1.13,0-1.69m-1.94,13.75-.49,0-.16-.18c0-.26.1-.4.37-.36s.35.26.28.52m.23-15.13c.31,0,.57.09.47.5-.16.12-.35.29-.52.11a.42.42,0,0,1,.05-.61m.76,5.87c.26.44-.23.5-.44.69-.47.28-.8.16-1-.34l0,0c0-.11.05-.22.08-.33a2.4,2.4,0,0,1,.41-.32.75.75,0,0,1,1,.28m-3-1.86a1,1,0,0,1,1.19-.8.41.41,0,0,1,0,.16l.32.22c.48.69.27,1.17-.7,1.59-.47-.26-1-.49-.84-1.17"/><path class="cls-3" d="M183,81.14a.68.68,0,0,1,.62-.81c.13-.19.38-.1.58-.15,0-1.67,0-3.34,0-5H184c-.42-.45-.76-.93-.29-1.54a.55.55,0,0,1,.45-.25,12.32,12.32,0,0,0-.14-1.49.76.76,0,0,1-.21.28l-.33,0c-.38-.14-.4-.39-.23-.7l.21-.17.44,0a2.85,2.85,0,0,0-2.74-2c-1.9,0-3.79,0-5.68,0-2.26,0-4.51,0-6.77,0a.75.75,0,0,1-.57-.24,2.21,2.21,0,0,1-.14-2.32.71.71,0,0,1,.68-.48l6.92,0,6.88.05c.35,0,.5-.1.49-.48,0-1.15,0-2.3,0-3.45,0-.34-.13-.46-.45-.44h-1c-5.14,0-10.28,0-15.42,0a2.21,2.21,0,0,0-2.44,2.31c-.11,2.06-.08,4.13-.07,6.2a6.28,6.28,0,0,0,.25,1.61,1.8,1.8,0,0,0,1.55,1.4,20.66,20.66,0,0,0,2.61.16h1.23c.19-.22.48-.14.75,0h9.12c.65,0,.63,0,.63.64v9.74c0,.49,0,.49-.5.49H164.15c-.53,0-.57,0-.57.55,0,1.06,0,2.13,0,3.19.43-.3.87-.48,1.31.21a1.36,1.36,0,0,1,0,.5h13a.4.4,0,0,1,.41-.22.46.46,0,0,1,.45.22h3.58a2,2,0,0,0,.41-.06,1.78,1.78,0,0,0,1-.69.39.39,0,0,1-.44-.12l-.06,0-.06,0c-.18-.34-.35-.68-.06-1,.63-.06.93-.07,1,.1a1.53,1.53,0,0,0,0-.3c0-1.84,0-3.68,0-5.52a.52.52,0,0,1-.28,0c-.34,0-.82.12-.91-.3m-11.51-18c0-.26.24-.31.46-.29a.29.29,0,0,1,.28.36c0,.26-.17.36-.42.35a.33.33,0,0,1-.32-.42m-2.66,2.22c.44-.08.78,0,.73.54-.45.09-.86.13-.73-.54m8,21.9a2.27,2.27,0,0,0-.25.06c-.5.21-1.07.35-1.28-.26-.14-.43.38-.71.75-.83.58-.18,1,0,1,.71l-.22.32m2.9-14c-.57.08-.54-.38-.54-.76a.87.87,0,0,1,.85-.15c.05.36.26.82-.31.91m1.39,10.11c.16-.32.42-.58.71-.25s-.1.48-.34.62l-.37-.37M183.24,85c-.37.31-.75.63-1.25.22-.4-.21-.39-.56-.34-.92a.14.14,0,0,0,0-.15l.53-.42a.65.65,0,0,1,.84.27s0,0,0,.06c.32.23.27.58.18.94"/><path class="cls-3" d="M73.75,88.44q0-7.05,0-14.1V74c0-.25.11-.36.38-.33a3.94,3.94,0,0,0,.6,0q5.28,0,10.56,0a17.65,17.65,0,0,0,2.06-.09,3.44,3.44,0,0,0,2.93-3.26V69.9a.31.31,0,0,1-.32,0,1,1,0,0,1-.26-1.32.86.86,0,0,1,.58-.38c0-.42,0-.83,0-1.25a.47.47,0,0,1-.4-.49.42.42,0,0,1,.4-.47v-.42a5,5,0,0,0-.2-1.13,3.44,3.44,0,0,0-3.19-2.34H70.75a1.19,1.19,0,0,0-1.42,1.32V75.9h0V88.38c0,.64,0,.67.69.67H73.1c.61,0,.65,0,.65-.62M78,72.73c0-.1,0-.2-.08-.3.22-.29.29-.77.82-.66.08,0,.19.14.18.2,0,.57-.53.61-.92.76M82.27,71a.46.46,0,0,1-.4-.5.42.42,0,0,1,.45-.44.46.46,0,0,1,.45.54c0,.28-.26.36-.5.4m-8.89-4.32a.42.42,0,0,1,.36-.29v-.19c0-.28.09-.4.39-.4h2.11v0c-.06-.34.18-.39.44-.4s.43.07.42.34c0,0,0,.07,0,.11,2.36,0,4.73,0,7.1,0a1.86,1.86,0,0,1,2,2.12,1.82,1.82,0,0,1-1.66,1.6H79.34v0H74.15c-.31,0-.41-.12-.41-.43,0-.58,0-1.16,0-1.74-.25-.17-.52-.33-.37-.71m-2.63,8.92c0-.22.17-.31.38-.28s.24.16.22.37-.15.18-.31.18-.29-.1-.29-.27m1.17,3.68a.41.41,0,0,1-.5.05c-.38-.23-.12-.51,0-.77h0c.25,0,.55-.2.69.16a.47.47,0,0,1-.15.56m.14-14.49c-.37.32-.64.21-.84-.19,0-.28-.13-.59.22-.76a.56.56,0,0,1,.65.1c.31.28.16.58,0,.85"/><path class="cls-3" d="M28.16,70.08a6.62,6.62,0,0,0,.77,1.32,1.4,1.4,0,0,1,.15-.3h.14c.16.2.6.25.44.63a.36.36,0,0,1-.27.23,7.54,7.54,0,0,0,1.22,1.1,9,9,0,0,0,2.63,1.25,1.39,1.39,0,0,1,.4,0h0l.06.09.69.13.06-.09c-.07-.13-.13-.26-.2-.38A12.58,12.58,0,0,1,32.85,71a4.77,4.77,0,0,1,1.26-4.77c1.16-1.26,2.38-2.46,3.61-3.65A9.45,9.45,0,0,0,39.4,60.4l-.13,0c-.08-.64.1-1,.57-.91a8.64,8.64,0,0,0,.59-3.24,13,13,0,0,0-.17-1.75,1.12,1.12,0,0,1,0-.24,9.9,9.9,0,0,0-.55-2l-.12,0a.43.43,0,0,1-.22-.81c-.18-.36-.37-.71-.57-1.06a12.73,12.73,0,0,0-3.49-3.82c-.35-.25-.72-.47-1.08-.7l-.09.1c0,.08.06.18.11.26a12,12,0,0,1,1.84,4.34,7.67,7.67,0,0,1-1.51,6.29,16.6,16.6,0,0,1-3.07,2.91,13.4,13.4,0,0,0-3.2,3.39A5.92,5.92,0,0,0,27.36,66a9,9,0,0,0,.8,4m8.9-9.2c-.08.27-.3.21-.5.18a.2.2,0,0,0-.06-.14c0-.21.09-.41.37-.36a.23.23,0,0,1,.19.32m1-7.06c.13.63-.31.51-.67.49-.09-.59.26-.59.67-.49m-.88-.9c.05.6-.19.91-.83.83-.34-.9.15-1,.83-.83M29.48,68.55c-.12.18-.38,0-.58,0a.85.85,0,0,0-.69-.48c-.39,0-.43-.24-.41-.53a.84.84,0,0,1,.71-.21,7.54,7.54,0,0,1,.72.65c.15.16.4.36.25.59M32.29,62h0c.28,0,.61,0,.62.41a.23.23,0,0,1-.28.25c-.41-.06-.37-.37-.34-.66h0m.18,10.31c-.13.58-.47.62-.93.38-.34-.82.16-.79.71-.71l.22.33m-.63-5.92c-.27.11-.48.06-.58-.25a.12.12,0,0,0,0-.09c.11-.44.36-.65.83-.47,0,.1,0,.2,0,.31.14.29,0,.41-.27.5m.27-2.29c0,.41-.32.33-.56.37-.44-.36-.35-.72,0-1.07.3.14.56.28.54.7m-1.29-1.61.2-.34c.59.1.71.33.22.74l-.23.32c-.19,0-.41.05-.5-.2s.14-.39.31-.52m-.14,5.9c.28,0,.36.14.34.37a.27.27,0,0,1-.34.29.33.33,0,1,1,0-.66m-1.27-2c.34,0,.41.4.66.55.08.42,0,.68-.48.4A5.84,5.84,0,0,1,29,67a.63.63,0,0,1,.38-.53m-1.61-.19c.28-.25.58-.3.83,0s0,.4-.21.47c-.42.15-.59-.09-.62-.48Z"/><path class="cls-3" d="M96.87,62.06H93.19c-.29,0-.38.13-.38.42q0,6.51,0,13h0v12c.07-.29.32-.15.5-.18h0c0,.19,0,.42-.31.41a.19.19,0,0,1-.19-.14v.9c0,.46.08.56.49.57h.26a1.86,1.86,0,0,1,.1-.49,1,1,0,0,1,1.1.18,1.6,1.6,0,0,1,0,.31h2c.33,0,.47-.15.47-.49q0-6.53,0-13c0-2,0-4,0-6-.26,0-.48-.2-.57-.63l0-.1a.14.14,0,0,1,0-.06c0-.1-.06-.19-.08-.29a1,1,0,0,1,.67-.44c0-1.87,0-3.73,0-5.6,0-.26-.13-.37-.37-.37m-3.45,24c-.23,0-.42,0-.42-.3a.48.48,0,0,1,.39-.52.34.34,0,0,1,.43.32.49.49,0,0,1-.4.5m.4-5.24a.8.8,0,0,1-.61-.87c0-.34.12-.67.57-.6a.92.92,0,0,1,.77.84c-.1.39-.32.69-.73.63"/><path class="cls-3" d="M41.41,57.1a.51.51,0,0,1,0,.13,12.7,12.7,0,0,1-1.09,3.93,15,15,0,0,1-2.92,4.19,1.33,1.33,0,0,1-.48.46l-.73.64a.44.44,0,0,1-.18.32l-.15,0a4.36,4.36,0,0,0,0,6.55,2.34,2.34,0,0,0,2.08.73,8.29,8.29,0,0,0,1.63-.49,6,6,0,0,0,2.65-2.26.4.4,0,0,1-.24-.15.53.53,0,0,1,0-.58.58.58,0,0,1,.55-.36,1,1,0,0,1,.27,0,8.79,8.79,0,0,0,.52-1.67A12.72,12.72,0,0,0,43.46,64c-.13-.94-.25-1.89-.46-2.81-.27-1.1-.62-2.18-1-3.27a8.16,8.16,0,0,0-.34-.81.27.27,0,0,1-.3,0M34.62,69.81c-.28-.22-.3-.45,0-.68.44.22.52.44,0,.68m4.29-1.56c.28-.17.47,0,.67.16,0,.28-.14.57-.48.5s-.23-.41-.19-.66m.82,1.93c-.57.1-.71-.21-.65-.7.23-.15.45-.21.67,0,0,.23,0,.46,0,.69m.92-6.45c-.19,0-.34-.14-.31-.35a.32.32,0,0,1,.35-.31.31.31,0,0,1,.3.35.3.3,0,0,1-.34.31"/><path class="cls-3" d="M29.94,42.76c-.11.14-.22.28-.31.41a.67.67,0,0,1,.18.11c.28.25.07.46-.08.67h-.47l-.05-.07a4.21,4.21,0,0,0-.08,3.61,13.15,13.15,0,0,0,1.35,2.28,6.87,6.87,0,0,1,1.29,4.38,8.61,8.61,0,0,1-.95,3.39,1,1,0,0,0-.05.34A7.8,7.8,0,0,0,32.1,57a7.52,7.52,0,0,0,2.1-2.62,6.27,6.27,0,0,0-.33-5.3,16.83,16.83,0,0,0-1-1.8l-.13.16h0c-1.3.16-1.72-.27-1.43-1.43a1,1,0,0,1,.75-.52,2.33,2.33,0,0,1,.1-1,4.9,4.9,0,0,1,1.31-1.8,7.54,7.54,0,0,0,1.86-2.56,4.22,4.22,0,0,0-.46-3.94,1.82,1.82,0,0,1-.11-.28l-.22.13c0,.23,0,.46,0,.69A4.75,4.75,0,0,1,34,39.41a5.61,5.61,0,0,1-2,1.78,7.57,7.57,0,0,0-2,1.57"/></g></g></svg>