<svg xmlns="http://www.w3.org/2000/svg" viewBox="0 0 801.23 223.22"><defs><style>.cls-1{fill:#0a4c9a;}.cls-2{fill:#e41a25;}</style></defs><title>Asset 5</title><g id="Layer_2" data-name="Layer 2"><g id="Menú"><path class="cls-1" d="M21.68,179.57c3.39-3.74,6.68-7.37,10-11,4.72-5.19,9.41-10.41,14.21-15.52,1.13-1.2,1.13-2.1.49-3.56-2.29-5.15-4.34-10.4-6.59-15.58a2.65,2.65,0,0,0-1.8-1.37c-3.79-.35-7.6-.56-11.41-.73-7.61-.34-15.23-.67-22.85-.89-1.68,0-2.46-.63-2.71-2.26a86.58,86.58,0,0,1,0-26.21c.22-1.37.75-2.08,2.36-2.1,7.35-.14,14.7-.45,22.05-.64q21.75-.56,43.5-1.06a11.63,11.63,0,0,1,1.35.12c-4.31,10.58-4.73,21.12-.61,31.68a39.79,39.79,0,0,0,15.1,18.82A40.75,40.75,0,0,0,130.8,149a40.25,40.25,0,0,0,16.12-22.67,40.69,40.69,0,0,0-2-27.58c1.36,0,2.49,0,3.61,0,5.45.13,10.89.29,16.34.42l42.89.94c.89,0,1.77.1,2.65.16,4.33.28,3.38-.29,4.07,3.93a74,74,0,0,1-.29,24.57,2.14,2.14,0,0,1-2.4,2.11c-10.34.4-20.67.86-31,1.27-4.85.2-4.77.21-6.53,4.7s-3.57,8.82-5.57,13.13a2.3,2.3,0,0,0,.52,3c7.56,8.23,15,16.53,22.63,24.72,1.33,1.43,1.38,2.34.24,3.9a82.09,82.09,0,0,1-18.32,18.23c-1.39,1-2.18.88-3.42-.26C162,192,153.67,184.46,145.4,176.85c-1.1-1-1.87-.93-3.19-.34q-7.89,3.53-16,6.64c-1.41.54-2.06,1-2.11,2.63-.34,11.36-.82,22.72-1.18,34.08,0,1.48-.69,2-2,2.23a78.86,78.86,0,0,1-26.59,0c-1.3-.22-1.89-.74-1.95-2.08-.15-3.6-.45-7.2-.61-10.8-.33-7.55-.66-15.1-.88-22.65a3.6,3.6,0,0,0-2.74-3.83c-5.34-2-10.58-4.27-15.79-6.59-1.28-.57-1.88,0-2.64.67-8.31,7.57-16.65,15.11-24.9,22.74-1.32,1.23-2.18,1.23-3.59.21A77.66,77.66,0,0,1,21.68,179.57Z"/><path class="cls-2" d="M461,200.55H449.05c-4.07,0-4.07,0-4.07-4.1V122.26c-.94.87-1.5,1.36-2,1.89q-15.18,15.16-30.33,30.36a5.64,5.64,0,0,1-3.57,1.5c-5.07.76-8.55-1.31-12-5-8.65-9.15-17.73-17.9-26.65-26.81-.55-.55-1.14-1.08-2-1.93v78H352.13V104c0-3.69,1.34-5,5.06-5,3,0,6,.07,9,0a4.37,4.37,0,0,1,3.56,1.5q17.46,17.79,35,35.51a17,17,0,0,1,1.5,2.12c1-1,1.62-1.51,2.19-2.08q17.52-17.74,35-35.51a4.61,4.61,0,0,1,3.75-1.53c3.2.1,6.4,0,9.6,0,2.74.06,4.27,1.53,4.27,4.14q0,48.13,0,96.26C461.07,199.59,461,199.86,461,200.55Z"/><path class="cls-2" d="M580.79,200.41h-15.9V122.86l-.5-.21c-.56.53-1.15,1-1.69,1.58q-15,15-29.9,29.94a6.63,6.63,0,0,1-4.25,1.86c-4.87.67-8.16-1.31-11.46-4.78-8.77-9.23-17.94-18.09-27-27.1-.52-.52-1.05-1-2-1.9v78.13H471.93V104.2c0-4,1.29-5.28,5.25-5.29,2.86,0,5.73.08,8.58,0a4.76,4.76,0,0,1,3.93,1.61c11.59,11.82,23.25,23.58,34.86,35.38a19.1,19.1,0,0,1,1.55,2.1c1-.92,1.58-1.46,2.15-2q17.52-17.73,35-35.5A4.6,4.6,0,0,1,567,98.87c3.2.11,6.41,0,9.61,0,2.84.06,4.26,1.52,4.26,4.33q0,47.83,0,95.66C580.88,199.31,580.84,199.72,580.79,200.41Z"/><path class="cls-2" d="M697.41,142.38v58H681.24V111.43c0-6.84,3.77-11.19,10.62-12.15a36,36,0,0,1,5.08-.36c16,0,32-.11,48,.07a24.16,24.16,0,0,1,8.84,2c3.92,1.65,5.9,4.82,5.89,9.36q-.13,43.84,0,87.67c0,2.06-.53,2.71-2.62,2.62-3.74-.17-7.49-.13-11.24,0-1.73,0-2.16-.56-2.15-2.22.05-17.71,0-35.42,0-53.13,0-2.86,0-2.86-2.87-2.86H697.41Zm0-15.41a7.89,7.89,0,0,0,1.3.25q21.64,0,43.29,0c1.37,0,1.79-.59,1.71-1.86s0-2.45,0-3.67c0-5.25-2.07-7.37-7.24-7.37q-15.93,0-31.86,0a15.57,15.57,0,0,0-2.64.2,5.32,5.32,0,0,0-4.51,4.64C697.28,121.76,697.42,124.35,697.42,127Z"/><path class="cls-2" d="M592.77,184.63h2.76c18.59,0,37.19,0,55.78,0,2,0,2.68-.44,2.66-2.59-.11-12.26-.06-24.52-.06-36.78v-2.56h-49.5a24.61,24.61,0,0,1-2.85-.13c-5.71-.71-8.45-3.39-8.6-9.19-.22-8.16-.26-16.34,0-24.5.19-7.1,3.45-10,10.6-10q20.54,0,41.08,0h20.74V115H663c-16.76-.11-33.51-.17-50.27-.39-2.38,0-3.64.92-4.14,3a13,13,0,0,0-.42,4.78c.61,3.94,1.56,4.6,5.49,4.57q22.17-.15,44.34-.29c7.54,0,12,4.43,12,12.05q0,23,0,46c0,2.79,0,5.59,0,8.38-.11,4.86-2.82,7.48-7.66,7.48h-67c-2.67,0-2.67,0-2.68-2.67q0-5.41,0-10.83C592.62,186.32,592.71,185.58,592.77,184.63Z"/><path class="cls-2" d="M236,200.55v-2.49q0-47,0-94c0-3.87,1.23-5.12,5.12-5.12q29.85,0,59.69,0c8.41,0,13.89,5.55,13.9,14,0,5.45,0,10.9,0,16.35a12.81,12.81,0,0,1-13.12,13.21c-15.6,0-31.2,0-46.8,0-2.7,0-2.7,0-2.7,2.65,0,17.65,0,35.3,0,52.94,0,1.93-.48,2.6-2.48,2.54C245.21,200.45,240.78,200.55,236,200.55ZM252.21,113V127.3a2.86,2.86,0,0,0,.7.2c13.41,0,26.83,0,40.25-.08a7.21,7.21,0,0,0,6-9.88,6.93,6.93,0,0,0-6.8-4.59q-19.2,0-38.42,0C253.41,113,252.88,113,252.21,113Z"/><path class="cls-2" d="M103,145.78c-6.9-1.32-13-4.05-17.87-9.14-8.2-8.55-13-26.86-.66-39.2C87.9,94,91.69,91,95.27,87.76a85,85,0,0,0,7.54-7.14C112.08,69.86,112.68,58,107,45.41c-1.18-2.57-2.63-5-4.09-7.77.61.33,1,.5,1.39.75,11.89,8,19.55,18.9,21.43,33.23,1.39,10.56-1.19,20.16-9,27.91-3.33,3.31-6.72,6.57-10,9.91-1.91,1.94-3.78,3.92-5.52,6-4.73,5.72-5.9,12.15-3.22,19.09C99.37,138.27,101.22,141.84,103,145.78Z"/><path class="cls-2" d="M340.82,98.91V200.39c-.95.05-1.86.15-2.78.15-3.82,0-7.63,0-11.44,0-1.45,0-1.84-.48-1.84-1.89q0-48.93,0-97.87c0-.83-.29-1.91,1.14-1.91Z"/><path class="cls-2" d="M131,79.56c1.4,4.51,3,9,4.16,13.55a73.22,73.22,0,0,1,2.54,23.2A36.36,36.36,0,0,1,134,131a23.6,23.6,0,0,1-16.11,12.7,8.92,8.92,0,0,1-7-1.18c-9-5.43-9.86-18.5-1.86-25.81a105.8,105.8,0,0,0,9.68-9.61A49.48,49.48,0,0,0,130.18,81a12.69,12.69,0,0,1,.34-1.35Z"/><path class="cls-2" d="M89.9,82.54c2.35-5.14,4-10.05,4-15.43,0-6.5-2.6-12-6.44-17A21.73,21.73,0,0,1,82.7,39.83C81.64,32.13,84.78,26.33,91,22c1.45-1,3-1.89,4.51-2.79,6.47-3.81,9.25-9.51,8.71-16.93,0-.74-.09-1.48-.14-2.3,3.21,3.06,4.52,9,3.13,13.83-1.22,4.26-3.85,7.6-6.95,10.64a40.34,40.34,0,0,0-3.9,4.16A9.75,9.75,0,0,0,96,40.41c3.18,4.86,5.94,9.9,7.35,15.6a20.05,20.05,0,0,1-5.28,19.75C96,78,93.45,79.92,91.09,82A6.36,6.36,0,0,1,89.9,82.54Z"/><path class="cls-2" d="M757.63,84.61a21.8,21.8,0,1,1,21.72,21.82A21.62,21.62,0,0,1,757.63,84.61Zm41.5-.63a19.64,19.64,0,0,0-20.37-19.11c-11.09.36-19.82,9.95-19.15,20.58.69,10.93,10,19.6,20.42,18.91C791.27,103.62,799.76,94.56,799.13,84Z"/><path class="cls-2" d="M504.85,213.74c-1.25.92-1.9,1.75-2.67,1.89-1.21.21-2.27-.6-2-1.86a3.11,3.11,0,0,1,2-1.92C502.77,211.74,503.58,212.79,504.85,213.74Z"/><path class="cls-2" d="M770.05,72.56c4.88,0,9.63-.26,14.34.08,3.23.24,4.87,2.47,5.12,5.63a6.07,6.07,0,0,1-4.22,6.66c-.74.28-1.5.51-1.79.61l8,11c-3.2.88-3.58.73-5.1-1.63-1.06-1.67-2.1-3.34-3.22-5-2.86-4.15-4.05-4.61-10.22-3.87V96.87h-3ZM773,83.47c3.63-.18,7-.17,10.34-.59A4,4,0,0,0,783,75c-3-.29-6-.26-8.94-.26a1.52,1.52,0,0,0-1,1.1C772.9,78.22,773,80.65,773,83.47Z"/></g></g></svg>