<svg xmlns="http://www.w3.org/2000/svg" viewBox="0 0 50.08 70"><defs><style>.cls-1{fill:#fff;}.cls-2{fill:#333;}</style></defs><title>Asset 8</title><g id="Layer_2" data-name="Layer 2"><g id="Contenido"><path class="cls-2" d="M44.57,70H5.51a.81.81,0,0,1-.81-.81v-18L.12,43.69a.83.83,0,0,1,0-.82.81.81,0,0,1,.71-.41H27.42a.81.81,0,0,1,.72.43l3.29,6.29,3.33-6.29a.79.79,0,0,1,.71-.43h13.8a.79.79,0,0,1,.7.41.8.8,0,0,1,0,.82l-4.58,7.46v18A.81.81,0,0,1,44.57,70ZM6.32,68.38H43.76V50.92a.76.76,0,0,1,.12-.42l3.94-6.42H36L32.14,51.3a.83.83,0,0,1-.72.43h0a.8.8,0,0,1-.71-.43l-3.78-7.22H2.26L6.2,50.5a.86.86,0,0,1,.12.42Z"/><path class="cls-2" d="M44.57,51.73H5.51a.81.81,0,1,1,0-1.62H44.57a.81.81,0,1,1,0,1.62Z"/><path class="cls-2" d="M31.42,70a.82.82,0,0,1-.81-.81V50.92a.81.81,0,0,1,1.62,0V69.19A.81.81,0,0,1,31.42,70Z"/><path class="cls-2" d="M31.73,12.89l-.86-2.05s2-4.52,1.82-4.7L30,3.55c-.19-.18-4.72,1.88-4.72,1.88l-2.09-.84S21.39,0,21.13,0H17.38c-.26,0-2,4.6-2,4.6l-2.08.85s-4.63-2-4.8-1.79L5.87,6.26c-.18.17,1.93,4.61,1.93,4.61l-.86,2.05S2.25,14.72,2.25,15v3.67c0,.26,4.7,1.93,4.7,1.93l.86,2.05s-2,4.52-1.83,4.7l2.66,2.6c.18.18,4.71-1.89,4.71-1.89l2.09.84s1.85,4.59,2.1,4.59h3.75c.26,0,2-4.6,2-4.6L25.35,28s4.62,2,4.8,1.8l2.66-2.6c.18-.18-1.94-4.62-1.94-4.62l.86-2s4.7-1.81,4.7-2.06V14.82C36.43,14.56,31.73,12.89,31.73,12.89Zm-12.39,9.2a5.36,5.36,0,1,1,5.48-5.36A5.43,5.43,0,0,1,19.34,22.09Z"/><path class="cls-1" d="M44.75,26.87l-.4-1.51a25.64,25.64,0,0,0,1.74-3.1l-1.6-2.07A26.26,26.26,0,0,0,41,21l-1.37-.8a25.16,25.16,0,0,0-1-3.4L36,16.47a24.45,24.45,0,0,0-1.83,3l-1.53.38a26.55,26.55,0,0,0-3.17-1.72l-2.11,1.54a25.39,25.39,0,0,0,.89,3.41l-.81,1.34a27.75,27.75,0,0,0-3.47,1L23.64,28a25.86,25.86,0,0,0,3.08,1.82l.4,1.5a27.07,27.07,0,0,0-1.74,3.1L27,36.44a26.26,26.26,0,0,0,3.47-.85l1.38.8a25.16,25.16,0,0,0,1,3.4l2.61.37a24.45,24.45,0,0,0,1.83-3l1.54-.38A27.94,27.94,0,0,0,42,38.5L44.08,37a25.39,25.39,0,0,0-.89-3.41L44,32.2a25.79,25.79,0,0,0,3.47-1l.37-2.56A27.07,27.07,0,0,0,44.75,26.87ZM35.2,32.05a3.77,3.77,0,1,1,4.35-3.19A3.82,3.82,0,0,1,35.2,32.05Z"/><path class="cls-2" d="M35.55,41l-.23,0-2.61-.37c-.56-.08-.71-.1-1.6-3.67l-.77-.45c-3.57,1-3.66.92-4,.46l-1.59-2.07c-.35-.46-.44-.58,1.51-3.72L26,30.32c-3.29-1.74-3.27-1.9-3.19-2.48l.36-2.56c.09-.58.1-.71,3.76-1.56L27.4,23c-1.09-3.51-1-3.6-.48-3.95L29,17.48c.45-.33.57-.41,3.78,1.51l.86-.21c1.76-3.22,1.92-3.19,2.49-3.11l2.61.37c.56.08.71.1,1.6,3.68l.77.44c3.56-1,3.65-.92,4-.46l1.6,2.07c.35.46.44.58-1.51,3.72l.22.83c3.3,1.74,3.27,1.89,3.19,2.47l-.37,2.56c-.08.56-.1.71-3.75,1.56l-.44.74c1.09,3.51,1,3.6.49,4l-2.11,1.55c-.46.33-.57.41-3.77-1.51l-.87.21C36.3,40.61,36,41,35.55,41Zm-2.17-1.94,1.72.25c.33-.52.95-1.6,1.45-2.53l.17-.32,2.22-.55.29.18c.94.57,2.07,1.22,2.62,1.5l1.37-1c-.14-.59-.49-1.78-.8-2.79l-.11-.34,1.16-1.95.34-.08c1.07-.25,2.32-.56,2.92-.74L47,29c-.53-.32-1.64-.93-2.59-1.43l-.32-.17-.57-2.2.18-.29c.57-.91,1.22-2,1.51-2.54l-1-1.35c-.6.13-1.83.47-2.88.78l-.33.09-2-1.14-.08-.33c-.26-1.05-.59-2.28-.78-2.86l-1.72-.25c-.33.52-.95,1.6-1.45,2.53l-.17.32-2.21.55-.29-.18c-.95-.57-2.08-1.22-2.63-1.5l-1.37,1c.14.6.49,1.78.8,2.79l.11.35L28,25.14l-.33.08c-1.07.25-2.32.56-2.92.74l-.23,1.65c.53.32,1.63.94,2.59,1.44l.32.16.57,2.2-.18.29c-.57.91-1.22,2-1.51,2.54l1,1.35c.6-.13,1.83-.47,2.87-.78l.34-.09,2,1.14.08.33C32.86,37.24,33.19,38.47,33.38,39.05Zm-5.77-3.11h0ZM47,28.56h0ZM27.88,20.33h0ZM30,18.79ZM35.76,32.9a5.16,5.16,0,0,1-.67,0h0A4.65,4.65,0,0,1,32,31.06a4.44,4.44,0,0,1-.9-3.4,4.66,4.66,0,1,1,4.64,5.24Zm0-7.55a2.94,2.94,0,0,0-2.41,4.73,3.11,3.11,0,0,0,2,1.17h0a3,3,0,1,0,.83-5.87Z"/></g></g></svg>