<svg xmlns="http://www.w3.org/2000/svg" viewBox="0 0 71.69 70.23"><defs><style>.cls-1{fill:#333;}</style></defs><title>Asset 7</title><g id="Layer_2" data-name="Layer 2"><g id="Contenido"><path class="cls-1" d="M39.83,70.23H32.19c-.77,0-1.2,0-5.07-9.58l-3.45-1.4c-9.49,4.31-9.8,4-10.35,3.47l-5.41-5.3c-.57-.57-.85-.85,3.33-10.32L9.83,43.76C0,40.24,0,39.8,0,39V31.52c0-.78,0-1.18,9.8-5l1.42-3.35C6.8,13.9,7.1,13.61,7.7,13l5.4-5.29c.54-.53.84-.82,10.51,3.27l3.44-1.39C30.64,0,31.08,0,31.86,0h7.65c.77,0,1.19,0,5.06,9.59L48,11c9.48-4.32,9.79-4,10.34-3.47l5.42,5.29c.57.55.87.84-3.33,10.32l1.41,3.35c9.84,3.51,9.83,3.92,9.83,4.74V38.7c0,.79,0,1.19-9.81,5L60.47,47c4.43,9.3,4.11,9.61,3.54,10.17l-5.42,5.29c-.54.53-.84.82-10.49-3.28l-3.46,1.4C41.06,70.23,40.62,70.23,39.83,70.23Zm-7.16-2h6.66c.64-1.18,2.23-5.14,3.55-8.71a1,1,0,0,1,.58-.59l4.26-1.73a1,1,0,0,1,.79,0c3.62,1.54,7.7,3.17,9,3.53l4.7-4.6c-.41-1.29-2.14-5.17-3.78-8.6a1,1,0,0,1,0-.83l1.76-4.18a1,1,0,0,1,.57-.55c3.66-1.41,7.71-3.09,8.91-3.74V31.73c-1.21-.63-5.25-2.18-8.89-3.47a1,1,0,0,1-.6-.57L58.4,23.52a1,1,0,0,1,0-.82c1.55-3.51,3.2-7.49,3.58-8.78l-4.7-4.6C56,9.71,52,11.41,48.47,13a1,1,0,0,1-.81,0L43.4,11.32a1,1,0,0,1-.56-.56C41.4,7.17,39.68,3.2,39,2H32.36c-.63,1.18-2.22,5.14-3.55,8.71a1.05,1.05,0,0,1-.57.6L24,13.07a1,1,0,0,1-.78,0c-3.62-1.54-7.72-3.17-9-3.52l-4.69,4.6c.41,1.29,2.14,5.17,3.77,8.6a1,1,0,0,1,0,.83l-1.76,4.17a1,1,0,0,1-.58.56C7.29,29.71,3.24,31.38,2,32v6.48c1.21.62,5.26,2.18,8.9,3.48a1,1,0,0,1,.6.56l1.76,4.16a1,1,0,0,1,0,.82C11.73,51,10.08,55,9.7,56.31l4.7,4.6c1.29-.39,5.29-2.09,8.82-3.7a1,1,0,0,1,.81,0l4.26,1.73a1,1,0,0,1,.56.56C30.29,63.06,32,67,32.67,68.19ZM14.75,61.26ZM69.94,31.9h0Zm-.29-.69h0ZM9.13,14.49h0Zm53.22-.22ZM14.53,9.2ZM35.85,47.06A11.95,11.95,0,1,1,48,35.11,12.09,12.09,0,0,1,35.85,47.06Zm0-21.85A9.91,9.91,0,1,0,46,35.11,10,10,0,0,0,35.85,25.21Z"/><path class="cls-1" d="M44,23.61a1,1,0,0,1-.75-.33l-3.3-3.61a1,1,0,0,1-.25-.87,1,1,0,0,1,.53-.73l3.09-1.59-5.58-2a1,1,0,0,1-.14-1.85L43.3,9.48a1,1,0,0,1,1,1.79l-3.75,2,5.65,2a1,1,0,0,1,.12,1.87l-4,2,2.4,2.63a1,1,0,0,1-.07,1.45A1.06,1.06,0,0,1,44,23.61Z"/><path class="cls-1" d="M23.64,59.16a1,1,0,0,1-.42-1.95l1.56-.72-4.35-.89a1,1,0,0,1-.79-.8,1,1,0,0,1,.41-1L24,51l-3.63-5.18A1,1,0,1,1,22,44.66l4.22,6a1,1,0,0,1,.17.76,1,1,0,0,1-.42.66l-2.82,2,5.07,1a1,1,0,0,1,.22,1.93l-4.4,2A1,1,0,0,1,23.64,59.16Z"/></g></g></svg>